<svg id="Layer_1" data-name="Layer 1" xmlns="http://www.w3.org/2000/svg" viewBox="0 0 250 250"><defs><style>.cls-1{fill:#f79537}.cls-2,.cls-3{fill:none}.cls-2{stroke:#f79537;stroke-width:5px}.cls-2,.cls-3,.cls-4{stroke-miterlimit:10}.cls-3{stroke:#313333;stroke-width:4px}.cls-4{fill:#313333;stroke:#fff;stroke-width:1.4px}</style></defs><title>new icons</title><path class="cls-1" d="M128.4 142.9a5.3 5.3 0 0 0-5.3-5.3 5.3 5.3 0 1 0 0 10.7 5.3 5.3 0 0 0 5.3-5.4z"/><path class="cls-2" d="M188.5 116c-2.4-7.9-8.7-12.3-17.9-13.5-1.6-.2-3.8-.8-4.4-1.8-6-9.3-15-14-26.8-14.5A4.7 4.7 0 0 1 136 84a30.5 30.5 0 0 0-29.7-15.4c-13.8 1.6-23.9 10-26.2 22-.4 2.2-1.3 3.2-3.5 4-9.2 3.3-15 9.4-16.2 18.1-2 15 9.5 26.3 26.6 26.4h17.7v-.1l.2-7.1v-5.7a7.3 7.3 0 0 1 3.8-.8h.8a10.1 10.1 0 0 1 1.6 0h.5c.3 0 .4-.3.4-.7v-4a.7.7 0 0 1 0-.4 20.7 20.7 0 0 1 .7-4.3v-.2a11.2 11.2 0 0 1 6.4-6.4h.1l.3-.2a11 11 0 0 1 3-.6h1.6a11 11 0 0 1 3 .6l.2.1h.2a11.2 11.2 0 0 1 6.3 6.5v.2a20.7 20.7 0 0 1 .8 4.3.7.7 0 0 1 0 .4v4c0 .4 0 .6.3.7h.6a10.1 10.1 0 0 1 1.5 0h.3c1.2.1 2.2-.4 2.9.4l.2.2.1.2.1.2.1.1.1.3a5.2 5.2 0 0 1 .5 2.2v10.1h26c5.4 0 10.4-1.2 14.5-4.3 6.6-5 9-11.6 6.6-19z"/><circle class="cls-3" cx="124.5" cy="118.5" r="78.5"/><path class="cls-4" d="M123.6 160.4h-15.2a9 9 0 0 1-2.7-.4 3.8 3.8 0 0 1-2.6-3.7V128c0-2.5 1.7-4.2 4.4-4.3h2.1c1 0 1.5-.5 1.5-1.4v-3.6a10.4 10.4 0 0 1 5-9.3 13.6 13.6 0 0 1 17.1 1.7 9.9 9.9 0 0 1 3 7.3v3.8c0 1 .5 1.4 1.5 1.4a19.3 19.3 0 0 1 2.8.2 4 4 0 0 1 3.7 4.4V156a4.2 4.2 0 0 1-3.7 4.3 11 11 0 0 1-1.8.2zm0-33.5h-15c-1.2 0-1.5.4-1.5 1.6v27c0 1.1.3 1.5 1.4 1.6h30.1c1.2 0 1.6-.4 1.6-1.6v-26.8c0-1.4-.4-1.8-1.8-1.8zm0-3.3h7.2c1.3 0 1.7-.5 1.7-1.7v-3.5a7.8 7.8 0 0 0-1.8-5 9.5 9.5 0 0 0-10.5-2.6 8 8 0 0 0-5.5 8v3.1c0 1.3.4 1.7 1.7 1.7z"/><path class="cls-3" d="M183.1 64.3L72.3 175.2"/></svg>