<svg id="Layer_1" data-name="Layer 1" xmlns="http://www.w3.org/2000/svg" viewBox="0 0 250 250"><defs><style>.cls-1{fill:#313333;}.cls-2,.cls-4{fill:none;stroke-miterlimit:10;}.cls-2{stroke:#f89537;stroke-width:3px;}.cls-3{fill:#626364;}.cls-4{stroke:#f79537;stroke-width:4px;}</style></defs><title>new icons</title><path class="cls-1" d="M20,121.28c3.86,0,3.87-6,0-6s-3.87,6,0,6Z"/><path class="cls-1" d="M20,133.91c3.86,0,3.87-6,0-6s-3.87,6,0,6Z"/><path class="cls-1" d="M20,146.55c3.86,0,3.87-6,0-6s-3.87,6,0,6Z"/><polyline class="cls-2" points="58.23 124.58 40.42 124.61 40.41 118.24 25.02 118.26"/><polyline class="cls-2" points="57.51 137 40.44 137.03 40.45 143.39 25.06 143.42"/><line class="cls-2" x1="57.5" y1="130.63" x2="25.04" y2="130.68"/><path class="cls-3" d="M189.13,160.06a5.08,5.08,0,0,1-.38-2.06,1.81,1.81,0,0,1-.43.2,8.37,8.37,0,0,1-2.74,0,1.26,1.26,0,0,1-.86-.46,4.46,4.46,0,0,0-1.17-1.18,4.07,4.07,0,0,1-.41.39,5.16,5.16,0,0,1-.05,3.22,16.46,16.46,0,0,1,1,1.87c.55,0,1.1.06,1.65.07,1.29,0,2.58,0,3.87,0A5.06,5.06,0,0,1,189.13,160.06Z"/><path class="cls-1" d="M224.61,122.87c.07.54,0,.77-.35,1a4.82,4.82,0,0,1,.53,1.67c0,.18,0,.34,0,.51a4.1,4.1,0,0,1,2,1.08,4.89,4.89,0,0,1,2,1.69,42.54,42.54,0,0,0-1.29-11.2c-4.57-16.9-19.81-26.9-37.1-24.33-3.33.49-4,.1-4.94-3.09a45.19,45.19,0,0,0-6-12.85c-4.6-6.57-10.67-11-18.7-12.28a42.68,42.68,0,0,0-14.91.35,16.64,16.64,0,0,0-11.08,7,48.58,48.58,0,0,0-4.35,8,4.49,4.49,0,0,1-4.55,3.12,39.79,39.79,0,0,0-4.43.25c-10.76,1.22-19.39,6.13-25.61,15a6.87,6.87,0,0,1-7.13,3.08,25.21,25.21,0,0,0-9.29.45c-12.1,2.92-19.08,10.81-21.84,22.72-.36,1.54-.54,3.11-.8,4.67v4.56q.38,2.22.75,4.43a27.84,27.84,0,0,0,27.88,23.58q16,0,32,0,12.45,0,24.89-.08a4.52,4.52,0,0,1,.42-1.07,4.15,4.15,0,0,1,1.45-1.45l.26-1.1a4.58,4.58,0,0,1-.77-.08,4.34,4.34,0,0,1-.7-.19h-11.6v.22c-10.35,0-20.71,0-31.06,0q-8,0-15.95-.2a23.46,23.46,0,0,1-22.39-17.58c-2.48-8.86-1.65-17.38,3.69-25.09a22.76,22.76,0,0,1,17.73-10,41.52,41.52,0,0,1,6.1.08c4,.28,6.95-1.37,9.35-4.5a47.32,47.32,0,0,1,5.94-6.54,29.06,29.06,0,0,1,16.73-7c2-.21,4.07-.24,6.09-.49a7.12,7.12,0,0,0,5.94-4.43,66.82,66.82,0,0,1,3.64-7.13c2.46-4,6.25-6.07,10.85-6.66s9.32-.87,13.93.32c7.12,1.84,12.25,6.32,15.7,12.63A83,83,0,0,1,182,92.27c1.13,3,3,4.92,6.27,5a25.32,25.32,0,0,0,4-.41A28.26,28.26,0,0,1,221,111.66,32.51,32.51,0,0,1,224.61,122.87Z"/><path class="cls-4" d="M229.41,129.83c.66,1.83-.71,2.94-1.61,4.12-.63.83-.84,1.45-.18,2.29a2.46,2.46,0,0,1,.47,1c.4,2.12,1.66,2.91,3.8,2.89,1.69,0,2.57,1.07,2.52,2.84,0,1.38,0,2.76,0,4.14,0,2.21-.53,2.95-2.66,3-1.8.07-2.94.62-3.23,2.49a2,2,0,0,1-.34.87c-1.12,1.5-.73,2.72.39,4.09,1.53,1.89,1.39,2.57-.33,4.32-.88.9-1.77,1.78-2.66,2.67-1.18,1.17-2.38,1.51-3.79.3-.69-.6-1.64-1.55-2.29-1.42a19.83,19.83,0,0,0-4.67,1.88c-.29.14-.34.88-.4,1.36-.46,3.51-.66,3.69-4.26,3.7-1,0-2,0-3,0-1.8,0-2.8-.73-2.95-2.62-.07-.88-.13-2.16-.69-2.54a13.22,13.22,0,0,0-4.28-1.78c-.49-.12-1.26.68-1.82,1.15-1.79,1.5-2.66,1.49-4.33-.16-1-1-2-1.93-2.93-2.93-1.38-1.42-1.52-2.49-.08-3.88s1.57-2.53.56-4.07a3.42,3.42,0,0,1-.56-1.38c-.16-1.28-1-1.51-2.07-1.62-3.58-.35-3.76-.58-3.77-4.11,0-.38,0-.75,0-1.13,0-3.31-.69-4.89,4.37-5.2.46,0,1-.58,1.29-1s.34-.95.6-1.37c1.11-1.79,1.23-3.3-.57-4.87-1.23-1.07-1.23-2.51.12-3.76,1.15-1.07,2.23-2.21,3.33-3.32s2.39-1.1,3.64-.06a4.77,4.77,0,0,0,6.56.08,3,3,0,0,0,.62-1.84c.38-3.41.81-3.82,4.2-3.82h.75c4.65,0,4.62,0,5.54,4.64.09.48.65.92,1.09,1.26s.85.25,1.21.48a2.86,2.86,0,0,0,4.22-.53,3.07,3.07,0,0,1,3.39-1Zm-26.4,9.4a9,9,0,0,0,0,12.65,9,9,0,1,0,12.82-12.74A8.94,8.94,0,0,0,203,139.23Z"/><path class="cls-4" d="M147.43,175.77a12.32,12.32,0,0,1,.75-2.92c1.07-2-.59-5.16-2.88-5.19-1.8,0-2.85-.77-3-2.63,0-.81-.14-1.62-.19-2.44-.14-2.19.3-2.78,2.41-3.27a3.68,3.68,0,0,0,1.72-6c-1.14-1.19-1.32-2.35-.19-3.63.45-.52.81-1.12,1.27-1.63,2-2.23,2.24-2.26,4.87-.69,1.71,1,4.8-.65,4.86-2.63.08-2.53.61-3.08,3.22-3.33.62-.06,1.24-.16,1.87-.2,2.16-.13,2.77.34,3.24,2.46a3.24,3.24,0,0,0,5.44,1.73c1.69-1.46,2.71-1.44,4.41.1.47.42.89.89,1.39,1.27,1.5,1.13,1.81,2.34.68,4-1.39,2.06.4,5.18,2.94,5.25,1.77,0,2.67.85,2.76,2.6,0,.19,0,.37.07.56.51,4.33.44,4.43-3.75,5.56a9.15,9.15,0,0,1-.41,1.6c-.76,1.69-1.05,3.28.66,4.61a.9.9,0,0,1,.31.47c.58,2.56-1.68,3.55-2.88,5.1a1.92,1.92,0,0,1-3,.27c-1.28-1.09-2.35-.68-3.67,0s-2.42,1.22-2.09,3a1.32,1.32,0,0,1-.13.73c-1.17,2.63-3.69,1.52-5.62,1.91a2,2,0,0,1-2.42-2c-.11-1.76-1.22-2.09-2.59-2.56s-2.34-.49-3.39.7-2.29,1.09-3.47,0a8.62,8.62,0,0,0-1.38-.89Zm20.51-19a7.38,7.38,0,0,0-10.47,0A7.43,7.43,0,0,0,168,167.3,7.4,7.4,0,0,0,167.93,156.82Z"/><path class="cls-4" d="M183.1,123.47a18.88,18.88,0,0,0-1.11,2.6,2.33,2.33,0,0,0,.24,1.63c1.05,1.78.92,2.36-1,4.33-1.21,1.23-2.36,1.73-3.91.48-1.16-.94-4.08.29-4.37,1.8-.39,2-1.77,2.27-3.49,2.25s-3.08-.33-3.35-2.41c-.19-1.46-2.8-2.6-4.07-1.89-2.15,1.2-2.49,1.08-4.59-1-1.33-1.34-1.19-2.59-.16-4,.79-1.09-.43-3.76-1.77-4-2.16-.45-2.47-.89-2.46-3.43s.31-3,2.45-3.45c1.74-.35,2.84-3,1.84-4.36s-.95-2.49.64-4.07c1.8-1.78,2.59-1.92,4.18-.74a2.9,2.9,0,0,0,4.41-1.62c.43-2.12.91-2.38,3.67-2.43,1.86,0,3,.58,3.2,2.57.2,1.71,2.68,2.68,4.09,1.71,1.78-1.22,2.43-1.1,4.3.81,1.54,1.58,1.65,2.47.47,4.08-.74,1,.13,3.82,1.3,4.16,2.88.84,3,1.14,2.88,4.42C186.36,123.13,184.75,123.29,183.1,123.47ZM174,115.75a6,6,0,0,0-8.4-.08,6.12,6.12,0,0,0-.08,8.61,6.19,6.19,0,0,0,8.62-.1A6,6,0,0,0,174,115.75Z"/></svg>