<svg id="Layer_1" data-name="Layer 1" xmlns="http://www.w3.org/2000/svg" viewBox="0 0 1915 880"><title>clouds bgrd</title><g opacity="0.26"><path d="M838.66,614.67h-1.9c-1-1.59-2.82-1.18-4.22-1.52-13.56-3.3-23.73-11-31-22.85-3.16-5.13-4.06-11.09-6.52-16.45V556.76c1-.29.92-1.15,1.09-1.89A48.86,48.86,0,0,1,847,517c3.23.24,3.46-1.44,4-3.77,4.48-20.29,16-35.24,34.09-45.44,6.91-3.9,14.68-5.12,22-7.83H927c1.15,1.69,3.12,1.18,4.68,1.59A74.05,74.05,0,0,1,947.21,467c17.24,9,28.8,22.77,34.28,41.53.7,2.41.8,4.53,4.82,3.11,31.85-11.27,64.17,7.39,70.46,40.58.6,3.18,1.69,3.89,4.76,4.06,12.13.66,21.73,8.29,25.69,19.9.28.82-.08,2,1.12,2.38v13.29c-1.53,1.3-1.55,3.33-2.35,5-4.35,9.07-11,15.16-21.14,17-.79,0-1.58-.15-2.36-.15q-109.68,0-219.34,0C841.61,613.74,840,613.4,838.66,614.67Z" fill="#bfd7d8"/><path d="M1086.47,614.59q-33.45,0-66.89,0c-12.84,0-22.64-6.05-26.94-16.5-5.15-12.55-2.57-28.6,6-36.79a25.88,25.88,0,0,1,17.51-7.42c4-.11,4.46-1.62,4.6-5,.43-11,3.46-21.13,11-29.54a35.59,35.59,0,0,1,21.79-11.44c12-1.82,23.71-1.1,34.09,6.17,3.38,2.37,6.39,5.29,7.88,9.28,1.33,3.59,2.5,3.32,5,.7,11.66-12.34,28.55-13.42,41.4-2.94,8.39,6.85,9.65,15.86,7.72,25.75-1.13,5.81-1.26,5.79,4.72,6.1,14.31.77,25.41,9.89,28.57,23.48,3.53,15.17-1.6,27.4-14.49,34.73-4.68,2.67-9.78,3.44-15.05,3.44Q1119.91,614.61,1086.47,614.59Z" fill="#fcfcfc"/></g><path d="M1777,151.34c7.58-.63,14.43-2.43,20.88-1.49,14.8,2.16,24.3,15.25,22.8,30.21-.36,3.54.67,4.84,3.71,6.2,13,5.84,19.94,18.85,17.14,31.54-3.08,13.94-14,22.84-28.73,22.87q-69.43.12-138.89,0c-15.84,0-28.2-11.66-28.85-26.62-.67-15.77,10-28.13,26.07-29.68,3.7-.35,7.58.57,11.32,1.26,2.81.52,4.25.19,4.7-3.1,1.4-10.14,7.13-16.71,17.24-18.79,3.75-.78,4-3.24,4.46-6,3.08-17.95,17.76-30.42,35.66-29.77,13.55.49,23.61,7.14,30.27,18.91C1775.7,148.6,1776.5,150.42,1777,151.34Z" fill="#fcfcfc" opacity="0.35"/><path d="M155,172.07H114c-11.85,0-20.69-6.48-23.35-17.11-2.62-10.47,2.47-21.38,12.81-26.5,2.92-1.44,4.12-2.9,4.19-6.29a21.64,21.64,0,0,1,26.63-20.86c5.15,1.2,7.72.07,10.82-4.39,9.39-13.48,28.06-18.48,42.68-12.3,16.52,7,25.37,22.61,22.59,40-.46,2.84.06,4.81,2.55,6.82,6.71,5.42,9.24,16.2,6.31,24.6-3.24,9.29-11.54,15.87-20.84,16C183.94,172.19,169.45,172.06,155,172.07Z" fill="#fcfcfc" opacity="0.35"/><path d="M1599.4,798.13h-2c-1.05-1.68-3-1.24-4.45-1.6-14.28-3.48-25-11.62-32.68-24.07-3.33-5.41-4.28-11.68-6.87-17.33v-18c1-.3,1-1.21,1.15-2a51.47,51.47,0,0,1,53.63-39.92c3.4.25,3.64-1.52,4.18-4,4.71-21.37,16.91-37.12,35.91-47.87,7.27-4.11,15.46-5.39,23.13-8.25h21c1.21,1.79,3.28,1.24,4.93,1.68,5.63,1.5,11.21,3.09,16.41,5.82,18.16,9.52,30.34,24,36.11,43.74.74,2.54.84,4.78,5.08,3.28,33.54-11.87,67.59,7.79,74.21,42.74.64,3.35,1.78,4.1,5,4.28,12.78.69,22.89,8.73,27.07,21,.3.88-.08,2.09,1.18,2.51v14c-1.61,1.38-1.64,3.51-2.48,5.25-4.58,9.56-11.62,16-22.27,17.94-.83-.06-1.66-.16-2.48-.16q-115.53,0-231,0C1602.5,797.15,1600.76,796.8,1599.4,798.13Z" fill="#fcfcfc" opacity="0.25"/><path d="M96.83,805.41H95.29c-.81-1.3-2.29-1-3.43-1.24-11-2.68-19.25-8.95-25.17-18.54-2.56-4.16-3.29-9-5.29-13.34V758.42c.77-.23.74-.93.88-1.53a39.65,39.65,0,0,1,41.31-30.75c2.62.19,2.81-1.17,3.22-3.06,3.63-16.46,13-28.59,27.66-36.86,5.6-3.17,11.91-4.16,17.81-6.36h16.18c.93,1.38,2.53,1,3.8,1.29a60.07,60.07,0,0,1,12.63,4.48c14,7.34,23.37,18.48,27.82,33.69.57,2,.64,3.68,3.91,2.53,25.84-9.14,52.06,6,57.16,32.92.49,2.58,1.37,3.16,3.86,3.29,9.84.54,17.63,6.73,20.85,16.15.23.67-.06,1.6.91,1.93v10.78c-1.24,1.06-1.26,2.7-1.91,4.05-3.53,7.36-8.95,12.29-17.15,13.81-.64,0-1.28-.12-1.92-.12q-89,0-178,0C99.22,804.65,97.88,804.38,96.83,805.41Z" fill="#fcfcfc" opacity="0.25"/><path d="M1181.42,272h-2c-1.05-1.68-3-1.24-4.44-1.6-14.29-3.48-25-11.62-32.68-24.07C1139,241,1138,234.69,1135.42,229V211c1-.3,1-1.21,1.15-2a51.47,51.47,0,0,1,53.63-39.92c3.4.25,3.64-1.52,4.18-4,4.72-21.37,16.91-37.13,35.91-47.87,7.28-4.11,15.46-5.39,23.13-8.25h21c1.21,1.79,3.29,1.24,4.93,1.68,5.64,1.5,11.22,3.09,16.41,5.82,18.16,9.52,30.34,24,36.11,43.73.74,2.55.84,4.79,5.08,3.29,33.54-11.87,67.59,7.78,74.22,42.74.63,3.35,1.78,4.1,5,4.27,12.77.7,22.89,8.73,27.06,21,.3.88-.08,2.09,1.18,2.51v14c-1.61,1.37-1.64,3.51-2.47,5.25-4.58,9.56-11.62,16-22.28,17.94-.82-.06-1.65-.16-2.48-.16q-115.51,0-231,0C1184.53,271.06,1182.79,270.71,1181.42,272Z" fill="#bfd7d8" opacity="0.23"/></svg>