<svg xmlns="http://www.w3.org/2000/svg" xmlns:xlink="http://www.w3.org/1999/xlink" version="1.1" style="" xml:space="preserve" width="120.74999986030161" height="126.62499979045242"><rect id="backgroundrect" width="100%" height="100%" x="0" y="0" fill="none" stroke="none" class="selected" style=""/>
<style type="text/css">
	.st0{fill:#FFFFFF;}
	.st1{fill:#ECECEC;}
	.st2{fill:none;stroke:#EAEAE9;stroke-width:5;stroke-miterlimit:10;}
	.st3{fill:none;stroke:#263140;stroke-width:4;stroke-miterlimit:10;}
	.st4{fill:#CCCBCB;}
	.st5{fill:#F3F4F5;}
	.st6{fill:#563B39;}
	.st7{fill:#AE8070;}
	.st8{fill:#358EBF;}
	.st9{fill:#070808;}
	.st10{fill:#4B3938;}
	.st11{fill:none;stroke:#FFFFFF;stroke-width:3;stroke-miterlimit:10;}
	.st12{fill:none;stroke:#F1A64F;stroke-width:5;stroke-miterlimit:10;}
	.st13{fill:#FAFBFD;}
	.st14{fill:#496DB3;}
	.st15{fill:#1F5180;}
	.st16{fill:#CACAC9;}
	.st17{fill:#454745;}
	.st18{fill:#F1A64F;}
	.st19{fill:none;stroke:#FFFFFF;stroke-width:2;stroke-miterlimit:10;}
	.st20{fill:#262426;}
	.st21{fill:#4A4152;}
	.st22{fill:none;stroke:#1A889B;stroke-miterlimit:10;stroke-dasharray:7.0266,7.0266;}
	.st23{fill:#FFFFFF;stroke:#1A889B;stroke-width:2;stroke-miterlimit:10;}
	.st24{fill:#F1A74F;}
	.st25{opacity:0.24;}
	.st26{clip-path:url(#SVGID_2_);fill:#454745;}
	.st27{clip-path:url(#SVGID_2_);fill:#EFEEEE;stroke:#454745;stroke-width:3;stroke-miterlimit:10;}
	.st28{opacity:0.3;}
	.st29{opacity:0.24;clip-path:url(#SVGID_4_);}
	.st30{fill:#CBCBCA;}
	.st31{opacity:0.35;}
	.st32{fill:#F2A74E;}
	.st33{fill:#EFEEEE;stroke:#454745;stroke-width:3;stroke-miterlimit:10;}
	.st34{fill:#CDCCCC;}
	.st35{clip-path:url(#SVGID_6_);fill:#EFEEEE;stroke:#454745;stroke-width:3;stroke-miterlimit:10;}
	.st36{fill:#F1A750;}
	.st37{fill:#454745;stroke:#454745;stroke-miterlimit:10;}
	.st38{clip-path:url(#SVGID_8_);fill:#EFEEEE;stroke:#454745;stroke-width:3;stroke-miterlimit:10;}
	.st39{clip-path:url(#SVGID_10_);fill:#454745;}
	.st40{clip-path:url(#SVGID_10_);fill:#EFEEEE;stroke:#454745;stroke-width:3;stroke-miterlimit:10;}
	.st41{opacity:0.24;clip-path:url(#SVGID_12_);}
	.st42{clip-path:url(#SVGID_14_);fill:#EFEEEE;stroke:#454745;stroke-width:3;stroke-miterlimit:10;}
	.st43{fill:#484A48;}
	.st44{fill:#474947;}
	.st45{clip-path:url(#SVGID_16_);fill:#EFEEEE;stroke:#454745;stroke-width:3;stroke-miterlimit:10;}
	.st46{fill:#393B39;}
	.st47{fill:#CACAC8;}
	.st48{fill:#8B8E8B;}
	.st49{fill:#FEFEFE;}
</style>




<g class="currentLayer" style=""><title>Layer 1</title><g id="svg_1" class="">
	<path class="st16" d="M60.55624999999998,36.40625 c-5.9,0 -10.6,-4.8 -10.6,-10.7 c0,-5.9 4.8,-10.7 10.7,-10.7 c5.9,0 10.7,4.9 10.7,10.8 C71.25625000000002,31.706249999999997 66.45624999999995,36.40625 60.55624999999998,36.40625 z" id="svg_2"/>
	<path class="st16" d="M54.15625,36.00625 c4.3,2.5 8.6,2.5 13,0 c1.3,1 2.6,2 3.8,3.1 c2.8,2.4 3.1,5.7 3,9.1 c0,1.1 -0.9,1.8 -1.8,2.2 c-1.6,0.6000000000000003 -3.2,1.3 -4.8,1.6 c-5.4,1.1 -10.7,0.9 -16,-0.6000000000000003 c-0.5,-0.1 -0.9,-0.30000000000000016 -1.3,-0.5 c-2.4,-1.1 -2.8,-1.9 -2.7,-4.6 c0.1,-3.9 1.8,-6.7 5,-8.8 C52.856250000000045,37.00625 53.456249999999955,36.50625 54.15625,36.00625 z" id="svg_3"/>
</g><g id="svg_4" class="">
	<path class="st5" d="M42.9375,77.4625 c1.1,0.3000000000000001 2.1,0.5 3.2,0.9 c2.6,0.9 4.7,2.4 6.5,4.3 c1.2,1.2 2.4,2.5 3.6,3.7 c0.1,0 0.2,0 0.2,-0.1 c0,-1 0,-2.1 0,-3.1 c0,-0.7000000000000002 0.1,-1 0.9,-1 c1.8,0.1 1.5,-0.2 1.5,1.5 c0,2 0,4.1 0,6.1 c0,0.5 -0.1,0.8 -0.7000000000000002,0.8 c-2.3,0 -4.7,0 -7,0 c-0.6000000000000002,0 -0.7000000000000002,-0.2 -0.7000000000000002,-0.8 c0,-2 -0.2,-1.6 1.6,-1.7000000000000002 c0.8,0 1.6,0 2.4,0 c0.1,-0.1 0.1,-0.2 0.2,-0.2 c-0.4,-0.4 -0.9,-0.8 -1.3,-1.2 c-1.6,-1.5 -3,-3.2 -4.8,-4.5 c-6,-4.4 -15,-2.6 -18.9,3.8 c-4.8,8.1 -0.7000000000000002,17.9 8.5,19.9 c4.6,1 8.7,-0.3000000000000001 12,-3.6 c4.9,-4.7 9.6,-9.6 14.5,-14.4 c0.3000000000000001,-0.3000000000000001 0.6000000000000002,-0.5 0.9,-0.8 c0.4,0.8 0.2,1.8 0.6000000000000002,2.7 c-3.5,3.5 -7,7 -10.5,10.5 c-1.8,1.8 -3.5,3.6 -5.5,5.2 c-8.1,6.2 -20.3,2.8 -23.9,-6.7 c-3.4,-8.9 1.5,-18.6 10.7,-21 c0.5,-0.1 1.1,-0.1 1.6,-0.5 C40.03750000000002,77.4625 41.4375,77.4625 42.9375,77.4625 z" id="svg_5"/>
	<path class="st5" d="M66.23749999999995,89.9625 c-0.4,-0.8 -0.2,-1.8 -0.6000000000000002,-2.7 c0,0 0,0 0,0 c0.2,0 0.2,-0.1 0.2,-0.3000000000000001 c1.7000000000000002,-1.7000000000000002 3.3,-3.3 5,-5 c2.4,-2.4 5.2,-3.8 8.5,-4.4 c0.2,0 0.4,0 0.5,-0.2 c1.4,0 2.7,0 4.1,0 c0.1,0.2 0.2,0.2 0.4,0.2 c6.3,1.2 10.5,4.9 12.6,10.9 c0.3000000000000001,0.8 0.4,1.6 0.7000000000000002,2.5 c0,1.4 0,2.9 0,4.3 c-0.4,0.6000000000000002 -0.4,1.3 -0.5,1.9 c-3.1,11.1 -16.8,15.2 -25.4,7.6 c-1.9,-1.6 -3.5,-3.5 -5.3,-5.2 c0.3000000000000001,-1 0,-2 0.2,-3 c1.3,0.8 2.1,2 3.2,3 c1,0.9 1.8,1.9 2.8,2.8 c3.8,3.6 8.3,4.9 13.3,3.3 c4.9,-1.5 7.9,-4.9 9.1,-9.9 c1.7000000000000002,-7.2 -3.6,-14.7 -10.9,-15.7 c-4.5,-0.6000000000000002 -8.4,0.7000000000000002 -11.6,3.9 C70.23749999999995,85.9625 68.23749999999995,87.9625 66.23749999999995,89.9625 z" id="svg_6"/>
	<path class="st5" d="M66.33749999999998,96.5625 c-0.2,1 0.1,2 -0.2,3 c-0.9,-0.9 -1.9,-1.8 -2.8,-2.7 c-0.3000000000000001,-0.3000000000000001 -0.3000000000000001,-0.5 0,-0.7000000000000002 c1.7000000000000002,-1.5 1,-1.8 2.8,0.1 C66.23749999999995,96.3625 66.13750000000005,96.5625 66.33749999999998,96.5625 L66.33749999999998,96.5625 z" id="svg_7"/>
	<path class="st5" d="M76.53750000000002,90.2625 c1.8,0 3,1.2 3,2.9 c0,1.8 -1.3,3.1 -3.1,3.1 c-1.8,0 -3,-1.3 -3,-3.1 C73.63750000000005,91.3625 74.73749999999995,90.2625 76.53750000000002,90.2625 zM78.4375,93.2625 c-0.1,-1.3 -0.7000000000000002,-2.2 -1.9,-2.1 c-1.2,0 -1.9,0.8 -1.9,2.1 c0,1.3 0.9,2.3 2,2.2 C77.9375,95.2625 78.4375,94.3625 78.4375,93.2625 z" id="svg_8"/>
	<path class="st5" d="M89.23749999999995,91.1625 c-0.5,0 -0.8,-0.1 -1,0 c-0.4,0.1 -0.9,0.1 -1,0.7000000000000002 c-0.1,0.6000000000000002 0.4,0.7000000000000002 0.8,0.8 c0.5,0.1 1,0.3000000000000001 1.4,0.4 c0.6000000000000002,0.2 1.1,0.7000000000000002 1,1.4 c0,0.7000000000000002 -0.4,1.3 -1.1,1.5 c-1,0.4 -2,0.2 -3,-0.1 c-0.3000000000000001,-0.1 -0.5,-0.3000000000000001 -0.4,-0.6000000000000002 c0.1,-0.3000000000000001 0.4,-0.3000000000000001 0.7000000000000002,-0.2 c0.9,0.3000000000000001 2.2,0.7000000000000002 2.5,-0.3000000000000001 c0.3000000000000001,-1.2 -1.2,-0.9 -2,-1.3 c-0.8,-0.4 -1.4,-0.8 -1.3,-1.7000000000000002 c0.1,-1 0.8,-1.4 1.7000000000000002,-1.5 c0.4,0 0.9,0 1.3,0 c0.4,0.1 1.1,0 1,0.6000000000000002 C90.03750000000002,91.6625 89.4375,91.0625 89.23749999999995,91.1625 z" id="svg_9"/>
	<path class="st5" d="M80.63750000000005,93.1625 c0,-0.1 0,-0.2 0,-0.3000000000000001 c0,-2.6 0.5,-3 3,-2.5 c1.1,0.2 1.8,0.8 1.7000000000000002,2 c-0.1,1 -0.8,1.6 -1.8,1.6 c-1,0 -2.1,-0.1 -1.8,1.5 c0.1,0.3000000000000001 -0.1,0.6000000000000002 -0.5,0.6000000000000002 c-0.4,0 -0.6000000000000002,-0.3000000000000001 -0.6000000000000002,-0.7000000000000002 C80.63750000000005,94.6625 80.63750000000005,93.8625 80.63750000000005,93.1625 C80.63750000000005,93.1625 80.63750000000005,93.1625 80.63750000000005,93.1625 zM82.73749999999995,93.1625 c0.7000000000000002,-0.1 1.4,-0.1 1.4,-1 c0,-1 -0.9,-1 -1.6,-1.1 c-0.8,-0.1 -0.9,0.4 -0.9,1.1 C81.63750000000005,92.9625 81.9375,93.3625 82.73749999999995,93.1625 z" id="svg_10"/>
	<path class="st5" d="M66.33749999999998,96.5625 c-0.2,-0.1 -0.2,-0.2 -0.2,-0.4 C66.33749999999998,96.3625 66.4375,96.4625 66.33749999999998,96.5625 z" id="svg_11"/>
	<path class="st5" d="M31.9375,93.1625 c0.2,-1.2 -0.7000000000000002,-3 1.8,-2.8 c2.2,0.2 3.4,1 3.4,2.9 c0,1.8 -1.4,2.9 -3.6,2.9 C31.137500000000045,96.0625 32.33749999999998,94.1625 31.9375,93.1625 zM33.03750000000002,93.2625 c0.5,0.5 -0.7000000000000002,2 1.1,1.9 c1.2,-0.1 2,-0.8 2,-2 c0,-1.2 -0.6000000000000002,-2 -1.9,-2 C32.53750000000002,91.1625 33.4375,92.4625 33.03750000000002,93.2625 z" id="svg_12"/>
	<path class="st5" d="M42.237499999999955,95.7625 c-1,0.6000000000000002 -2.2,0.3000000000000001 -3.3,0.3000000000000001 c-0.5,0 -0.7000000000000002,-0.5 -0.8,-0.9 c0,-1.2 0,-2.5 0,-3.8 c0,-0.7000000000000002 0.4,-1 1,-1 c0.2,0 0.4,0 0.7000000000000002,0 c0.8,0.1 2.3,-0.4 2.3,0.4 c0.1,0.9 -1.3,0.3000000000000001 -2,0.4 c-0.5,0.1 -0.8,0.2 -0.8,0.8 c0,0.6000000000000002 0.4,0.6000000000000002 0.9,0.7000000000000002 c0.6000000000000002,0.1 1.6,-0.4 1.6,0.5 c0,0.7000000000000002 -1.1,0.3000000000000001 -1.7000000000000002,0.4 c-0.5,0.1 -0.8,0.3000000000000001 -0.8,0.8 c0,0.6000000000000002 0.2,0.9 0.8,0.9 c0.7000000000000002,0 1.4,0 2,0 C42.237499999999955,95.3625 42.237499999999955,95.5625 42.237499999999955,95.7625 z" id="svg_13"/>
	<path class="st5" d="M45.737499999999955,94.7625 c0.6000000000000002,-1.5 1.1,-2.6 1.6,-3.8 c0.1,-0.3000000000000001 0.3000000000000001,-0.6000000000000002 0.7000000000000002,-0.4 c0.3000000000000001,0.1 0.3000000000000001,0.5 0.1,0.7000000000000002 c-0.6000000000000002,1.4 -1.1,2.8 -1.8,4.2 c-0.3000000000000001,0.6000000000000002 -1,0.9 -1.4,0.1 c-0.7000000000000002,-1.4 -1.3,-2.9 -1.9,-4.3 c-0.1,-0.3000000000000001 -0.2,-0.7000000000000002 0.3000000000000001,-0.8 c0.4,-0.1 0.6000000000000002,0.3000000000000001 0.7000000000000002,0.5 C44.637500000000045,92.1625 45.137500000000045,93.2625 45.737499999999955,94.7625 z" id="svg_14"/>
	<path class="st5" d="M65.83749999999998,86.9625 c0,0.1 0,0.3000000000000001 -0.2,0.3000000000000001 C65.63750000000005,87.1625 65.73749999999995,87.0625 65.83749999999998,86.9625 z" id="svg_15"/>
</g><g id="svg_16" class="">
	<path class="st24" d="M-134.64375,303.8375 c3.6,1.6 8.2,-0.2 9.8,-3.9 c1.7000000000000002,-3.9 0.1,-8.5 -3.8,-10.1 c-4,-1.7000000000000002 -8.3,-0.1 -10.1,3.9 C-140.34375,297.6375 -138.84375,301.9375 -134.64375,303.8375 z" id="svg_17"/>
	<path class="st25" d="M-132.34375,289.1375 l-0.9,0.4 c0,0 -2.9,12 -0.8,14.4 s0,0 0,0 l2.2,0.6000000000000003 L-132.34375,289.1375 " id="svg_18"/>
	<g id="svg_19">
		<defs transform="translate(-231.25,228.90625) translate(7.8125,-21.875) translate(-3.90625,-71.09375) ">
			<path id="SVGID_9_" d="M257,164.7l-0.1,1.2c-0.3,4.8-1.1,8.5-2.9,12.9l-0.4,1.1l-37.8-9.8l3.2-14L257,164.7z"/>
		</defs>
		<clipPath id="SVGID_2_" transform="translate(-231.25,228.90625) translate(7.8125,-21.875) translate(-3.90625,-71.09375) ">
			<use xlink:href="#SVGID_9_" style="overflow:visible;" id="svg_20"/>
		</clipPath>
		<path class="st26" d="M29.65625,300.6375 l-0.1,1.2 c-0.30000000000000016,4.8 -1.1,8.5 -2.9,12.9 l-0.4,1.1 l-37.8,-9.8 l3.2,-14 L29.65625,300.6375 z" id="svg_21"/>
		<line class="st27" x1="21.556243896484375" y1="299.0375061035156" x2="17.556243896484375" y2="313.8374938964844" id="svg_22"/>
		<line class="st27" x1="15.15625" y1="297.3374938964844" x2="11.15625" y2="312.1374969482422" id="svg_23"/>
		<line class="st27" x1="8.65625" y1="295.5375061035156" x2="4.65625" y2="310.3374938964844" id="svg_24"/>
		<line class="st27" x1="2.256256103515625" y1="293.8374938964844" x2="-1.743743896484375" y2="308.6374969482422" id="svg_25"/>
		<line class="st27" x1="-4.5437469482421875" y1="293.1374969482422" x2="-8.443756103515625" y2="307.4375" id="svg_26"/>
	</g>
	<polygon class="st28" points="29.756256103515625,300.4375 25.256256103515625,299.7375030517578 22.056243896484375,311.3374938964844 -4.5437469482421875,301.0375061035156 -5.0437469482421875,307.7375030517578 21.256256103515625,314.5375061035156 21.256256103515625,314.4375 25.65625,315.6374969482422 " id="svg_27"/>
	<g id="svg_28">
		<defs transform="translate(-231.25,228.90625) translate(7.8125,-21.875) translate(-3.90625,-71.09375) ">
			<path id="SVGID_11_" d="M240.5,161c-0.2,0-14.9-3.5-14.9-3.5l-4.7,6.2l9.7,4l10.3-4.8L240.5,161z"/>
		</defs>
		<clipPath id="SVGID_4_" transform="translate(-231.25,228.90625) translate(7.8125,-21.875) translate(-3.90625,-71.09375) ">
			<use xlink:href="#SVGID_11_" style="overflow:visible;" id="svg_29"/>
		</clipPath>
		<path class="st29" d="M7.756249999999994,294.0375 c-0.1,0 -0.1,0.1 -0.2,0.1 l-9.4,-1.4 l-2.1,7.7 l0.4,0.8 l1.4,0.2 c0.2,-0.2 6.3,0.2 6.3,0.2 l1.6,-2.6 c1,1.3 3.3,1.2 5.3,-0.1 c2,-1.4 3,-3.6 2,-5 C12.256249999999994,292.6375 9.856249999999989,292.6375 7.756249999999994,294.0375 z" id="svg_30"/>
	</g>
	<path class="st30" d="M65.15625,306.0375 l-0.2,1.6 c-1,6.5 -2.3,11.6 -4.8,17.7 l-0.6000000000000003,1.5 l-36.6,-9.9 l5.2,-19.2 L65.15625,306.0375 z" id="svg_31"/>
	<path class="st17" d="M46.85624999999999,323.4375 c3.2,-6.7 -3.6,-8.3 -3.6,-8.3 l-0.5,-14.6 l18.9,4.5 l-2.1,21.7 L46.85624999999999,323.4375 z" id="svg_32"/>
	<path class="st31" d="M53.85624999999999,304.1375 c-0.2,3.5 -0.5,16.3 7.5,19.2 l1.8,-18 l-8.4,-1.9 C54.35624999999999,303.3375 53.95625000000001,303.6375 53.85624999999999,304.1375 z" id="svg_33"/>
	<path class="st32" d="M72.65625,329.0375 l-4.2,-25.8 c-0.2,-1.5 -1.6,-2.5 -3.1,-2.2 l-7.7,1.3 c-1.5,0.2 -2.5,1.6 -2.2,3.1 l3.2,19.4 c0.8,5 5.5,8.4 10.5,7.6 l1.3,-0.2 C71.85624999999999,331.9375 72.85624999999999,330.5375 72.65625,329.0375 z" id="svg_34"/>
	<path class="st31" d="M23.056250000000006,316.9375 l1.1,-4.6 l29.4,8.6 c0,0 0.2,2.3 2.9,4.6 l-1.3,0.2 L23.056250000000006,316.9375 z" id="svg_35"/>
	<path class="st31" d="M65.15625,332.9375 l-4.8,-16.6 c0,0 -1,-3.2 -3.7,-3.3 l0.1,2.6 l2.1,15.5 C58.95625000000001,331.1375 61.55624999999998,333.5375 65.15625,332.9375 " id="svg_36"/>
	<g id="svg_37">
		<path class="st17" d="M15.65625,323.8375 l8,6.4 c-1.9,4.2 -2.9,4.6 -6,7.7 l-1.2,2 l-30.6,-25.5 l7.6,-11.2 L15.65625,323.8375 z" id="svg_38"/>
	</g>
	<path class="st30" d="M52.05624999999998,316.8375 l0.4,1.5 c1.5,6.4 2.1,11.6 2.1,18.1 l0,1.6 l-38,3.1 l-2.3,-19.6 L52.05624999999998,316.8375 z" id="svg_39"/>
	<path class="st17" d="M42.55624999999998,339.1375 c0.4,-7.3 -6,-6.5 -6,-6.5 l-3.9,-13.5 l16,-2 l5.9,20.9 L42.55624999999998,339.1375 z" id="svg_40"/>
	<path class="st31" d="M43.95625000000001,319.4375 c1.2,5.1 5.8,21.9 8.7,18.5 l-2.8,-21.1 l-3.9,0.5 C44.95625000000001,317.5375 43.75625000000002,318.4375 43.95625000000001,319.4375 z" id="svg_41"/>
	<path class="st32" d="M64.85624999999999,339.3375 l-7,-22.6 c-0.5,-1.6 -2.2,-2.5 -3.8,-2.1 l-6.6,1.8 c-1.6,0.4 -2.5,2.1 -2,3.7 l5,16.1 c1.6,5.2 7.2,8.3 12.4,6.8 v0 C64.45625000000001,342.6375 65.35624999999999,340.9375 64.85624999999999,339.3375 z" id="svg_42"/>
	<path class="st25" d="M-10.643750000000011,316.3375 l1.2,1.1 c0,0 5.6,-4.4 8.5,-8.7 l-4,-3.8 C-4.84375,304.9375 -10.943749999999994,316.1375 -10.643750000000011,316.3375 " id="svg_43"/>
	<path class="st17" d="M-69.84375,294.0375 c-6,-3.4 -21.5,-8 -60.9,-7.4 c0,0 -5.3,11.2 0.4,20.8 l47.5,-3.3 c4.7,-0.30000000000000016 9.4,-1 13.3,-3.4 l1.2,-1 C-66.04374999999999,298.2375 -67.44375,295.3375 -69.84375,294.0375 z" id="svg_44"/>
	<path class="st34" d="M-118.94375,306.2375 c-0.30000000000000016,-1.6 -0.9,-3 -1.5,-4.5 c-0.30000000000000016,-0.8 -0.7000000000000003,-1.6 -1,-2.4 c-0.1,-0.2 -0.1,-0.4 0,-0.7000000000000003 c1.3,-2.6 2.4,-5.3 3.3,-8 c0.4,-1 0.6000000000000003,-2.1 0.9,-3.2 c0,-0.1 0.2,-0.30000000000000016 0,-0.4 c-0.2,-0.1 -0.30000000000000016,0.2 -0.4,0.30000000000000016 c-1,1.6 -1.9,3.2 -2.8,4.9 c-1.1,2.1 -1.9,4.2 -2.9,6.3 c-0.1,0.30000000000000016 -0.2,0.6000000000000003 0,0.9 c1.3,2.2 2.4,4.4 4,6.4 C-119.14375,305.9375 -119.04375,306.0375 -118.94375,306.2375 z" id="svg_45"/>
	<path class="st16" d="M-118.74375,306.3375 c-0.7000000000000003,-1.3 -1.2,-2.6 -1.8,-3.9 c-0.5,-1 -0.9,-2.1 -1.6,-3 c-0.4,-0.5 -0.30000000000000016,-1.2 0,-1.7000000000000002 c0.1,-0.2 0.30000000000000016,-0.4 0.5,-0.6000000000000003 c1.4,-1.4 1.8,-3.3 2.5,-4.9 c0.8,-1.7000000000000002 1.4,-3.5 2.1,-5.3 c0.2,-0.5 0.1,-0.6000000000000003 -0.5,-0.6000000000000003 c-4.4,0.1 -8.8,0.2 -13.2,0.30000000000000016 c-0.4,0 -0.6000000000000003,0.1 -0.8,0.5 c-0.30000000000000016,0.9 -0.7000000000000003,1.8 -1,2.7 c-0.30000000000000016,0.9 -0.30000000000000016,1.8 -0.4,2.8 c-0.2,1.6 -0.6000000000000003,3.1 -0.5,4.7 c0,1.5 0.1,3.1 0.30000000000000016,4.6 c0.2,1.5 0.9,2.9 1.4,4.3 c0.2,0.5 0.4,1 0.5,1.5 c0.1,0.30000000000000016 0.30000000000000016,0.4 0.6000000000000003,0.4 c3.2,-0.4 6.5,-0.7000000000000003 9.7,-1.1 c0.7000000000000003,-0.1 1.3,-0.2 2,-0.2 C-118.74375,306.6375 -118.74375,306.4375 -118.74375,306.3375 z" id="svg_46"/>
	<g id="svg_47">
		<defs transform="translate(-231.25,228.90625) translate(7.8125,-21.875) translate(-3.90625,-71.09375) ">
			<path id="SVGID_13_" d="M161.3,161.6c0,0-2.8-11.8-64.7-10.8c0,0-5.3,11.2,0.4,20.8l40.2-4.2L161.3,161.6z"/>
		</defs>
		<clipPath id="SVGID_6_" transform="translate(-231.25,228.90625) translate(7.8125,-21.875) translate(-3.90625,-71.09375) ">
			<use xlink:href="#SVGID_13_" style="overflow:visible;" id="svg_48"/>
		</clipPath>
	</g>
	<path class="st16" d="M-4.743750000000006,303.6375 L-4.743750000000006,303.6375 c-1.6,8.6 -9,14.5 -16.9,13.5 l-46.6,-5.9 c-4.8,-0.6000000000000003 -8,-5.5 -7.1,-10.7 l3.4,-19 c2.7,-5.3 8,-7.8 12.7,-6.7 l43.4,10.1 C-8.043749999999989,286.9375 -3.2437500000000057,295.0375 -4.743750000000006,303.6375 z" id="svg_49"/>
	<path class="st25" d="M-75.44375,303.4375 l-3.4,0.2 l-1.1,-8 l12.3,-10.1 c1.4,4.7 -4.2,11.9 -6.6,16.2 L-75.44375,303.4375 z" id="svg_50"/>
	<path class="st17" d="M-67.94375,288.4375 l-0.5,1.6 c-1.2,4 -5.4,6.3 -9.5,5.1 l-6,-1.8 l4.8,-16.2 l6,1.8 C-69.04374999999999,280.1375 -66.74375,284.4375 -67.94375,288.4375 z" id="svg_51"/>
	<path class="st30" d="M-90.04374999999999,294.0375 c-1.8,-1.1 -3.8,-2.3 -5.2,-3.8 c-2.7,-2.8 -5.5,-5.5 -8.2,-8.3 c-1.2,-1.2 -2.4,-2.4 -3.5,-3.8 c-2,-2.4 -3,-5.1 -2.2,-8.3 c0.1,-0.5 -0.2,-0.7000000000000003 -0.6000000000000003,-0.9 c-4.1,-1.9 -8,-4.2 -11.6,-6.9 c-2.1,-1.6 -3.9,-3.6 -5.3,-5.8 c-2.2,-3.3 -1.4,-7.7 1.7000000000000002,-9.6 c1.1,-0.7000000000000003 2.3,-0.7000000000000003 3.5,-0.4 c1.7000000000000002,0.4 3.1,1.3 4.5,2.4 c5,3.9 9.3,8.4 12.7,13.8 c0.1,0.1 0.2,0.2 0.30000000000000016,0.30000000000000016 c1,-0.9 2,-1.8 3,-2.5 c1,-0.8 2.2,-1.4 3.3,-2.1 c-0.5,-0.6000000000000003 -0.9,-1.3 -1.5,-2 c-2.4,-3 -4.4,-6.3 -6,-9.8 c-1.1,-2.4 -2.2,-4.7 -2.7,-7.3 c-0.2,-0.8 -0.2,-1.6 -0.2,-2.5 c0,-2.2 1.1,-3.7 3.1,-4.4 c2.8,-1.1 6.2,0 8.1,2.5 c2.8,3.5 4.3,7.6 5.3,11.9 c0.6000000000000003,2.6 1,5.3 1.5,8 c0.1,0.5 0.30000000000000016,0.7000000000000003 0.7000000000000003,0.7000000000000003 c3.3,0.2 5.6,2 7.2,4.8 c2.3,4.1 4.4,8.2 6.6,12.3 c1.3,2.4 2.5,4.8 3.1,7.4 c0.1,0.2 0.1,0.4 0.1,0.6000000000000003 c-1.3,-0.5 -2.6,-1.1 -3.9,-1.6 c-2.3,-0.8 -4.6,-1 -7,-0.7000000000000003 c-2.9,0.4 -4.9,1.8 -6.2,4.4 c-1.6,3.4 -1.7000000000000002,6.6 -1,10.3 C-90.14375000000001,293.1375 -90.04374999999999,293.8375 -90.04374999999999,294.0375 z" id="svg_52"/>
	<path class="st0" d="M-106.24375,278.0375 c1.7000000000000002,-3.1 3.7,-4.4 6.2,-4 c3.5,0.5 6,3.1 6.6,6.6 c0.4,2.7 -1,5.1 -3.5,6.1 c-0.8,0.30000000000000016 -1.5,0.30000000000000016 -2.1,-0.4 c-2.3,-2.5 -4.7,-4.9 -7.1,-7.3 C-106.24375,278.7375 -106.24375,278.3375 -106.24375,278.0375 z" id="svg_53"/>
	<path class="st0" d="M-82.04374999999999,260.3375 c0.6000000000000003,0.4 0.9,1.1 1.2,1.7000000000000002 c1.4,2.6 2.8,5.3 4.3,7.9 c0.4,0.6000000000000003 0.30000000000000016,1.1 -0.1,1.8 c-1.7000000000000002,2.6 -5,3.2 -7.7,1.5 c-3,-1.9 -4.2,-6 -2.8,-9.3 c0.6000000000000003,-1.5 1.7000000000000002,-2.6 3.3,-3.1 c0.2,-0.1 0.6000000000000003,-0.1 0.7000000000000003,-0.4 C-82.84375,260.3375 -82.44375,260.3375 -82.04374999999999,260.3375 z" id="svg_54"/>
	<path class="st17" d="M-104.44375,254.3375 c1.8,2.5 3.6,5 5.4,7.5 c0.9,1.3 1.9,2.6 2.8,3.9 c0.1,0.2 0.2,0.2 0,0.4 c-0.9,0.6000000000000003 -0.9,0.6000000000000003 -1.6,-0.30000000000000016 c-1.1,-1.5 -2.2,-3 -3.3,-4.5 c-1.5,-2 -2.9,-4 -4.4,-6 c0,0 0,-0.1 -0.1,-0.2 C-105.14375,254.9375 -104.64375,254.8375 -104.44375,254.3375 z" id="svg_55"/>
	<path class="st36" d="M-106.44375,254.3375 c-0.2,0.5 -0.7000000000000003,0.6000000000000003 -1.1,0.9 c-1.2,0.30000000000000016 -2.4,-0.5 -2.5,-2 c0,-0.8 0.9,-1.7000000000000002 1.8,-1.8 c0.9,-0.1 1.9,0.7000000000000003 2,1.6 C-106.14375,253.5375 -106.14375,253.9375 -106.44375,254.3375 z" id="svg_56"/>
	<circle class="st32" cx="-100.7437515258789" cy="260.7375030517578" r="3.799999952316284" id="svg_57"/>
	<path class="st32" d="M-77.04374999999999,293.5375 c-1,0.6000000000000003 -2.4,1.5 -3.8,2.2 c-2,0.9 -4.2,0.9 -6.3,0.30000000000000016 c-2.1,-0.6000000000000003 -3.2,-2 -3.7,-4.1 c-0.7000000000000003,-2.8 -0.5,-5.6 0.6000000000000003,-8.3 c0.5,-1.2 1.1,-2.4 1.7000000000000002,-3.5 c0.7000000000000003,-1.3 1.9,-2 3.4,-2.3 c4,-0.9 7.8,-0.7000000000000003 11.3,1.3 c0.7000000000000003,0.4 1.3,0.8 1.9,1.4 c0.8,0.8 1.2,1.9 1.2,3.1 c0.1,2.8 -0.9,5.2 -2.9,7.1 C-74.74375,291.6375 -75.74375,292.4375 -77.04374999999999,293.5375 z" id="svg_58"/>
	<path class="st17" d="M-97.94375,242.4375 c1.1,3.1 1.6,6.3 1.7000000000000002,9.6 c0,0.6000000000000003 -0.1,1.1 -0.2,1.7000000000000002 c-0.1,0.6000000000000003 -0.7000000000000003,0.8 -1.2,0.4 c-0.8,-0.7000000000000003 -1.6,-1.4 -2.3,-2.2 c-2.1,-2.5 -3.6,-5.5 -4.9,-8.5 c-0.6000000000000003,-1.5 -1.1,-3.2 -1.1,-4.8 c0,-0.9 0.30000000000000016,-1.7000000000000002 1.1,-2.2 c0.9,-0.5 1.9,-0.6000000000000003 2.9,0 c1.5,0.8 2.2,2.2 2.9,3.6 C-98.54374999999999,240.8375 -98.24375,241.6375 -97.94375,242.4375 z" id="svg_59"/>
	<path class="st17" d="M-123.54375,254.8375 c-0.30000000000000016,-1.3 -0.5,-2.1 0.1,-3 c0.8,-1.4 2.1,-1.5 3.3,-1 c2.4,0.8 4.2,2.5 6,4.2 c1.9,1.8 3.6,3.8 4.9,6 c0.4,0.7000000000000003 0.7000000000000003,1.4 1,2.2 c0.30000000000000016,0.6000000000000003 -0.1,1.2 -0.9,1 c-1.3,-0.4 -2.7,-0.7000000000000003 -4,-1.3 c-3.5,-1.5 -6.6,-3.5 -9.1,-6.3 C-122.94375,256.0375 -123.34375,255.2375 -123.54375,254.8375 z" id="svg_60"/>
	<g id="svg_61">
		<path class="st17" d="M-87.44375,286.5375 c-0.4,-0.5 -0.30000000000000016,-1.4 0.2,-1.8 c0.4,-0.5 1,-0.5 1.5,-0.2 c0.2,0.1 0.30000000000000016,0.30000000000000016 0.5,0.5 c0.5,0.5 1.1,0.9 1.8,1.1 c0,0 0.1,0 0.1,0.1 c0,0.1 0.1,0.1 0.1,0.1 c0.1,0 0.2,0.1 0.30000000000000016,0.1 c0.1,0 0.1,0.1 0.1,0.2 c0,0.1 -0.1,0.2 -0.30000000000000016,0.30000000000000016 c-0.6000000000000003,0.2 -1.1,0.2 -1.7000000000000002,0.30000000000000016 c-0.5,0.1 -0.9,0.1 -1.4,0 c-0.4,-0.1 -0.8,-0.1 -1.1,-0.4 C-87.34375,286.7375 -87.44375,286.6375 -87.44375,286.5375 z" id="svg_62"/>
		<path class="st17" d="M-81.54374999999999,280.5375 c0.2,-0.1 0.4,-0.2 0.6000000000000003,-0.2 c0.30000000000000016,0 0.5,0 0.8,0.1 c0.30000000000000016,0.1 0.4,0.30000000000000016 0.6000000000000003,0.5 c0.30000000000000016,0.5 0.30000000000000016,1 0.1,1.5 c-0.2,0.8 -0.6000000000000003,1.6 -1,2.3 c-0.1,0.1 -0.1,0.2 -0.2,0.30000000000000016 c0,0.1 -0.1,0.1 -0.1,0.1 c-0.1,0.1 -0.2,0.1 -0.30000000000000016,0 c-0.1,0 -0.1,-0.2 -0.1,-0.30000000000000016 c0,-0.4 0,-0.8 -0.1,-1.1 c-0.1,-0.6000000000000003 -0.30000000000000016,-1.1 -0.6000000000000003,-1.6 c-0.2,-0.2 -0.30000000000000016,-0.5 -0.2,-0.8 C-82.04374999999999,281.0375 -81.84375,280.7375 -81.54374999999999,280.5375 z" id="svg_63"/>
	</g>
	<path class="st17" d="M-93.94375,260.3375 c-0.30000000000000016,-0.4 -0.7000000000000003,-0.7000000000000003 -1.1,-1.1 l0,0 c-1,-0.8 -2.5,-1 -3.8,-0.6000000000000003 c-2.6,0.8 -4.6,2.5 -5.9,5.1 c0,0.1 -0.1,0.2 -0.1,0.30000000000000016 c-0.30000000000000016,1 0.2,2 1,2.4 c0.5,0.30000000000000016 1.1,0.5 1.8,0.5 c0.6000000000000003,0 1.1,0.8 1.6,1.3 c0.1,0.1 0.2,0.30000000000000016 0.30000000000000016,0.5 c0.7000000000000003,-0.8 0.8,-1.6 0.5,-2.4 c1.5,-0.2 2.8,0.7000000000000003 3.6,2.3 c0.1,0 0.1,-0.1 0.2,-0.1 c0,0 0,0 0.1,0 c0.2,-0.6000000000000003 0.2,-1.5 0,-2.6 l0.7000000000000003,1 c0.1,0 0.1,0 0.2,-0.1 c-0.1,-1.1 -0.2,-2.1 -0.4,-3.2 c0.2,0.2 0.4,0.4 0.7000000000000003,0.7000000000000003 c0.4,-1.2 0.4,-2.3 0,-3.5 c0.4,0.2 0.7000000000000003,0.5 1.1,0.8 C-93.54374999999999,261.2375 -93.64375000000001,260.7375 -93.94375,260.3375 z" id="svg_64"/>
	<path class="st17" d="M-79.84375,271.0375 c-0.4,0.30000000000000016 -0.7000000000000003,0.5 -1.2,0.6000000000000003 c-0.8,0.30000000000000016 -1.6,0.2 -2.3,-0.30000000000000016 c-0.7000000000000003,-0.5 -1.3,-1.1 -1.6,-1.8 c-0.4,-1 -0.2,-2 0.4,-2.9 c0.30000000000000016,-0.5 0.7000000000000003,-0.8 1.3,-1.1 c0.5,-0.2 1,0.1 0.9,0.7000000000000003 c0,0.2 0,0.30000000000000016 -0.1,0.4 c0,0.5 0.2,0.8 0.7000000000000003,1 c0.5,0.2 0.9,0.1 1.2,-0.30000000000000016 c0.1,-0.1 0.1,-0.2 0.2,-0.30000000000000016 c0.1,-0.1 0.1,-0.2 0.2,-0.30000000000000016 c0.30000000000000016,-0.4 0.7000000000000003,-0.4 1,-0.1 c0.30000000000000016,0.30000000000000016 0.4,0.7000000000000003 0.5,1.1 c0.2,1 0.1,2 -0.6000000000000003,2.8 C-79.34375,270.7375 -79.64375000000001,270.8375 -79.84375,271.0375 z" id="svg_65"/>
	<path class="st17" d="M-96.94375,283.5375 c0.4,-0.30000000000000016 0.7000000000000003,-0.5 1,-0.9 c0.5,-0.7000000000000003 0.6000000000000003,-1.4 0.4,-2.2 c-0.2,-0.8 -0.6000000000000003,-1.5 -1.3,-2.1 c-0.8,-0.7000000000000003 -1.8,-0.8 -2.9,-0.5 c-0.6000000000000003,0.2 -1,0.4 -1.4,0.9 c-0.4,0.4 -0.2,1 0.30000000000000016,1.1 c0.1,0 0.30000000000000016,0 0.4,0.1 c0.5,0.1 0.7000000000000003,0.4 0.7000000000000003,0.9 c0,0.5 -0.2,0.9 -0.7000000000000003,1.1 c-0.1,0 -0.30000000000000016,0.1 -0.4,0.1 c-0.1,0 -0.2,0 -0.30000000000000016,0.1 c-0.5,0.1 -0.6000000000000003,0.5 -0.4,1 c0.2,0.4 0.5,0.6000000000000003 0.9,0.8 c0.9,0.6000000000000003 1.9,0.7000000000000003 2.9,0.30000000000000016 C-97.34375,283.8375 -97.14375000000001,283.6375 -96.94375,283.5375 z" id="svg_66"/>
	<path class="st37" d="M-79.64375000000001,289.2375 c-2.1,1.5 -4.4,2.1 -6.2,1.8 c1.7000000000000002,1.8 4.9,1.8 7.5,0 s3.6,-5 2.3,-7.1 C-76.24375,285.6375 -77.54374999999999,287.6375 -79.64375000000001,289.2375 z" id="svg_67"/>
	<path class="st25" d="M-65.64375000000001,293.6375 c0,0 -0.5,5.8 14.7,7 c15.2,1.2 47.5,3 47.5,3 l-0.2,-5 L-65.64375000000001,293.6375 z" id="svg_68"/>
	<path class="st43" d="M-47.84375,310.0375 c-0.6000000000000003,-0.1 -1.3,-0.30000000000000016 -1.9,-0.4 c-0.2,0 -0.1,-0.2 -0.1,-0.30000000000000016 c0.5,-2.2 0.9,-4.4 1.4,-6.7 c0.6000000000000003,-2.7 1.1,-5.4 1.7000000000000002,-8.1 c0.1,-0.6000000000000003 0.2,-1.2 0.4,-1.8 c0.1,-0.2 0.1,-0.30000000000000016 0.4,-0.30000000000000016 c0.6000000000000003,0.2 1.1,0.2 1.7000000000000002,0.4 c0.2,0.1 0.2,0.1 0.2,0.30000000000000016 c-0.4,1.8 -0.8,3.6 -1.2,5.4 c-0.5,2.2 -0.9,4.5 -1.4,6.7 c-0.30000000000000016,1.4 -0.6000000000000003,2.9 -0.9,4.3 C-47.54374999999999,309.8375 -47.443749999999994,310.1375 -47.84375,310.0375 z" id="svg_69"/>
	<path class="st44" d="M-18.64375000000001,289.8375 c-0.4,2.3 -0.8,4.6 -1.2,6.9 c-0.4,2.1 -0.7000000000000003,4.1 -1.1,6.2 c-0.4,2.1 -0.8,4.2 -1.1,6.3 c-0.4,2.1 -0.7000000000000003,4.2 -1.1,6.3 c-0.1,0.5 -0.2,1 -0.30000000000000016,1.5 c0,0.2 -0.1,0.30000000000000016 -0.4,0.30000000000000016 c-0.9,-0.2 -1.8,-0.30000000000000016 -2.7,-0.5 c-0.2,0 -0.30000000000000016,-0.1 -0.30000000000000016,-0.4 c0.7000000000000003,-3.7 1.3,-7.5 2,-11.2 c0.5,-2.8 1,-5.6 1.5,-8.4 c0.4,-2.4 0.9,-4.9 1.3,-7.3 c0,-0.2 0.1,-0.4 0.30000000000000016,-0.30000000000000016 c0.9,0.2 1.9,0.30000000000000016 2.8,0.5 C-18.743750000000006,289.6375 -18.443749999999994,289.6375 -18.64375000000001,289.8375 z" id="svg_70"/>
	<path class="st34" d="M-12.943749999999994,299.6375 c0.30000000000000016,-1.8 0.8,-3.6 1.3,-5.4 c0.30000000000000016,-0.9 0.6000000000000003,-1.9 0.9,-2.8 c0.1,-0.30000000000000016 0.1,-0.5 0,-0.8 c-1.5,-3 -2.7,-6 -3.8,-9.1 c-0.4,-1.2 -0.8,-2.4 -1.1,-3.7 c0,-0.2 -0.2,-0.4 0,-0.5 c0.2,-0.1 0.30000000000000016,0.2 0.4,0.30000000000000016 c1.1,1.8 2.1,3.6 3.1,5.5 c1.2,2.3 2.2,4.7 3.2,7.1 c0.2,0.4 0.2,0.7000000000000003 0,1.1 c-1.2,2.6 -2.3,5.3 -3.8,7.8 C-12.743750000000006,299.3375 -12.84375,299.4375 -12.943749999999994,299.6375 z" id="svg_71"/>
	<g id="svg_72">
		<defs transform="translate(-231.25,228.90625) translate(7.8125,-21.875) translate(-3.90625,-71.09375) ">
			<path id="SVGID_15_" d="M159.4,157.2c0,0,2.4-14,66.2-17.1c0,0,6,12.7,0.6,24.3l-41.6-2.1L159.4,157.2z"/>
		</defs>
		<clipPath id="SVGID_8_" transform="translate(-231.25,228.90625) translate(7.8125,-21.875) translate(-3.90625,-71.09375) ">
			<use xlink:href="#SVGID_15_" style="overflow:visible;" id="svg_73"/>
		</clipPath>
	</g>
	<path class="st32" d="M-70.44375,279.9375 c0,0 14.1,-13.2 45,-13.2 c30.2,0 34.2,-4.5 43.4,-6.9 c10.4,-2.7 39.1,-4.5 39.1,-4.5 s-7.8,8.4 -8.6,14.6 c-0.7000000000000003,6.2 -0.1,7.2 -4.1,7.1 c-20.2,-0.4 -60.9,-1.4 -76.7,2.5 S-50.84375,277.8375 -70.44375,279.9375 z" id="svg_74"/>
	<path class="st24" d="M3.4562500000000114,294.0375 c-3.5,1.9 -8.2,0.4 -10.1,-3.3 c-2,-3.8 -0.6000000000000003,-8.4 3.2,-10.4 c3.9,-2 8.3,-0.6000000000000003 10.3,3.3 C8.756249999999994,287.4375 7.556250000000006,291.9375 3.4562500000000114,294.0375 z" id="svg_75"/>
	<polyline class="st25" points="16.356246948242188,339.9375 14.856246948242188,338.8374938964844 10.756256103515625,319.2375030517578 14.356246948242188,322.7375030517578 16.356246948242188,339.9375 " id="svg_76"/>
	<path class="st25" d="M0.2562499999999943,279.5375 l1,0.30000000000000016 c0,0 3.7,11.8 1.7000000000000002,14.4 c-2,2.6 0,0 0,0 l-2.1,0.7000000000000003 L0.2562499999999943,279.5375 " id="svg_77"/>
	<path class="st17" d="M-64.14375000000001,288.7375 c6,-4.4 21.8,-10.8 62.5,-12.8 c0,0 6,12.7 0.6000000000000003,24.3 l-49.1,-0.6000000000000003 c-4.8,-0.1 -9.6,-1.5 -13.7,-4 v0 C-66.44375,294.0375 -66.54374999999999,290.5375 -64.14375000000001,288.7375 z" id="svg_78"/>
	<path class="st16" d="M0.15625,279.5375 c-0.4,-1 -0.8,-2 -1.2,-3 c-0.2,-0.4 -0.4,-0.6000000000000003 -0.8,-0.6000000000000003 c-4.5,0.2 -9.1,0.4 -13.6,0.6000000000000003 c-0.6000000000000003,0 -0.7000000000000003,0.2 -0.5,0.7000000000000003 c0.4,1 0.8,2 1.2,2.9 l3.5,10.6 l-2.2,9.5 l0.2,-0.4 c0,0.1 0,0.30000000000000016 0.1,0.30000000000000016 c0.7000000000000003,-0.1 1.4,0 2.1,0.1 c3.3,0.30000000000000016 6.8,0.30000000000000016 10.1,0.6000000000000003 c0.4,0 0.5,-0.1 0.6000000000000003,-0.5 c0.1,-0.6000000000000003 0.30000000000000016,-1.2 0.5,-1.8 c0.4,-1.7000000000000002 1.1,-3.4 1.2,-5.1 c0.2,-1.8 0.1,-3.6 0.1,-5.3 c0,-1.8 -0.5,-3.6 -0.7000000000000003,-5.4 C0.5562500000000057,281.6375 0.5562500000000057,280.5375 0.15625,279.5375 z" id="svg_79"/>
	<path class="st44" d="M-31.943749999999994,252.5375 c-0.5,0.6000000000000003 -1.1,1 -1.9,1.1 c-3,0.4 -6,0.8 -9,1.2 c-0.8,0.1 -1.5,0.30000000000000016 -2.3,0.1 c-1.2,-0.30000000000000016 -2.2,-1.3 -2.4,-2.6 c-0.30000000000000016,-2.4 -0.7000000000000003,-4.9 -1,-7.3 c-0.1,-0.9 -0.2,-1.8 -0.4,-2.7 c-0.30000000000000016,-1.8 0.9,-3.5 3,-3.7 c3.2,-0.4 6.3,-0.8 9.5,-1.2 c0.8,-0.1 1.6,-0.1 2.3,0.4 c-0.6000000000000003,0.5 -1.4,0.7000000000000003 -2.1,1.1 c-1.4,0.7000000000000003 -2.8,1.3 -4.1,2 c-0.1,0.1 -0.1,0.1 0,0.2 c-0.7000000000000003,0.2 -1.4,0.2 -2,0.4 c-0.6000000000000003,0.2 -1.2,0.2 -1.8,0.4 c-0.2,0.1 -0.6000000000000003,0.1 -0.6000000000000003,0.6000000000000003 c0,0.1 0,0.2 0,0.30000000000000016 c0.2,1.8 0.4,3.6 0.7000000000000003,5.5 c0.1,0.7000000000000003 0.1,1.5 0.4,2.2 c0.1,0.30000000000000016 0.4,0.2 0.6000000000000003,0.30000000000000016 c1.2,0.1 2.5,-0.1 3.7,-0.2 c0,0.30000000000000016 0.30000000000000016,0.30000000000000016 0.4,0.30000000000000016 c1.4,0.4 2.9,0.8 4.3,1.2 C-33.743750000000006,252.1375 -32.84375,252.4375 -31.943749999999994,252.5375 z" id="svg_80"/>
	<path class="st44" d="M-36.34375,271.2375 c-0.7000000000000003,0.9 -1.7000000000000002,1 -2.7,1.2 c-2.6,0.30000000000000016 -5.3,0.7000000000000003 -7.9,1.1 c-0.8,0.1 -1.6,0.4 -2.4,0.2 c-1.7000000000000002,-0.4 -2.4,-1.4 -2.6,-3.1 c-0.30000000000000016,-2.4 -0.6000000000000003,-4.7 -0.9,-7.1 c-0.1,-1 -0.30000000000000016,-2 -0.4,-3 c-0.1,-1.5 0.9,-3 2.7,-3.2 c3.3,-0.5 6.7,-0.9 10,-1.4 c0.7000000000000003,-0.1 1.4,0 2.1,0.4 c0,0.1 0,0.2 -0.1,0.2 c-0.6000000000000003,0.30000000000000016 -1.2,0.6000000000000003 -1.8,0.9 c-1.5,0.7000000000000003 -2.9,1.4 -4.4,2.1 c-0.1,0 -0.1,0.1 -0.1,0.2 c0,0 0,0 0,0 c0,0 -0.1,0.1 -0.1,0.1 c-1.2,0.1 -2.4,0.4 -3.6,0.7000000000000003 c-0.30000000000000016,0.1 -0.6000000000000003,0.2 -0.5,0.6000000000000003 c0.4,2.6 0.7000000000000003,5.3 1.1,7.9 c0.2,0.30000000000000016 0.5,0.30000000000000016 0.8,0.30000000000000016 c1.1,0 2.2,-0.1 3.3,-0.2 c0.2,0.2 0.4,0.2 0.7000000000000003,0.30000000000000016 c1.4,0.4 2.7,0.7000000000000003 4.1,1.1 C-38.243750000000006,270.7375 -37.34375,271.0375 -36.34375,271.2375 z" id="svg_81"/>
	<path class="st44" d="M-19.04374999999999,269.0375 c-0.5,0.6000000000000003 -1.2,0.8 -2,1 c-2.4,0.30000000000000016 -4.8,0.6000000000000003 -7.2,1 c-1,0.1 -2.1,0.4 -3.1,0.4 c-1.7000000000000002,0.1 -3,-1.2 -3.2,-3 c-0.30000000000000016,-2.6 -0.7000000000000003,-5.2 -1,-7.8 c-0.1,-1 -0.4,-1.9 -0.2,-3 c0.2,-1.2 1.2,-2.3 2.3,-2.5 c1.3,-0.2 2.6,-0.4 4,-0.6000000000000003 c1.5,-0.2 3.1,-0.4 4.6,-0.6000000000000003 c0.7000000000000003,-0.1 1.5,-0.2 2.2,-0.30000000000000016 c0.6000000000000003,0 1.2,0.1 1.7000000000000002,0.5 c-1,0.5 -2,1 -3,1.5 c-1.2,0.6000000000000003 -2.5,1.1 -3.6,1.8 c-0.1,0 -0.2,0.1 -0.30000000000000016,0.1 c-1.1,0.2 -2.3,0.4 -3.3,0.8 c-0.2,0.1 -0.5,0.1 -0.4,0.5 c0.30000000000000016,2.1 0.5,4.2 0.9,6.4 c0.1,0.5 0,1.1 0.30000000000000016,1.6 c0,0.2 0.2,0.1 0.30000000000000016,0.2 c1.2,0.2 2.4,-0.1 3.6,-0.2 c0,0.1 0.1,0.1 0.2,0.2 c2.3,0.6000000000000003 4.6,1.2 6.9,1.9 C-19.34375,268.7375 -19.14375000000001,268.7375 -19.04374999999999,269.0375 z" id="svg_82"/>
	<path class="st46" d="M-19.04374999999999,269.0375 c-0.1,-0.2 -0.30000000000000016,-0.2 -0.5,-0.30000000000000016 c-2.3,-0.6000000000000003 -4.6,-1.3 -6.9,-1.9 c-0.1,0 -0.1,-0.1 -0.2,-0.2 c1.2,-0.1 2.3,-0.4 3.5,-0.7000000000000003 c0.30000000000000016,-0.1 0.6000000000000003,-0.1 0.7000000000000003,-0.5 c-0.2,-1.6 -0.4,-3.2 -0.6000000000000003,-4.7 c-0.2,-1.1 -0.2,-2.2 -0.5,-3.3 c-0.1,-0.2 -0.2,-0.2 -0.4,-0.2 c-0.6000000000000003,-0.1 -1.2,0 -1.8,0 c-0.7000000000000003,0 -1.3,0.2 -2,0.1 c1.2,-0.7000000000000003 2.4,-1.2 3.6,-1.8 c1,-0.5 2,-1 3,-1.5 c0.8,0.4 1.2,1 1.4,1.9 c0.2,1.3 0.4,2.6 0.6000000000000003,4 c0.30000000000000016,2.3 0.6000000000000003,4.5 0.9,6.8 C-18.04374999999999,267.6375 -18.34375,268.4375 -19.04374999999999,269.0375 z" id="svg_83"/>
	<path class="st46" d="M-36.34375,271.2375 c-1,-0.30000000000000016 -1.9,-0.5 -2.9,-0.8 c-1.4,-0.4 -2.7,-0.7000000000000003 -4.1,-1.1 c-0.2,-0.1 -0.5,-0.1 -0.7000000000000003,-0.30000000000000016 c0.1,-0.1 0.2,-0.1 0.30000000000000016,-0.1 c1.2,-0.1 2.3,-0.4 3.4,-0.7000000000000003 c0.2,-0.1 0.5,-0.1 0.4,-0.5 c-0.2,-1.6 -0.4,-3.2 -0.6000000000000003,-4.8 c-0.1,-1 -0.30000000000000016,-2 -0.4,-3 c0,-0.4 -0.30000000000000016,-0.4 -0.6000000000000003,-0.4 c-1.1,-0.1 -2.3,0 -3.4,0.1 c0,-0.1 0,-0.2 0.1,-0.2 c1.5,-0.7000000000000003 2.9,-1.4 4.4,-2.1 c0.6000000000000003,-0.30000000000000016 1.2,-0.6000000000000003 1.8,-0.9 c0.1,0 0.1,-0.1 0.1,-0.2 c1,0.6000000000000003 1.4,1.5 1.6,2.5 c0.4,2.9 0.8,5.7 1.1,8.6 c0.1,0.6000000000000003 0.2,1.3 0.2,2 C-35.64375000000001,270.1375 -35.84375,270.7375 -36.34375,271.2375 z" id="svg_84"/>
	<path class="st46" d="M-40.34375,241.0375 c-0.1,-0.1 -0.1,-0.1 0,-0.2 c1.4,-0.7000000000000003 2.8,-1.3 4.1,-2 c0.7000000000000003,-0.4 1.5,-0.5 2.1,-1.1 c1,0.5 1.4,1.4 1.5,2.4 c0.4,2.8 0.8,5.7 1.2,8.5 c0.1,0.9 0.4,1.7000000000000002 0.2,2.6 c-0.1,0.5 -0.30000000000000016,1 -0.7000000000000003,1.3 c-0.9,-0.1 -1.7000000000000002,-0.4 -2.6,-0.7000000000000003 c-1.4,-0.4 -2.9,-0.8 -4.3,-1.2 c-0.2,0 -0.4,0 -0.4,-0.30000000000000016 c0.1,0 0.1,0 0.2,-0.1 c1.1,-0.2 2.2,-0.30000000000000016 3.3,-0.7000000000000003 c0.2,-0.1 0.4,-0.1 0.4,-0.4 c0,-1 -0.2,-2.1 -0.4,-3.1 c-0.2,-1.6 -0.4,-3.2 -0.7000000000000003,-4.9 c-0.1,-0.30000000000000016 -0.30000000000000016,-0.30000000000000016 -0.6000000000000003,-0.30000000000000016 C-38.243750000000006,240.8375 -39.34375,240.9375 -40.34375,241.0375 z" id="svg_85"/>
	<path class="st32" d="M-43.64375000000001,314.5375 c-1.7000000000000002,-0.2 -3.4,-0.4 -5,-0.6000000000000003 c-1.4,-0.2 -2.8,-0.30000000000000016 -4.2,-0.5 c-1,-0.1 -2,-0.30000000000000016 -2.9,-0.4 c0.4,-1.2 1.1,-2.2 2.1,-3 c2.1,-1.8 5.5,-1.8 7.7,0 C-44.54374999999999,311.1375 -43.743750000000006,312.6375 -43.64375000000001,314.5375 z" id="svg_86"/>
	<path class="st44" d="M-43.64375000000001,314.5375 c0,-1.9 -0.9,-3.5 -2.3,-4.6 c-2.3,-1.8 -5.6,-1.7000000000000002 -7.7,0 c-1,0.8 -1.7000000000000002,1.8 -2.1,3 c-0.6000000000000003,-0.1 -1.2,-0.2 -1.8,-0.2 c-0.30000000000000016,0 -0.2,-0.1 -0.2,-0.30000000000000016 c0.30000000000000016,-0.9 0.7000000000000003,-1.8 1.2,-2.5 c0.8,-1.1 1.8,-1.9 3.1,-2.5 c1.8,-0.8 3.6,-1 5.5,-0.6000000000000003 c1.8,0.4 3.3,1.3 4.5,2.8 c1.2,1.4 1.8,3 1.8,4.8 c0,0.2 0,0.4 -0.30000000000000016,0.4 C-42.54374999999999,314.7375 -43.14375000000001,314.6375 -43.64375000000001,314.5375 z" id="svg_87"/>
	<path class="st47" d="M-36.54374999999999,241.2375 c0.2,1.6 0.5,3.2 0.7000000000000003,4.9 c0.1,1 0.30000000000000016,2.1 0.4,3.1 c-0.2,-0.1 -0.5,-0.2 -0.7000000000000003,-0.1 c-1.8,0.1 -3.5,0.2 -5.3,0.6000000000000003 c-0.7000000000000003,0.2 -1.5,0.30000000000000016 -2.1,0.7000000000000003 c-0.30000000000000016,-0.7000000000000003 -0.30000000000000016,-1.4 -0.4,-2.2 c-0.30000000000000016,-1.8 -0.5,-3.6 -0.7000000000000003,-5.5 c0,-0.1 0,-0.2 0,-0.30000000000000016 C-41.943749999999994,242.6375 -39.243750000000006,242.2375 -36.54374999999999,241.2375 zM-40.64375000000001,248.1375 c0.7000000000000003,-0.1 1.2,-0.2 1.8,-0.30000000000000016 c0.1,0 0.2,-0.1 0.2,-0.1 c0.30000000000000016,-0.6000000000000003 0.8,-1.1 0.9,-1.7000000000000002 c0.1,-0.4 -0.30000000000000016,-0.8 -0.4,-1.3 c-0.1,-0.1 -0.1,-0.30000000000000016 -0.2,-0.4 c-0.1,-0.1 -0.1,-0.2 -0.2,-0.30000000000000016 c-0.6000000000000003,-0.30000000000000016 -1.3,-0.4 -1.9,-0.5 c-0.30000000000000016,-0.1 -0.6000000000000003,0.4 -0.9,0.5 c-0.2,0.1 -0.30000000000000016,0.30000000000000016 -0.5,0.4 c-0.30000000000000016,0.2 -0.4,0.5 -0.4,0.8 c0,0.4 0,0.8 -0.1,1.2 c-0.1,0.30000000000000016 0.1,0.5 0.30000000000000016,0.7000000000000003 c0.30000000000000016,0.30000000000000016 0.7000000000000003,0.6000000000000003 1,0.9 C-40.943749999999994,248.0375 -40.84375,248.1375 -40.64375000000001,248.1375 z" id="svg_88"/>
	<path class="st48" d="M-36.54374999999999,241.2375 c-2.7,1 -5.4,1.3 -8.2,1.1 c-0.1,-0.4 0.30000000000000016,-0.5 0.6000000000000003,-0.6000000000000003 c0.6000000000000003,-0.2 1.2,-0.30000000000000016 1.8,-0.4 c0.7000000000000003,-0.2 1.4,-0.2 2,-0.4 c1.1,0 2.2,-0.2 3.2,-0.1 C-36.84375,240.9375 -36.64375000000001,240.9375 -36.54374999999999,241.2375 z" id="svg_89"/>
	<path class="st48" d="M-43.64375000000001,250.3375 c0.7000000000000003,-0.4 1.4,-0.6000000000000003 2.1,-0.7000000000000003 c1.7000000000000002,-0.4 3.5,-0.5 5.3,-0.6000000000000003 c0.2,0 0.5,0.1 0.7000000000000003,0.1 c0,0.30000000000000016 -0.2,0.30000000000000016 -0.4,0.4 c-1.1,0.4 -2.2,0.5 -3.3,0.7000000000000003 c-0.1,0 -0.1,0 -0.2,0.1 c-1.2,0.1 -2.5,0.30000000000000016 -3.7,0.2 C-43.243750000000006,250.5375 -43.54374999999999,250.6375 -43.64375000000001,250.3375 z" id="svg_90"/>
	<path class="st47" d="M-40.943749999999994,259.9375 c0.1,1 0.30000000000000016,2 0.4,3 c0.2,1.6 0.4,3.2 0.6000000000000003,4.8 c-0.30000000000000016,0 -0.6000000000000003,-0.1 -1,-0.1 c-1.4,0.1 -2.7,0.1 -4,0.4 c-1.1,0.2 -2.2,0.30000000000000016 -3.2,0.9 c-0.4,-2.6 -0.7000000000000003,-5.3 -1.1,-7.9 c0.30000000000000016,-0.1 0.6000000000000003,0.1 1,0.1 c1.5,0 2.9,-0.2 4.4,-0.4 C-42.84375,260.5375 -41.84375,260.2375 -40.943749999999994,259.9375 zM-44.743750000000006,266.7375 c0.5,-0.2 1.3,0.1 1.8,-0.5 c0.4,-0.5 0.9,-1.1 0.9,-1.7000000000000002 c0,-0.6000000000000003 -0.30000000000000016,-1.4 -0.8,-1.9 c-0.5,-0.5 -1.3,-0.6000000000000003 -2,-0.6000000000000003 c-0.6000000000000003,0 -1.2,0.6000000000000003 -1.6,1 c-0.5,0.5 -0.2,1.3 -0.30000000000000016,2 C-46.84375,265.5375 -45.443749999999994,266.7375 -44.743750000000006,266.7375 z" id="svg_91"/>
	<path class="st48" d="M-42.943749999999994,259.9375 c-1,0.30000000000000016 -1.9,0.6000000000000003 -2.9,0.7000000000000003 c-1.5,0.2 -2.9,0.4 -4.4,0.4 c-0.30000000000000016,0 -0.6000000000000003,-0.2 -1,-0.1 c0,-0.4 0.30000000000000016,-0.5 0.5,-0.6000000000000003 c1.2,-0.30000000000000016 2.4,-0.6000000000000003 3.6,-0.7000000000000003 c0,0 0.1,-0.1 0.1,-0.1 c0,0 0,0 0,0 c1.1,-0.1 2.3,-0.2 3.4,-0.1 C-43.243750000000006,259.6375 -42.943749999999994,259.5375 -42.943749999999994,259.9375 z" id="svg_92"/>
	<path class="st48" d="M-48.04374999999999,269.0375 c1,-0.6000000000000003 2.1,-0.6000000000000003 3.2,-0.9 c1.3,-0.30000000000000016 2.7,-0.30000000000000016 4,-0.4 c0.30000000000000016,0 0.6000000000000003,0.1 1,0.1 c0,0.30000000000000016 -0.2,0.4 -0.4,0.5 c-1.1,0.4 -2.2,0.6000000000000003 -3.4,0.7000000000000003 c-0.1,0 -0.2,0 -0.30000000000000016,0.1 c-1.1,0.1 -2.2,0.30000000000000016 -3.3,0.2 C-47.64375000000001,269.2375 -47.943749999999994,269.2375 -48.04374999999999,269.0375 z" id="svg_93"/>
	<path class="st46" d="M-46.943749999999994,259.7375 c0,0 -0.1,0.1 -0.1,0.1 C-47.04374999999999,259.7375 -46.943749999999994,259.7375 -46.943749999999994,259.7375 z" id="svg_94"/>
	<path class="st47" d="M-23.443749999999994,257.4375 c0.30000000000000016,1.1 0.30000000000000016,2.2 0.5,3.3 c0.30000000000000016,1.6 0.4,3.2 0.6000000000000003,4.7 c-0.30000000000000016,-0.1 -0.6000000000000003,-0.2 -1,-0.2 c-0.9,0 -1.8,0.1 -2.7,0.2 c-1.4,0.1 -2.7,0.4 -4,0.8 c-0.2,0.1 -0.4,0 -0.4,0.30000000000000016 c-0.30000000000000016,-0.5 -0.2,-1.1 -0.30000000000000016,-1.6 c-0.30000000000000016,-2.1 -0.6000000000000003,-4.2 -0.9,-6.4 c0.6000000000000003,0 1.1,0.1 1.7000000000000002,0.1 c1.5,-0.1 2.9,-0.2 4.3,-0.6000000000000003 C-24.943749999999994,258.0375 -24.14375000000001,258.0375 -23.443749999999994,257.4375 zM-29.243750000000006,262.2375 c0,0.8 1.2,2.2 1.8,2.1 c0.7000000000000003,-0.1 1.4,0 1.9,-0.5 c0.5,-0.4 0.9,-1.1 0.9,-1.7000000000000002 c0,-0.6000000000000003 -0.30000000000000016,-1.3 -0.7000000000000003,-1.8 c-0.5,-0.5 -1.3,-0.6000000000000003 -1.9,-0.7000000000000003 c-0.7000000000000003,-0.1 -1.2,0.6000000000000003 -1.7000000000000002,1 C-29.443749999999994,261.1375 -29.04374999999999,261.8375 -29.243750000000006,262.2375 z" id="svg_95"/>
	<path class="st48" d="M-25.443749999999994,257.4375 c-0.6000000000000003,0.5 -1.4,0.6000000000000003 -2.2,0.7000000000000003 c-1.4,0.30000000000000016 -2.9,0.4 -4.3,0.6000000000000003 c-0.5,0 -1.1,0 -1.7000000000000002,-0.1 c-0.1,-0.4 0.2,-0.4 0.4,-0.5 c1.1,-0.4 2.2,-0.6000000000000003 3.3,-0.8 c0.1,0 0.2,-0.1 0.30000000000000016,-0.1 c0.7000000000000003,0.1 1.3,-0.1 2,-0.1 c0.6000000000000003,0 1.2,-0.1 1.8,0 C-25.64375000000001,257.2375 -25.54374999999999,257.3375 -25.443749999999994,257.4375 z" id="svg_96"/>
	<path class="st48" d="M-30.443749999999994,266.7375 c0,-0.30000000000000016 0.30000000000000016,-0.30000000000000016 0.4,-0.30000000000000016 c1.3,-0.4 2.7,-0.6000000000000003 4,-0.8 c0.9,-0.1 1.8,-0.2 2.7,-0.2 c0.30000000000000016,0 0.7000000000000003,0 1,0.2 c-0.1,0.4 -0.5,0.4 -0.7000000000000003,0.5 c-1.1,0.30000000000000016 -2.3,0.5 -3.5,0.7000000000000003 c-1.2,0.1 -2.4,0.4 -3.6,0.2 C-30.243750000000006,266.8375 -30.443749999999994,266.9375 -30.443749999999994,266.7375 z" id="svg_97"/>
	<path class="st32" d="M-40.64375000000001,248.1375 c-0.1,0 -0.30000000000000016,-0.1 -0.4,-0.30000000000000016 c-0.30000000000000016,-0.30000000000000016 -0.7000000000000003,-0.6000000000000003 -1,-0.9 c-0.2,-0.2 -0.30000000000000016,-0.4 -0.30000000000000016,-0.7000000000000003 c0.1,-0.4 0,-0.8 0.1,-1.2 c0,-0.30000000000000016 0.1,-0.6000000000000003 0.4,-0.8 c0.2,-0.1 0.30000000000000016,-0.30000000000000016 0.5,-0.4 c0.30000000000000016,-0.2 0.6000000000000003,-0.6000000000000003 0.9,-0.5 c0.6000000000000003,0.1 1.3,0.30000000000000016 1.9,0.5 c0.1,0.1 0.2,0.2 0.2,0.30000000000000016 c0.1,0.1 0.1,0.30000000000000016 0.2,0.4 c0.2,0.4 0.6000000000000003,0.9 0.4,1.3 c-0.2,0.6000000000000003 -0.6000000000000003,1.2 -0.9,1.7000000000000002 c0,0.1 -0.2,0.1 -0.2,0.1 C-39.443749999999994,247.9375 -40.04374999999999,248.0375 -40.64375000000001,248.1375 zM-38.943749999999994,244.4375 c-0.6000000000000003,0.30000000000000016 -1,0.2 -1.6,-0.4 c0.1,0.4 -0.2,0.5 -0.4,0.7000000000000003 c-0.30000000000000016,0.30000000000000016 -0.5,0.1 -0.9,0.2 c0.5,0.1 0.30000000000000016,0.4 0.4,0.7000000000000003 c0,0.4 -0.1,0.6000000000000003 -0.4,0.8 c0.4,-0.2 0.5,0.1 0.8,0.2 c0.4,0.2 0.30000000000000016,0.4 0.4,0.8 c0,-0.5 0.4,-0.4 0.6000000000000003,-0.5 c0.4,0 0.7000000000000003,-0.2 0.9,-0.6000000000000003 c0.1,-0.30000000000000016 0.2,-0.6000000000000003 0.8,-0.5 C-39.04374999999999,245.4375 -39.243750000000006,244.9375 -38.943749999999994,244.4375 z" id="svg_98"/>
	<path class="st32" d="M-44.743750000000006,266.7375 c-0.6000000000000003,0 -2.1,-1.2 -2,-1.6 c0.1,-0.7000000000000003 -0.2,-1.5 0.30000000000000016,-2 c0.4,-0.5 1,-1 1.6,-1 c0.7000000000000003,0 1.5,0.1 2,0.6000000000000003 c0.5,0.5 0.8,1.2 0.8,1.9 c0,0.6000000000000003 -0.5,1.2 -0.9,1.7000000000000002 C-43.443749999999994,266.8375 -44.243750000000006,266.5375 -44.743750000000006,266.7375 zM-44.943749999999994,266.1375 c0.4,-0.5 0.9,-0.6000000000000003 1.6,-0.2 c-0.30000000000000016,-0.4 -0.2,-0.6000000000000003 0,-0.9 c0.1,-0.30000000000000016 0.30000000000000016,-0.5 0.7000000000000003,-0.5 c-0.4,0 -0.5,-0.30000000000000016 -0.7000000000000003,-0.6000000000000003 c-0.1,-0.30000000000000016 -0.1,-0.6000000000000003 0,-0.9 c-0.4,0.7000000000000003 -0.8,0.1 -1.2,0.1 c-0.2,0 -0.1,-0.4 -0.2,-0.4 c-0.30000000000000016,0 0.1,0.4 -0.1,0.5 c-0.4,0.1 -0.6000000000000003,0.7000000000000003 -1.2,0.30000000000000016 c0.6000000000000003,0.6000000000000003 0.4,1.1 0,1.6 C-45.54374999999999,265.0375 -45.04374999999999,265.5375 -44.943749999999994,266.1375 z" id="svg_99"/>
	<path class="st32" d="M-29.243750000000006,262.2375 c0.2,-0.4 -0.2,-1.1 0.30000000000000016,-1.5 c0.5,-0.4 1,-1.1 1.7000000000000002,-1 c0.7000000000000003,0.1 1.5,0.1 1.9,0.7000000000000003 c0.4,0.5 0.7000000000000003,1.2 0.7000000000000003,1.8 c0,0.6000000000000003 -0.4,1.3 -0.9,1.7000000000000002 c-0.5,0.5 -1.3,0.4 -1.9,0.5 C-28.14375000000001,264.4375 -29.34375,263.1375 -29.243750000000006,262.2375 zM-28.743750000000006,262.7375 c0.8,0 1.2,0.4 1.2,1 c0.30000000000000016,-0.5 0.9,-0.6000000000000003 1.6,-0.2 c-0.30000000000000016,-0.4 -0.1,-0.6000000000000003 0,-0.9 c0.1,-0.4 0.4,-0.4 0.7000000000000003,-0.5 c-0.7000000000000003,-0.2 -0.9,-0.7000000000000003 -0.7000000000000003,-1.5 c-0.4,0.5 -0.8,0.1 -1.2,0.1 c-0.2,0 0,-0.4 -0.30000000000000016,-0.4 c-0.30000000000000016,0 0.1,0.4 -0.2,0.5 c-0.4,0.1 -0.6000000000000003,0.7000000000000003 -1.1,0.4 C-28.14375000000001,261.6375 -28.14375000000001,262.3375 -28.743750000000006,262.7375 z" id="svg_100"/>
	<path class="st49" d="M-38.943749999999994,244.4375 c-0.30000000000000016,0.5 -0.1,1 0.7000000000000003,1.5 c-0.6000000000000003,-0.2 -0.6000000000000003,0.2 -0.8,0.5 c-0.2,0.4 -0.5,0.6000000000000003 -0.9,0.6000000000000003 c-0.30000000000000016,0 -0.6000000000000003,0 -0.6000000000000003,0.5 c0,-0.4 0,-0.6000000000000003 -0.4,-0.8 c-0.30000000000000016,-0.1 -0.4,-0.4 -0.8,-0.2 c0.30000000000000016,-0.2 0.4,-0.4 0.4,-0.8 c0,-0.30000000000000016 0.1,-0.6000000000000003 -0.4,-0.7000000000000003 c0.30000000000000016,-0.1 0.6000000000000003,0.1 0.9,-0.2 c0.2,-0.2 0.5,-0.30000000000000016 0.4,-0.7000000000000003 C-39.943749999999994,244.6375 -39.54374999999999,244.7375 -38.943749999999994,244.4375 zM-39.443749999999994,245.9375 c-0.1,0 -0.30000000000000016,-0.1 -0.30000000000000016,0.1 c0,0.2 0.1,0.4 0.30000000000000016,0.4 c0.2,0.1 0.2,-0.2 0.2,-0.30000000000000016 C-39.04374999999999,245.9375 -39.243750000000006,245.9375 -39.443749999999994,245.9375 zM-40.443749999999994,246.2375 c0,-0.1 -0.1,-0.2 -0.2,-0.2 c-0.1,0 -0.30000000000000016,0 -0.30000000000000016,0.30000000000000016 c0,0.2 0.2,0.30000000000000016 0.30000000000000016,0.30000000000000016 C-40.443749999999994,246.6375 -40.54374999999999,246.3375 -40.443749999999994,246.2375 zM-39.54374999999999,244.8375 c-0.2,0 -0.4,-0.30000000000000016 -0.6000000000000003,-0.1 c-0.1,0.1 0,0.4 0.1,0.5 C-39.743750000000006,245.3375 -39.743750000000006,245.0375 -39.54374999999999,244.8375 zM-39.14375000000001,245.4375 c0,-0.1 -0.1,-0.2 -0.30000000000000016,-0.2 c-0.1,0 -0.2,0.2 -0.30000000000000016,0.30000000000000016 c0,0.2 0.1,0.2 0.30000000000000016,0.2 C-39.243750000000006,245.7375 -39.14375000000001,245.6375 -39.14375000000001,245.4375 zM-40.04374999999999,246.2375 c-0.1,0.2 -0.4,0.30000000000000016 -0.2,0.5 c0.1,0.1 0.4,0 0.5,-0.1 C-39.64375000000001,246.4375 -39.943749999999994,246.3375 -40.04374999999999,246.2375 zM-41.14375000000001,246.0375 c0.2,-0.1 0.5,0 0.5,-0.30000000000000016 c0,-0.1 -0.2,-0.30000000000000016 -0.4,-0.30000000000000016 C-41.243750000000006,245.5375 -41.14375000000001,245.7375 -41.14375000000001,246.0375 zM-40.34375,245.0375 c-0.1,-0.1 0,-0.30000000000000016 -0.2,-0.2 c-0.1,0 -0.30000000000000016,0.1 -0.30000000000000016,0.2 c0,0.2 0.2,0.2 0.30000000000000016,0.2 C-40.34375,245.3375 -40.443749999999994,245.1375 -40.34375,245.0375 z" id="svg_101"/>
	<path class="st49" d="M-44.943749999999994,266.1375 c-0.1,-0.6000000000000003 -0.6000000000000003,-1.1 -1.1,-1 c0.4,-0.5 0.6000000000000003,-1.1 0,-1.6 c0.6000000000000003,0.4 0.8,-0.2 1.2,-0.30000000000000016 c0.2,-0.1 -0.1,-0.5 0.1,-0.5 c0.2,0 0,0.4 0.2,0.4 c0.4,0 0.8,0.6000000000000003 1.2,-0.1 c-0.1,0.30000000000000016 -0.2,0.6000000000000003 0,0.9 c0.1,0.30000000000000016 0.2,0.6000000000000003 0.7000000000000003,0.6000000000000003 c-0.4,0.1 -0.6000000000000003,0.2 -0.7000000000000003,0.5 c-0.1,0.30000000000000016 -0.30000000000000016,0.5 0,0.9 C-44.04374999999999,265.5375 -44.64375000000001,265.6375 -44.943749999999994,266.1375 zM-44.743750000000006,263.8375 c0,-0.1 0,-0.30000000000000016 -0.2,-0.30000000000000016 c-0.2,0 -0.4,0.1 -0.4,0.30000000000000016 c0,0.2 0.2,0.2 0.4,0.2 C-44.743750000000006,264.0375 -44.743750000000006,263.9375 -44.743750000000006,263.8375 zM-44.443749999999994,264.0375 c0.2,-0.1 0.4,-0.2 0.4,-0.4 c0,-0.1 -0.30000000000000016,-0.2 -0.4,-0.2 C-44.743750000000006,263.5375 -44.443749999999994,263.7375 -44.443749999999994,264.0375 zM-44.04374999999999,265.3375 c-0.1,-0.2 -0.2,-0.5 -0.5,-0.4 c-0.1,0 -0.2,0.30000000000000016 -0.2,0.4 C-44.443749999999994,265.6375 -44.243750000000006,265.3375 -44.04374999999999,265.3375 zM-43.443749999999994,264.5375 c-0.2,0.2 -0.5,-0.1 -0.6000000000000003,0.2 c0,0.1 0.1,0.4 0.2,0.4 C-43.54374999999999,265.1375 -43.54374999999999,264.8375 -43.443749999999994,264.5375 zM-44.743750000000006,264.9375 c0,-0.2 -0.1,-0.2 -0.2,-0.2 c-0.1,0 -0.30000000000000016,0 -0.30000000000000016,0.2 c0,0.2 0.2,0.30000000000000016 0.30000000000000016,0.30000000000000016 C-44.84375,265.3375 -44.84375,265.0375 -44.743750000000006,264.9375 zM-43.84375,264.3375 c0.2,0 0.30000000000000016,0.1 0.30000000000000016,-0.2 c0,-0.1 -0.1,-0.30000000000000016 -0.2,-0.30000000000000016 c-0.2,0 -0.30000000000000016,0.2 -0.30000000000000016,0.30000000000000016 C-44.04374999999999,264.3375 -43.943749999999994,264.2375 -43.84375,264.3375 zM-45.34375,264.1375 c-0.2,0 -0.2,0.2 -0.2,0.30000000000000016 c0,0.1 -0.1,0.30000000000000016 0.1,0.2 c0.2,0 0.4,-0.1 0.4,-0.30000000000000016 C-45.04374999999999,264.2375 -45.14375000000001,264.1375 -45.34375,264.1375 z" id="svg_102"/>
	<path class="st49" d="M-28.743750000000006,262.7375 c0.6000000000000003,-0.4 0.6000000000000003,-1.1 0.2,-1.6 c0.5,0.30000000000000016 0.8,-0.2 1.1,-0.4 c0.2,-0.1 -0.1,-0.4 0.2,-0.5 c0.2,0 0,0.4 0.30000000000000016,0.4 c0.4,0.1 0.8,0.4 1.2,-0.1 c-0.30000000000000016,0.7000000000000003 0,1.3 0.7000000000000003,1.5 c-0.30000000000000016,0.1 -0.6000000000000003,0.2 -0.7000000000000003,0.5 c-0.1,0.30000000000000016 -0.30000000000000016,0.5 0,0.9 c-0.7000000000000003,-0.4 -1.3,-0.30000000000000016 -1.6,0.2 C-27.54374999999999,263.1375 -27.943749999999994,262.7375 -28.743750000000006,262.7375 zM-26.84375,260.9375 c-0.1,0.1 -0.2,0 -0.2,0.2 c0,0.2 0,0.4 0.2,0.4 c0.1,0 0.30000000000000016,-0.2 0.30000000000000016,-0.30000000000000016 C-26.54374999999999,261.0375 -26.743750000000006,261.1375 -26.84375,260.9375 zM-26.54374999999999,262.8375 c-0.1,-0.1 -0.30000000000000016,-0.30000000000000016 -0.4,-0.30000000000000016 c-0.2,0 -0.2,0.2 -0.2,0.4 c0,0.1 0.1,0.2 0.2,0.1 C-26.743750000000006,263.0375 -26.54374999999999,263.0375 -26.54374999999999,262.8375 zM-27.943749999999994,261.6375 c0,0.30000000000000016 -0.2,0.5 0,0.6000000000000003 c0.2,0.1 0.30000000000000016,-0.1 0.5,-0.30000000000000016 C-27.64375000000001,261.9375 -27.743750000000006,261.8375 -27.943749999999994,261.6375 zM-27.243750000000006,261.3375 c-0.1,0 0.1,-0.30000000000000016 -0.1,-0.30000000000000016 c-0.1,0 -0.30000000000000016,0.1 -0.4,0.30000000000000016 c0,0.2 0.2,0.2 0.30000000000000016,0.30000000000000016 C-27.243750000000006,261.7375 -27.243750000000006,261.5375 -27.243750000000006,261.3375 zM-26.54374999999999,261.8375 c0.2,0.1 0.5,0.2 0.6000000000000003,0 c0.1,-0.2 -0.1,-0.4 -0.30000000000000016,-0.5 C-26.443749999999994,261.5375 -26.443749999999994,261.7375 -26.54374999999999,261.8375 zM-26.64375000000001,262.2375 c0.1,0.2 0.1,0.5 0.4,0.5 c0.2,0 0.2,-0.2 0.30000000000000016,-0.5 C-26.243750000000006,262.2375 -26.443749999999994,262.2375 -26.64375000000001,262.2375 zM-27.34375,262.6375 c0,-0.1 0.1,-0.30000000000000016 -0.1,-0.30000000000000016 c-0.2,0 -0.4,0 -0.4,0.2 c0,0.2 0.2,0.2 0.30000000000000016,0.30000000000000016 C-27.34375,262.9375 -27.34375,262.8375 -27.34375,262.6375 z" id="svg_103"/>
	<path class="st32" d="M-39.443749999999994,245.9375 c0.2,0 0.30000000000000016,0 0.2,0.2 c-0.1,0.1 0,0.4 -0.2,0.30000000000000016 c-0.2,0 -0.30000000000000016,-0.2 -0.30000000000000016,-0.4 C-39.64375000000001,245.8375 -39.443749999999994,245.9375 -39.443749999999994,245.9375 z" id="svg_104"/>
	<path class="st32" d="M-40.443749999999994,246.2375 c-0.1,0.1 0,0.30000000000000016 -0.2,0.30000000000000016 c-0.2,0 -0.30000000000000016,-0.1 -0.30000000000000016,-0.30000000000000016 c0,-0.2 0.2,-0.2 0.30000000000000016,-0.30000000000000016 C-40.443749999999994,246.0375 -40.443749999999994,246.1375 -40.443749999999994,246.2375 z" id="svg_105"/>
	<path class="st32" d="M-39.54374999999999,244.8375 c-0.2,0.1 -0.2,0.5 -0.4,0.4 c-0.2,-0.1 -0.2,-0.4 -0.1,-0.5 C-39.943749999999994,244.5375 -39.743750000000006,244.8375 -39.54374999999999,244.8375 z" id="svg_106"/>
	<path class="st32" d="M-39.14375000000001,245.4375 c0,0.30000000000000016 -0.1,0.30000000000000016 -0.2,0.30000000000000016 c-0.1,0 -0.30000000000000016,0 -0.30000000000000016,-0.2 c0,-0.1 0.1,-0.30000000000000016 0.30000000000000016,-0.30000000000000016 C-39.243750000000006,245.1375 -39.14375000000001,245.3375 -39.14375000000001,245.4375 z" id="svg_107"/>
	<path class="st32" d="M-40.04374999999999,246.2375 c0.1,0.2 0.4,0.2 0.30000000000000016,0.4 c-0.1,0.1 -0.30000000000000016,0.2 -0.5,0.1 C-40.443749999999994,246.5375 -40.14375000000001,246.4375 -40.04374999999999,246.2375 z" id="svg_108"/>
	<path class="st32" d="M-41.14375000000001,246.0375 c0,-0.2 -0.1,-0.5 0.1,-0.6000000000000003 c0.1,0 0.30000000000000016,0.1 0.4,0.30000000000000016 C-40.64375000000001,246.0375 -40.943749999999994,245.9375 -41.14375000000001,246.0375 z" id="svg_109"/>
	<path class="st32" d="M-40.34375,245.0375 c0,0.1 0,0.30000000000000016 -0.2,0.30000000000000016 c-0.1,0 -0.30000000000000016,0 -0.30000000000000016,-0.2 c0,-0.2 0.2,-0.2 0.30000000000000016,-0.2 C-40.34375,244.7375 -40.443749999999994,245.0375 -40.34375,245.0375 z" id="svg_110"/>
	<path class="st32" d="M-44.743750000000006,263.8375 c0,0.1 0,0.2 -0.2,0.2 c-0.1,0 -0.4,0 -0.4,-0.2 c0,-0.2 0.2,-0.30000000000000016 0.4,-0.30000000000000016 C-44.743750000000006,263.4375 -44.84375,263.6375 -44.743750000000006,263.8375 z" id="svg_111"/>
	<path class="st32" d="M-44.443749999999994,264.0375 c0,-0.2 -0.30000000000000016,-0.4 0,-0.6000000000000003 c0.1,-0.1 0.30000000000000016,0 0.4,0.2 C-44.04374999999999,263.8375 -44.243750000000006,263.9375 -44.443749999999994,264.0375 z" id="svg_112"/>
	<path class="st32" d="M-44.04374999999999,265.3375 c-0.2,0 -0.5,0.30000000000000016 -0.6000000000000003,0 c-0.1,-0.1 0,-0.4 0.2,-0.4 C-44.243750000000006,264.9375 -44.14375000000001,265.1375 -44.04374999999999,265.3375 z" id="svg_113"/>
	<path class="st32" d="M-43.443749999999994,264.5375 c-0.1,0.30000000000000016 -0.1,0.6000000000000003 -0.4,0.6000000000000003 c-0.1,0 -0.2,-0.30000000000000016 -0.2,-0.4 C-43.943749999999994,264.4375 -43.743750000000006,264.7375 -43.443749999999994,264.5375 z" id="svg_114"/>
	<path class="st32" d="M-44.743750000000006,264.9375 c-0.1,0.1 0,0.4 -0.2,0.4 c-0.2,0 -0.30000000000000016,-0.2 -0.30000000000000016,-0.30000000000000016 c0,-0.2 0.2,-0.2 0.30000000000000016,-0.2 C-44.84375,264.7375 -44.743750000000006,264.7375 -44.743750000000006,264.9375 z" id="svg_115"/>
	<path class="st32" d="M-43.84375,264.3375 c-0.1,0 -0.30000000000000016,0 -0.2,-0.1 c0,-0.2 0.1,-0.4 0.30000000000000016,-0.30000000000000016 c0.1,0 0.2,0.2 0.2,0.30000000000000016 C-43.54374999999999,264.3375 -43.64375000000001,264.3375 -43.84375,264.3375 z" id="svg_116"/>
	<path class="st32" d="M-45.34375,264.1375 c0.2,0 0.30000000000000016,0.1 0.30000000000000016,0.30000000000000016 c0,0.2 -0.2,0.2 -0.4,0.30000000000000016 c-0.2,0.1 -0.1,-0.1 -0.1,-0.2 C-45.54374999999999,264.2375 -45.54374999999999,264.1375 -45.34375,264.1375 z" id="svg_117"/>
	<path class="st32" d="M-28.84375,260.9375 c0.1,0.1 0.4,0.1 0.4,0.30000000000000016 c0,0.2 -0.2,0.30000000000000016 -0.30000000000000016,0.30000000000000016 c-0.2,0 -0.2,-0.30000000000000016 -0.2,-0.4 C-29.14375000000001,261.0375 -28.943749999999994,261.0375 -28.84375,260.9375 z" id="svg_118"/>
	<path class="st32" d="M-28.54374999999999,262.8375 c0,0.2 -0.2,0.2 -0.30000000000000016,0.30000000000000016 c-0.1,0 -0.30000000000000016,0 -0.2,-0.1 c0,-0.1 0,-0.4 0.2,-0.4 C-28.84375,262.5375 -28.64375000000001,262.7375 -28.54374999999999,262.8375 z" id="svg_119"/>
	<path class="st32" d="M-29.943749999999994,261.6375 c0.2,0.1 0.4,0.2 0.5,0.30000000000000016 c-0.1,0.2 -0.30000000000000016,0.30000000000000016 -0.5,0.30000000000000016 C-30.14375000000001,262.1375 -30.04374999999999,261.9375 -29.943749999999994,261.6375 z" id="svg_120"/>
	<path class="st32" d="M-29.243750000000006,261.3375 c0,0.1 0,0.30000000000000016 -0.2,0.30000000000000016 c-0.1,0 -0.30000000000000016,-0.1 -0.30000000000000016,-0.30000000000000016 c0,-0.2 0.2,-0.30000000000000016 0.4,-0.30000000000000016 C-29.14375000000001,261.0375 -29.34375,261.3375 -29.243750000000006,261.3375 z" id="svg_121"/>
	<path class="st32" d="M-28.54374999999999,261.8375 c0.1,-0.2 0.2,-0.30000000000000016 0.30000000000000016,-0.5 c0.2,0.1 0.4,0.30000000000000016 0.30000000000000016,0.5 C-28.14375000000001,262.0375 -28.34375,261.9375 -28.54374999999999,261.8375 z" id="svg_122"/>
	<path class="st32" d="M-28.64375000000001,262.2375 c0.2,0 0.4,0 0.6000000000000003,0 c0,0.2 -0.1,0.4 -0.30000000000000016,0.5 C-28.54374999999999,262.7375 -28.54374999999999,262.4375 -28.64375000000001,262.2375 z" id="svg_123"/>
	<path class="st32" d="M-29.34375,262.6375 c0,0.1 0,0.30000000000000016 -0.2,0.30000000000000016 c-0.1,0 -0.30000000000000016,-0.1 -0.30000000000000016,-0.30000000000000016 c0,-0.2 0.2,-0.2 0.4,-0.2 C-29.243750000000006,262.4375 -29.34375,262.5375 -29.34375,262.6375 z" id="svg_124"/>
</g><g id="svg_125" class="">
	<path class="st18" d="M-125.6125,355.76875 l19.6,45.9 h-5 l-14.6,-34.9 L-140.3125,401.66875 h-5 L-125.6125,355.76875 z" id="svg_126"/>
	<path class="st18" d="M-93.2125,380.06875 l-2.9,-4.4 l8.9,-13.7 l5.3,0.1 L-93.2125,380.06875 zM-94.3125,381.66875 v20 h-4.8 v-20 l-16.1,-25.9 h5.5 L-94.3125,381.66875 z" id="svg_127"/>
	<path class="st18" d="M-67.7125,355.76875 l19.6,45.9 h-5 l-14.6,-34.9 l-14.7,34.9 h-5 L-67.7125,355.76875 z" id="svg_128"/>
	<polygon class="st18" points="-83.71249389648438,355.7687530517578 -86.51249694824219,360.3687438964844 -80.91250610351562,360.3687438964844 -78.11250305175781,355.7687530517578 " id="svg_129"/>
	<path class="st18" d="M-146.6125,377.86875 c-0.2,-1.8 -0.7000000000000003,-3.6 -1.3,-5.4 c-1.5,-4.4 -3.9,-8.2 -7.3,-11.3 c-2.1,-1.9 -4.5,-3.5 -7,-4.8 c-0.30000000000000016,-0.1 -0.5,-0.1 -0.8,0 c-1,0.4 -2,0.9 -2.9,1.4 c-1.9,0.9 -3.8,2 -5.6,3.2 c-2,1.4 -3.9,2.8 -5.9,4.3 c-0.5,0.4 -1.1,0.8 -1.6,1.2 c-0.4,0.30000000000000016 -0.6000000000000003,0.30000000000000016 -0.9,0 c-0.7000000000000003,-0.6000000000000003 -1.4,-1.1 -2.1,-1.6 C-185.5125,361.86875 -189.3125,359.46875 -193.3125,357.46875 c-0.8,-0.4 -1.7000000000000002,-0.8 -2.5,-1.2 c-0.30000000000000016,-0.1 -0.6000000000000003,-0.1 -0.9,0.1 c-0.1,0.1 -0.30000000000000016,0.2 -0.4,0.30000000000000016 c-1,0.6000000000000003 -2,1.1 -3,1.8 c-1.7000000000000002,1.2 -3.3,2.5 -4.8,4 c-1.8,1.9 -3.4,4 -4.6,6.4 c-2,3.9 -2.9,8.1 -3,12.5 c0,1.4 0.1,2.7 0.2,4.1 c0.1,1.2 0.2,2.5 0.5,3.7 c0.5,2.4 1.3,4.8 2.6,6.9 c1.1,1.9 2.3,3.8 3.5,5.7 h8.3 c-0.2,-0.5 -0.30000000000000016,-1 -0.5,-1.5 c-1,-2.8 -2,-5.7 -2.7,-8.6 c-0.4,-1.6 -0.8,-3.3 -1,-5 c-0.1,-1 -0.30000000000000016,-2 -0.30000000000000016,-3.1 c0,-0.6000000000000003 -0.1,-1.1 -0.1,-1.7000000000000002 c0.1,-1 0.2,-2.1 0.30000000000000016,-3.1 c0.1,-1.1 0.30000000000000016,-2.1 0.6000000000000003,-3.1 c0.5,-1.7000000000000002 1.4,-3.1 2.7,-4.3 c1.5,-1.3 3.2,-2.1 5.2,-2.3 c1.5,-0.2 2.9,0.2 4.1,1.1 c0.9,0.7000000000000003 1.5,1.6 2,2.6 c0.7000000000000003,1.4 1.1,2.9 1.5,4.4 c0.5,2.1 0.6000000000000003,4.2 0.7000000000000003,6.3 c0,1.5 0,3 0,4.5 c0,1.6 -0.1,3.1 -0.1,4.7 c0,1.5 -0.1,7 -0.30000000000000016,8.6 c-0.1,0.4 0,0.4 0.30000000000000016,0.4 c3.7,0 7.4,0 11.1,0 c0.1,0 0.1,0 0.2,0 c0.1,0 0.2,0 0.2,-0.2 c0,0 0,-0.1 0,-0.1 c-0.1,-0.9 -0.2,-5.7 -0.2,-6.6 c-0.1,-1.6 -0.2,-3.3 -0.2,-4.9 c-0.1,-2 -0.1,-4.1 0,-6.1 c0.1,-2 0.30000000000000016,-3.9 0.6000000000000003,-5.9 c0.30000000000000016,-1.4 0.6000000000000003,-2.8 1.1,-4.1 c0.5,-1.3 1.2,-2.4 2.2,-3.4 c1.1,-1 2.4,-1.6 3.9,-1.6 c0.8,0 1.5,0.1 2.3,0.4 c1.8,0.6000000000000003 3.4,1.6 4.6,3.1 c1.1,1.5 1.7000000000000002,3.2 2,5 c0.2,1.4 0.30000000000000016,2.8 0.4,4.2 c0.1,0.6000000000000003 0,1.2 0,1.7000000000000002 c-0.1,1.3 -0.2,2.6 -0.5,4 c-0.4,2.5 -1,5 -1.8,7.4 c-0.7000000000000003,2.4 -1.6,4.7 -2.4,7.1 h8.4 c1,-1.7000000000000002 2,-3.3 3,-5 c1.4,-2.3 2.4,-4.9 2.9,-7.5 c0.4,-2 0.6000000000000003,-4.1 0.8,-6.1 C-146.3125,381.26875 -146.4125,379.56875 -146.6125,377.86875 z" id="svg_130"/>
	<path class="st17" d="M-22.11250000000001,358.76875 c-2.1,0.2 -4,0.7000000000000003 -5.8,1.5 c-2.3,1.1 -4.3,2.5 -5.9,4.2 c-1.6,1.8 -2.9,3.8 -3.9,6.2 c-0.9,2.4 -1.4,4.8 -1.4,7.4 c0,2.6 0.5,5.1 1.4,7.4 c0.9,2.3 2.2,4.4 3.9,6.1 c1.6,1.7000000000000002 3.6,3.1 5.9,4.2 c1.8,0.8 3.8,1.3 5.8,1.5 v4.1 c-2.6,-0.2 -5.1,-0.8 -7.4,-1.7000000000000002 c-2.9,-1.2 -5.4,-2.8 -7.5,-4.9 c-2.1,-2.1 -3.8,-4.6 -5,-7.4 c-1.2,-2.8 -1.8,-5.9 -1.8,-9.2 c0,-3.3 0.6000000000000003,-6.3 1.9,-9.2 c1.2,-2.9 2.9,-5.3 5.1,-7.5 c2.1,-2.1 4.6,-3.8 7.5,-5 c2.3,-1 4.8,-1.6 7.4,-1.8 V358.76875 zM-19.712500000000006,397.36875 c2.6,-0.1 4.9,-0.6000000000000003 7,-1.5 c2.3,-1 4.3,-2.4 5.9,-4.1 c1.6,-1.7000000000000002 2.9,-3.8 3.8,-6.1 c0.9,-2.3 1.3,-4.8 1.3,-7.5 c0,-2.8 -0.4,-5.3 -1.3,-7.7 c-0.9,-2.4 -2.2,-4.4 -3.8,-6.2 c-1.6,-1.7000000000000002 -3.6,-3.1 -5.9,-4.1 c-2.1,-0.9 -4.5,-1.4 -7.1,-1.5 v-4.1 c3.1,0.1 6,0.7000000000000003 8.7,1.8 c2.9,1.2 5.3,2.8 7.4,5 c2.1,2.1 3.7,4.6 4.9,7.4 c1.2,2.9 1.8,5.9 1.8,9.2 c0,3.4 -0.6000000000000003,6.5 -1.8,9.3 c-1.2,2.9 -2.9,5.3 -5,7.4 c-2.1,2.1 -4.6,3.7 -7.4,4.9 c-2.7,1.1 -5.6,1.7000000000000002 -8.6,1.7000000000000002 V397.36875 z" id="svg_131"/>
	<path class="st17" d="M8.087500000000006,354.46875 l33.6,36.6 v-35.1 h4.8 v47.2 L12.887499999999989,366.46875 v35 h-4.8 V354.46875 z" id="svg_132"/>
	<path class="st17" d="M53.28750000000002,356.06875 h4.8 v41.5 h20.5 v4.1 h-25.2 V356.06875 z" id="svg_133"/>
	<path class="st17" d="M85.38749999999999,356.06875 h4.8 v45.6 h-4.8 V356.06875 z" id="svg_134"/>
	<path class="st17" d="M96.98750000000001,354.66875 l33.6,36.6 v-35.1 h4.8 v47.2 l-33.6,-36.6 v35 h-4.8 V354.66875 z" id="svg_135"/>
	<path class="st17" d="M142.1875,397.56875 h28.1 v4.1 h-28 L142.1875,397.56875 zM142.1875,356.06875 h28 v4.1 h-28 V356.06875 zM142.1875,376.16875 h26.9 v4.1 h-26.9 V376.16875 z" id="svg_136"/>
</g></g></svg>