<svg id="Layer_1" data-name="Layer 1" xmlns="http://www.w3.org/2000/svg" viewBox="0 0 207 167"><defs><style>.cls-1,.cls-6{fill:none;}.cls-1{stroke:#323232;}.cls-1,.cls-3,.cls-6{stroke-miterlimit:10;stroke-width:2px;}.cls-2{fill:#fff;}.cls-3,.cls-5{fill:#f69437;}.cls-3{stroke:#313333;}.cls-4{fill:#323232;}.cls-6{stroke:#f69437;}</style></defs><title>ebs icon new</title><rect class="cls-1" x="14.5" y="25" width="178" height="131" rx="12" ry="12"/><rect class="cls-2" x="57" y="14.5" width="93" height="20" rx="10" ry="10"/><line class="cls-3" x1="103.5" y1="76" x2="103.5" y2="91"/><line class="cls-3" x1="111" y1="83.5" x2="96" y2="83.5"/><path class="cls-4" d="M44.8,123.31h8.06v1.84h-6v2.72h5.34v1.84H46.9v2.77H53v1.84H44.8Z"/><path class="cls-4" d="M62.85,124.05a2.36,2.36,0,0,1,1,2,2.41,2.41,0,0,1-1.92,2.44,2.84,2.84,0,0,1,1.72.94,2.76,2.76,0,0,1,.62,1.84,2.62,2.62,0,0,1-1.09,2.22,4.9,4.9,0,0,1-3,.81h-5v-11h4.89A4.62,4.62,0,0,1,62.85,124.05Zm-1.6,3.4a1.2,1.2,0,0,0,.46-1,1.15,1.15,0,0,0-.46-1,2,2,0,0,0-1.28-.33H57.29v2.67H60A2,2,0,0,0,61.24,127.45Zm.29,4.67a1.26,1.26,0,0,0,.57-1.1,1.22,1.22,0,0,0-.57-1.06,2.69,2.69,0,0,0-1.57-.37H57.29v2.91H60A2.65,2.65,0,0,0,61.54,132.12Z"/><path class="cls-4" d="M71.51,125.34a5.25,5.25,0,0,0-1.56-.28,2.19,2.19,0,0,0-1.19.28.89.89,0,0,0-.44.79,1,1,0,0,0,.31.76,2.38,2.38,0,0,0,.77.5,12,12,0,0,0,1.27.43,13.8,13.8,0,0,1,1.83.66,3.26,3.26,0,0,1,1.22,1,2.68,2.68,0,0,1,.5,1.7,2.9,2.9,0,0,1-.54,1.75A3.4,3.4,0,0,1,72.17,134a5.65,5.65,0,0,1-2.18.39,6.85,6.85,0,0,1-2.51-.48,7.14,7.14,0,0,1-2.14-1.28l.88-1.79a6.45,6.45,0,0,0,1.87,1.21,5,5,0,0,0,1.93.44,2.45,2.45,0,0,0,1.38-.34,1.11,1.11,0,0,0,.2-1.7,2.29,2.29,0,0,0-.78-.5q-.47-.19-1.29-.42a15.48,15.48,0,0,1-1.82-.64,3.17,3.17,0,0,1-1.21-1,2.62,2.62,0,0,1-.5-1.67,2.81,2.81,0,0,1,.51-1.67A3.29,3.29,0,0,1,68,123.53a5.54,5.54,0,0,1,2.16-.39,7.31,7.31,0,0,1,2.11.31,7.15,7.15,0,0,1,1.86.85l-.85,1.84A8,8,0,0,0,71.51,125.34Z"/><path class="cls-4" d="M132.8,123.31h8.06v1.84h-6v2.72h5.34v1.84H134.9v2.77H141v1.84H132.8Z"/><path class="cls-4" d="M150.85,124.05a2.36,2.36,0,0,1,1,2,2.41,2.41,0,0,1-1.92,2.44,2.84,2.84,0,0,1,1.72.94,2.76,2.76,0,0,1,.62,1.84,2.62,2.62,0,0,1-1.09,2.22,4.9,4.9,0,0,1-3,.81h-5v-11h4.89A4.62,4.62,0,0,1,150.85,124.05Zm-1.6,3.4a1.2,1.2,0,0,0,.46-1,1.15,1.15,0,0,0-.46-1,2,2,0,0,0-1.28-.33h-2.67v2.67H148A2,2,0,0,0,149.24,127.45Zm.29,4.67a1.26,1.26,0,0,0,.57-1.1,1.22,1.22,0,0,0-.57-1.06,2.69,2.69,0,0,0-1.57-.37h-2.67v2.91H148A2.65,2.65,0,0,0,149.54,132.12Z"/><path class="cls-4" d="M159.51,125.34a5.25,5.25,0,0,0-1.56-.28,2.19,2.19,0,0,0-1.19.28.89.89,0,0,0-.44.79,1,1,0,0,0,.31.76,2.38,2.38,0,0,0,.77.5,12,12,0,0,0,1.27.43,13.8,13.8,0,0,1,1.83.66,3.26,3.26,0,0,1,1.22,1,2.68,2.68,0,0,1,.5,1.7,2.9,2.9,0,0,1-.54,1.75,3.4,3.4,0,0,1-1.49,1.14,5.65,5.65,0,0,1-2.18.39,6.85,6.85,0,0,1-2.51-.48,7.14,7.14,0,0,1-2.14-1.28l.88-1.79a6.45,6.45,0,0,0,1.87,1.21,5,5,0,0,0,1.93.44,2.45,2.45,0,0,0,1.38-.34,1.11,1.11,0,0,0,.2-1.7,2.29,2.29,0,0,0-.78-.5q-.47-.19-1.29-.42a15.48,15.48,0,0,1-1.82-.64,3.17,3.17,0,0,1-1.21-1,2.62,2.62,0,0,1-.5-1.67,2.81,2.81,0,0,1,.51-1.67,3.29,3.29,0,0,1,1.45-1.11,5.54,5.54,0,0,1,2.16-.39,7.31,7.31,0,0,1,2.11.31,7.15,7.15,0,0,1,1.86.85l-.85,1.84A8,8,0,0,0,159.51,125.34Z"/><path class="cls-5" d="M70.38,17.59a6.69,6.69,0,0,1,2.51,9.21,6.65,6.65,0,0,1-2.51,2.44,7.43,7.43,0,0,1-7.08,0,6.65,6.65,0,0,1-2.51-2.44,6.62,6.62,0,0,1,2.51-9.21,7.57,7.57,0,0,1,7.08,0Zm-5.72,2A4.47,4.47,0,0,0,63,25.66a4.51,4.51,0,0,0,1.62,1.62,4.29,4.29,0,0,0,2.21.6,4.21,4.21,0,0,0,2.18-.6,4.39,4.39,0,0,0,1.6-1.62,4.46,4.46,0,0,0,.59-2.26,4.42,4.42,0,0,0-.59-2.25,4.34,4.34,0,0,0-1.6-1.6A4.26,4.26,0,0,0,66.88,19,4.39,4.39,0,0,0,64.65,19.55Z"/><path class="cls-5" d="M84.26,20.53a4.35,4.35,0,0,1,1.66,1.8A5.81,5.81,0,0,1,86.51,25a5.73,5.73,0,0,1-.58,2.63,4.27,4.27,0,0,1-1.64,1.77,4.72,4.72,0,0,1-2.46.63,4.29,4.29,0,0,1-2-.44,3.72,3.72,0,0,1-1.42-1.28v5.25H76V20h2.43v1.64a3.6,3.6,0,0,1,1.39-1.28,4.24,4.24,0,0,1,2-.44A4.71,4.71,0,0,1,84.26,20.53Zm-1,6.57A3.08,3.08,0,0,0,84,24.93a3,3,0,0,0-.78-2.17,2.86,2.86,0,0,0-4.05,0,3,3,0,0,0-.78,2.17,3.07,3.07,0,0,0,.78,2.18,2.66,2.66,0,0,0,2,.84A2.62,2.62,0,0,0,83.26,27.11Z"/><path class="cls-5" d="M96.38,21.25a5.59,5.59,0,0,1,1.2,3.83q0,.49,0,.73H90.19A2.78,2.78,0,0,0,93,28.09a3.79,3.79,0,0,0,1.47-.29A3.57,3.57,0,0,0,95.73,27L97,28.33a5.06,5.06,0,0,1-1.82,1.27,6.13,6.13,0,0,1-2.38.45,5.55,5.55,0,0,1-2.7-.63,4.43,4.43,0,0,1-1.8-1.78,5.79,5.79,0,0,1,0-5.29,4.56,4.56,0,0,1,1.8-1.8,5.32,5.32,0,0,1,2.63-.64A4.54,4.54,0,0,1,96.38,21.25Zm-1,2.93a2.43,2.43,0,0,0-.73-1.75,2.84,2.84,0,0,0-3.61,0,2.85,2.85,0,0,0-.89,1.76Z"/><path class="cls-5" d="M108.39,20.91a3.9,3.9,0,0,1,1,2.81V30h-2.45V24.43a2.25,2.25,0,0,0-.6-1.65,2.18,2.18,0,0,0-1.62-.61,2.46,2.46,0,0,0-1.91.82,3,3,0,0,0-.7,2.05V30H99.67V20h2.43v1.87a3.78,3.78,0,0,1,3.58-2A3.57,3.57,0,0,1,108.39,20.91Z"/><path class="cls-5" d="M112.2,16.89h9.58v2.18H114.7V22.3H121v2.18H114.7v3.29H122V30h-9.8Z"/><path class="cls-5" d="M133.64,17.76a2.8,2.8,0,0,1,1.2,2.39A2.86,2.86,0,0,1,132.56,23a3.37,3.37,0,0,1,2,1.12,3.28,3.28,0,0,1,.74,2.18A3.11,3.11,0,0,1,134,29a5.82,5.82,0,0,1-3.54,1h-6V16.89h5.81A5.49,5.49,0,0,1,133.64,17.76Zm-1.9,4a1.43,1.43,0,0,0,.55-1.19,1.36,1.36,0,0,0-.55-1.16,2.42,2.42,0,0,0-1.52-.39H127v3.17h3.17A2.42,2.42,0,0,0,131.73,21.79Zm.35,5.54a1.5,1.5,0,0,0,.67-1.31,1.45,1.45,0,0,0-.67-1.26,3.2,3.2,0,0,0-1.87-.44H127v3.45h3.17A3.14,3.14,0,0,0,132.08,27.34Z"/><path class="cls-5" d="M143.92,19.29a6.24,6.24,0,0,0-1.86-.34,2.61,2.61,0,0,0-1.42.34,1.05,1.05,0,0,0-.52.93,1.23,1.23,0,0,0,.36.91,2.84,2.84,0,0,0,.92.6,14.37,14.37,0,0,0,1.5.51,16.34,16.34,0,0,1,2.17.78,3.88,3.88,0,0,1,1.45,1.16,3.19,3.19,0,0,1,.6,2,3.44,3.44,0,0,1-.64,2.08,4,4,0,0,1-1.77,1.35,6.72,6.72,0,0,1-2.58.47,8.13,8.13,0,0,1-3-.57A8.48,8.48,0,0,1,136.6,28l1-2.13a7.65,7.65,0,0,0,2.22,1.44,5.91,5.91,0,0,0,2.3.52,2.92,2.92,0,0,0,1.64-.4,1.32,1.32,0,0,0,.23-2,2.71,2.71,0,0,0-.92-.59q-.56-.22-1.53-.5a18.16,18.16,0,0,1-2.17-.77A3.76,3.76,0,0,1,138,22.44a3.11,3.11,0,0,1-.6-2,3.33,3.33,0,0,1,.61-2,3.91,3.91,0,0,1,1.72-1.32,6.58,6.58,0,0,1,2.57-.47,8.67,8.67,0,0,1,2.51.37,8.5,8.5,0,0,1,2.21,1l-1,2.18A9.47,9.47,0,0,0,143.92,19.29Z"/><path class="cls-6" d="M145.58,95.07c0,5.35,0,10.69,0,16,0,.9-.16,1.12-1.09.8q-11-3.78-22.11-7.47a1,1,0,0,1-.81-1.11q0-16,0-32.08c0-.91.3-.87,1-.64q11,3.61,22.09,7.14c.8.26.93.66.93,1.4C145.57,84.46,145.58,89.76,145.58,95.07Z"/><path class="cls-6" d="M151.5,95c0-5.34,0-10.69,0-16a1.16,1.16,0,0,1,1-1.36q11-3.34,21.92-6.8c1-.33,1.12,0,1.12.88q0,15.66,0,31.32c0,.91-.31,1.22-1.13,1.5Q163.5,108.2,152.66,112c-1.1.38-1.23.13-1.22-.92,0-5.34,0-10.69,0-16Z"/><path class="cls-6" d="M170.17,67.07,162,69.72l-12.42,4.06a2.66,2.66,0,0,1-1.77.11c-7-2.25-14-4.46-20.94-6.68-.15,0-.28-.13-.68-.32L132.7,65q7.44-2.2,14.87-4.41a2.73,2.73,0,0,1,1.67-.07q10.45,3.19,20.91,6.34Z"/><path class="cls-6" d="M55.58,95.07c0,5.35,0,10.69,0,16,0,.9-.16,1.12-1.09.8q-11-3.78-22.11-7.47a1,1,0,0,1-.81-1.11q0-16,0-32.08c0-.91.3-.87,1-.64q11,3.61,22.09,7.14c.8.26.93.66.93,1.4C55.57,84.46,55.58,89.76,55.58,95.07Z"/><path class="cls-6" d="M61.5,95c0-5.34,0-10.69,0-16a1.16,1.16,0,0,1,1-1.36q11-3.34,21.92-6.8c1-.33,1.12,0,1.12.88q0,15.66,0,31.32c0,.91-.31,1.22-1.13,1.5Q73.5,108.2,62.66,112c-1.1.38-1.23.13-1.22-.92,0-5.34,0-10.69,0-16Z"/><path class="cls-6" d="M80.17,67.07,72,69.72,59.54,73.79a2.66,2.66,0,0,1-1.77.11c-7-2.25-14-4.46-20.94-6.68-.15,0-.28-.13-.68-.32L42.7,65q7.44-2.2,14.87-4.41a2.73,2.73,0,0,1,1.67-.07q10.45,3.19,20.91,6.34Z"/><line class="cls-1" x1="151.51" y1="93" x2="151.49" y2="95.38"/><line class="cls-1" x1="151.51" y1="103" x2="151.49" y2="105.38"/><line class="cls-1" x1="151.51" y1="98" x2="151.49" y2="100.38"/><line class="cls-1" x1="121.51" y1="75" x2="121.49" y2="77.38"/><line class="cls-1" x1="121.51" y1="85" x2="121.49" y2="87.38"/><line class="cls-1" x1="121.51" y1="80" x2="121.49" y2="82.38"/><line class="cls-1" x1="61.51" y1="93" x2="61.49" y2="95.38"/><line class="cls-1" x1="61.51" y1="103" x2="61.49" y2="105.38"/><line class="cls-1" x1="61.51" y1="98" x2="61.49" y2="100.38"/><line class="cls-1" x1="31.51" y1="75" x2="31.49" y2="77.38"/><line class="cls-1" x1="31.51" y1="85" x2="31.49" y2="87.38"/><line class="cls-1" x1="31.51" y1="80" x2="31.49" y2="82.38"/></svg>