<svg id="Layer_1" data-name="Layer 1" xmlns="http://www.w3.org/2000/svg" viewBox="0 0 400 400"><title>fav mule</title><path d="M142.52,43h4.38c.13.2.34.14.51.15a20.5,20.5,0,0,1,5.46,1.4,24.12,24.12,0,0,1,10.38,8.74,67.22,67.22,0,0,1,9.42,19.56,167.72,167.72,0,0,1,4.47,18.76q1.86,9.69,3,19.49c.63,5.45.88,10.92,1.36,16.38a45.22,45.22,0,0,0-2.92,7.32,44.67,44.67,0,0,0-2.12,8.73c-2-6.45-2.24-13.09-2-20a68.94,68.94,0,0,0-3.15,8.13,19.77,19.77,0,0,1,.07-2.18c.1-4.43,0-8.85-.23-13.28A186.86,186.86,0,0,0,168.47,94a86.54,86.54,0,0,0-7.83-24.06,32.13,32.13,0,0,0-7-9.75c-2.9-2.58-6.11-4.58-10.14-4.69A20.73,20.73,0,0,0,129,60.75c-2.75,2.39-4.27,5.61-5.49,9-2,5.59-2.14,11.37-1.41,17.18a132,132,0,0,0,4.71,21.79A169.4,169.4,0,0,0,149.3,155.1,63.89,63.89,0,0,0,160,167.47c2.13,1.86,3.24,1.65,4.62-.83a40.37,40.37,0,0,0,3.72-9.55c.58-2.26,1.08-4.55,1.61-6.83a33.56,33.56,0,0,0,1.65,5.65c1.23,2.73,2.1,5.71,5,7.3a.53.53,0,0,1,.26.69c-.78,2.68-.32,5.33.21,8a52.38,52.38,0,0,0,2.49,8.11,37.55,37.55,0,0,0,2.17,4.86,17.84,17.84,0,0,1,.3-7.9,23.89,23.89,0,0,1,3.12-7.38c-1.11,9.83.59,19.23,4,28.62a3.86,3.86,0,0,0,.1-.43,109.5,109.5,0,0,1,.65-14.93,30.75,30.75,0,0,1,2.07-8.76,6.54,6.54,0,0,1,3.12-3.68c.45-.2.73-.19.95.32a54.29,54.29,0,0,1,3.66,11,18,18,0,0,1,.29,7.59c0,.16-.1.37.08.43s.37-.16.49-.33c3.55-4.86,6.35-10.07,7.4-16.08a23,23,0,0,0,.3-4.55c0-1.5-.43-2.93-.53-4.4h0a37.38,37.38,0,0,1,4.67,4.91,29.79,29.79,0,0,1,5.79,11.16,18.94,18.94,0,0,1,.61,6.54c-.13,1.28-.48,2.53-.53,3.82l-.12.17.06,0,.06-.21a7.74,7.74,0,0,0,.42-.68,65.76,65.76,0,0,0,4.22-11.09,36,36,0,0,0,1.51-10.41c0-.41-.06-.83-.1-1.36a5.52,5.52,0,0,1,1.57,1.5,15.44,15.44,0,0,1,2.43,6.61c.29,1.58.53,3.17.8,4.75A11.89,11.89,0,0,0,230,178a31.74,31.74,0,0,0,1.57-13.43,12.81,12.81,0,0,0-2.08-5.8.86.86,0,0,1,0-1.12,12.79,12.79,0,0,0,1.48-3.39c0,.1.08.2.1.3a45.55,45.55,0,0,0,4.29,12c1.48,2.67,2.6,2.84,4.9.81a55.26,55.26,0,0,0,7.2-7.78,159.4,159.4,0,0,0,16.82-28A150.09,150.09,0,0,0,276.73,93.9c1.13-6,2-11.93,1.19-18a27.19,27.19,0,0,0-5.28-13.31c-2.87-3.69-6.89-5.62-11.36-6.68a15,15,0,0,0-13.09,2.71,25,25,0,0,0-5.83,6.13,66.78,66.78,0,0,0-7.74,16.68,107.22,107.22,0,0,0-4.05,18.13c-.66,4.59-1.21,9.2-1.51,13.83-.13,2.16-.29,4.31-.37,6.46-.14,3.54-.12,7.08,0,10.61.09,2.57.41,5.11.37,7.68-.51-1.33-1-2.66-1.53-4-.33-.84-.69-1.67-1-2.51.12,2.31,0,4.58,0,6.84a17.68,17.68,0,0,1-1.15,6.4,6.38,6.38,0,0,1-3.81,4.14c-.6.2-.93.16-1.14-.52a10.39,10.39,0,0,1-.3-5,19.3,19.3,0,0,1,2.84-6.74c.11-.18.32-.36.23-.57s-.43-.15-.65-.15a14,14,0,0,0-4.76,1.14c.5-6.45,1-12.91,1.59-19.35s1.39-13.14,2.42-19.67a168.24,168.24,0,0,1,7.35-29.26c2.41-6.87,5.61-13.3,10.59-18.72,5.36-5.84,12.06-7.88,19.71-6.79a30.19,30.19,0,0,1,16.5,8.14C283.31,58.38,286.44,67.16,287,77c0,2.48,0,5,0,7.43a70.22,70.22,0,0,1-.54,7.1,123,123,0,0,1-4.61,21.21c-5.26,17.21-12.64,33.52-21,49.42-1.27,2.41-2.65,4.75-4,7.09-1,1.68-.82,2.59.64,3.8l.51.4a36.23,36.23,0,0,1,6,6,39.52,39.52,0,0,1,7.29,15.95,48.76,48.76,0,0,1,1.19,13.41c-.19,3.43-.61,6.82-1,10.22-.47,3.83-.89,7.67-1.39,11.49-.63,4.73-1.36,9.45-2,14.17-.82,6.07-1.86,12.1-2.87,18.13-1,5.74-1.89,11.49-2.84,17.23-.67,4.1-1.17,8.23-2.06,12.28a142.43,142.43,0,0,1-7.52,22.82c-.27-.15-.27-.45-.37-.7-.44-1.07-.81-2.18-1.32-3.22a82.81,82.81,0,0,0-13.81-20.07,75.68,75.68,0,0,0-15.61-12.81A47.13,47.13,0,0,0,201.44,271a30.81,30.81,0,0,0-14.95,2.23A47.43,47.43,0,0,0,172,282.75a92.88,92.88,0,0,0-15,17.69,64.37,64.37,0,0,0-7.82,17.09c-.77,2.64-1.15,5.36-1.81,8l-.56,1.84c-.13-.25-.22-.42-.29-.59-2.5-5.69-4.91-11.42-7.13-17.23a104.54,104.54,0,0,1-4.83-14.81c-1.26-5.82-1.52-11.76-1.94-17.68-.26-3.71-.53-7.42-.77-11.14-.21-3.12-.67-6.22-1-9.33-.46-4.1-.64-8.23-.85-12.35-.25-4.8-.69-9.58-1.14-14.36-.4-4.33-.76-8.66-1.05-13a50.28,50.28,0,0,1,.84-14,53.35,53.35,0,0,1,11.18-22.43,44.75,44.75,0,0,1,4.73-5,2.14,2.14,0,0,0,.55-3c-.12-.24-.25-.48-.39-.71-5.84-10.29-11.3-20.77-16.09-31.58-5.9-13.3-11-26.84-13.76-41.19A92.46,92.46,0,0,1,113,83.16c0-.17.11-.39-.16-.48V80.41c.23-.07.16-.26.16-.4a42.49,42.49,0,0,1,.33-4.92,43.24,43.24,0,0,1,4.15-14.69c4.4-8.86,11.88-13.88,21.12-16.61C139.89,43.41,141.22,43.23,142.52,43Zm81.19,210.93c.73,0,1.46,0,2.19,0s1.45-.15,2.16-.27a42.8,42.8,0,0,0,24.77-12.74c4.56-4.72,6.1-10.24,4.17-16.59a32.35,32.35,0,0,0-14.45-18.49,15.21,15.21,0,0,0-13.08-1.46,22.13,22.13,0,0,0-9,5.63,43.86,43.86,0,0,0-11.74,21.75,25.8,25.8,0,0,0,2.4,17.65,7.8,7.8,0,0,0,6.48,4.61C219.63,254.19,221.66,253.83,223.71,253.88Zm-45.51.23h1.33c3.28,0,6.15-1,7.95-4a22.76,22.76,0,0,0,3.35-10.36,35.33,35.33,0,0,0-1.63-12.21c-2.77-9.82-8.47-17.41-17.48-22.36a13.52,13.52,0,0,0-9.83-1.63c-4.69,1.1-8.48,3.78-11.82,7.12a34.93,34.93,0,0,0-7.81,12.63,15.25,15.25,0,0,0,2.26,15.49,35.14,35.14,0,0,0,7.57,7.14C159.94,251.63,168.88,253.81,178.2,254.11Z" fill="#563a39"/><path d="M252.74,315.17c.28,1.23.6,2.46.84,3.7a26.19,26.19,0,0,1-5.07,21.39,45.59,45.59,0,0,1-23.14,16.26,53.2,53.2,0,0,1-14.5,2.28c-.25,0-.54-.15-.74.15H199c-.11-.22-.33-.15-.5-.16A134.66,134.66,0,0,1,179.22,357a59.75,59.75,0,0,1-15.7-4.65c-10.71-5.16-16-13.75-16-25.59,0-.4.21-.85-.14-1.22.66-2.66,1-5.38,1.81-8A64.37,64.37,0,0,1,157,300.44a92.88,92.88,0,0,1,15-17.69,47.43,47.43,0,0,1,14.48-9.51A30.81,30.81,0,0,1,201.44,271a47.13,47.13,0,0,1,20.19,7.36,75.68,75.68,0,0,1,15.61,12.81,82.81,82.81,0,0,1,13.81,20.07c.51,1,.88,2.15,1.32,3.22C252.47,314.72,252.47,315,252.74,315.17ZM236.07,330.9a1.66,1.66,0,0,0-.68.42,78.51,78.51,0,0,1-15.19,9.37,42.9,42.9,0,0,1-25.87,2.93,79,79,0,0,1-20.93-7.56c-2.89-1.45-5.67-3.1-8.5-4.67l-.06,0h.07c0,.43.33.67.55.95A50.64,50.64,0,0,0,189.32,349a38.64,38.64,0,0,0,22.87.91c8.92-2.4,15.92-7.64,21.41-15a19,19,0,0,0,2.51-4,.34.34,0,0,0,.08-.09s0,0,0-.05Zm2.59-23.69a4,4,0,0,0-.89-3,18.31,18.31,0,0,0-4.5-4.28,9.27,9.27,0,0,0-11.88,1,10.11,10.11,0,0,0-2.63,6.88,27.62,27.62,0,0,1-4.16,12.87c-1.33,2.17-2.75,4.26-4.24,6.32a1.85,1.85,0,0,0,.68,3,3,3,0,0,0,2.8,0,76.55,76.55,0,0,0,18.41-10.56C236.16,316.22,238.49,312.28,238.66,307.21Zm-73.31,1.65a8.65,8.65,0,0,0,1.35,4.78,26.85,26.85,0,0,0,8.05,8.08,104.18,104.18,0,0,0,13.35,7.43,17.31,17.31,0,0,0,2.81,1,2.75,2.75,0,0,0,2.61-.7,1.27,1.27,0,0,0,.41-1.66,6.46,6.46,0,0,0-1.36-2c-.27-.27-.61-.55-.57-.94a1.48,1.48,0,0,0-.55-1.26c-.33-.36-.63-.74-.93-1.13a26.47,26.47,0,0,1-5.35-15.24c-.32-5.9-5.07-9.83-10.52-8.92C169.61,299.12,165.35,303.76,165.35,308.86Z" fill="#af8070"/><path d="M287,77l.16,0v7.46H287C287,82,287,79.5,287,77Z" fill="#af8070"/><path d="M169.91,150.26c-.53,2.28-1,4.57-1.61,6.83a40.37,40.37,0,0,1-3.72,9.55c-1.38,2.48-2.49,2.69-4.62.83A63.89,63.89,0,0,1,149.3,155.1a169.4,169.4,0,0,1-22.45-46.43,132,132,0,0,1-4.71-21.79c-.73-5.81-.63-11.59,1.41-17.18,1.22-3.34,2.74-6.56,5.49-9a20.73,20.73,0,0,1,14.47-5.3c4,.11,7.24,2.11,10.14,4.69a32.13,32.13,0,0,1,7,9.75A86.54,86.54,0,0,1,168.47,94a186.86,186.86,0,0,1,2.64,22.24c.27,4.43.33,8.85.23,13.28a19.67,19.67,0,0,0-.07,2.17c-.06.27-.11.53-.18.79A45.49,45.49,0,0,0,169.45,145C169.48,146.79,169.74,148.52,169.91,150.26Z" fill="#348fc0"/><path d="M229.05,138.13c0-2.57-.28-5.11-.37-7.68-.11-3.53-.13-7.07,0-10.61.08-2.15.24-4.3.37-6.46.3-4.63.85-9.24,1.51-13.83a107.22,107.22,0,0,1,4.05-18.13,66.78,66.78,0,0,1,7.74-16.68,25,25,0,0,1,5.83-6.13,15,15,0,0,1,13.09-2.71c4.47,1.06,8.49,3,11.36,6.68a27.19,27.19,0,0,1,5.28,13.31c.81,6.08-.06,12.06-1.19,18a150.09,150.09,0,0,1-12.49,37.65,159.4,159.4,0,0,1-16.82,28,55.26,55.26,0,0,1-7.2,7.78c-2.3,2-3.42,1.86-4.9-.81a45.55,45.55,0,0,1-4.29-12c0-.1-.07-.2-.1-.3a20.93,20.93,0,0,0,0-8.74A60.38,60.38,0,0,0,229.05,138.13Z" fill="#348fc0"/><path d="M229.05,138.13a60.38,60.38,0,0,1,1.9,7.34,20.93,20.93,0,0,1,0,8.74,12.79,12.79,0,0,1-1.48,3.39.86.86,0,0,0,0,1.12,12.81,12.81,0,0,1,2.08,5.8A31.74,31.74,0,0,1,230,178a11.89,11.89,0,0,1-.87,2.19c-.27-1.58-.51-3.17-.8-4.75a15.44,15.44,0,0,0-2.43-6.61,5.52,5.52,0,0,0-1.57-1.5c0,.53.09.95.1,1.36a36,36,0,0,1-1.51,10.41,65.76,65.76,0,0,1-4.22,11.09,7.74,7.74,0,0,1-.42.68h0c0-1.29.4-2.54.53-3.82a18.94,18.94,0,0,0-.61-6.54,29.79,29.79,0,0,0-5.79-11.16,37.38,37.38,0,0,0-4.67-4.91l-.07,0,.07,0c.1,1.47.5,2.9.53,4.4a23,23,0,0,1-.3,4.55c-1.05,6-3.85,11.22-7.4,16.08-.12.17-.23.43-.49.33s-.12-.27-.08-.43a18,18,0,0,0-.29-7.59,54.29,54.29,0,0,0-3.66-11c-.22-.51-.5-.52-.95-.32a6.54,6.54,0,0,0-3.12,3.68,30.75,30.75,0,0,0-2.07,8.76,109.5,109.5,0,0,0-.65,14.93,3.86,3.86,0,0,1-.1.43c-3.41-9.39-5.11-18.79-4-28.62a23.89,23.89,0,0,0-3.12,7.38,17.84,17.84,0,0,0-.3,7.9,37.55,37.55,0,0,1-2.17-4.86,52.38,52.38,0,0,1-2.49-8.11c-.53-2.64-1-5.29-.21-8a.53.53,0,0,0-.26-.69c-2.91-1.59-3.78-4.57-5-7.3a33.56,33.56,0,0,1-1.65-5.65c-.17-1.74-.43-3.47-.46-5.22a45.49,45.49,0,0,1,1.64-12.61c.07-.26.12-.52.18-.79a69.48,69.48,0,0,1,3.15-8.12c-.22,6.87,0,13.51,2,20a44.67,44.67,0,0,1,2.12-8.73,45.22,45.22,0,0,1,2.92-7.32l0,.64a1.22,1.22,0,0,0-.14.28,17.66,17.66,0,0,0,0,5.62,7.68,7.68,0,0,0,.75,2.86,24.87,24.87,0,0,0,2.49,6.3c1.43-4,2.78-7.8,1.56-11.94l0,0a25.43,25.43,0,0,1,3.05,3.26,50.68,50.68,0,0,1,3.44,5.27,36.11,36.11,0,0,1,2.23,5.14A46.49,46.49,0,0,1,199.34,132a39.21,39.21,0,0,0,4.06,14,14.5,14.5,0,0,0,1.54-2.37,16.28,16.28,0,0,0,2.13-10.87,9.88,9.88,0,0,1-.5-2.28l.17,0a57.8,57.8,0,0,1,5.42,11.83,17.12,17.12,0,0,1,1.53-2.24,12.89,12.89,0,0,1,4.08-2.94,14,14,0,0,1,4.76-1.14c.22,0,.53-.13.65.15s-.12.39-.23.57a19.3,19.3,0,0,0-2.84,6.74,10.39,10.39,0,0,0,.3,5c.21.68.54.72,1.14.52a6.38,6.38,0,0,0,3.81-4.14,17.68,17.68,0,0,0,1.15-6.4c0-2.26.09-4.53,0-6.84.35.84.71,1.67,1,2.51C228,135.47,228.54,136.8,229.05,138.13Z" fill="#060707"/><path d="M223.71,253.88c-2.05,0-4.08.31-6.14.08a7.8,7.8,0,0,1-6.48-4.61,25.8,25.8,0,0,1-2.4-17.65A43.86,43.86,0,0,1,220.43,210a22.13,22.13,0,0,1,9-5.63,15.21,15.21,0,0,1,13.08,1.46A32.35,32.35,0,0,1,257,224.27c1.93,6.35.39,11.87-4.17,16.59a42.8,42.8,0,0,1-24.77,12.74c-.71.12-1.44.22-2.16.27S224.44,253.88,223.71,253.88Zm2.8-1.26a14.83,14.83,0,0,0,3.7-.27c5-1.15,8.14-4.39,10.07-9a10.78,10.78,0,0,0,1.16-5.39,2.85,2.85,0,0,0-4.13-2.51,12.89,12.89,0,0,0-1.44.72,9.51,9.51,0,0,1-1.7.74,4.62,4.62,0,0,1-5.36-2.13,4.15,4.15,0,0,1,.17-5.42c.43-.55,1-1,1.43-1.54a3,3,0,0,0-1.75-5.07,13.92,13.92,0,0,0-7.72.66c-4.65,1.78-8.1,4.87-9.23,9.82a19.14,19.14,0,0,0,1,11.35,11.71,11.71,0,0,0,7.76,7.22A19.49,19.49,0,0,0,226.51,252.62Z" fill="#fff"/><path d="M178.2,254.11c-9.32-.3-18.26-2.48-26.11-8.15a35.14,35.14,0,0,1-7.57-7.14,15.25,15.25,0,0,1-2.26-15.49,34.93,34.93,0,0,1,7.81-12.63c3.34-3.34,7.13-6,11.82-7.12a13.52,13.52,0,0,1,9.83,1.63c9,4.95,14.71,12.54,17.48,22.36a35.33,35.33,0,0,1,1.63,12.21,22.76,22.76,0,0,1-3.35,10.36c-1.8,2.92-4.67,3.91-7.95,4ZM157.62,238c0,.46.08,1.19.17,1.91a12.25,12.25,0,0,0,.31,1.58c1.43,5.31,4.5,9.11,9.91,10.73a23.58,23.58,0,0,0,4.89.48,12.52,12.52,0,0,0,8.22-2c4.49-3,7-7.18,6.46-12.77-.22-2.35-2.16-3.94-4.57-2.09a8,8,0,0,1-1.37.85,4.18,4.18,0,0,1-4.83-.46c-2.85-2.24-3-5.19-.32-7.63a10.49,10.49,0,0,0,.75-.74,2.7,2.7,0,0,0,.28-3.61,3.53,3.53,0,0,0-2.69-1.58,16.35,16.35,0,0,0-4.58.14A15,15,0,0,0,157.62,238Z" fill="#fff"/><path d="M218.24,190.82l-.06.21-.06,0,.12-.17Z" fill="#060707"/><path d="M238.66,307.21c-.17,5.07-2.5,9-6.41,12.16a76.55,76.55,0,0,1-18.41,10.56,3,3,0,0,1-2.8,0,1.85,1.85,0,0,1-.68-3c1.49-2.06,2.91-4.15,4.24-6.32a27.62,27.62,0,0,0,4.16-12.87,10.11,10.11,0,0,1,2.63-6.88,9.27,9.27,0,0,1,11.88-1,18.31,18.31,0,0,1,4.5,4.28A4,4,0,0,1,238.66,307.21Z" fill="#060707"/><path d="M165.35,308.86c0-5.1,4.26-9.74,9.3-10.57,5.45-.91,10.2,3,10.52,8.92a26.47,26.47,0,0,0,5.35,15.24c.3.39.6.77.93,1.13a1.48,1.48,0,0,1,.55,1.26c0,.39.3.67.57.94a6.46,6.46,0,0,1,1.36,2,1.27,1.27,0,0,1-.41,1.66,2.75,2.75,0,0,1-2.61.7,17.31,17.31,0,0,1-2.81-1,104.18,104.18,0,0,1-13.35-7.43,26.85,26.85,0,0,1-8.05-8.08A8.65,8.65,0,0,1,165.35,308.86Z" fill="#060707"/><path d="M164.9,331.39c2.83,1.57,5.61,3.22,8.5,4.67a79,79,0,0,0,20.93,7.56,42.9,42.9,0,0,0,25.87-2.93,78.51,78.51,0,0,0,15.19-9.37,1.66,1.66,0,0,1,.68-.42l0,.05a19.21,19.21,0,0,1-2.51,4c-5.49,7.34-12.49,12.58-21.41,15a38.64,38.64,0,0,1-22.87-.91,50.64,50.64,0,0,1-23.86-16.71c-.22-.28-.55-.52-.55-.95Z" fill="#fff"/><path d="M236.07,330.9l.09-.1s0,.05,0,.05a.34.34,0,0,1-.08.09Z" fill="#fff"/><path d="M164.91,331.38h-.07l.06,0Z" fill="#fff"/><path d="M206.57,130.47a9.88,9.88,0,0,0,.5,2.28,16.28,16.28,0,0,1-2.13,10.87A14.5,14.5,0,0,1,203.4,146a39.21,39.21,0,0,1-4.06-14,46.49,46.49,0,0,0-4.48,12.78,36.11,36.11,0,0,0-2.23-5.14,50.68,50.68,0,0,0-3.44-5.27,13.33,13.33,0,0,1,9.4-5.56c.21,0,.42-.09.63-.13a9.93,9.93,0,0,0,2,0A16.89,16.89,0,0,1,206,130,1,1,0,0,1,206.57,130.47Z" fill="#348fc0"/><path d="M199.23,113a6.33,6.33,0,1,1,2,.06A8.93,8.93,0,0,1,199.23,113Z" fill="#348fc0"/><path d="M199.23,113a8.93,8.93,0,0,0,2,.06l0,13.69v2a9.93,9.93,0,0,1-2,0Q199.24,120.88,199.23,113Z" fill="#060707"/><path d="M213.69,140.1a17.12,17.12,0,0,0-1.53,2.24,57.8,57.8,0,0,0-5.42-11.83,10.17,10.17,0,0,1,4,3.22,13,13,0,0,1,2.8,6A2.13,2.13,0,0,0,213.69,140.1Z" fill="#348fc0"/><path d="M182.06,136.83a7.68,7.68,0,0,1-.75-2.86,17.66,17.66,0,0,1,0-5.62,1.22,1.22,0,0,1,.14-.28C181.7,131,181.93,133.91,182.06,136.83Z" fill="#4b3938"/><path d="M186.11,131.19l-.11-.1.09-.08,0,.14Z" fill="#060707"/><path d="M207.7,164.39l-.07,0,.07,0Z" fill="#4b3938"/><path d="M226.51,252.62a19.49,19.49,0,0,1-6.07-.79,11.71,11.71,0,0,1-7.76-7.22,19.14,19.14,0,0,1-1-11.35c1.13-4.95,4.58-8,9.23-9.82a13.92,13.92,0,0,1,7.72-.66,3,3,0,0,1,1.75,5.07c-.45.53-1,1-1.43,1.54a4.15,4.15,0,0,0-.17,5.42,4.62,4.62,0,0,0,5.36,2.13,9.51,9.51,0,0,0,1.7-.74,12.89,12.89,0,0,1,1.44-.72,2.85,2.85,0,0,1,4.13,2.51,10.78,10.78,0,0,1-1.16,5.39c-1.93,4.58-5.08,7.82-10.07,9A14.83,14.83,0,0,1,226.51,252.62Z" fill="#060707"/><path d="M157.62,238a15,15,0,0,1,12.63-15.2,16.35,16.35,0,0,1,4.58-.14,3.53,3.53,0,0,1,2.69,1.58,2.7,2.7,0,0,1-.28,3.61,10.49,10.49,0,0,1-.75.74c-2.66,2.44-2.53,5.39.32,7.63a4.18,4.18,0,0,0,4.83.46,8,8,0,0,0,1.37-.85c2.41-1.85,4.35-.26,4.57,2.09.51,5.59-2,9.73-6.46,12.77a12.52,12.52,0,0,1-8.22,2,23.58,23.58,0,0,1-4.89-.48c-5.41-1.62-8.48-5.42-9.91-10.73a12.25,12.25,0,0,1-.31-1.58C157.7,239.14,157.65,238.41,157.62,238Z" fill="#060707"/></svg>