<svg id="Layer_1" data-name="Layer 1" xmlns="http://www.w3.org/2000/svg" xmlns:xlink="http://www.w3.org/1999/xlink" viewBox="0 0 640 502"><defs><clipPath id="clip-path"><path d="M499.05,336.33l-1.34,3.19a112.17,112.17,0,0,1-21.2,33.64l-2.3,2.58L377,310.33l23-36.46Z" fill="none"/></clipPath><clipPath id="clip-path-2"><path d="M456.17,309.37c-.64-.38-38.54-24.75-38.54-24.75L398,297.55l23.57,20.85L455.47,315Z" fill="none"/></clipPath><radialGradient id="radial-gradient" cx="281.26" cy="261.5" r="18.52" gradientUnits="userSpaceOnUse"><stop offset="0.02" stop-color="#facd27"/><stop offset="0.03" stop-color="#facc28"/><stop offset="0.34" stop-color="#f6b244"/><stop offset="0.51" stop-color="#f4a84e"/><stop offset="0.62" stop-color="#f7984b"/><stop offset="0.85" stop-color="#fd7c45"/><stop offset="0.98" stop-color="#ff7143"/></radialGradient><radialGradient id="radial-gradient-2" cx="682.36" cy="-1019.76" r="30.47" gradientTransform="translate(-111.94 1429.42) rotate(-11.77)" xlink:href="#radial-gradient"/><clipPath id="clip-path-3"><path d="M398.63,311.06h0c-12.91,22.66-39.82,32.07-61.18,21.39l-126.08-63c-13-6.49-17.29-23.47-9.44-37.25L230.55,182c7.85-13.77,24.66-18.72,36.86-10.86l118.45,76.38C405.93,260.46,411.55,288.4,398.63,311.06Z" fill="none"/></clipPath><clipPath id="clip-path-4"><rect x="352.09" y="147" width="49.26" height="49.26" rx="9.19" ry="9.19" transform="matrix(0.98, 0.2, -0.2, 0.98, 42.53, -72.69)" fill="none"/></clipPath><clipPath id="clip-path-5"><rect x="336.87" y="89.76" width="49.26" height="49.26" rx="9.19" ry="9.19" transform="translate(30.63 -70.8) rotate(11.68)" fill="none"/></clipPath><clipPath id="clip-path-6"><rect x="300.21" y="136.28" width="49.26" height="49.26" rx="9.19" ry="9.19" transform="translate(39.29 -62.41) rotate(11.68)" fill="none"/></clipPath></defs><title>mule variants</title><path d="M30.93,181.92c8.7,8.25,23.37,7.7,31.73-1.18,8.82-9.36,8.71-23.83-.72-32.5s-23.43-8.59-32.41,1C20.89,158.48,20.72,172.36,30.93,181.92Z" fill="#f3a84f"/><path d="M51.9,142.52l-3.06.14s-20.17,31-16.54,40.1h0l5.52,3.8,14.08-44" opacity="0.24"/><g clip-path="url(#clip-path)"><path d="M499.05,336.33l-1.34,3.19a112.17,112.17,0,0,1-21.2,33.64l-2.3,2.58L377,310.33l23-36.46Z" fill="#454745"/><line x1="477.74" y1="323.73" x2="451.65" y2="361.64" fill="#efefef" stroke="#454745" stroke-miterlimit="10" stroke-width="3"/><line x1="461.29" y1="312.41" x2="435.2" y2="350.32" fill="#efefef" stroke="#454745" stroke-miterlimit="10" stroke-width="3"/><line x1="444.84" y1="301.09" x2="418.75" y2="339" fill="#efefef" stroke="#454745" stroke-miterlimit="10" stroke-width="3"/><line x1="428.39" y1="289.77" x2="402.31" y2="327.68" fill="#efefef" stroke="#454745" stroke-miterlimit="10" stroke-width="3"/><line x1="409.66" y1="281.07" x2="384.53" y2="317.59" fill="#efefef" stroke="#454745" stroke-miterlimit="10" stroke-width="3"/></g><polygon points="499.47 335.96 487.52 329.47 467.08 358.99 401.87 303.42 393.77 321.76 461.49 367.25 461.66 367.04 472.81 374.71 499.47 335.96" opacity="0.3"/><g clip-path="url(#clip-path-2)"><path d="M443.69,295.91l-.7.2L417.81,283l-13.59,19.57.32,2.79,3.78,1.89c.91-.45,17.62,6.9,17.62,6.9l7.14-5.78c1.49,4.53,8.14,6.73,15.13,4.9,7.17-1.87,12-7.26,10.72-12S450.86,294,443.69,295.91Z" opacity="0.24"/></g><path d="M594.34,387l-2.23,4.21a221.46,221.46,0,0,1-31.24,45.39l-3.13,3.59-93.62-64.42L498,326.52Z" fill="#ccc"/><path d="M525.07,418.13c15.79-15.83-2-27-2-27l13.18-41.95,49,31.57L557.9,440Z" fill="#454745"/><path d="M564.21,370.3c-4.16,9.79-17.59,45.79,2.06,61.72l23.1-49-21.78-13.73A2.33,2.33,0,0,0,564.21,370.3Z" opacity="0.35"/><path d="M563.07,397.74H618a9,9,0,0,1,9,9v21.61a9,9,0,0,1-9,9H541.46a9,9,0,0,1-9-9v0A30.64,30.64,0,0,1,563.07,397.74Z" transform="translate(66.73 914.86) rotate(-79.88)" fill="#f4a84e"/><path d="M464.26,375.78l7.76-12,74.79,53.63S545,424,550.33,433.34l-3.9-.7Z" opacity="0.35"/><path d="M567.46,463.19l3.09-51.86s.38-10-7.22-13l-2.21,7.56L551.73,452s4.95,9.44,15.73,11.24" opacity="0.35"/><path d="M436.43,387.93,452.61,414c-9.51,10-12.82,10-24.81,15.87l-5.31,4.65L361.2,331.88l32.55-24.07Z" fill="#454745"/><path d="M546.41,404.49l-.49,4.73a217.45,217.45,0,0,1-12,53.43l-1.57,4.44L421.76,438l13-57.9Z" fill="#ccc"/><path d="M497.3,458.28c8.38-20.38-10.43-24.47-10.43-24.47l2.53-42.05,47.25,10.16-4.23,64.95Z" fill="#454745"/><path d="M520.82,403.92c-1.83,15.68-5.28,67.72,6.25,61L540,402.34,528.5,400C525.46,399.38,521.18,400.84,520.82,403.92Z" opacity="0.35"/><path d="M560.26,481l2.6-71a9.54,9.54,0,0,0-8.74-9.78l-20.35-1.52a8.69,8.69,0,0,0-9.4,8.43l-1.85,50.61a30.91,30.91,0,0,0,28.34,31.73h0A8.69,8.69,0,0,0,560.26,481Z" fill="#f4a84e"/><path d="M369.47,340.72l2.31,4.42s20.23-6.9,32.81-16.29l-7.49-14.68s-28.39,25.49-27.63,26.55" opacity="0.24"/><path d="M224.15,218.63c-13.63-15.59-52.8-43.91-165.1-81.46,0,0-26.17,26.27-19.68,59.12l137.78,37.82c13.6,3.73,27.66,6.54,41,3.52l4.43-1.61C230.69,234.2,229.48,224.73,224.15,218.63Z" fill="#454745"/><path d="M72.86,204.11a80.13,80.13,0,0,0,.3-14.2c-.1-2.56-.36-5.12-.48-7.68a2.28,2.28,0,0,1,.65-1.95A221.48,221.48,0,0,0,90.79,160.9c2.1-2.58,3.93-5.35,5.84-8.06.25-.34.9-.78.27-1.2s-1,.23-1.32.52c-4.42,3.51-8.6,7.25-12.66,11.09-5,4.77-9.68,9.86-14.37,14.91a2.84,2.84,0,0,0-.91,2.6c1.5,7.39,2.54,14.84,4.86,22.12C72.63,203.29,72.74,203.7,72.86,204.11Z" fill="#cdcdcd"/><path d="M73.5,204.86c-.76-4.28-.73-8.57-1.1-12.85-.29-3.34-.38-6.67-1.54-9.95-.68-2,.34-3.58,1.68-5a6.68,6.68,0,0,1,1.89-1.22c5.44-2.62,8.27-7.44,12-11.47,3.91-4.18,7.53-8.58,11.35-12.84,1-1.11,1-1.61-.75-2.17-12.55-4-25.07-8.18-37.59-12.3a2.13,2.13,0,0,0-2.71.71C55,140,53,142.08,51.18,144.28s-2.77,4.88-4,7.38c-2.09,4.21-4.68,8.23-6.13,12.69a107.64,107.64,0,0,0-3.68,13.19c-.82,4.41-.21,9-.34,13.53-.05,1.6.11,3.22,0,4.81-.07,1,.33,1.42,1.38,1.64,9.42,2,19.2,4.59,28.62,6.59a33.19,33.19,0,0,1,6,1.48C73.24,205.54,73.24,204.9,73.5,204.86Z" fill="#cbcbcb"/><path d="M398.65,310.56h0c-12.91,22.66-39.82,32.07-61.19,21.39L211.39,269c-13-6.49-17.3-23.47-9.45-37.25l28.63-50.22c12.88-12.46,30.45-14.17,42.65-6.3L385.87,247C405.94,260,411.56,287.9,398.65,310.56Z" fill="#cbcbcb"/><path d="M198.9,239.6l-9.75-2.73,4.91-23.79,44.84-16.47c-.72,14.79-23.8,29.47-34.78,39.41Z" opacity="0.24"/><path d="M191.23,173.8H242a0,0,0,0,1,0,0V190a25.39,25.39,0,0,1-25.39,25.39h0A25.39,25.39,0,0,1,191.23,190V173.8A0,0,0,0,1,191.23,173.8Z" transform="translate(-67.92 256.47) rotate(-54.2)" fill="#454745"/><path d="M166.91,198.54c-3.93-4.95-8.38-10.38-11-15.94-5-10.56-10.06-21.09-15-31.69-2.16-4.63-4.31-9.29-6.08-14.09-3.26-8.85-3.43-17.54,2-25.63.94-1.41.19-2.18-.75-3.09A184.75,184.75,0,0,1,110.17,77a70.85,70.85,0,0,1-9.35-21.69C98,44,104.64,32.21,115.33,29.89c3.8-.82,7.19.39,10.37,2.5A37.34,37.34,0,0,1,136,43.53a158.05,158.05,0,0,1,22.21,51.84c.1.44.26.87.37,1.24,3.76-1.43,7.38-3,11.15-4.17s7.6-1.77,11.32-2.61c-.67-2.23-1.34-4.68-2.14-7.08A147.16,147.16,0,0,1,171.82,49c-.71-7.77-1.44-15.52-.4-23.27a35.71,35.71,0,0,1,1.79-7.21c2.23-6.24,6.81-9.25,13.27-9.48,9-.31,17.45,6.22,20.58,15.12C211.55,37,211.57,50,210.15,63.09c-.88,8.11-2.43,16.14-3.77,24.19-.23,1.4.06,2.14,1.36,2.71,9,3.89,13.9,11.28,15.61,20.6,2.52,13.78,4.37,27.68,6.53,41.53,1.25,8,2.2,16,1.35,24.11-.07.67-.14,1.35-.18,1.82-3.11-2.79-6.1-5.77-9.39-8.35a46.78,46.78,0,0,0-19.24-8.87c-8.45-1.82-15.77.19-21.9,6.35-8,8.06-11.49,16.86-13.07,28.25C167.38,195.88,167,197.87,166.91,198.54Z" fill="#ccc"/><path d="M170.45,151.14c0,5.36-1.41,9.76-4.7,13.42a15.51,15.51,0,0,1-12.62,5.3,24.12,24.12,0,0,1-3-.41.9.9,0,0,1-.55-.42c-4.51-9.6-9.25-19.1-13.35-28.89-.63-1.48-.63-1.49.23-2.88a15.64,15.64,0,0,1,12.23-7.74,17.59,17.59,0,0,1,12.7,3.82,22.66,22.66,0,0,1,8.84,15.08C170.36,149.48,170.4,150.57,170.45,151.14Z" fill="#fff"/><path d="M199,130.69c.09-6,1.71-11,5.4-15.2a16.64,16.64,0,0,1,11.25-5.93,15.11,15.11,0,0,1,7.48,1.16.83.83,0,0,1,.42.53c.61,3.44,1.22,6.89,1.77,10.34.66,4.08,1.28,8.16,1.91,12.24.56,3.69,1.1,7.39,1.66,11.08a1,1,0,0,1-.34.94,16.37,16.37,0,0,1-12.4,4.94A16,16,0,0,1,205.35,146a21,21,0,0,1-6.13-12.54C199.08,132.4,199,131.32,199,130.69Z" fill="#fff"/><path d="M165.65,71.85l7.95,26.51q2.07,6.9,4.13,13.81c.17.56.46,1-.58,1.22-3.28.85-3.19.93-4.17-2.42-1.56-5.32-3.2-10.61-4.82-15.9q-3.25-10.66-6.5-21.33a1.75,1.75,0,0,1,0-.51C163.05,72.9,164.55,73,165.65,71.85Z" fill="#454745"/><path d="M165.65,71.85c-1.1,1.1-2.6,1.05-4,1.38-3.62-.35-6.39-3.76-4.94-8.11.8-2.42,4.18-4,7-3.2a5.72,5.72,0,0,1,4,6.4A5.07,5.07,0,0,1,165.65,71.85Z" fill="#f3a850"/><circle cx="169.72" cy="93.58" r="11.37" fill="#f4a84e"/><path d="M204.09,209.94c-3.57.67-8.28,1.91-13.05,2.37-6.7.64-12.76-1.5-18.1-5.33s-7.08-8.89-6.47-15.21a40.92,40.92,0,0,1,9.87-22.89,70.16,70.16,0,0,1,8.42-8.29,15.12,15.12,0,0,1,11.84-3.28c12.16,1.38,22.83,5.74,30.78,15.1a25,25,0,0,1,3.87,5.77,13.58,13.58,0,0,1,.33,9.9,27.59,27.59,0,0,1-15.33,17.32C212.69,207,208.92,208.16,204.09,209.94Z" fill="#f4a84e"/><path d="M201.55,46.63a96.12,96.12,0,0,1-4.83,28.74,21.3,21.3,0,0,1-2.2,4.53c-1,1.62-2.8,1.71-3.8,0a52.9,52.9,0,0,1-4.34-8.43c-3.45-9.3-4.81-19.06-5.45-28.89a36.06,36.06,0,0,1,1.83-14.74c.89-2.42,2.52-4.66,5.41-5.09a8.57,8.57,0,0,1,8.24,2.8c3.33,3.79,4.17,8.42,4.74,13.13C201.46,41.34,201.43,44,201.55,46.63Z" fill="#454745"/><path d="M111,54.23c.37-3.88.81-6.44,3.21-8.48,3.75-3.2,7.27-2.12,10.38.38,5.94,4.76,9.54,11.29,12.85,17.95a90.61,90.61,0,0,1,8,22,54,54,0,0,1,.58,7.1c.15,2.06-1.65,3.4-3.7,2a97.3,97.3,0,0,1-10-7.6c-8.31-7.64-15.17-16.44-19.64-26.88A40,40,0,0,1,111,54.23Z" fill="#454745"/><path d="M181.58,180a4.41,4.41,0,0,1,2.25-5,3.44,3.44,0,0,1,4.53,1,9.6,9.6,0,0,1,.92,1.91,10.24,10.24,0,0,0,4.06,4.83c.12.07.23.14.25.3s.19.28.35.36a2.39,2.39,0,0,1,.74.6.52.52,0,0,1,0,.7,1.17,1.17,0,0,1-1,.56,29.69,29.69,0,0,1-5.13-.85,15.26,15.26,0,0,1-3.93-1.36,6.28,6.28,0,0,1-2.68-2.21A2.86,2.86,0,0,1,181.58,180Z" fill="#454745"/><path d="M204.28,168.7a3.58,3.58,0,0,1,2.05,0,9,9,0,0,1,2.19,1,2.5,2.5,0,0,1,1.07,2,6.29,6.29,0,0,1-1.16,4.47,28.29,28.29,0,0,1-5.08,5.57l-.87.73a1.46,1.46,0,0,1-.56.27,1,1,0,0,1-.95-.27.72.72,0,0,1-.09-.84,33.34,33.34,0,0,0,1-3.23,11,11,0,0,0,0-5.16,3.94,3.94,0,0,1,.13-2.58A3.55,3.55,0,0,1,204.28,168.7Z" fill="#454745"/><path d="M189.55,99.16a13.8,13.8,0,0,0-2-4.08l0,0a12.41,12.41,0,0,0-10.18-5.46A29.33,29.33,0,0,0,155.52,98a5.17,5.17,0,0,0-.67.82,6.46,6.46,0,0,0,.49,7.91,11.23,11.23,0,0,0,4.64,3.21c1.69.64,2.32,3.42,3.35,5.27a6.24,6.24,0,0,1,.35,1.81c2.79-1.58,4-3.64,3.69-6.36,4.45,1,7.33,4.72,7.9,10.21l.63,0,.2,0c1.31-1.58,2.09-3.94,2.57-7.31l1.09,3.65.67.06c.7-3.1,1.39-6.21,2.09-9.32l1.3,2.64a16.3,16.3,0,0,0,3.44-9.87l2.27,3.18A13.45,13.45,0,0,0,189.55,99.16Z" fill="#454745"/><path d="M218.71,143.58a12.6,12.6,0,0,1-3.9.64,7.56,7.56,0,0,1-6.14-3,12.33,12.33,0,0,1-2.72-6.84c-.22-3.27,1.35-5.82,3.89-7.79a9.1,9.1,0,0,1,4.66-1.84,1.94,1.94,0,0,1,2,2.81c-.18.41-.44.8-.6,1.21a2.67,2.67,0,0,0,.9,3.39,3,3,0,0,0,3.72.31,5.54,5.54,0,0,0,.91-.77,8.51,8.51,0,0,1,.76-.71,1.84,1.84,0,0,1,3,.79,6.88,6.88,0,0,1,.28,3.54,9.07,9.07,0,0,1-4.57,7.42A9,9,0,0,1,218.71,143.58Z" fill="#454745"/><path d="M157.84,161.88a12.89,12.89,0,0,0,3.61-1.62,7.6,7.6,0,0,0,3.46-5.91,12.37,12.37,0,0,0-1.5-7.2c-1.62-2.85-4.34-4.12-7.54-4.35a9.12,9.12,0,0,0-4.91,1,1.93,1.93,0,0,0-.14,3.46c.38.25.8.43,1.17.69a2.67,2.67,0,0,1,1.11,3.32,3,3,0,0,1-2.92,2.31,5.87,5.87,0,0,1-1.19-.14c-.34-.06-.68-.15-1-.18a1.85,1.85,0,0,0-2.09,2.33,6.86,6.86,0,0,0,1.71,3.11,9.07,9.07,0,0,0,7.91,3.67A9.41,9.41,0,0,0,157.84,161.88Z" fill="#454745"/><path d="M201.17,195.15c-7.43,2.23-14.68,1.64-19.43-1.07,2.9,6.83,12.11,10.11,21.32,7.34s15.09-10.58,13.74-17.88C214.33,188.42,208.61,192.91,201.17,195.15Z" fill="#454745" stroke="#454745" stroke-miterlimit="10"/><path d="M236.4,221.53s-7.24,16,34.56,34.48S402.47,312,402.47,312l4.45-14.21Z" opacity="0.24"/><line x1="267.67" y1="283.89" x2="294.85" y2="239.12" stroke="#454745" stroke-miterlimit="10" stroke-width="7" fill="url(#radial-gradient)"/><line x1="327.17" y1="329.59" x2="368.98" y2="254.24" stroke="#454745" stroke-miterlimit="10" stroke-width="10" fill="url(#radial-gradient-2)"/><path d="M379.6,291.06a105,105,0,0,1,9.06-13.85c1.77-2.4,3.65-4.71,5.44-7.09a3,3,0,0,0,.74-2.28,270.42,270.42,0,0,1-1.69-29.7c0-3.81.27-7.63.46-11.45,0-.48-.22-1.32.57-1.32s.64.83.75,1.33c1.35,6.18,2.34,12.41,3.17,18.68,1,7.78,1.51,15.61,2.07,23.43a3.76,3.76,0,0,1-.95,3.08c-6.09,6.16-11.83,12.68-18.52,18.22Z" fill="#cdcdcd"/><g clip-path="url(#clip-path-3)"><ellipse cx="259.9" cy="296.62" rx="21.08" ry="21.62" transform="translate(-103.14 450.67) rotate(-71.77)" fill="#f4a84e" stroke="#454745" stroke-miterlimit="10" stroke-width="6"/></g><path d="M236.44,178.2s53.1-23.24,140.41,7.55c85.47,30.14,101.21,21.27,129.67,23.66,32,2.69,115.07,26.19,115.07,26.19s-30.59,16-38.84,32.91-7.34,20.27-18.73,16c-56.86-21.24-170.84-64.66-219.75-69.21S293.94,191.69,236.44,178.2Z" fill="#f4a84e"/><path d="M431.4,291.64c-11.86,1.74-23.54-7.15-25.27-19.23-1.83-12.72,6.59-24.49,19.28-26.16s24.12,6.46,25.94,19.47C453.1,278.24,445.25,289.69,431.4,291.64Z" fill="#f3a84f"/><polyline points="422.36 434.24 419.27 429.64 427.03 370.24 433.94 383.59 422.36 434.24" opacity="0.24"/><path d="M436.92,247.35l2.42,1.87s-1.32,36.93-9.54,42.32h0l-6.7-.07,13.82-44.12" opacity="0.24"/><path d="M245.36,209.4c21.47-6.39,72.32-8.89,189.52,26,0,0,4.34,41.84-22.54,69.35L274,254a79.32,79.32,0,0,1-34.73-25h0A12.37,12.37,0,0,1,245.36,209.4Z" fill="#454745"/><path d="M436.71,247.18c-.06-3.26-.34-6.51-.35-9.77a2.18,2.18,0,0,0-1.77-2.4c-13-3.95-26-7.89-39-11.92-1.82-.57-2.13-.09-2,1.62.17,3.15.28,6.3.4,9.46l-.68,33.49-15.61,24.66,1-.83c0,.27-.26.74-.1.92a29.83,29.83,0,0,1,5.88,2.35c9.08,4,18.85,7.7,27.92,11.75a1.47,1.47,0,0,0,2.21-.71c.95-1.6,2.14-3.06,3.16-4.63,2.84-4.43,6.37-8.47,8.58-13.24a143.18,143.18,0,0,0,5.62-15c1.73-5.21,2.23-10.71,3.27-16.09C435.79,253.63,436.77,250.47,436.71,247.18Z" fill="#cbcbcb"/><rect x="352.09" y="147" width="49.26" height="49.26" rx="9.19" ry="9.19" transform="matrix(0.98, 0.2, -0.2, 0.98, 42.53, -72.69)" fill="#454745"/><rect x="352.09" y="147" width="49.26" height="49.26" rx="6.33" ry="6.33" transform="translate(42.53 -72.69) rotate(11.68)" fill="none"/><g clip-path="url(#clip-path-4)"><path d="M399,202s-4.47,2.47-3.82,2,12.41-21.74,12.41-21.74l-3.2-9.14,5.23-19.83L379,156.55l-5.45,27.71" opacity="0.24"/></g><rect x="364.49" y="158.09" width="24.9" height="24.91" transform="translate(42.32 -72.76) rotate(11.68)" fill="#cbcbcb"/><ellipse cx="379.46" cy="158.35" rx="1.66" ry="12.45" transform="translate(147.59 497.91) rotate(-78.32)" fill="#8b8e8b"/><ellipse cx="374.45" cy="182.61" rx="1.52" ry="12.45" transform="translate(119.84 512.35) rotate(-78.32)" fill="#8b8e8b"/><path d="M375.83,177.06c-.83-.14-1.66-.3-2.5-.42a1.25,1.25,0,0,1-1-.71c-.84-1.54-1.7-3.06-2.56-4.58a1,1,0,0,1,0-.88q.82-2,1.68-4.05c.13-.33.27-.66.41-1a.92.92,0,0,1,.6-.54l4.14-1.18,1.12-.32a1,1,0,0,1,.9.15l4.46,3.13a1.07,1.07,0,0,1,.43.92c.1,1.75.21,3.5.31,5.25a1,1,0,0,1-.33.8L381,175.87l-1.6,1.41a.94.94,0,0,1-.83.23Zm4.92-5.93a3.63,3.63,0,0,0-.21-2.11c0-.05-.07-.11,0-.16s.18-.27.35-.32.33-.14.5-.2.3-.14.32-.34a.23.23,0,0,0-.14-.26.43.43,0,0,0-.46.08,2.5,2.5,0,0,1-.58.4c-.13.05-.31.12-.41,0a3.88,3.88,0,0,0-2-1.45.18.18,0,0,1-.13-.12.94.94,0,0,1,0-.68,2.23,2.23,0,0,0,.13-.44.32.32,0,0,0-.25-.35.31.31,0,0,0-.35.25,1.23,1.23,0,0,0,0,.27,2.43,2.43,0,0,1-.05.6.36.36,0,0,1-.37.3,3.94,3.94,0,0,0-2.21.62.37.37,0,0,1-.58-.09c-.15-.19-.28-.4-.43-.59a.33.33,0,0,0-.47-.08.33.33,0,0,0,0,.48.52.52,0,0,0,.11.1,4.89,4.89,0,0,1,.47.44.41.41,0,0,1,.07.46,3.77,3.77,0,0,0-.94,2.3.16.16,0,0,1-.09.14,1.1,1.1,0,0,1-.71.1,1.55,1.55,0,0,0-.48,0,.29.29,0,0,0-.23.3.28.28,0,0,0,.25.27.71.71,0,0,0,.29,0,5.4,5.4,0,0,1,.58-.1c.19,0,.41.09.44.2a3.86,3.86,0,0,0,1.23,2.21s.08,0,.06.08,0,.3-.15.42-.23.29-.37.41a.52.52,0,0,0-.18.33.27.27,0,0,0,.37.3.44.44,0,0,0,.26-.26c.11-.19.2-.38.32-.57s.32-.25.44-.18a3.81,3.81,0,0,0,2.43.42.18.18,0,0,1,.19.07.62.62,0,0,1,.21.45c0,.19.06.39.11.58a.31.31,0,0,0,.36.24.31.31,0,0,0,.22-.39,1.17,1.17,0,0,0-.1-.26l-.21-.52c0-.15,0-.39.11-.43a3.86,3.86,0,0,0,1.89-1.68.18.18,0,0,1,.14-.09,1,1,0,0,1,.67.21,2.53,2.53,0,0,0,.36.2.3.3,0,1,0,.23-.56,1.78,1.78,0,0,0-.33-.09,2.11,2.11,0,0,1-.48-.17.34.34,0,0,1-.22-.44A2.51,2.51,0,0,0,380.75,171.13Z" fill="#f4a84e"/><path d="M380.75,171.13a2.51,2.51,0,0,1,0,.27.34.34,0,0,0,.22.44,2.11,2.11,0,0,0,.48.17,1.78,1.78,0,0,1,.33.09.3.3,0,1,1-.23.56,2.53,2.53,0,0,1-.36-.2,1,1,0,0,0-.67-.21.18.18,0,0,0-.14.09,3.86,3.86,0,0,1-1.89,1.68c-.1,0-.16.28-.11.43l.21.52a1.17,1.17,0,0,1,.1.26.31.31,0,0,1-.22.39.31.31,0,0,1-.36-.24c-.05-.19-.07-.39-.11-.58a.62.62,0,0,0-.21-.45.18.18,0,0,0-.19-.07,3.81,3.81,0,0,1-2.43-.42c-.12-.07-.33,0-.44.18s-.21.38-.32.57a.44.44,0,0,1-.26.26.27.27,0,0,1-.37-.3.52.52,0,0,1,.18-.33c.14-.12.24-.28.37-.41s.08-.28.15-.42,0-.06-.06-.08a3.86,3.86,0,0,1-1.23-2.21c0-.11-.25-.22-.44-.2a5.4,5.4,0,0,0-.58.1.71.71,0,0,1-.29,0,.28.28,0,0,1-.25-.27.29.29,0,0,1,.23-.3,1.55,1.55,0,0,1,.48,0,1.1,1.1,0,0,0,.71-.1.16.16,0,0,0,.09-.14,3.77,3.77,0,0,1,.94-2.3.41.41,0,0,0-.07-.46,4.89,4.89,0,0,0-.47-.44.52.52,0,0,1-.11-.1.33.33,0,0,1,0-.48.33.33,0,0,1,.47.08c.15.19.28.4.43.59a.37.37,0,0,0,.58.09,3.94,3.94,0,0,1,2.21-.62.36.36,0,0,0,.37-.3,2.43,2.43,0,0,0,.05-.6,1.23,1.23,0,0,1,0-.27.31.31,0,0,1,.35-.25.32.32,0,0,1,.25.35,2.23,2.23,0,0,1-.13.44.94.94,0,0,0,0,.68.18.18,0,0,0,.13.12,3.88,3.88,0,0,1,2,1.45c.1.14.28.07.41,0a2.5,2.5,0,0,0,.58-.4.43.43,0,0,1,.46-.08.23.23,0,0,1,.14.26c0,.2-.16.28-.32.34s-.33.15-.5.2-.24.21-.35.32,0,.11,0,.16A3.63,3.63,0,0,1,380.75,171.13Zm-1.11.85c-.5-.2-1-.37-1.51-.53-.21-.06-.35.11-.3.34.1.46.21.92.31,1.37,0,.09,0,.14.15.08A3.1,3.1,0,0,0,379.64,172ZM377,167.92h0c0-.15.06-.3.1-.44s0-.12-.09-.12a3.17,3.17,0,0,0-1.69.49c-.09.06-.08.09,0,.15.33.33.66.67,1,1s.42.13.48-.14Zm-3.05,2,0,.2c0,.1,0,.14.12.13l1.4-.16a.26.26,0,0,0,.18-.46c-.28-.37-.58-.72-.86-1.09-.07-.09-.11-.09-.19,0A3.19,3.19,0,0,0,373.92,169.91Zm6.1,1a3.3,3.3,0,0,0-.15-1.43c0-.1-.07-.12-.17-.06l-1.18.74a.26.26,0,0,0,0,.49l1.12.54C380,171.27,380,171.27,380,170.86Zm-4.54.14H374c-.12,0-.08.08-.07.13a3,3,0,0,0,.86,1.52s.07.07.11,0c.27-.43.54-.85.79-1.28C375.81,171.22,375.7,171,375.48,171Zm1,2.49a3.46,3.46,0,0,0,.85,0c.11,0,.15,0,.11-.15l-.48-1.34a.25.25,0,0,0-.45-.07c-.3.36-.59.73-.88,1.09-.08.1-.06.14.05.19A3.72,3.72,0,0,0,376.44,173.49Zm1.42-6s0,0,0,.05c-.06.5-.12,1-.17,1.5a.25.25,0,0,0,.36.25c.47-.21.93-.44,1.41-.67A3,3,0,0,0,377.86,167.51ZM377,170c-.23,0-.56.13-.59.31a.67.67,0,0,0,.41.7.69.69,0,0,0,.63-.54C377.51,170.28,377.26,170,377,170Z" fill="#fcfcfe"/><path d="M379.64,172a3.1,3.1,0,0,1-1.35,1.26c-.11.06-.13,0-.15-.08-.1-.45-.21-.91-.31-1.37-.05-.23.09-.4.3-.34C378.63,171.61,379.14,171.78,379.64,172Z" fill="#f4a84e"/><path d="M377,167.92l-.21.93c-.06.27-.28.34-.48.14s-.67-.66-1-1c-.07-.06-.08-.09,0-.15a3.17,3.17,0,0,1,1.69-.49c.1,0,.11,0,.09.12s-.07.29-.1.44Z" fill="#f4a84e"/><path d="M373.92,169.91a3.19,3.19,0,0,1,.61-1.38c.08-.09.12-.09.19,0,.28.37.58.72.86,1.09a.26.26,0,0,1-.18.46l-1.4.16c-.11,0-.13,0-.12-.13Z" fill="#f4a84e"/><path d="M380,170.86c-.06.41-.06.41-.35.28l-1.12-.54a.26.26,0,0,1,0-.49l1.18-.74c.1-.06.13,0,.17.06A3.3,3.3,0,0,1,380,170.86Z" fill="#f4a84e"/><path d="M375.48,171c.22,0,.33.22.23.38-.25.43-.52.85-.79,1.28,0,.07-.07,0-.11,0a3,3,0,0,1-.86-1.52s-.05-.13.07-.13Z" fill="#f4a84e"/><path d="M376.44,173.49a3.72,3.72,0,0,1-.8-.25c-.11-.05-.13-.09-.05-.19.29-.36.58-.73.88-1.09a.25.25,0,0,1,.45.07l.48,1.34c0,.11,0,.14-.11.15A3.46,3.46,0,0,1,376.44,173.49Z" fill="#f4a84e"/><path d="M377.86,167.51a3,3,0,0,1,1.58,1.13c-.48.23-.94.46-1.41.67a.25.25,0,0,1-.36-.25c.05-.5.11-1,.17-1.5C377.84,167.54,377.85,167.53,377.86,167.51Z" fill="#f4a84e"/><path d="M377,170c.22,0,.47.3.45.47a.69.69,0,0,1-.63.54.67.67,0,0,1-.41-.7C376.48,170.11,376.81,169.94,377,170Z" fill="#f4a84e"/><rect x="336.87" y="89.76" width="49.26" height="49.26" rx="9.19" ry="9.19" transform="translate(30.63 -70.8) rotate(11.68)" fill="#454745"/><rect x="336.87" y="89.76" width="49.26" height="49.26" rx="6.33" ry="6.33" transform="translate(30.63 -70.8) rotate(11.68)" fill="none"/><g clip-path="url(#clip-path-5)"><path d="M383.78,144.71s-4.47,2.47-3.81,2S392.37,125,392.37,125l-3.2-9.14L394.4,96l-30.63,3.28L358.33,127" opacity="0.24"/></g><rect x="349.28" y="100.85" width="24.9" height="24.91" transform="translate(30.42 -70.86) rotate(11.68)" fill="#cbcbcb"/><ellipse cx="364.25" cy="101.11" rx="1.66" ry="12.45" transform="translate(191.51 437.36) rotate(-78.32)" fill="#8b8e8b"/><ellipse cx="359.23" cy="125.37" rx="1.52" ry="12.45" transform="translate(163.75 451.8) rotate(-78.32)" fill="#8b8e8b"/><path d="M360.62,119.82c-.84-.14-1.67-.3-2.51-.42a1.26,1.26,0,0,1-1-.71c-.84-1.53-1.7-3-2.55-4.58a1,1,0,0,1-.05-.88l1.68-4c.13-.33.27-.66.41-1a.94.94,0,0,1,.61-.54l4.14-1.18,1.11-.32a1,1,0,0,1,.91.15l4.45,3.13a1.1,1.1,0,0,1,.44.93l.3,5.24a1,1,0,0,1-.32.81l-2.5,2.21-1.6,1.41a.94.94,0,0,1-.83.24Zm4.92-5.92a3.75,3.75,0,0,0-.21-2.12s-.08-.1,0-.15.18-.27.36-.33a4.19,4.19,0,0,0,.49-.2c.16-.06.3-.14.33-.33a.25.25,0,0,0-.15-.27.42.42,0,0,0-.46.09,2.56,2.56,0,0,1-.58.39c-.13,0-.3.13-.41,0a3.88,3.88,0,0,0-2-1.45.18.18,0,0,1-.12-.12.94.94,0,0,1,0-.68,1.64,1.64,0,0,0,.13-.43.3.3,0,1,0-.6-.1,2.11,2.11,0,0,0,0,.26,2.47,2.47,0,0,1,0,.61.39.39,0,0,1-.38.3,3.85,3.85,0,0,0-2.21.61.36.36,0,0,1-.58-.09c-.15-.19-.28-.39-.43-.58a.32.32,0,0,0-.47-.08.32.32,0,0,0,0,.47,1.14,1.14,0,0,0,.11.11,4,4,0,0,1,.48.44.39.39,0,0,1,.06.45,3.77,3.77,0,0,0-.94,2.3.14.14,0,0,1-.08.14,1.07,1.07,0,0,1-.72.11,1.48,1.48,0,0,0-.47,0,.3.3,0,0,0-.24.31.29.29,0,0,0,.26.27.67.67,0,0,0,.28,0l.58-.1c.19,0,.42.1.44.21a3.86,3.86,0,0,0,1.23,2.2s.08,0,.06.09,0,.3-.14.42-.24.28-.38.41a.54.54,0,0,0-.18.32.28.28,0,0,0,.38.31.57.57,0,0,0,.26-.27c.1-.19.2-.38.31-.56a.39.39,0,0,1,.44-.19,3.84,3.84,0,0,0,2.44.42.24.24,0,0,1,.19.07.68.68,0,0,1,.21.45c0,.19.06.39.1.58a.32.32,0,0,0,.36.25.32.32,0,0,0,.22-.39,1.48,1.48,0,0,0-.1-.27c-.06-.17-.14-.34-.2-.51a.41.41,0,0,1,.1-.43,3.78,3.78,0,0,0,1.89-1.68.16.16,0,0,1,.14-.09.94.94,0,0,1,.67.2,1.65,1.65,0,0,0,.37.2.3.3,0,0,0,.4-.14.3.3,0,0,0-.18-.41,1.7,1.7,0,0,0-.32-.1,2.81,2.81,0,0,1-.49-.16.37.37,0,0,1-.22-.45C365.51,114.07,365.52,114,365.54,113.9Z" fill="#f4a84e"/><path d="M365.54,113.9c0,.08,0,.17-.05.26a.37.37,0,0,0,.22.45,2.81,2.81,0,0,0,.49.16,1.7,1.7,0,0,1,.32.1.3.3,0,0,1,.18.41.3.3,0,0,1-.4.14,1.65,1.65,0,0,1-.37-.2.94.94,0,0,0-.67-.2.16.16,0,0,0-.14.09,3.78,3.78,0,0,1-1.89,1.68.41.41,0,0,0-.1.43c.06.17.14.34.2.51a1.48,1.48,0,0,1,.1.27.32.32,0,0,1-.22.39.32.32,0,0,1-.36-.25c0-.19-.06-.39-.1-.58a.68.68,0,0,0-.21-.45.24.24,0,0,0-.19-.07,3.84,3.84,0,0,1-2.44-.42.39.39,0,0,0-.44.19c-.11.18-.21.37-.31.56a.57.57,0,0,1-.26.27.28.28,0,0,1-.38-.31.54.54,0,0,1,.18-.32c.14-.13.24-.29.38-.41s.08-.29.14-.42,0-.06-.06-.09a3.86,3.86,0,0,1-1.23-2.2c0-.11-.25-.23-.44-.21l-.58.1a.67.67,0,0,1-.28,0,.29.29,0,0,1-.26-.27.3.3,0,0,1,.24-.31,1.48,1.48,0,0,1,.47,0,1.07,1.07,0,0,0,.72-.11.14.14,0,0,0,.08-.14,3.77,3.77,0,0,1,.94-2.3.39.39,0,0,0-.06-.45,4,4,0,0,0-.48-.44,1.14,1.14,0,0,1-.11-.11.32.32,0,0,1,0-.47.32.32,0,0,1,.47.08c.15.19.28.39.43.58a.36.36,0,0,0,.58.09,3.85,3.85,0,0,1,2.21-.61.39.39,0,0,0,.38-.3,2.47,2.47,0,0,0,0-.61,2.11,2.11,0,0,1,0-.26.3.3,0,1,1,.6.1,1.64,1.64,0,0,1-.13.43.94.94,0,0,0,0,.68.18.18,0,0,0,.12.12,3.88,3.88,0,0,1,2,1.45c.11.15.28.07.41,0a2.56,2.56,0,0,0,.58-.39.42.42,0,0,1,.46-.09.25.25,0,0,1,.15.27c0,.19-.17.27-.33.33a4.19,4.19,0,0,1-.49.2c-.18.06-.24.22-.36.33s0,.11,0,.15A3.75,3.75,0,0,1,365.54,113.9Zm-1.11.85c-.51-.21-1-.37-1.52-.53-.2-.07-.35.11-.3.33.1.46.21.92.31,1.38,0,.09,0,.13.15.08A3.18,3.18,0,0,0,364.43,114.75Zm-2.68-4.06h0c0-.15.07-.3.1-.45s0-.11-.08-.11a3.11,3.11,0,0,0-1.7.48c-.09.06-.07.09,0,.16l1,1a.27.27,0,0,0,.48-.15Zm-3.05,2,0,.21c0,.09,0,.14.12.12l1.4-.16a.27.27,0,0,0,.19-.46l-.87-1.09c-.07-.09-.11-.09-.18,0A3.26,3.26,0,0,0,358.7,112.67Zm6.11,1a3.26,3.26,0,0,0-.16-1.42c0-.11-.07-.13-.17-.07l-1.18.75a.27.27,0,0,0,0,.49l1.12.53C364.74,114,364.74,114,364.81,113.62Zm-4.55.15H358.8c-.12,0-.08.07-.07.13a3.1,3.1,0,0,0,.86,1.51c.05,0,.07.07.12,0,.26-.42.53-.84.79-1.27C360.59,114,360.48,113.8,360.26,113.77Zm1,2.49a4,4,0,0,0,.85,0c.11,0,.15,0,.11-.15-.16-.45-.31-.9-.48-1.35a.24.24,0,0,0-.44-.07c-.3.36-.59.73-.89,1.1-.08.09-.05.14.06.19A3.63,3.63,0,0,0,361.22,116.26Zm1.43-6a.09.09,0,0,0,0,.06c-.06.5-.12,1-.17,1.49a.25.25,0,0,0,.36.26l1.42-.68A3.07,3.07,0,0,0,362.65,110.27Zm-.82,2.47c-.23,0-.57.13-.6.31a.68.68,0,0,0,.41.7c.23,0,.59-.26.63-.53S362,112.78,361.83,112.74Z" fill="#fcfcfe"/><path d="M364.43,114.75a3.18,3.18,0,0,1-1.36,1.26c-.11,0-.13,0-.15-.08-.1-.46-.21-.92-.31-1.38-.05-.22.1-.4.3-.33C363.42,114.38,363.92,114.54,364.43,114.75Z" fill="#f4a84e"/><path d="M361.75,110.69l-.21.92a.27.27,0,0,1-.48.15l-1-1c-.06-.07-.08-.1,0-.16a3.11,3.11,0,0,1,1.7-.48c.09,0,.1,0,.08.11s-.06.3-.1.45Z" fill="#f4a84e"/><path d="M358.7,112.67a3.26,3.26,0,0,1,.62-1.38c.07-.09.11-.09.18,0l.87,1.09a.27.27,0,0,1-.19.46l-1.4.16c-.11,0-.13,0-.12-.12Z" fill="#f4a84e"/><path d="M364.81,113.62c-.07.41-.07.42-.36.28l-1.12-.53a.27.27,0,0,1,0-.49l1.18-.75c.1-.06.13,0,.17.07A3.26,3.26,0,0,1,364.81,113.62Z" fill="#f4a84e"/><path d="M360.26,113.77c.22,0,.33.21.24.38-.26.43-.53.85-.79,1.27,0,.07-.07,0-.12,0a3.1,3.1,0,0,1-.86-1.51c0-.06-.05-.13.07-.13Z" fill="#f4a84e"/><path d="M361.22,116.26a3.63,3.63,0,0,1-.79-.25c-.11-.05-.14-.1-.06-.19.3-.37.59-.74.89-1.1a.24.24,0,0,1,.44.07c.17.45.32.9.48,1.35,0,.11,0,.14-.11.15A4,4,0,0,1,361.22,116.26Z" fill="#f4a84e"/><path d="M362.65,110.27a3.07,3.07,0,0,1,1.58,1.13l-1.42.68a.25.25,0,0,1-.36-.26c.05-.5.11-1,.17-1.49A.09.09,0,0,1,362.65,110.27Z" fill="#f4a84e"/><path d="M361.83,112.74c.21,0,.47.31.44.48s-.4.58-.63.53a.68.68,0,0,1-.41-.7C361.26,112.87,361.6,112.7,361.83,112.74Z" fill="#f4a84e"/><rect x="300.21" y="136.28" width="49.26" height="49.26" rx="9.19" ry="9.19" transform="translate(39.29 -62.41) rotate(11.68)" fill="#454745"/><g clip-path="url(#clip-path-6)"><path d="M347.12,191.23s-4.47,2.47-3.81,2,12.4-21.74,12.4-21.74l-3.19-9.14,5.23-19.83-30.64,3.27-5.44,27.7" opacity="0.24"/></g><rect x="312.62" y="147.37" width="24.9" height="24.91" transform="translate(39.07 -62.48) rotate(11.68)" fill="#cbcbcb"/><ellipse cx="327.59" cy="147.63" rx="1.66" ry="12.45" transform="translate(116.72 438.56) rotate(-78.32)" fill="#8b8e8b"/><ellipse cx="322.57" cy="171.89" rx="1.52" ry="12.45" transform="translate(88.96 453) rotate(-78.32)" fill="#8b8e8b"/><path d="M324,166.34c-.84-.15-1.67-.3-2.51-.42a1.28,1.28,0,0,1-1-.71c-.84-1.54-1.7-3.06-2.55-4.58a1,1,0,0,1,0-.89l1.68-4c.14-.33.27-.66.41-1a.92.92,0,0,1,.61-.54l4.14-1.18,1.12-.32a1,1,0,0,1,.9.15l4.45,3.13a1.08,1.08,0,0,1,.44.92c.1,1.75.21,3.5.3,5.25a.94.94,0,0,1-.32.8l-2.5,2.21-1.6,1.42a.93.93,0,0,1-.83.23Zm4.92-5.93a3.72,3.72,0,0,0-.21-2.11c0-.05-.08-.11,0-.16s.18-.27.36-.32l.49-.2c.17-.06.31-.15.33-.34a.25.25,0,0,0-.14-.27.45.45,0,0,0-.46.09,2.56,2.56,0,0,1-.59.4c-.13.05-.3.12-.41,0a3.88,3.88,0,0,0-2-1.45.18.18,0,0,1-.12-.12.89.89,0,0,1,0-.68,2.23,2.23,0,0,0,.13-.44.34.34,0,0,0-.25-.36.32.32,0,0,0-.35.26,1.24,1.24,0,0,0,0,.27,2.43,2.43,0,0,1,0,.6.37.37,0,0,1-.38.3,3.9,3.9,0,0,0-2.2.62.37.37,0,0,1-.59-.09c-.15-.19-.28-.4-.43-.59a.31.31,0,1,0-.45.4.52.52,0,0,0,.11.1,3.34,3.34,0,0,1,.48.44c.12.15.15.36.06.45a3.8,3.8,0,0,0-.94,2.31c0,.07,0,.09-.08.14a1.12,1.12,0,0,1-.72.1,1.48,1.48,0,0,0-.47,0,.27.27,0,0,0-.23.3.27.27,0,0,0,.25.27.66.66,0,0,0,.28,0c.2,0,.39-.08.58-.1s.42.09.44.2a3.92,3.92,0,0,0,1.23,2.21s.08,0,.06.08,0,.3-.14.42-.24.28-.38.41a.57.57,0,0,0-.18.33.28.28,0,0,0,.38.3c.13,0,.19-.15.26-.26a6.38,6.38,0,0,1,.32-.57.36.36,0,0,1,.43-.18,3.77,3.77,0,0,0,2.44.41c.08,0,.12,0,.19.08a.66.66,0,0,1,.21.45c0,.19.06.39.1.58a.32.32,0,0,0,.36.24.31.31,0,0,0,.22-.39,2,2,0,0,0-.09-.26c-.07-.18-.15-.34-.21-.52a.41.41,0,0,1,.1-.43,3.78,3.78,0,0,0,1.89-1.68.2.2,0,0,1,.14-.09,1,1,0,0,1,.67.21,2.18,2.18,0,0,0,.37.2.33.33,0,0,0,.41-.15.32.32,0,0,0-.18-.41l-.33-.09a2.84,2.84,0,0,1-.49-.17.36.36,0,0,1-.22-.45C328.85,160.59,328.86,160.5,328.88,160.41Z" fill="#f4a84e"/><path d="M328.88,160.41c0,.09,0,.18-.05.26a.36.36,0,0,0,.22.45,2.84,2.84,0,0,0,.49.17l.33.09a.32.32,0,0,1,.18.41.33.33,0,0,1-.41.15,2.18,2.18,0,0,1-.37-.2,1,1,0,0,0-.67-.21.2.2,0,0,0-.14.09,3.78,3.78,0,0,1-1.89,1.68.41.41,0,0,0-.1.43c.06.18.14.34.21.52a2,2,0,0,1,.09.26.31.31,0,0,1-.22.39.32.32,0,0,1-.36-.24c0-.19-.06-.39-.1-.58a.66.66,0,0,0-.21-.45c-.07-.06-.11-.09-.19-.08a3.77,3.77,0,0,1-2.44-.41.36.36,0,0,0-.43.18,6.38,6.38,0,0,0-.32.57c-.07.11-.13.22-.26.26a.28.28,0,0,1-.38-.3.57.57,0,0,1,.18-.33c.14-.13.24-.28.38-.41s.08-.28.14-.42,0-.06-.06-.08a3.92,3.92,0,0,1-1.23-2.21c0-.11-.25-.22-.44-.2s-.38.06-.58.1a.66.66,0,0,1-.28,0,.27.27,0,0,1-.25-.27.27.27,0,0,1,.23-.3,1.48,1.48,0,0,1,.47,0,1.12,1.12,0,0,0,.72-.1c.06,0,.08-.07.08-.14a3.8,3.8,0,0,1,.94-2.31c.09-.09.06-.3-.06-.45a3.34,3.34,0,0,0-.48-.44.52.52,0,0,1-.11-.1.31.31,0,1,1,.45-.4c.15.19.28.4.43.59a.37.37,0,0,0,.59.09,3.9,3.9,0,0,1,2.2-.62.37.37,0,0,0,.38-.3,2.43,2.43,0,0,0,0-.6,1.24,1.24,0,0,1,0-.27.32.32,0,0,1,.35-.26.34.34,0,0,1,.25.36,2.23,2.23,0,0,1-.13.44.89.89,0,0,0,0,.68.18.18,0,0,0,.12.12,3.88,3.88,0,0,1,2,1.45c.11.14.28.07.41,0a2.56,2.56,0,0,0,.59-.4.45.45,0,0,1,.46-.09.25.25,0,0,1,.14.27c0,.19-.16.28-.33.34l-.49.2c-.18.05-.24.21-.36.32s0,.11,0,.16A3.72,3.72,0,0,1,328.88,160.41Zm-1.11.85c-.51-.2-1-.37-1.52-.53-.2-.06-.35.11-.3.34.1.46.21.91.32,1.37,0,.09,0,.14.14.08A3.18,3.18,0,0,0,327.77,161.26Zm-2.68-4.06h0c0-.15.07-.3.1-.45s0-.11-.08-.11a3.2,3.2,0,0,0-1.7.49c-.08.06-.07.09,0,.15l1,1c.2.2.42.13.48-.14S325,157.51,325.09,157.2Zm-3,2,0,.2c0,.1,0,.14.11.13l1.4-.16a.27.27,0,0,0,.19-.46l-.87-1.09c-.07-.09-.11-.09-.18,0A3.32,3.32,0,0,0,322,159.19Zm6.11.95a3.32,3.32,0,0,0-.16-1.43c0-.1-.07-.12-.17-.06l-1.17.74a.26.26,0,0,0,0,.49l1.11.54C328.08,160.55,328.08,160.55,328.15,160.14Zm-4.55.14h-1.46c-.12,0-.08.08-.07.13a3.17,3.17,0,0,0,.86,1.52c.05,0,.07.07.12,0l.79-1.28C323.93,160.5,323.83,160.32,323.6,160.28Zm1,2.49a3.54,3.54,0,0,0,.86,0c.1,0,.14,0,.1-.15-.16-.45-.31-.9-.48-1.34a.24.24,0,0,0-.44-.07l-.89,1.09c-.08.1,0,.14.06.19A3.63,3.63,0,0,0,324.56,162.77Zm1.43-6s0,0,0,.06c-.06.5-.12,1-.17,1.5a.25.25,0,0,0,.36.25c.47-.21.94-.44,1.42-.67A3.14,3.14,0,0,0,326,156.78Zm-.82,2.47c-.23,0-.57.14-.6.31a.69.69,0,0,0,.41.71.68.68,0,0,0,.63-.54C325.64,159.56,325.38,159.29,325.17,159.25Z" fill="#fcfcfe"/><path d="M327.77,161.26a3.18,3.18,0,0,1-1.36,1.26c-.11.06-.12,0-.14-.08-.11-.46-.22-.91-.32-1.37-.05-.23.1-.4.3-.34C326.76,160.89,327.26,161.06,327.77,161.26Z" fill="#f4a84e"/><path d="M325.09,157.2c-.07.31-.13.62-.21.93s-.28.34-.48.14l-1-1c-.06-.06-.07-.09,0-.15a3.2,3.2,0,0,1,1.7-.49c.1,0,.1,0,.08.11s-.06.3-.1.45Z" fill="#f4a84e"/><path d="M322,159.19a3.32,3.32,0,0,1,.62-1.38c.07-.09.11-.09.18,0l.87,1.09a.27.27,0,0,1-.19.46l-1.4.16c-.11,0-.13,0-.11-.13Z" fill="#f4a84e"/><path d="M328.15,160.14c-.07.41-.07.41-.36.28l-1.11-.54a.26.26,0,0,1,0-.49l1.17-.74c.1-.06.13,0,.17.06A3.32,3.32,0,0,1,328.15,160.14Z" fill="#f4a84e"/><path d="M323.6,160.28c.23,0,.33.22.24.38l-.79,1.28c-.05.07-.07,0-.12,0a3.17,3.17,0,0,1-.86-1.52s-.05-.13.07-.13Z" fill="#f4a84e"/><path d="M324.56,162.77a3.63,3.63,0,0,1-.79-.25c-.11-.05-.14-.09-.06-.19l.89-1.09a.24.24,0,0,1,.44.07c.17.44.32.89.48,1.34,0,.11,0,.14-.1.15A3.54,3.54,0,0,1,324.56,162.77Z" fill="#f4a84e"/><path d="M326,156.78a3.14,3.14,0,0,1,1.58,1.14c-.48.23-.95.46-1.42.67a.25.25,0,0,1-.36-.25c0-.5.11-1,.17-1.5C326,156.82,326,156.81,326,156.78Z" fill="#f4a84e"/><path d="M325.17,159.25c.21,0,.47.31.44.48a.68.68,0,0,1-.63.54.69.69,0,0,1-.41-.71C324.6,159.39,324.94,159.22,325.17,159.25Z" fill="#f4a84e"/></svg>