<svg id="Layer_1" data-name="Layer 1" xmlns="http://www.w3.org/2000/svg" viewBox="0 0 250 250"><defs><style>.cls-1,.cls-2,.cls-3{fill:none;stroke-miterlimit:10}.cls-1{stroke:#f79537}.cls-1,.cls-3{stroke-width:4px}.cls-2,.cls-3{stroke:#313333}.cls-2{stroke-width:2px}.cls-4{fill:#f89537}</style></defs><title>new icons</title><path class="cls-1" d="M77.7 107.4a65.1 65.1 0 0 1 130.2.1 64.8 64.8 0 0 1-65.2 64.2c-35.8 0-65-29-65-64.3zm65 53.6a54.2 54.2 0 0 0 54.4-52.5A54.2 54.2 0 0 0 88.6 107a54 54 0 0 0 54.2 54z"/><path class="cls-2" d="M99.6 165.5a15.3 15.3 0 0 1-2 3.5q-18.3 18.3-36.8 36.5c-2.1 2-4.8 2-7 0l-10-10c-2.3-2.4-2.3-4.9 0-7.2l36.7-36.2a4.6 4.6 0 0 1 6.9-.1l10.3 10.2a16.2 16.2 0 0 1 2 3.3z"/><path class="cls-3" d="M168.6 127V93.5l-.1-1.1c-10.2 6.8-37 7.8-49.5 0v9.7a5.4 5.4 0 0 0 0 .7v14.7a5.3 5.3 0 0 0 0 .6v14.1a4 4 0 0 0 2.1 4 24.5 24.5 0 0 0 5 2.3 66.6 66.6 0 0 0 31.2 1 41.8 41.8 0 0 0 8.8-3 4.2 4.2 0 0 0 2.3-2.8l.2-3.3v-3.5zm-24.9-51c6.7.2 13.2.6 19.4 3a16.6 16.6 0 0 1 4.3 2.4c1.7 1.3 1.8 3.1 0 4.4a26.2 26.2 0 0 1-7 3.3 66 66 0 0 1-23 1.7A41.1 41.1 0 0 1 124 88a16 16 0 0 1-4.2-2.6 2.2 2.2 0 0 1 0-3.6 15.3 15.3 0 0 1 4-2.6c4.5-1.9 9.2-2.5 14-2.9l5.9-.3z"/><path class="cls-4" d="M141 115.2v7.8a.7.7 0 0 0 .4.7 2.6 2.6 0 0 1 0 4.5.8.8 0 0 0-.3.8v3a1 1 0 0 1-1 1.1 1 1 0 0 1-1.2-1.1v-3a.8.8 0 0 0-.4-.8 2.6 2.6 0 0 1 0-4.4.9.9 0 0 0 .4-.9v-15.2a3 3 0 0 1 0-.5 1 1 0 0 1 1.3-1 1 1 0 0 1 1 1.1l-.1 8zm13.1 9.8v-5a1 1 0 0 0-.3-.7 2.7 2.7 0 0 1 0-4.6 1 1 0 0 0 .3-.7v-8.4c0-.8.4-1.3 1-1.3s1.2.4 1.2 1.3v8.4a.8.8 0 0 0 .4.8 2.6 2.6 0 0 1 0 4.4.8.8 0 0 0-.4.8v10a1.1 1.1 0 0 1-.8 1.2 1 1 0 0 1-1.2-.5 1.7 1.7 0 0 1-.2-.8v-5zm-22.8-.6V119a.8.8 0 0 0-.4-.8 2.7 2.7 0 0 1 0-4.5.8.8 0 0 0 .4-.7v-7.5a1 1 0 0 1 1-1.2 1.1 1.1 0 0 1 1.2 1v7.7a.8.8 0 0 0 .4.7 2.6 2.6 0 0 1 0 4.5.8.8 0 0 0-.4.7v10.8a4.6 4.6 0 0 1 0 .5 1.1 1.1 0 0 1-1.2 1 1 1 0 0 1-1-1.1v-5.7zm17.4-16.1a4.2 4.2 0 0 0 0 .8.9.9 0 0 0 .3.5 2.7 2.7 0 0 1 0 4.6 1 1 0 0 0-.3.7v16.7c0 1-.4 1.6-1.1 1.5a1 1 0 0 1-1-.9 7.8 7.8 0 0 1 0-.8V115a1 1 0 0 0-.5-1 2.6 2.6 0 0 1 0-4.3 1 1 0 0 0 .5-1 14.1 14.1 0 0 1 0-1.5 1 1 0 0 1 2 0c.2.3 0 .7.2 1z"/></svg>