<?xml version="1.0" encoding="utf-8"?>
<!-- Generator: Adobe Illustrator 22.0.0, SVG Export Plug-In . SVG Version: 6.00 Build 0)  -->
<svg version="1.1" id="Layer_1" xmlns="http://www.w3.org/2000/svg" xmlns:xlink="http://www.w3.org/1999/xlink" x="0px" y="0px"
	 viewBox="0 0 231 57" style="enable-background:new 0 0 231 57;" xml:space="preserve">
<style type="text/css">
	.st0{opacity:0.6;}
	.st1{fill:#F7F7F7;}
	.st2{opacity:0.3;}
	.st3{fill:#FFFFFF;}
	.st4{fill:#F4A84E;}
	.st5{fill:#454745;}
	.st6{opacity:0.24;}
	.st7{clip-path:url(#SVGID_2_);fill:#454745;}
	.st8{clip-path:url(#SVGID_2_);fill:#EFEFEF;stroke:#454745;stroke-width:3;stroke-miterlimit:10;}
	.st9{fill:#CCCCCC;}
	.st10{opacity:0.35;}
	.st11{clip-path:url(#SVGID_4_);fill:#454745;}
	.st12{clip-path:url(#SVGID_4_);fill:#EFEFEF;stroke:#454745;stroke-width:3;stroke-miterlimit:10;}
	.st13{clip-path:url(#SVGID_6_);fill:#EFEFEF;stroke:#454745;stroke-width:3;stroke-miterlimit:10;}
	.st14{fill:#F4A84E;stroke:#454745;stroke-width:3;stroke-miterlimit:10;}
	.st15{fill:#454745;stroke:#454745;stroke-width:3;stroke-miterlimit:10;}
	.st16{opacity:0.11;}
	.st17{clip-path:url(#SVGID_8_);fill:#FFFFFF;}
	.st18{fill:#050505;}
	.st19{fill:url(#SVGID_11_);stroke:#454745;stroke-width:4;stroke-miterlimit:10;}
	.st20{fill:url(#SVGID_12_);stroke:#454745;stroke-width:4;stroke-miterlimit:10;}
	.st21{fill:#454745;stroke:#454745;stroke-miterlimit:10;}
	.st22{clip-path:url(#SVGID_14_);fill:#454745;}
	.st23{clip-path:url(#SVGID_14_);fill:#EFEFEF;stroke:#454745;stroke-width:3;stroke-miterlimit:10;}
	.st24{clip-path:url(#SVGID_16_);fill:#454745;}
	.st25{clip-path:url(#SVGID_16_);fill:#EFEFEF;stroke:#454745;stroke-width:3;stroke-miterlimit:10;}
	.st26{clip-path:url(#SVGID_18_);fill:#EFEFEF;stroke:#454745;stroke-width:3;stroke-miterlimit:10;}
	.st27{clip-path:url(#SVGID_20_);fill:#FFFFFF;}
	.st28{fill:url(#SVGID_23_);stroke:#454745;stroke-width:4;stroke-miterlimit:10;}
	.st29{fill:url(#SVGID_24_);stroke:#454745;stroke-width:4;stroke-miterlimit:10;}
	.st30{fill:#F3A74F;}
	.st31{clip-path:url(#SVGID_26_);fill:url(#SVGID_27_);}
	.st32{clip-path:url(#SVGID_26_);fill:url(#SVGID_28_);}
	.st33{clip-path:url(#SVGID_30_);fill:url(#SVGID_31_);}
	.st34{clip-path:url(#SVGID_30_);fill:url(#SVGID_32_);}
	.st35{clip-path:url(#SVGID_34_);fill:#454745;}
	.st36{clip-path:url(#SVGID_34_);fill:#EFEFEF;stroke:#454745;stroke-width:3;stroke-miterlimit:10;}
	.st37{clip-path:url(#SVGID_36_);fill:#454745;}
	.st38{clip-path:url(#SVGID_36_);fill:#EFEFEF;stroke:#454745;stroke-width:3;stroke-miterlimit:10;}
	.st39{clip-path:url(#SVGID_38_);fill:#EFEFEF;stroke:#454745;stroke-width:3;stroke-miterlimit:10;}
	.st40{clip-path:url(#SVGID_40_);fill:#FFFFFF;}
	.st41{fill:url(#SVGID_43_);stroke:#454745;stroke-width:4;stroke-miterlimit:10;}
	.st42{fill:url(#SVGID_44_);stroke:#454745;stroke-width:4;stroke-miterlimit:10;}
	.st43{clip-path:url(#SVGID_46_);fill:#454745;}
	.st44{clip-path:url(#SVGID_46_);fill:#EFEFEF;stroke:#454745;stroke-width:3;stroke-miterlimit:10;}
	.st45{clip-path:url(#SVGID_48_);fill:#454745;}
	.st46{clip-path:url(#SVGID_48_);fill:#EFEFEF;stroke:#454745;stroke-width:3;stroke-miterlimit:10;}
	.st47{clip-path:url(#SVGID_50_);fill:#EFEFEF;stroke:#454745;stroke-width:3;stroke-miterlimit:10;}
	.st48{clip-path:url(#SVGID_52_);fill:#FFFFFF;}
	.st49{fill:url(#SVGID_55_);stroke:#454745;stroke-width:4;stroke-miterlimit:10;}
	.st50{fill:url(#SVGID_56_);stroke:#454745;stroke-width:4;stroke-miterlimit:10;}
	.st51{fill:#EDEDED;}
	.st52{fill:#DB8F42;}
	.st53{fill:none;stroke:#F4A84E;stroke-width:5;stroke-miterlimit:10;}
	.st54{fill:none;stroke:#D3D3D3;stroke-width:5;stroke-miterlimit:10;}
	.st55{fill:#D3D3D3;}
	.st56{fill:#606060;}
	.st57{fill:#F15A29;}
	.st58{fill:#212020;}
	.st59{fill:#563A39;}
	.st60{fill:#AF8070;}
	.st61{fill:#348FC0;}
	.st62{fill:#060707;}
	.st63{fill:#4B3938;}
	.st64{clip-path:url(#SVGID_58_);fill:#454745;}
	.st65{clip-path:url(#SVGID_58_);fill:#EFEFEF;stroke:#454745;stroke-width:3;stroke-miterlimit:10;}
	.st66{clip-path:url(#SVGID_60_);fill:#454745;}
	.st67{clip-path:url(#SVGID_60_);fill:#EFEFEF;stroke:#454745;stroke-width:3;stroke-miterlimit:10;}
	.st68{fill:#CCCCCC;stroke:#CCCCCC;stroke-width:3;stroke-miterlimit:10;}
	.st69{clip-path:url(#SVGID_62_);fill:#EFEFEF;stroke:#454745;stroke-width:3;stroke-miterlimit:10;}
	.st70{clip-path:url(#SVGID_64_);fill:#EFEFEF;stroke:#454745;stroke-width:3;stroke-miterlimit:10;}
	.st71{fill:#CCCCCC;stroke:#454745;stroke-width:7;stroke-miterlimit:10;}
	.st72{fill:#F4A84E;stroke:#454745;stroke-width:5;stroke-miterlimit:10;}
	.st73{clip-path:url(#SVGID_66_);fill:#FFFFFF;}
	.st74{fill:#EFEFEF;stroke:#454745;stroke-width:3;stroke-miterlimit:10;}
	.st75{fill:#454745;stroke:#454745;stroke-width:2;stroke-miterlimit:10;}
	.st76{fill:url(#SVGID_67_);stroke:#454745;stroke-width:4;stroke-miterlimit:10;}
	.st77{fill:url(#SVGID_68_);stroke:#454745;stroke-width:4;stroke-miterlimit:10;}
	.st78{fill:none;stroke:#2D2D2D;stroke-width:4;stroke-miterlimit:10;}
	.st79{opacity:0.49;}
	.st80{clip-path:url(#SVGID_70_);fill:#454745;}
	.st81{clip-path:url(#SVGID_70_);fill:#EFEFEF;stroke:#454745;stroke-width:3;stroke-miterlimit:10;}
	.st82{clip-path:url(#SVGID_72_);fill:#454745;}
	.st83{clip-path:url(#SVGID_72_);fill:#EFEFEF;stroke:#454745;stroke-width:3;stroke-miterlimit:10;}
	.st84{clip-path:url(#SVGID_74_);fill:#EFEFEF;stroke:#454745;stroke-width:3;stroke-miterlimit:10;}
	.st85{clip-path:url(#SVGID_76_);fill:#EFEFEF;stroke:#454745;stroke-width:3;stroke-miterlimit:10;}
	.st86{clip-path:url(#SVGID_78_);fill:#FFFFFF;}
	.st87{fill:url(#SVGID_79_);stroke:#454745;stroke-width:4;stroke-miterlimit:10;}
	.st88{fill:url(#SVGID_80_);stroke:#454745;stroke-width:4;stroke-miterlimit:10;}
	.st89{clip-path:url(#SVGID_82_);fill:#454745;}
	.st90{clip-path:url(#SVGID_82_);fill:#EFEFEF;stroke:#454745;stroke-width:3;stroke-miterlimit:10;}
	.st91{clip-path:url(#SVGID_84_);fill:#454745;}
	.st92{clip-path:url(#SVGID_84_);fill:#EFEFEF;stroke:#454745;stroke-width:3;stroke-miterlimit:10;}
	.st93{clip-path:url(#SVGID_86_);fill:#EFEFEF;stroke:#454745;stroke-width:3;stroke-miterlimit:10;}
	.st94{clip-path:url(#SVGID_88_);fill:#EFEFEF;stroke:#454745;stroke-width:3;stroke-miterlimit:10;}
	.st95{clip-path:url(#SVGID_90_);fill:#FFFFFF;}
	.st96{fill:url(#SVGID_91_);stroke:#454745;stroke-width:4;stroke-miterlimit:10;}
	.st97{fill:url(#SVGID_92_);stroke:#454745;stroke-width:4;stroke-miterlimit:10;}
	.st98{clip-path:url(#SVGID_94_);fill:#454745;}
	.st99{clip-path:url(#SVGID_94_);fill:#EFEFEF;stroke:#454745;stroke-width:3;stroke-miterlimit:10;}
	.st100{clip-path:url(#SVGID_96_);fill:#454745;}
	.st101{clip-path:url(#SVGID_96_);fill:#EFEFEF;stroke:#454745;stroke-width:3;stroke-miterlimit:10;}
	.st102{clip-path:url(#SVGID_98_);fill:#EFEFEF;stroke:#454745;stroke-width:3;stroke-miterlimit:10;}
	.st103{clip-path:url(#SVGID_100_);fill:#EFEFEF;stroke:#454745;stroke-width:3;stroke-miterlimit:10;}
	.st104{clip-path:url(#SVGID_102_);fill:#FFFFFF;}
	.st105{fill:url(#SVGID_103_);stroke:#454745;stroke-width:4;stroke-miterlimit:10;}
	.st106{fill:url(#SVGID_104_);stroke:#454745;stroke-width:4;stroke-miterlimit:10;}
	.st107{clip-path:url(#SVGID_106_);fill:#454745;}
	.st108{clip-path:url(#SVGID_106_);fill:#EFEFEF;stroke:#454745;stroke-width:3;stroke-miterlimit:10;}
	.st109{clip-path:url(#SVGID_108_);fill:#454745;}
	.st110{clip-path:url(#SVGID_108_);fill:#EFEFEF;stroke:#454745;stroke-width:3;stroke-miterlimit:10;}
	.st111{clip-path:url(#SVGID_110_);fill:#EFEFEF;stroke:#454745;stroke-width:3;stroke-miterlimit:10;}
	.st112{clip-path:url(#SVGID_112_);fill:#EFEFEF;stroke:#454745;stroke-width:3;stroke-miterlimit:10;}
	.st113{clip-path:url(#SVGID_114_);fill:#FFFFFF;}
	.st114{fill:url(#SVGID_115_);stroke:#454745;stroke-width:4;stroke-miterlimit:10;}
	.st115{fill:url(#SVGID_116_);stroke:#454745;stroke-width:4;stroke-miterlimit:10;}
	.st116{fill:#FFFFFF;stroke:#FFFFFF;stroke-width:18;stroke-miterlimit:10;}
	.st117{fill:#AF4C35;}
	.st118{fill:#853A28;}
	.st119{fill:#DB3B3B;}
	.st120{clip-path:url(#SVGID_118_);fill:#AF4C35;}
	.st121{clip-path:url(#SVGID_118_);fill:#CCCCCC;stroke:#454745;stroke-width:3;stroke-miterlimit:10;}
	.st122{clip-path:url(#SVGID_120_);fill:#AF4C35;}
	.st123{clip-path:url(#SVGID_120_);fill:#CCCCCC;stroke:#454745;stroke-width:3;stroke-miterlimit:10;}
	.st124{clip-path:url(#SVGID_122_);fill:#CCCCCC;stroke:#454745;stroke-width:3;stroke-miterlimit:10;}
	.st125{clip-path:url(#SVGID_124_);fill:#CCCCCC;stroke:#454745;stroke-width:3;stroke-miterlimit:10;}
	.st126{fill:#CCCCCC;stroke:#AF4C35;stroke-width:7;stroke-miterlimit:10;}
	.st127{fill:url(#SVGID_125_);stroke:#454745;stroke-width:4;stroke-miterlimit:10;}
	.st128{fill:url(#SVGID_126_);stroke:#454745;stroke-width:4;stroke-miterlimit:10;}
	.st129{clip-path:url(#SVGID_128_);fill:#FFFFFF;}
	.st130{fill:#6B4B0F;}
	.st131{opacity:0.4;}
	.st132{fill:none;stroke:#454745;stroke-width:2;stroke-miterlimit:10;}
	.st133{fill:#282828;}
</style>
<g>
	<defs>
		<rect id="SVGID_25_" x="-26" y="-778" width="348" height="579"/>
	</defs>
	<clipPath id="SVGID_2_">
		<use xlink:href="#SVGID_25_"  style="overflow:visible;"/>
	</clipPath>
	
		<linearGradient id="SVGID_4_" gradientUnits="userSpaceOnUse" x1="315.5594" y1="-464.1736" x2="636.369" y2="-464.1736" gradientTransform="matrix(0.9928 -0.1195 0.1195 0.9928 -252.6605 399.2421)">
		<stop  offset="3.418698e-03" style="stop-color:#E22F17"/>
		<stop  offset="0.109" style="stop-color:#E64822"/>
		<stop  offset="0.2799" style="stop-color:#EB6B32"/>
		<stop  offset="0.4541" style="stop-color:#EF863E"/>
		<stop  offset="0.6306" style="stop-color:#F29947"/>
		<stop  offset="0.8107" style="stop-color:#F3A44C"/>
		<stop  offset="1" style="stop-color:#F4A84E"/>
	</linearGradient>
	<circle style="clip-path:url(#SVGID_2_);fill:url(#SVGID_4_);" cx="164.4" cy="-118.5" r="160.4"/>
</g>
<g>
	<path class="st30" d="M71.9,13.4l13.6,31.9h-3.5L71.9,21.1L61.7,45.3h-3.5L71.9,13.4z"/>
	<path class="st30" d="M95.3,30.3l-2-3l8.6-13.8h3.9L95.3,30.3z M94.6,31.4v13.9h-3.3V31.4l-11.2-18h3.8L94.6,31.4z"/>
	<path class="st30" d="M114.2,13.4l13.6,31.9h-3.5l-10.1-24.2L104,45.3h-3.5L114.2,13.4z"/>
	<polygon class="st5" points="101.9,13.5 100,16.7 103.9,16.7 105.8,13.5 	"/>
	<path class="st5" d="M130.7,14.6h8.7c0.6,0,1.3,0,2.1,0.1c0.8,0.1,1.6,0.2,2.3,0.3c1.7,0.3,3.3,0.9,4.8,1.7
		c1.5,0.8,2.8,1.9,3.9,3.2c1.1,1.3,2,2.8,2.6,4.5c0.6,1.7,1,3.6,1,5.6c0,1.9-0.3,3.7-0.9,5.3c-0.6,1.6-1.4,3.1-2.4,4.4
		c-1,1.3-2.2,2.4-3.6,3.3c-1.4,0.9-2.9,1.6-4.5,2c-0.7,0.2-1.5,0.3-2.3,0.4c-0.8,0.1-1.7,0.1-2.7,0.1h-8.8V14.6z M139.4,42.7
		c0.9,0,1.7,0,2.5-0.1c0.8-0.1,1.5-0.2,2.1-0.4c1.3-0.3,2.5-0.9,3.6-1.6c1.1-0.8,2-1.7,2.8-2.7c0.8-1.1,1.4-2.2,1.8-3.6
		c0.4-1.3,0.7-2.8,0.7-4.3c0-1.7-0.2-3.2-0.7-4.6c-0.4-1.4-1.1-2.6-1.9-3.7c-0.8-1.1-1.8-1.9-2.9-2.6c-1.1-0.7-2.4-1.2-3.8-1.5
		c-0.6-0.1-1.3-0.2-2-0.3s-1.5-0.1-2.1-0.1h-5.4v25.4H139.4z"/>
	<path class="st5" d="M169.3,13.1l13.8,32.3h-3.5l-10.3-24.6L159,45.5h-3.5L169.3,13.1z"/>
	<path class="st5" d="M187.4,17.3h-8.2v-2.7h19.7v2.7h-8.2v28.1h-3.2V17.3z"/>
	<path class="st5" d="M209.2,13.1L223,45.5h-3.5l-10.3-24.6l-10.4,24.6h-3.5L209.2,13.1z"/>
	<path class="st30" d="M57.7,28.6c-0.2-1.3-0.5-2.5-0.9-3.8c-1-3.1-2.7-5.7-5.1-7.9c-1.5-1.4-3.1-2.5-4.9-3.4
		c-0.2-0.1-0.4-0.1-0.6,0c-0.7,0.3-1.4,0.6-2,1c-1.3,0.7-2.7,1.4-3.9,2.2c-1.4,0.9-2.8,2-4.1,3c-0.4,0.3-0.7,0.6-1.1,0.8
		c-0.3,0.2-0.4,0.2-0.7,0c-0.5-0.4-1-0.8-1.5-1.1c-2.5-1.9-5.1-3.7-7.9-5c-0.6-0.3-1.2-0.5-1.8-0.8c-0.2-0.1-0.4-0.1-0.6,0
		c-0.1,0.1-0.2,0.1-0.3,0.2c-0.7,0.4-1.4,0.8-2.1,1.2c-1.2,0.8-2.3,1.8-3.3,2.8c-1.3,1.3-2.4,2.8-3.2,4.5c-1.4,2.7-2,5.7-2.1,8.7
		c0,1,0.1,1.9,0.1,2.8c0.1,0.9,0.2,1.7,0.3,2.6c0.3,1.7,0.9,3.3,1.8,4.8c0.8,1.3,1.6,2.7,2.4,4h5.8c-0.1-0.3-0.2-0.7-0.4-1
		c-0.7-2-1.4-4-1.9-6c-0.3-1.2-0.5-2.3-0.7-3.5c-0.1-0.7-0.2-1.4-0.2-2.1c0-0.4-0.1-0.8,0-1.2c0.1-0.7,0.1-1.5,0.2-2.2
		c0.1-0.7,0.2-1.5,0.4-2.2c0.4-1.2,0.9-2.2,1.9-3c1-0.9,2.3-1.5,3.7-1.6c1.1-0.1,2,0.1,2.9,0.8c0.6,0.5,1.1,1.1,1.4,1.8
		c0.5,1,0.8,2,1,3.1c0.3,1.5,0.5,2.9,0.5,4.4c0,1.1,0,2.1,0,3.2c0,1.1-0.1,2.2-0.1,3.3c0,1.1-0.1,4.9-0.2,6c0,0.3,0,0.3,0.2,0.3
		c2.6,0,5.2,0,7.8,0c0,0,0.1,0,0.1,0c0.1,0,0.1,0,0.1-0.1c0,0,0-0.1,0-0.1c-0.1-0.6-0.1-4-0.1-4.6c-0.1-1.1-0.1-2.3-0.2-3.4
		c0-1.4,0-2.9,0-4.3c0.1-1.4,0.2-2.8,0.4-4.1c0.2-1,0.4-1.9,0.8-2.9c0.4-0.9,0.8-1.7,1.5-2.4c0.8-0.7,1.7-1.1,2.7-1.1
		c0.6,0,1.1,0.1,1.6,0.3c1.3,0.4,2.4,1.1,3.2,2.2c0.8,1,1.2,2.2,1.4,3.5c0.2,1,0.2,2,0.3,2.9c0,0.4,0,0.8,0,1.2
		c-0.1,0.9-0.2,1.9-0.3,2.8c-0.3,1.8-0.7,3.5-1.3,5.2c-0.5,1.7-1.1,3.3-1.7,4.9h5.9c0.7-1.2,1.4-2.3,2.1-3.5c1-1.6,1.7-3.4,2.1-5.3
		c0.3-1.4,0.5-2.8,0.5-4.3C57.9,31,57.8,29.8,57.7,28.6z"/>
</g>
</svg>
