<svg id="Layer_1" data-name="Layer 1" xmlns="http://www.w3.org/2000/svg" viewBox="0 0 839.94 131.57"><title>mayaonline logo</title><path d="M196.35,17.77l42.17,99H227.77L196.35,41.61l-31.74,75.11H153.86Z" fill="#f3a74f"/><path d="M266,70.14l-6.29-9.46,20.16-31.13,11.43.16Zm-2.32,3.51v43.06H253.36V73.65L218.7,17.82h11.91Z" fill="#f3a74f"/><path d="M321.06,17.78l42.18,99H352.49L321.06,41.62l-31.74,75.12H278.57Z" fill="#f3a74f"/><polygon points="286.47 17.79 280.46 27.69 292.63 27.69 298.64 17.79 286.47 17.79" fill="#454745"/><path d="M151.05,65.45a59.65,59.65,0,0,0-2.72-11.64,57.27,57.27,0,0,0-15.74-24.33A69.89,69.89,0,0,0,117.42,19a1.88,1.88,0,0,0-1.77,0c-2.1.95-4.21,1.91-6.29,2.92a98.69,98.69,0,0,0-12,6.8C93,31.65,88.85,34.82,84.68,38c-1.15.87-2.29,1.76-3.45,2.62a1.34,1.34,0,0,1-2,0c-1.46-1.24-3-2.36-4.52-3.53a138.36,138.36,0,0,0-24.4-15.55c-1.79-.88-3.61-1.69-5.44-2.5a1.88,1.88,0,0,0-2,.13c-.3.21-.62.37-.93.55-2.15,1.25-4.37,2.39-6.41,3.8a68,68,0,0,0-10.3,8.7,56.88,56.88,0,0,0-9.88,13.77A61.1,61.1,0,0,0,9,72.83a75.43,75.43,0,0,0,.45,8.77c.26,2.67.54,5.32,1,8a46.75,46.75,0,0,0,5.56,14.9c2.45,4.15,4.95,8.27,7.46,12.39h18l-1.12-3.21c-2.13-6.09-4.25-12.18-5.83-18.45A108.34,108.34,0,0,1,32.4,84.45c-.31-2.19-.55-4.38-.69-6.58a25.3,25.3,0,0,1-.13-3.69q.27-3.36.6-6.72a33.64,33.64,0,0,1,1.27-6.75,19.81,19.81,0,0,1,17-14.25,11.93,11.93,0,0,1,8.91,2.48,15.87,15.87,0,0,1,4.38,5.63A40.56,40.56,0,0,1,67,64.15a70.61,70.61,0,0,1,1.5,13.59c.08,3.25.07,6.49,0,9.74s-.18,6.71-.26,10.06S68,112.69,67.47,116c-.12.78-.1.78.69.78H92.63c.24,0,.36-.09.33-.34s0-.22,0-.32c-.25-1.92-.34-12.33-.45-14.26-.21-3.52-.41-7-.51-10.56-.13-4.41-.15-8.83,0-13.24A90.89,90.89,0,0,1,93.34,65.4a42.75,42.75,0,0,1,2.45-8.82,20.6,20.6,0,0,1,4.73-7.26A12.16,12.16,0,0,1,109,45.86a15,15,0,0,1,4.94.81,19.73,19.73,0,0,1,9.88,6.77,23.47,23.47,0,0,1,4.34,10.89c.47,3,.62,6,.89,9.06a26.13,26.13,0,0,1-.09,3.75,84,84,0,0,1-1,8.53,118.19,118.19,0,0,1-3.87,16c-1.59,5.11-3.39,10.15-5.16,15.21h18c2.19-3.59,4.4-7.17,6.56-10.78a51,51,0,0,0,6.33-16.23,91.53,91.53,0,0,0,1.62-13.2A65.25,65.25,0,0,0,151.05,65.45Z" fill="#f3a74f"/><path d="M419.4,24.28a37.08,37.08,0,0,0-12.54,3.28,39.9,39.9,0,0,0-12.81,9.13A42.12,42.12,0,0,0,385.71,50a42.79,42.79,0,0,0-3,16,42.35,42.35,0,0,0,3,16,41.37,41.37,0,0,0,8.34,13.17,39.8,39.8,0,0,0,12.74,9,38.7,38.7,0,0,0,12.61,3.21v8.74a51.44,51.44,0,0,1-16-3.68,49.39,49.39,0,0,1-16.12-10.6,50.6,50.6,0,0,1-10.83-16,49.39,49.39,0,0,1-4-19.87,48.71,48.71,0,0,1,4-19.73,52,52,0,0,1,10.9-16.09,51.35,51.35,0,0,1,16.13-10.87,48.84,48.84,0,0,1,15.89-3.81Zm5.19,83.21a41.07,41.07,0,0,0,15.1-3.22,38,38,0,0,0,12.74-8.87,39.77,39.77,0,0,0,8.21-13.16,44.53,44.53,0,0,0,2.89-16.13,46.48,46.48,0,0,0-2.89-16.58,40.23,40.23,0,0,0-8.14-13.3,37.45,37.45,0,0,0-12.68-8.86,41.51,41.51,0,0,0-15.23-3.22v-8.8a52.27,52.27,0,0,1,18.65,3.81,48.72,48.72,0,0,1,26.69,26.69,51.38,51.38,0,0,1,3.85,19.94,51.16,51.16,0,0,1-3.91,20.12,50.09,50.09,0,0,1-10.71,16,48,48,0,0,1-16,10.54,53.13,53.13,0,0,1-18.58,3.74Z" fill="#454745"/><path d="M484.48,15.05l72.37,78.8V18.26H567.1V119.92L494.72,41v75.45H484.48Z" fill="#454745"/><path d="M581.9,18.46h10.25V107.9h44.13v8.74H581.9Z" fill="#454745"/><path d="M651.08,18.52h10.24V116.7H651.08Z" fill="#454745"/><path d="M676.05,15.35l72.38,78.81V18.57h10.24V120.23L686.3,41.29v75.46H676.05Z" fill="#454745"/><path d="M773.52,107.9H834v8.74H773.58Zm.06-89.44H834v8.73H773.58Zm0,43.41h58v8.8h-58Z" fill="#454745"/></svg>