<svg xmlns="http://www.w3.org/2000/svg" xmlns:xlink="http://www.w3.org/1999/xlink" version="1.1" style="enable-background:new 0 0 400.8 297;" xml:space="preserve" width="421.5625000349246" height="190.18749926658347"><rect id="backgroundrect" width="100%" height="100%" x="0" y="0" fill="none" stroke="none" class="selected" style=""/>
<style type="text/css">
	.st0{fill:#FFFFFF;}
	.st1{fill:#ECECEC;}
	.st2{fill:none;stroke:#EAEAE9;stroke-width:5;stroke-miterlimit:10;}
	.st3{fill:none;stroke:#263140;stroke-width:4;stroke-miterlimit:10;}
	.st4{fill:#CCCBCB;}
	.st5{fill:#F3F4F5;}
	.st6{fill:#563B39;}
	.st7{fill:#AE8070;}
	.st8{fill:#358EBF;}
	.st9{fill:#070808;}
	.st10{fill:#4B3938;}
	.st11{fill:none;stroke:#FFFFFF;stroke-width:3;stroke-miterlimit:10;}
	.st12{fill:none;stroke:#F1A64F;stroke-width:5;stroke-miterlimit:10;}
	.st13{fill:#FAFBFD;}
	.st14{fill:#496DB3;}
	.st15{fill:#1F5180;}
	.st16{fill:#CACAC9;}
	.st17{fill:#454745;}
	.st18{fill:#F1A64F;}
	.st19{fill:none;stroke:#FFFFFF;stroke-width:2;stroke-miterlimit:10;}
	.st20{fill:#262426;}
	.st21{fill:#4A4152;}
	.st22{fill:none;stroke:#1A889B;stroke-miterlimit:10;stroke-dasharray:7.0266,7.0266;}
	.st23{fill:#FFFFFF;stroke:#1A889B;stroke-width:2;stroke-miterlimit:10;}
	.st24{fill:#F1A74F;}
	.st25{opacity:0.24;}
	.st26{clip-path:url(#SVGID_2_);fill:#454745;}
	.st27{clip-path:url(#SVGID_2_);fill:#EFEEEE;stroke:#454745;stroke-width:3;stroke-miterlimit:10;}
	.st28{opacity:0.3;}
	.st29{opacity:0.24;clip-path:url(#SVGID_4_);}
	.st30{fill:#CBCBCA;}
	.st31{opacity:0.35;}
	.st32{fill:#F2A74E;}
	.st33{fill:#EFEEEE;stroke:#454745;stroke-width:3;stroke-miterlimit:10;}
	.st34{fill:#CDCCCC;}
	.st35{clip-path:url(#SVGID_6_);fill:#EFEEEE;stroke:#454745;stroke-width:3;stroke-miterlimit:10;}
	.st36{fill:#F1A750;}
	.st37{fill:#454745;stroke:#454745;stroke-miterlimit:10;}
	.st38{clip-path:url(#SVGID_8_);fill:#EFEEEE;stroke:#454745;stroke-width:3;stroke-miterlimit:10;}
	.st39{clip-path:url(#SVGID_10_);fill:#454745;}
	.st40{clip-path:url(#SVGID_10_);fill:#EFEEEE;stroke:#454745;stroke-width:3;stroke-miterlimit:10;}
	.st41{opacity:0.24;clip-path:url(#SVGID_12_);}
	.st42{clip-path:url(#SVGID_14_);fill:#EFEEEE;stroke:#454745;stroke-width:3;stroke-miterlimit:10;}
	.st43{fill:#484A48;}
	.st44{fill:#474947;}
	.st45{clip-path:url(#SVGID_16_);fill:#EFEEEE;stroke:#454745;stroke-width:3;stroke-miterlimit:10;}
	.st46{fill:#393B39;}
	.st47{fill:#CACAC8;}
	.st48{fill:#8B8E8B;}
	.st49{fill:#FEFEFE;}
</style>




<g class="currentLayer" style=""><title>Layer 1</title><g id="svg_1" class="">
	<path class="st16" d="M576.18125,-1.09375 c-5.9,0 -10.6,-4.8 -10.6,-10.7 c0,-5.9 4.8,-10.7 10.7,-10.7 c5.9,0 10.7,4.9 10.7,10.8 C586.88125,-5.793749999999999 582.08125,-1.09375 576.18125,-1.09375 z" id="svg_2"/>
	<path class="st16" d="M569.78125,-1.4937499999999986 c4.3,2.5 8.6,2.5 13,0 c1.3,1 2.6,2 3.8,3.1 c2.8,2.4 3.1,5.7 3,9.1 c0,1.1 -0.9,1.8 -1.8,2.2 c-1.6,0.6000000000000001 -3.2,1.3 -4.8,1.6 c-5.4,1.1 -10.7,0.9 -16,-0.6000000000000001 c-0.5,-0.1 -0.9,-0.30000000000000004 -1.3,-0.5 c-2.4,-1.1 -2.8,-1.9 -2.7,-4.6 c0.1,-3.9 1.8,-6.7 5,-8.8 C568.48125,-0.4937499999999986 569.08125,-0.9937499999999986 569.78125,-1.4937499999999986 z" id="svg_3"/>
</g><g id="svg_4" class="">
	<path class="st5" d="M557,29.80625 c1.1,0.30000000000000004 2.1,0.5 3.2,0.9 c2.6,0.9 4.7,2.4 6.5,4.3 c1.2,1.2 2.4,2.5 3.6,3.7 c0.1,0 0.2,0 0.2,-0.1 c0,-1 0,-2.1 0,-3.1 c0,-0.7000000000000001 0.1,-1 0.9,-1 c1.8,0.1 1.5,-0.2 1.5,1.5 c0,2 0,4.1 0,6.1 c0,0.5 -0.1,0.8 -0.7000000000000001,0.8 c-2.3,0 -4.7,0 -7,0 c-0.6000000000000001,0 -0.7000000000000001,-0.2 -0.7000000000000001,-0.8 c0,-2 -0.2,-1.6 1.6,-1.7000000000000002 c0.8,0 1.6,0 2.4,0 c0.1,-0.1 0.1,-0.2 0.2,-0.2 c-0.4,-0.4 -0.9,-0.8 -1.3,-1.2 c-1.6,-1.5 -3,-3.2 -4.8,-4.5 c-6,-4.4 -15,-2.6 -18.9,3.8 c-4.8,8.1 -0.7000000000000001,17.9 8.5,19.9 c4.6,1 8.7,-0.30000000000000004 12,-3.6 c4.9,-4.7 9.6,-9.6 14.5,-14.4 c0.30000000000000004,-0.30000000000000004 0.6000000000000001,-0.5 0.9,-0.8 c0.4,0.8 0.2,1.8 0.6000000000000001,2.7 c-3.5,3.5 -7,7 -10.5,10.5 c-1.8,1.8 -3.5,3.6 -5.5,5.2 c-8.1,6.2 -20.3,2.8 -23.9,-6.7 c-3.4,-8.9 1.5,-18.6 10.7,-21 c0.5,-0.1 1.1,-0.1 1.6,-0.5 C554.1,29.80625 555.5,29.80625 557,29.80625 z" id="svg_5"/>
	<path class="st5" d="M580.3,42.30625 c-0.4,-0.8 -0.2,-1.8 -0.6000000000000001,-2.7 c0,0 0,0 0,0 c0.2,0 0.2,-0.1 0.2,-0.30000000000000004 c1.7000000000000002,-1.7000000000000002 3.3,-3.3 5,-5 c2.4,-2.4 5.2,-3.8 8.5,-4.4 c0.2,0 0.4,0 0.5,-0.2 c1.4,0 2.7,0 4.1,0 c0.1,0.2 0.2,0.2 0.4,0.2 c6.3,1.2 10.5,4.9 12.6,10.9 c0.30000000000000004,0.8 0.4,1.6 0.7000000000000001,2.5 c0,1.4 0,2.9 0,4.3 c-0.4,0.6000000000000001 -0.4,1.3 -0.5,1.9 c-3.1,11.1 -16.8,15.2 -25.4,7.6 c-1.9,-1.6 -3.5,-3.5 -5.3,-5.2 c0.30000000000000004,-1 0,-2 0.2,-3 c1.3,0.8 2.1,2 3.2,3 c1,0.9 1.8,1.9 2.8,2.8 c3.8,3.6 8.3,4.9 13.3,3.3 c4.9,-1.5 7.9,-4.9 9.1,-9.9 c1.7000000000000002,-7.2 -3.6,-14.7 -10.9,-15.7 c-4.5,-0.6000000000000001 -8.4,0.7000000000000001 -11.6,3.9 C584.3,38.30625 582.3,40.30625 580.3,42.30625 z" id="svg_6"/>
	<path class="st5" d="M580.4,48.90625 c-0.2,1 0.1,2 -0.2,3 c-0.9,-0.9 -1.9,-1.8 -2.8,-2.7 c-0.30000000000000004,-0.30000000000000004 -0.30000000000000004,-0.5 0,-0.7000000000000001 c1.7000000000000002,-1.5 1,-1.8 2.8,0.1 C580.3,48.70625 580.2,48.90625 580.4,48.90625 L580.4,48.90625 z" id="svg_7"/>
	<path class="st5" d="M590.6,42.60625 c1.8,0 3,1.2 3,2.9 c0,1.8 -1.3,3.1 -3.1,3.1 c-1.8,0 -3,-1.3 -3,-3.1 C587.7,43.70625 588.8,42.60625 590.6,42.60625 zM592.5,45.60625 c-0.1,-1.3 -0.7000000000000001,-2.2 -1.9,-2.1 c-1.2,0 -1.9,0.8 -1.9,2.1 c0,1.3 0.9,2.3 2,2.2 C592,47.60625 592.5,46.70625 592.5,45.60625 z" id="svg_8"/>
	<path class="st5" d="M603.3,43.506249999999994 c-0.5,0 -0.8,-0.1 -1,0 c-0.4,0.1 -0.9,0.1 -1,0.7000000000000001 c-0.1,0.6000000000000001 0.4,0.7000000000000001 0.8,0.8 c0.5,0.1 1,0.30000000000000004 1.4,0.4 c0.6000000000000001,0.2 1.1,0.7000000000000001 1,1.4 c0,0.7000000000000001 -0.4,1.3 -1.1,1.5 c-1,0.4 -2,0.2 -3,-0.1 c-0.30000000000000004,-0.1 -0.5,-0.30000000000000004 -0.4,-0.6000000000000001 c0.1,-0.30000000000000004 0.4,-0.30000000000000004 0.7000000000000001,-0.2 c0.9,0.30000000000000004 2.2,0.7000000000000001 2.5,-0.30000000000000004 c0.30000000000000004,-1.2 -1.2,-0.9 -2,-1.3 c-0.8,-0.4 -1.4,-0.8 -1.3,-1.7000000000000002 c0.1,-1 0.8,-1.4 1.7000000000000002,-1.5 c0.4,0 0.9,0 1.3,0 c0.4,0.1 1.1,0 1,0.6000000000000001 C604.1,44.006249999999994 603.5,43.40625 603.3,43.506249999999994 z" id="svg_9"/>
	<path class="st5" d="M594.7,45.506249999999994 c0,-0.1 0,-0.2 0,-0.30000000000000004 c0,-2.6 0.5,-3 3,-2.5 c1.1,0.2 1.8,0.8 1.7000000000000002,2 c-0.1,1 -0.8,1.6 -1.8,1.6 c-1,0 -2.1,-0.1 -1.8,1.5 c0.1,0.30000000000000004 -0.1,0.6000000000000001 -0.5,0.6000000000000001 c-0.4,0 -0.6000000000000001,-0.30000000000000004 -0.6000000000000001,-0.7000000000000001 C594.7,47.006249999999994 594.7,46.20625 594.7,45.506249999999994 C594.7,45.506249999999994 594.7,45.506249999999994 594.7,45.506249999999994 zM596.8,45.506249999999994 c0.7000000000000001,-0.1 1.4,-0.1 1.4,-1 c0,-1 -0.9,-1 -1.6,-1.1 c-0.8,-0.1 -0.9,0.4 -0.9,1.1 C595.7,45.306250000000006 596,45.70625 596.8,45.506249999999994 z" id="svg_10"/>
	<path class="st5" d="M580.4,48.90625 c-0.2,-0.1 -0.2,-0.2 -0.2,-0.4 C580.4,48.70625 580.5,48.806250000000006 580.4,48.90625 z" id="svg_11"/>
	<path class="st5" d="M546,45.506249999999994 c0.2,-1.2 -0.7000000000000001,-3 1.8,-2.8 c2.2,0.2 3.4,1 3.4,2.9 c0,1.8 -1.4,2.9 -3.6,2.9 C545.2,48.40625 546.4,46.506249999999994 546,45.506249999999994 zM547.1,45.60625 c0.5,0.5 -0.7000000000000001,2 1.1,1.9 c1.2,-0.1 2,-0.8 2,-2 c0,-1.2 -0.6000000000000001,-2 -1.9,-2 C546.6,43.506249999999994 547.5,44.806250000000006 547.1,45.60625 z" id="svg_12"/>
	<path class="st5" d="M556.3,48.10625 c-1,0.6000000000000001 -2.2,0.30000000000000004 -3.3,0.30000000000000004 c-0.5,0 -0.7000000000000001,-0.5 -0.8,-0.9 c0,-1.2 0,-2.5 0,-3.8 c0,-0.7000000000000001 0.4,-1 1,-1 c0.2,0 0.4,0 0.7000000000000001,0 c0.8,0.1 2.3,-0.4 2.3,0.4 c0.1,0.9 -1.3,0.30000000000000004 -2,0.4 c-0.5,0.1 -0.8,0.2 -0.8,0.8 c0,0.6000000000000001 0.4,0.6000000000000001 0.9,0.7000000000000001 c0.6000000000000001,0.1 1.6,-0.4 1.6,0.5 c0,0.7000000000000001 -1.1,0.30000000000000004 -1.7000000000000002,0.4 c-0.5,0.1 -0.8,0.30000000000000004 -0.8,0.8 c0,0.6000000000000001 0.2,0.9 0.8,0.9 c0.7000000000000001,0 1.4,0 2,0 C556.3,47.70625 556.3,47.90625 556.3,48.10625 z" id="svg_13"/>
	<path class="st5" d="M559.8,47.10625 c0.6000000000000001,-1.5 1.1,-2.6 1.6,-3.8 c0.1,-0.30000000000000004 0.30000000000000004,-0.6000000000000001 0.7000000000000001,-0.4 c0.30000000000000004,0.1 0.30000000000000004,0.5 0.1,0.7000000000000001 c-0.6000000000000001,1.4 -1.1,2.8 -1.8,4.2 c-0.30000000000000004,0.6000000000000001 -1,0.9 -1.4,0.1 c-0.7000000000000001,-1.4 -1.3,-2.9 -1.9,-4.3 c-0.1,-0.30000000000000004 -0.2,-0.7000000000000001 0.30000000000000004,-0.8 c0.4,-0.1 0.6000000000000001,0.30000000000000004 0.7000000000000001,0.5 C558.7,44.506249999999994 559.2,45.60625 559.8,47.10625 z" id="svg_14"/>
	<path class="st5" d="M579.9,39.30625 c0,0.1 0,0.30000000000000004 -0.2,0.30000000000000004 C579.7,39.50625 579.8,39.40625 579.9,39.30625 z" id="svg_15"/>
</g><g id="svg_16" class="">
	<path class="st24" d="M96.60625,74.93125 c3.6,1.6 8.2,-0.2 9.8,-3.9 c1.7000000000000002,-3.9 0.1,-8.5 -3.8,-10.1 c-4,-1.7000000000000002 -8.3,-0.1 -10.1,3.9 C90.90625,68.73124999999999 92.40625,73.03125 96.60625,74.93125 z" id="svg_17"/>
	<path class="st25" d="M98.90625,60.23124999999999 l-0.9,0.4 c0,0 -2.9,12 -0.8,14.4 s0,0 0,0 l2.2,0.6000000000000002 L98.90625,60.23124999999999 " id="svg_18"/>
	<g id="svg_19">
		<defs transform="translate(7.8125,-21.875) translate(-3.90625,-71.09375) ">
			<path id="SVGID_9_" d="M257,164.7l-0.1,1.2c-0.3,4.8-1.1,8.5-2.9,12.9l-0.4,1.1l-37.8-9.8l3.2-14L257,164.7z"/>
		</defs>
		<clipPath id="SVGID_2_" transform="translate(7.8125,-21.875) translate(-3.90625,-71.09375) ">
			<use xlink:href="#SVGID_9_" style="overflow:visible;" id="svg_20"/>
		</clipPath>
		<path class="st26" d="M260.90625,71.73124999999999 l-0.1,1.2 c-0.3000000000000001,4.8 -1.1,8.5 -2.9,12.9 l-0.4,1.1 l-37.8,-9.8 l3.2,-14 L260.90625,71.73124999999999 z" id="svg_21"/>
		<line class="st27" x1="252.80624389648438" y1="70.13125610351562" x2="248.80624389648438" y2="84.93124389648438" id="svg_22"/>
		<line class="st27" x1="246.40625" y1="68.43124389648438" x2="242.40625" y2="83.23124694824219" id="svg_23"/>
		<line class="st27" x1="239.90625" y1="66.63125610351562" x2="235.90625" y2="81.43124389648438" id="svg_24"/>
		<line class="st27" x1="233.50625610351562" y1="64.93124389648438" x2="229.50625610351562" y2="79.73124694824219" id="svg_25"/>
		<line class="st27" x1="226.7062530517578" y1="64.23124694824219" x2="222.80624389648438" y2="78.53125" id="svg_26"/>
	</g>
	<polygon class="st28" points="261.0062561035156,71.53125 256.5062561035156,70.83125305175781 253.30624389648438,82.43124389648438 226.7062530517578,72.13125610351562 226.2062530517578,78.83125305175781 252.50625610351562,85.63125610351562 252.50625610351562,85.53125 256.90625,86.73124694824219 " id="svg_27"/>
	<g id="svg_28">
		<defs transform="translate(7.8125,-21.875) translate(-3.90625,-71.09375) ">
			<path id="SVGID_11_" d="M240.5,161c-0.2,0-14.9-3.5-14.9-3.5l-4.7,6.2l9.7,4l10.3-4.8L240.5,161z"/>
		</defs>
		<clipPath id="SVGID_4_" transform="translate(7.8125,-21.875) translate(-3.90625,-71.09375) ">
			<use xlink:href="#SVGID_11_" style="overflow:visible;" id="svg_29"/>
		</clipPath>
		<path class="st29" d="M239.00625,65.13125 c-0.1,0 -0.1,0.1 -0.2,0.1 l-9.4,-1.4 l-2.1,7.7 l0.4,0.8 l1.4,0.2 c0.2,-0.2 6.3,0.2 6.3,0.2 l1.6,-2.6 c1,1.3 3.3,1.2 5.3,-0.1 c2,-1.4 3,-3.6 2,-5 C243.50625,63.73124999999999 241.10625,63.73124999999999 239.00625,65.13125 z" id="svg_30"/>
	</g>
	<path class="st30" d="M296.40625,77.13125 l-0.2,1.6 c-1,6.5 -2.3,11.6 -4.8,17.7 l-0.6000000000000002,1.5 l-36.6,-9.9 l5.2,-19.2 L296.40625,77.13125 z" id="svg_31"/>
	<path class="st17" d="M278.10625,94.53125 c3.2,-6.7 -3.6,-8.3 -3.6,-8.3 l-0.5,-14.6 l18.9,4.5 l-2.1,21.7 L278.10625,94.53125 z" id="svg_32"/>
	<path class="st31" d="M285.10625,75.23124999999999 c-0.2,3.5 -0.5,16.3 7.5,19.2 l1.8,-18 l-8.4,-1.9 C285.60625,74.43125 285.20625,74.73124999999999 285.10625,75.23124999999999 z" id="svg_33"/>
	<path class="st32" d="M303.90625,100.13125 l-4.2,-25.8 c-0.2,-1.5 -1.6,-2.5 -3.1,-2.2 l-7.7,1.3 c-1.5,0.2 -2.5,1.6 -2.2,3.1 l3.2,19.4 c0.8,5 5.5,8.4 10.5,7.6 l1.3,-0.2 C303.10625,103.03125 304.10625,101.63125 303.90625,100.13125 z" id="svg_34"/>
	<path class="st31" d="M254.30625,88.03125 l1.1,-4.6 l29.4,8.6 c0,0 0.2,2.3 2.9,4.6 l-1.3,0.2 L254.30625,88.03125 z" id="svg_35"/>
	<path class="st31" d="M296.40625,104.03125 l-4.8,-16.6 c0,0 -1,-3.2 -3.7,-3.3 l0.1,2.6 l2.1,15.5 C290.20625,102.23124999999999 292.80625,104.63125 296.40625,104.03125 " id="svg_36"/>
	<g id="svg_37">
		<path class="st17" d="M246.90625,94.93125 l8,6.4 c-1.9,4.2 -2.9,4.6 -6,7.7 l-1.2,2 l-30.6,-25.5 l7.6,-11.2 L246.90625,94.93125 z" id="svg_38"/>
	</g>
	<path class="st30" d="M283.30625,87.93125 l0.4,1.5 c1.5,6.4 2.1,11.6 2.1,18.1 l0,1.6 l-38,3.1 l-2.3,-19.6 L283.30625,87.93125 z" id="svg_39"/>
	<path class="st17" d="M273.80625,110.23124999999999 c0.4,-7.3 -6,-6.5 -6,-6.5 l-3.9,-13.5 l16,-2 l5.9,20.9 L273.80625,110.23124999999999 z" id="svg_40"/>
	<path class="st31" d="M275.20625,90.53125 c1.2,5.1 5.8,21.9 8.7,18.5 l-2.8,-21.1 l-3.9,0.5 C276.20625,88.63125 275.00625,89.53125 275.20625,90.53125 z" id="svg_41"/>
	<path class="st32" d="M296.10625,110.43125 l-7,-22.6 c-0.5,-1.6 -2.2,-2.5 -3.8,-2.1 l-6.6,1.8 c-1.6,0.4 -2.5,2.1 -2,3.7 l5,16.1 c1.6,5.2 7.2,8.3 12.4,6.8 v0 C295.70625,113.73124999999999 296.60625,112.03125 296.10625,110.43125 z" id="svg_42"/>
	<path class="st25" d="M220.60625,87.43125 l1.2,1.1 c0,0 5.6,-4.4 8.5,-8.7 l-4,-3.8 C226.40625,76.03125 220.30625,87.23124999999999 220.60625,87.43125 " id="svg_43"/>
	<path class="st17" d="M161.40625,65.13125 c-6,-3.4 -21.5,-8 -60.9,-7.4 c0,0 -5.3,11.2 0.4,20.8 l47.5,-3.3 c4.7,-0.3000000000000001 9.4,-1 13.3,-3.4 l1.2,-1 C165.20625,69.33125000000001 163.80625,66.43125 161.40625,65.13125 z" id="svg_44"/>
	<path class="st34" d="M112.30625,77.33125000000001 c-0.3000000000000001,-1.6 -0.9,-3 -1.5,-4.5 c-0.3000000000000001,-0.8 -0.7000000000000002,-1.6 -1,-2.4 c-0.1,-0.2 -0.1,-0.4 0,-0.7000000000000002 c1.3,-2.6 2.4,-5.3 3.3,-8 c0.4,-1 0.6000000000000002,-2.1 0.9,-3.2 c0,-0.1 0.2,-0.3000000000000001 0,-0.4 c-0.2,-0.1 -0.3000000000000001,0.2 -0.4,0.3000000000000001 c-1,1.6 -1.9,3.2 -2.8,4.9 c-1.1,2.1 -1.9,4.2 -2.9,6.3 c-0.1,0.3000000000000001 -0.2,0.6000000000000002 0,0.9 c1.3,2.2 2.4,4.4 4,6.4 C112.10625,77.03125 112.20625,77.13125 112.30625,77.33125000000001 z" id="svg_45"/>
	<path class="st16" d="M112.50625,77.43125 c-0.7000000000000002,-1.3 -1.2,-2.6 -1.8,-3.9 c-0.5,-1 -0.9,-2.1 -1.6,-3 c-0.4,-0.5 -0.3000000000000001,-1.2 0,-1.7000000000000002 c0.1,-0.2 0.3000000000000001,-0.4 0.5,-0.6000000000000002 c1.4,-1.4 1.8,-3.3 2.5,-4.9 c0.8,-1.7000000000000002 1.4,-3.5 2.1,-5.3 c0.2,-0.5 0.1,-0.6000000000000002 -0.5,-0.6000000000000002 c-4.4,0.1 -8.8,0.2 -13.2,0.3000000000000001 c-0.4,0 -0.6000000000000002,0.1 -0.8,0.5 c-0.3000000000000001,0.9 -0.7000000000000002,1.8 -1,2.7 c-0.3000000000000001,0.9 -0.3000000000000001,1.8 -0.4,2.8 c-0.2,1.6 -0.6000000000000002,3.1 -0.5,4.7 c0,1.5 0.1,3.1 0.3000000000000001,4.6 c0.2,1.5 0.9,2.9 1.4,4.3 c0.2,0.5 0.4,1 0.5,1.5 c0.1,0.3000000000000001 0.3000000000000001,0.4 0.6000000000000002,0.4 c3.2,-0.4 6.5,-0.7000000000000002 9.7,-1.1 c0.7000000000000002,-0.1 1.3,-0.2 2,-0.2 C112.50625,77.73124999999999 112.50625,77.53125 112.50625,77.43125 z" id="svg_46"/>
	<g id="svg_47">
		<defs transform="translate(7.8125,-21.875) translate(-3.90625,-71.09375) ">
			<path id="SVGID_13_" d="M161.3,161.6c0,0-2.8-11.8-64.7-10.8c0,0-5.3,11.2,0.4,20.8l40.2-4.2L161.3,161.6z"/>
		</defs>
		<clipPath id="SVGID_6_" transform="translate(7.8125,-21.875) translate(-3.90625,-71.09375) ">
			<use xlink:href="#SVGID_13_" style="overflow:visible;" id="svg_48"/>
		</clipPath>
	</g>
	<path class="st16" d="M226.50625,74.73124999999999 L226.50625,74.73124999999999 c-1.6,8.6 -9,14.5 -16.9,13.5 l-46.6,-5.9 c-4.8,-0.6000000000000002 -8,-5.5 -7.1,-10.7 l3.4,-19 c2.7,-5.3 8,-7.8 12.7,-6.7 l43.4,10.1 C223.20625,58.03125 228.00625,66.13125 226.50625,74.73124999999999 z" id="svg_49"/>
	<path class="st25" d="M155.80625,74.53125 l-3.4,0.2 l-1.1,-8 l12.3,-10.1 c1.4,4.7 -4.2,11.9 -6.6,16.2 L155.80625,74.53125 z" id="svg_50"/>
	<path class="st17" d="M163.30625,59.53125 l-0.5,1.6 c-1.2,4 -5.4,6.3 -9.5,5.1 l-6,-1.8 l4.8,-16.2 l6,1.8 C162.20625,51.23124999999999 164.50625,55.53125 163.30625,59.53125 z" id="svg_51"/>
	<path class="st30" d="M141.20625,65.13125 c-1.8,-1.1 -3.8,-2.3 -5.2,-3.8 c-2.7,-2.8 -5.5,-5.5 -8.2,-8.3 c-1.2,-1.2 -2.4,-2.4 -3.5,-3.8 c-2,-2.4 -3,-5.1 -2.2,-8.3 c0.1,-0.5 -0.2,-0.7000000000000002 -0.6000000000000002,-0.9 c-4.1,-1.9 -8,-4.2 -11.6,-6.9 c-2.1,-1.6 -3.9,-3.6 -5.3,-5.8 c-2.2,-3.3 -1.4,-7.7 1.7000000000000002,-9.6 c1.1,-0.7000000000000002 2.3,-0.7000000000000002 3.5,-0.4 c1.7000000000000002,0.4 3.1,1.3 4.5,2.4 c5,3.9 9.3,8.4 12.7,13.8 c0.1,0.1 0.2,0.2 0.3000000000000001,0.3000000000000001 c1,-0.9 2,-1.8 3,-2.5 c1,-0.8 2.2,-1.4 3.3,-2.1 c-0.5,-0.6000000000000002 -0.9,-1.3 -1.5,-2 c-2.4,-3 -4.4,-6.3 -6,-9.8 c-1.1,-2.4 -2.2,-4.7 -2.7,-7.3 c-0.2,-0.8 -0.2,-1.6 -0.2,-2.5 c0,-2.2 1.1,-3.7 3.1,-4.4 c2.8,-1.1 6.2,0 8.1,2.5 c2.8,3.5 4.3,7.6 5.3,11.9 c0.6000000000000002,2.6 1,5.3 1.5,8 c0.1,0.5 0.3000000000000001,0.7000000000000002 0.7000000000000002,0.7000000000000002 c3.3,0.2 5.6,2 7.2,4.8 c2.3,4.1 4.4,8.2 6.6,12.3 c1.3,2.4 2.5,4.8 3.1,7.4 c0.1,0.2 0.1,0.4 0.1,0.6000000000000002 c-1.3,-0.5 -2.6,-1.1 -3.9,-1.6 c-2.3,-0.8 -4.6,-1 -7,-0.7000000000000002 c-2.9,0.4 -4.9,1.8 -6.2,4.4 c-1.6,3.4 -1.7000000000000002,6.6 -1,10.3 C141.10625,64.23124999999999 141.20625,64.93125 141.20625,65.13125 z" id="svg_52"/>
	<path class="st0" d="M125.00625,49.131249999999994 c1.7000000000000002,-3.1 3.7,-4.4 6.2,-4 c3.5,0.5 6,3.1 6.6,6.6 c0.4,2.7 -1,5.1 -3.5,6.1 c-0.8,0.3000000000000001 -1.5,0.3000000000000001 -2.1,-0.4 c-2.3,-2.5 -4.7,-4.9 -7.1,-7.3 C125.00625,49.83125000000001 125.00625,49.431250000000006 125.00625,49.131249999999994 z" id="svg_53"/>
	<path class="st0" d="M149.20625,31.431250000000006 c0.6000000000000002,0.4 0.9,1.1 1.2,1.7000000000000002 c1.4,2.6 2.8,5.3 4.3,7.9 c0.4,0.6000000000000002 0.3000000000000001,1.1 -0.1,1.8 c-1.7000000000000002,2.6 -5,3.2 -7.7,1.5 c-3,-1.9 -4.2,-6 -2.8,-9.3 c0.6000000000000002,-1.5 1.7000000000000002,-2.6 3.3,-3.1 c0.2,-0.1 0.6000000000000002,-0.1 0.7000000000000002,-0.4 C148.40625,31.431250000000006 148.80625,31.431250000000006 149.20625,31.431250000000006 z" id="svg_54"/>
	<path class="st17" d="M126.80625,25.431250000000006 c1.8,2.5 3.6,5 5.4,7.5 c0.9,1.3 1.9,2.6 2.8,3.9 c0.1,0.2 0.2,0.2 0,0.4 c-0.9,0.6000000000000002 -0.9,0.6000000000000002 -1.6,-0.3000000000000001 c-1.1,-1.5 -2.2,-3 -3.3,-4.5 c-1.5,-2 -2.9,-4 -4.4,-6 c0,0 0,-0.1 -0.1,-0.2 C126.10625,26.03125 126.60625,25.931250000000006 126.80625,25.431250000000006 z" id="svg_55"/>
	<path class="st36" d="M124.80625,25.431250000000006 c-0.2,0.5 -0.7000000000000002,0.6000000000000002 -1.1,0.9 c-1.2,0.3000000000000001 -2.4,-0.5 -2.5,-2 c0,-0.8 0.9,-1.7000000000000002 1.8,-1.8 c0.9,-0.1 1.9,0.7000000000000002 2,1.6 C125.10625,24.631249999999994 125.10625,25.03125 124.80625,25.431250000000006 z" id="svg_56"/>
	<circle class="st32" cx="130.5062484741211" cy="31.831253051757812" r="3.799999952316284" id="svg_57"/>
	<path class="st32" d="M154.20625,64.63125 c-1,0.6000000000000002 -2.4,1.5 -3.8,2.2 c-2,0.9 -4.2,0.9 -6.3,0.3000000000000001 c-2.1,-0.6000000000000002 -3.2,-2 -3.7,-4.1 c-0.7000000000000002,-2.8 -0.5,-5.6 0.6000000000000002,-8.3 c0.5,-1.2 1.1,-2.4 1.7000000000000002,-3.5 c0.7000000000000002,-1.3 1.9,-2 3.4,-2.3 c4,-0.9 7.8,-0.7000000000000002 11.3,1.3 c0.7000000000000002,0.4 1.3,0.8 1.9,1.4 c0.8,0.8 1.2,1.9 1.2,3.1 c0.1,2.8 -0.9,5.2 -2.9,7.1 C156.50625,62.73124999999999 155.50625,63.53125 154.20625,64.63125 z" id="svg_58"/>
	<path class="st17" d="M133.30625,13.53125 c1.1,3.1 1.6,6.3 1.7000000000000002,9.6 c0,0.6000000000000002 -0.1,1.1 -0.2,1.7000000000000002 c-0.1,0.6000000000000002 -0.7000000000000002,0.8 -1.2,0.4 c-0.8,-0.7000000000000002 -1.6,-1.4 -2.3,-2.2 c-2.1,-2.5 -3.6,-5.5 -4.9,-8.5 c-0.6000000000000002,-1.5 -1.1,-3.2 -1.1,-4.8 c0,-0.9 0.3000000000000001,-1.7000000000000002 1.1,-2.2 c0.9,-0.5 1.9,-0.6000000000000002 2.9,0 c1.5,0.8 2.2,2.2 2.9,3.6 C132.70625,11.931250000000006 133.00625,12.731250000000003 133.30625,13.53125 z" id="svg_59"/>
	<path class="st17" d="M107.70625,25.931250000000006 c-0.3000000000000001,-1.3 -0.5,-2.1 0.1,-3 c0.8,-1.4 2.1,-1.5 3.3,-1 c2.4,0.8 4.2,2.5 6,4.2 c1.9,1.8 3.6,3.8 4.9,6 c0.4,0.7000000000000002 0.7000000000000002,1.4 1,2.2 c0.3000000000000001,0.6000000000000002 -0.1,1.2 -0.9,1 c-1.3,-0.4 -2.7,-0.7000000000000002 -4,-1.3 c-3.5,-1.5 -6.6,-3.5 -9.1,-6.3 C108.30625,27.131249999999994 107.90625,26.331249999999997 107.70625,25.931250000000006 z" id="svg_60"/>
	<g id="svg_61">
		<path class="st17" d="M143.80625,57.631249999999994 c-0.4,-0.5 -0.3000000000000001,-1.4 0.2,-1.8 c0.4,-0.5 1,-0.5 1.5,-0.2 c0.2,0.1 0.3000000000000001,0.3000000000000001 0.5,0.5 c0.5,0.5 1.1,0.9 1.8,1.1 c0,0 0.1,0 0.1,0.1 c0,0.1 0.1,0.1 0.1,0.1 c0.1,0 0.2,0.1 0.3000000000000001,0.1 c0.1,0 0.1,0.1 0.1,0.2 c0,0.1 -0.1,0.2 -0.3000000000000001,0.3000000000000001 c-0.6000000000000002,0.2 -1.1,0.2 -1.7000000000000002,0.3000000000000001 c-0.5,0.1 -0.9,0.1 -1.4,0 c-0.4,-0.1 -0.8,-0.1 -1.1,-0.4 C143.90625,57.83125000000001 143.80625,57.73124999999999 143.80625,57.631249999999994 z" id="svg_62"/>
		<path class="st17" d="M149.70625,51.631249999999994 c0.2,-0.1 0.4,-0.2 0.6000000000000002,-0.2 c0.3000000000000001,0 0.5,0 0.8,0.1 c0.3000000000000001,0.1 0.4,0.3000000000000001 0.6000000000000002,0.5 c0.3000000000000001,0.5 0.3000000000000001,1 0.1,1.5 c-0.2,0.8 -0.6000000000000002,1.6 -1,2.3 c-0.1,0.1 -0.1,0.2 -0.2,0.3000000000000001 c0,0.1 -0.1,0.1 -0.1,0.1 c-0.1,0.1 -0.2,0.1 -0.3000000000000001,0 c-0.1,0 -0.1,-0.2 -0.1,-0.3000000000000001 c0,-0.4 0,-0.8 -0.1,-1.1 c-0.1,-0.6000000000000002 -0.3000000000000001,-1.1 -0.6000000000000002,-1.6 c-0.2,-0.2 -0.3000000000000001,-0.5 -0.2,-0.8 C149.20625,52.131249999999994 149.40625,51.83125000000001 149.70625,51.631249999999994 z" id="svg_63"/>
	</g>
	<path class="st17" d="M137.30625,31.431250000000006 c-0.3000000000000001,-0.4 -0.7000000000000002,-0.7000000000000002 -1.1,-1.1 l0,0 c-1,-0.8 -2.5,-1 -3.8,-0.6000000000000002 c-2.6,0.8 -4.6,2.5 -5.9,5.1 c0,0.1 -0.1,0.2 -0.1,0.3000000000000001 c-0.3000000000000001,1 0.2,2 1,2.4 c0.5,0.3000000000000001 1.1,0.5 1.8,0.5 c0.6000000000000002,0 1.1,0.8 1.6,1.3 c0.1,0.1 0.2,0.3000000000000001 0.3000000000000001,0.5 c0.7000000000000002,-0.8 0.8,-1.6 0.5,-2.4 c1.5,-0.2 2.8,0.7000000000000002 3.6,2.3 c0.1,0 0.1,-0.1 0.2,-0.1 c0,0 0,0 0.1,0 c0.2,-0.6000000000000002 0.2,-1.5 0,-2.6 l0.7000000000000002,1 c0.1,0 0.1,0 0.2,-0.1 c-0.1,-1.1 -0.2,-2.1 -0.4,-3.2 c0.2,0.2 0.4,0.4 0.7000000000000002,0.7000000000000002 c0.4,-1.2 0.4,-2.3 0,-3.5 c0.4,0.2 0.7000000000000002,0.5 1.1,0.8 C137.70625,32.33125 137.60625,31.831249999999997 137.30625,31.431250000000006 z" id="svg_64"/>
	<path class="st17" d="M151.40625,42.131249999999994 c-0.4,0.3000000000000001 -0.7000000000000002,0.5 -1.2,0.6000000000000002 c-0.8,0.3000000000000001 -1.6,0.2 -2.3,-0.3000000000000001 c-0.7000000000000002,-0.5 -1.3,-1.1 -1.6,-1.8 c-0.4,-1 -0.2,-2 0.4,-2.9 c0.3000000000000001,-0.5 0.7000000000000002,-0.8 1.3,-1.1 c0.5,-0.2 1,0.1 0.9,0.7000000000000002 c0,0.2 0,0.3000000000000001 -0.1,0.4 c0,0.5 0.2,0.8 0.7000000000000002,1 c0.5,0.2 0.9,0.1 1.2,-0.3000000000000001 c0.1,-0.1 0.1,-0.2 0.2,-0.3000000000000001 c0.1,-0.1 0.1,-0.2 0.2,-0.3000000000000001 c0.3000000000000001,-0.4 0.7000000000000002,-0.4 1,-0.1 c0.3000000000000001,0.3000000000000001 0.4,0.7000000000000002 0.5,1.1 c0.2,1 0.1,2 -0.6000000000000002,2.8 C151.90625,41.83125000000001 151.60625,41.931250000000006 151.40625,42.131249999999994 z" id="svg_65"/>
	<path class="st17" d="M134.30625,54.631249999999994 c0.4,-0.3000000000000001 0.7000000000000002,-0.5 1,-0.9 c0.5,-0.7000000000000002 0.6000000000000002,-1.4 0.4,-2.2 c-0.2,-0.8 -0.6000000000000002,-1.5 -1.3,-2.1 c-0.8,-0.7000000000000002 -1.8,-0.8 -2.9,-0.5 c-0.6000000000000002,0.2 -1,0.4 -1.4,0.9 c-0.4,0.4 -0.2,1 0.3000000000000001,1.1 c0.1,0 0.3000000000000001,0 0.4,0.1 c0.5,0.1 0.7000000000000002,0.4 0.7000000000000002,0.9 c0,0.5 -0.2,0.9 -0.7000000000000002,1.1 c-0.1,0 -0.3000000000000001,0.1 -0.4,0.1 c-0.1,0 -0.2,0 -0.3000000000000001,0.1 c-0.5,0.1 -0.6000000000000002,0.5 -0.4,1 c0.2,0.4 0.5,0.6000000000000002 0.9,0.8 c0.9,0.6000000000000002 1.9,0.7000000000000002 2.9,0.3000000000000001 C133.90625,54.931250000000006 134.10625,54.73124999999999 134.30625,54.631249999999994 z" id="svg_66"/>
	<path class="st37" d="M151.60625,60.33125000000001 c-2.1,1.5 -4.4,2.1 -6.2,1.8 c1.7000000000000002,1.8 4.9,1.8 7.5,0 s3.6,-5 2.3,-7.1 C155.00625,56.73124999999999 153.70625,58.73124999999999 151.60625,60.33125000000001 z" id="svg_67"/>
	<path class="st25" d="M165.60625,64.73124999999999 c0,0 -0.5,5.8 14.7,7 c15.2,1.2 47.5,3 47.5,3 l-0.2,-5 L165.60625,64.73124999999999 z" id="svg_68"/>
	<path class="st43" d="M183.40625,81.13125 c-0.6000000000000002,-0.1 -1.3,-0.3000000000000001 -1.9,-0.4 c-0.2,0 -0.1,-0.2 -0.1,-0.3000000000000001 c0.5,-2.2 0.9,-4.4 1.4,-6.7 c0.6000000000000002,-2.7 1.1,-5.4 1.7000000000000002,-8.1 c0.1,-0.6000000000000002 0.2,-1.2 0.4,-1.8 c0.1,-0.2 0.1,-0.3000000000000001 0.4,-0.3000000000000001 c0.6000000000000002,0.2 1.1,0.2 1.7000000000000002,0.4 c0.2,0.1 0.2,0.1 0.2,0.3000000000000001 c-0.4,1.8 -0.8,3.6 -1.2,5.4 c-0.5,2.2 -0.9,4.5 -1.4,6.7 c-0.3000000000000001,1.4 -0.6000000000000002,2.9 -0.9,4.3 C183.70625,80.93125 183.80625,81.23124999999999 183.40625,81.13125 z" id="svg_69"/>
	<path class="st44" d="M212.60625,60.931250000000006 c-0.4,2.3 -0.8,4.6 -1.2,6.9 c-0.4,2.1 -0.7000000000000002,4.1 -1.1,6.2 c-0.4,2.1 -0.8,4.2 -1.1,6.3 c-0.4,2.1 -0.7000000000000002,4.2 -1.1,6.3 c-0.1,0.5 -0.2,1 -0.3000000000000001,1.5 c0,0.2 -0.1,0.3000000000000001 -0.4,0.3000000000000001 c-0.9,-0.2 -1.8,-0.3000000000000001 -2.7,-0.5 c-0.2,0 -0.3000000000000001,-0.1 -0.3000000000000001,-0.4 c0.7000000000000002,-3.7 1.3,-7.5 2,-11.2 c0.5,-2.8 1,-5.6 1.5,-8.4 c0.4,-2.4 0.9,-4.9 1.3,-7.3 c0,-0.2 0.1,-0.4 0.3000000000000001,-0.3000000000000001 c0.9,0.2 1.9,0.3000000000000001 2.8,0.5 C212.50625,60.73124999999999 212.80625,60.73124999999999 212.60625,60.931250000000006 z" id="svg_70"/>
	<path class="st34" d="M218.30625,70.73124999999999 c0.3000000000000001,-1.8 0.8,-3.6 1.3,-5.4 c0.3000000000000001,-0.9 0.6000000000000002,-1.9 0.9,-2.8 c0.1,-0.3000000000000001 0.1,-0.5 0,-0.8 c-1.5,-3 -2.7,-6 -3.8,-9.1 c-0.4,-1.2 -0.8,-2.4 -1.1,-3.7 c0,-0.2 -0.2,-0.4 0,-0.5 c0.2,-0.1 0.3000000000000001,0.2 0.4,0.3000000000000001 c1.1,1.8 2.1,3.6 3.1,5.5 c1.2,2.3 2.2,4.7 3.2,7.1 c0.2,0.4 0.2,0.7000000000000002 0,1.1 c-1.2,2.6 -2.3,5.3 -3.8,7.8 C218.50625,70.43125 218.40625,70.53125 218.30625,70.73124999999999 z" id="svg_71"/>
	<g id="svg_72">
		<defs transform="translate(7.8125,-21.875) translate(-3.90625,-71.09375) ">
			<path id="SVGID_15_" d="M159.4,157.2c0,0,2.4-14,66.2-17.1c0,0,6,12.7,0.6,24.3l-41.6-2.1L159.4,157.2z"/>
		</defs>
		<clipPath id="SVGID_8_" transform="translate(7.8125,-21.875) translate(-3.90625,-71.09375) ">
			<use xlink:href="#SVGID_15_" style="overflow:visible;" id="svg_73"/>
		</clipPath>
	</g>
	<path class="st32" d="M160.80625,51.03125 c0,0 14.1,-13.2 45,-13.2 c30.2,0 34.2,-4.5 43.4,-6.9 c10.4,-2.7 39.1,-4.5 39.1,-4.5 s-7.8,8.4 -8.6,14.6 c-0.7000000000000002,6.2 -0.1,7.2 -4.1,7.1 c-20.2,-0.4 -60.9,-1.4 -76.7,2.5 S180.40625,48.931250000000006 160.80625,51.03125 z" id="svg_74"/>
	<path class="st24" d="M234.70625,65.13125 c-3.5,1.9 -8.2,0.4 -10.1,-3.3 c-2,-3.8 -0.6000000000000002,-8.4 3.2,-10.4 c3.9,-2 8.3,-0.6000000000000002 10.3,3.3 C240.00625,58.53125 238.80625,63.03125 234.70625,65.13125 z" id="svg_75"/>
	<polyline class="st25" points="247.6062469482422,111.03125 246.1062469482422,109.93124389648438 242.00625610351562,90.33125305175781 245.6062469482422,93.83125305175781 247.6062469482422,111.03125 " id="svg_76"/>
	<path class="st25" d="M231.50625,50.631249999999994 l1,0.3000000000000001 c0,0 3.7,11.8 1.7000000000000002,14.4 c-2,2.6 0,0 0,0 l-2.1,0.7000000000000002 L231.50625,50.631249999999994 " id="svg_77"/>
	<path class="st17" d="M167.10625,59.83125000000001 c6,-4.4 21.8,-10.8 62.5,-12.8 c0,0 6,12.7 0.6000000000000002,24.3 l-49.1,-0.6000000000000002 c-4.8,-0.1 -9.6,-1.5 -13.7,-4 v0 C164.80625,65.13125 164.70625,61.631249999999994 167.10625,59.83125000000001 z" id="svg_78"/>
	<path class="st16" d="M231.40625,50.631249999999994 c-0.4,-1 -0.8,-2 -1.2,-3 c-0.2,-0.4 -0.4,-0.6000000000000002 -0.8,-0.6000000000000002 c-4.5,0.2 -9.1,0.4 -13.6,0.6000000000000002 c-0.6000000000000002,0 -0.7000000000000002,0.2 -0.5,0.7000000000000002 c0.4,1 0.8,2 1.2,2.9 l3.5,10.6 l-2.2,9.5 l0.2,-0.4 c0,0.1 0,0.3000000000000001 0.1,0.3000000000000001 c0.7000000000000002,-0.1 1.4,0 2.1,0.1 c3.3,0.3000000000000001 6.8,0.3000000000000001 10.1,0.6000000000000002 c0.4,0 0.5,-0.1 0.6000000000000002,-0.5 c0.1,-0.6000000000000002 0.3000000000000001,-1.2 0.5,-1.8 c0.4,-1.7000000000000002 1.1,-3.4 1.2,-5.1 c0.2,-1.8 0.1,-3.6 0.1,-5.3 c0,-1.8 -0.5,-3.6 -0.7000000000000002,-5.4 C231.80625,52.73124999999999 231.80625,51.631249999999994 231.40625,50.631249999999994 z" id="svg_79"/>
	<path class="st44" d="M199.30625,23.631249999999994 c-0.5,0.6000000000000002 -1.1,1 -1.9,1.1 c-3,0.4 -6,0.8 -9,1.2 c-0.8,0.1 -1.5,0.3000000000000001 -2.3,0.1 c-1.2,-0.3000000000000001 -2.2,-1.3 -2.4,-2.6 c-0.3000000000000001,-2.4 -0.7000000000000002,-4.9 -1,-7.3 c-0.1,-0.9 -0.2,-1.8 -0.4,-2.7 c-0.3000000000000001,-1.8 0.9,-3.5 3,-3.7 c3.2,-0.4 6.3,-0.8 9.5,-1.2 c0.8,-0.1 1.6,-0.1 2.3,0.4 c-0.6000000000000002,0.5 -1.4,0.7000000000000002 -2.1,1.1 c-1.4,0.7000000000000002 -2.8,1.3 -4.1,2 c-0.1,0.1 -0.1,0.1 0,0.2 c-0.7000000000000002,0.2 -1.4,0.2 -2,0.4 c-0.6000000000000002,0.2 -1.2,0.2 -1.8,0.4 c-0.2,0.1 -0.6000000000000002,0.1 -0.6000000000000002,0.6000000000000002 c0,0.1 0,0.2 0,0.3000000000000001 c0.2,1.8 0.4,3.6 0.7000000000000002,5.5 c0.1,0.7000000000000002 0.1,1.5 0.4,2.2 c0.1,0.3000000000000001 0.4,0.2 0.6000000000000002,0.3000000000000001 c1.2,0.1 2.5,-0.1 3.7,-0.2 c0,0.3000000000000001 0.3000000000000001,0.3000000000000001 0.4,0.3000000000000001 c1.4,0.4 2.9,0.8 4.3,1.2 C197.50625,23.231250000000003 198.40625,23.53125 199.30625,23.631249999999994 z" id="svg_80"/>
	<path class="st44" d="M194.90625,42.33125000000001 c-0.7000000000000002,0.9 -1.7000000000000002,1 -2.7,1.2 c-2.6,0.3000000000000001 -5.3,0.7000000000000002 -7.9,1.1 c-0.8,0.1 -1.6,0.4 -2.4,0.2 c-1.7000000000000002,-0.4 -2.4,-1.4 -2.6,-3.1 c-0.3000000000000001,-2.4 -0.6000000000000002,-4.7 -0.9,-7.1 c-0.1,-1 -0.3000000000000001,-2 -0.4,-3 c-0.1,-1.5 0.9,-3 2.7,-3.2 c3.3,-0.5 6.7,-0.9 10,-1.4 c0.7000000000000002,-0.1 1.4,0 2.1,0.4 c0,0.1 0,0.2 -0.1,0.2 c-0.6000000000000002,0.3000000000000001 -1.2,0.6000000000000002 -1.8,0.9 c-1.5,0.7000000000000002 -2.9,1.4 -4.4,2.1 c-0.1,0 -0.1,0.1 -0.1,0.2 c0,0 0,0 0,0 c0,0 -0.1,0.1 -0.1,0.1 c-1.2,0.1 -2.4,0.4 -3.6,0.7000000000000002 c-0.3000000000000001,0.1 -0.6000000000000002,0.2 -0.5,0.6000000000000002 c0.4,2.6 0.7000000000000002,5.3 1.1,7.9 c0.2,0.3000000000000001 0.5,0.3000000000000001 0.8,0.3000000000000001 c1.1,0 2.2,-0.1 3.3,-0.2 c0.2,0.2 0.4,0.2 0.7000000000000002,0.3000000000000001 c1.4,0.4 2.7,0.7000000000000002 4.1,1.1 C193.00625,41.83125000000001 193.90625,42.131249999999994 194.90625,42.33125000000001 z" id="svg_81"/>
	<path class="st44" d="M212.20625,40.131249999999994 c-0.5,0.6000000000000002 -1.2,0.8 -2,1 c-2.4,0.3000000000000001 -4.8,0.6000000000000002 -7.2,1 c-1,0.1 -2.1,0.4 -3.1,0.4 c-1.7000000000000002,0.1 -3,-1.2 -3.2,-3 c-0.3000000000000001,-2.6 -0.7000000000000002,-5.2 -1,-7.8 c-0.1,-1 -0.4,-1.9 -0.2,-3 c0.2,-1.2 1.2,-2.3 2.3,-2.5 c1.3,-0.2 2.6,-0.4 4,-0.6000000000000002 c1.5,-0.2 3.1,-0.4 4.6,-0.6000000000000002 c0.7000000000000002,-0.1 1.5,-0.2 2.2,-0.3000000000000001 c0.6000000000000002,0 1.2,0.1 1.7000000000000002,0.5 c-1,0.5 -2,1 -3,1.5 c-1.2,0.6000000000000002 -2.5,1.1 -3.6,1.8 c-0.1,0 -0.2,0.1 -0.3000000000000001,0.1 c-1.1,0.2 -2.3,0.4 -3.3,0.8 c-0.2,0.1 -0.5,0.1 -0.4,0.5 c0.3000000000000001,2.1 0.5,4.2 0.9,6.4 c0.1,0.5 0,1.1 0.3000000000000001,1.6 c0,0.2 0.2,0.1 0.3000000000000001,0.2 c1.2,0.2 2.4,-0.1 3.6,-0.2 c0,0.1 0.1,0.1 0.2,0.2 c2.3,0.6000000000000002 4.6,1.2 6.9,1.9 C211.90625,39.83125000000001 212.10625,39.83125000000001 212.20625,40.131249999999994 z" id="svg_82"/>
	<path class="st46" d="M212.20625,40.131249999999994 c-0.1,-0.2 -0.3000000000000001,-0.2 -0.5,-0.3000000000000001 c-2.3,-0.6000000000000002 -4.6,-1.3 -6.9,-1.9 c-0.1,0 -0.1,-0.1 -0.2,-0.2 c1.2,-0.1 2.3,-0.4 3.5,-0.7000000000000002 c0.3000000000000001,-0.1 0.6000000000000002,-0.1 0.7000000000000002,-0.5 c-0.2,-1.6 -0.4,-3.2 -0.6000000000000002,-4.7 c-0.2,-1.1 -0.2,-2.2 -0.5,-3.3 c-0.1,-0.2 -0.2,-0.2 -0.4,-0.2 c-0.6000000000000002,-0.1 -1.2,0 -1.8,0 c-0.7000000000000002,0 -1.3,0.2 -2,0.1 c1.2,-0.7000000000000002 2.4,-1.2 3.6,-1.8 c1,-0.5 2,-1 3,-1.5 c0.8,0.4 1.2,1 1.4,1.9 c0.2,1.3 0.4,2.6 0.6000000000000002,4 c0.3000000000000001,2.3 0.6000000000000002,4.5 0.9,6.8 C213.20625,38.73124999999999 212.90625,39.53125 212.20625,40.131249999999994 z" id="svg_83"/>
	<path class="st46" d="M194.90625,42.33125000000001 c-1,-0.3000000000000001 -1.9,-0.5 -2.9,-0.8 c-1.4,-0.4 -2.7,-0.7000000000000002 -4.1,-1.1 c-0.2,-0.1 -0.5,-0.1 -0.7000000000000002,-0.3000000000000001 c0.1,-0.1 0.2,-0.1 0.3000000000000001,-0.1 c1.2,-0.1 2.3,-0.4 3.4,-0.7000000000000002 c0.2,-0.1 0.5,-0.1 0.4,-0.5 c-0.2,-1.6 -0.4,-3.2 -0.6000000000000002,-4.8 c-0.1,-1 -0.3000000000000001,-2 -0.4,-3 c0,-0.4 -0.3000000000000001,-0.4 -0.6000000000000002,-0.4 c-1.1,-0.1 -2.3,0 -3.4,0.1 c0,-0.1 0,-0.2 0.1,-0.2 c1.5,-0.7000000000000002 2.9,-1.4 4.4,-2.1 c0.6000000000000002,-0.3000000000000001 1.2,-0.6000000000000002 1.8,-0.9 c0.1,0 0.1,-0.1 0.1,-0.2 c1,0.6000000000000002 1.4,1.5 1.6,2.5 c0.4,2.9 0.8,5.7 1.1,8.6 c0.1,0.6000000000000002 0.2,1.3 0.2,2 C195.60625,41.23124999999999 195.40625,41.83125000000001 194.90625,42.33125000000001 z" id="svg_84"/>
	<path class="st46" d="M190.90625,12.131249999999994 c-0.1,-0.1 -0.1,-0.1 0,-0.2 c1.4,-0.7000000000000002 2.8,-1.3 4.1,-2 c0.7000000000000002,-0.4 1.5,-0.5 2.1,-1.1 c1,0.5 1.4,1.4 1.5,2.4 c0.4,2.8 0.8,5.7 1.2,8.5 c0.1,0.9 0.4,1.7000000000000002 0.2,2.6 c-0.1,0.5 -0.3000000000000001,1 -0.7000000000000002,1.3 c-0.9,-0.1 -1.7000000000000002,-0.4 -2.6,-0.7000000000000002 c-1.4,-0.4 -2.9,-0.8 -4.3,-1.2 c-0.2,0 -0.4,0 -0.4,-0.3000000000000001 c0.1,0 0.1,0 0.2,-0.1 c1.1,-0.2 2.2,-0.3000000000000001 3.3,-0.7000000000000002 c0.2,-0.1 0.4,-0.1 0.4,-0.4 c0,-1 -0.2,-2.1 -0.4,-3.1 c-0.2,-1.6 -0.4,-3.2 -0.7000000000000002,-4.9 c-0.1,-0.3000000000000001 -0.3000000000000001,-0.3000000000000001 -0.6000000000000002,-0.3000000000000001 C193.00625,11.931250000000006 191.90625,12.03125 190.90625,12.131249999999994 z" id="svg_85"/>
	<path class="st32" d="M187.60625,85.63125 c-1.7000000000000002,-0.2 -3.4,-0.4 -5,-0.6000000000000002 c-1.4,-0.2 -2.8,-0.3000000000000001 -4.2,-0.5 c-1,-0.1 -2,-0.3000000000000001 -2.9,-0.4 c0.4,-1.2 1.1,-2.2 2.1,-3 c2.1,-1.8 5.5,-1.8 7.7,0 C186.70625,82.23124999999999 187.50625,83.73124999999999 187.60625,85.63125 z" id="svg_86"/>
	<path class="st44" d="M187.60625,85.63125 c0,-1.9 -0.9,-3.5 -2.3,-4.6 c-2.3,-1.8 -5.6,-1.7000000000000002 -7.7,0 c-1,0.8 -1.7000000000000002,1.8 -2.1,3 c-0.6000000000000002,-0.1 -1.2,-0.2 -1.8,-0.2 c-0.3000000000000001,0 -0.2,-0.1 -0.2,-0.3000000000000001 c0.3000000000000001,-0.9 0.7000000000000002,-1.8 1.2,-2.5 c0.8,-1.1 1.8,-1.9 3.1,-2.5 c1.8,-0.8 3.6,-1 5.5,-0.6000000000000002 c1.8,0.4 3.3,1.3 4.5,2.8 c1.2,1.4 1.8,3 1.8,4.8 c0,0.2 0,0.4 -0.3000000000000001,0.4 C188.70625,85.83125000000001 188.10625,85.73124999999999 187.60625,85.63125 z" id="svg_87"/>
	<path class="st47" d="M194.70625,12.331249999999997 c0.2,1.6 0.5,3.2 0.7000000000000002,4.9 c0.1,1 0.3000000000000001,2.1 0.4,3.1 c-0.2,-0.1 -0.5,-0.2 -0.7000000000000002,-0.1 c-1.8,0.1 -3.5,0.2 -5.3,0.6000000000000002 c-0.7000000000000002,0.2 -1.5,0.3000000000000001 -2.1,0.7000000000000002 c-0.3000000000000001,-0.7000000000000002 -0.3000000000000001,-1.4 -0.4,-2.2 c-0.3000000000000001,-1.8 -0.5,-3.6 -0.7000000000000002,-5.5 c0,-0.1 0,-0.2 0,-0.3000000000000001 C189.30625,13.731250000000003 192.00625,13.331249999999997 194.70625,12.331249999999997 zM190.60625,19.231250000000003 c0.7000000000000002,-0.1 1.2,-0.2 1.8,-0.3000000000000001 c0.1,0 0.2,-0.1 0.2,-0.1 c0.3000000000000001,-0.6000000000000002 0.8,-1.1 0.9,-1.7000000000000002 c0.1,-0.4 -0.3000000000000001,-0.8 -0.4,-1.3 c-0.1,-0.1 -0.1,-0.3000000000000001 -0.2,-0.4 c-0.1,-0.1 -0.1,-0.2 -0.2,-0.3000000000000001 c-0.6000000000000002,-0.3000000000000001 -1.3,-0.4 -1.9,-0.5 c-0.3000000000000001,-0.1 -0.6000000000000002,0.4 -0.9,0.5 c-0.2,0.1 -0.3000000000000001,0.3000000000000001 -0.5,0.4 c-0.3000000000000001,0.2 -0.4,0.5 -0.4,0.8 c0,0.4 0,0.8 -0.1,1.2 c-0.1,0.3000000000000001 0.1,0.5 0.3000000000000001,0.7000000000000002 c0.3000000000000001,0.3000000000000001 0.7000000000000002,0.6000000000000002 1,0.9 C190.30625,19.131249999999994 190.40625,19.231250000000003 190.60625,19.231250000000003 z" id="svg_88"/>
	<path class="st48" d="M194.70625,12.331249999999997 c-2.7,1 -5.4,1.3 -8.2,1.1 c-0.1,-0.4 0.3000000000000001,-0.5 0.6000000000000002,-0.6000000000000002 c0.6000000000000002,-0.2 1.2,-0.3000000000000001 1.8,-0.4 c0.7000000000000002,-0.2 1.4,-0.2 2,-0.4 c1.1,0 2.2,-0.2 3.2,-0.1 C194.40625,12.03125 194.60625,12.03125 194.70625,12.331249999999997 z" id="svg_89"/>
	<path class="st48" d="M187.60625,21.431250000000006 c0.7000000000000002,-0.4 1.4,-0.6000000000000002 2.1,-0.7000000000000002 c1.7000000000000002,-0.4 3.5,-0.5 5.3,-0.6000000000000002 c0.2,0 0.5,0.1 0.7000000000000002,0.1 c0,0.3000000000000001 -0.2,0.3000000000000001 -0.4,0.4 c-1.1,0.4 -2.2,0.5 -3.3,0.7000000000000002 c-0.1,0 -0.1,0 -0.2,0.1 c-1.2,0.1 -2.5,0.3000000000000001 -3.7,0.2 C188.00625,21.631249999999994 187.70625,21.731250000000003 187.60625,21.431250000000006 z" id="svg_90"/>
	<path class="st47" d="M190.30625,31.03125 c0.1,1 0.3000000000000001,2 0.4,3 c0.2,1.6 0.4,3.2 0.6000000000000002,4.8 c-0.3000000000000001,0 -0.6000000000000002,-0.1 -1,-0.1 c-1.4,0.1 -2.7,0.1 -4,0.4 c-1.1,0.2 -2.2,0.3000000000000001 -3.2,0.9 c-0.4,-2.6 -0.7000000000000002,-5.3 -1.1,-7.9 c0.3000000000000001,-0.1 0.6000000000000002,0.1 1,0.1 c1.5,0 2.9,-0.2 4.4,-0.4 C188.40625,31.631249999999994 189.40625,31.331249999999997 190.30625,31.03125 zM186.50625,37.83125000000001 c0.5,-0.2 1.3,0.1 1.8,-0.5 c0.4,-0.5 0.9,-1.1 0.9,-1.7000000000000002 c0,-0.6000000000000002 -0.3000000000000001,-1.4 -0.8,-1.9 c-0.5,-0.5 -1.3,-0.6000000000000002 -2,-0.6000000000000002 c-0.6000000000000002,0 -1.2,0.6000000000000002 -1.6,1 c-0.5,0.5 -0.2,1.3 -0.3000000000000001,2 C184.40625,36.631249999999994 185.80625,37.83125000000001 186.50625,37.83125000000001 z" id="svg_91"/>
	<path class="st48" d="M188.30625,31.03125 c-1,0.3000000000000001 -1.9,0.6000000000000002 -2.9,0.7000000000000002 c-1.5,0.2 -2.9,0.4 -4.4,0.4 c-0.3000000000000001,0 -0.6000000000000002,-0.2 -1,-0.1 c0,-0.4 0.3000000000000001,-0.5 0.5,-0.6000000000000002 c1.2,-0.3000000000000001 2.4,-0.6000000000000002 3.6,-0.7000000000000002 c0,0 0.1,-0.1 0.1,-0.1 c0,0 0,0 0,0 c1.1,-0.1 2.3,-0.2 3.4,-0.1 C188.00625,30.731250000000003 188.30625,30.631249999999994 188.30625,31.03125 z" id="svg_92"/>
	<path class="st48" d="M183.20625,40.131249999999994 c1,-0.6000000000000002 2.1,-0.6000000000000002 3.2,-0.9 c1.3,-0.3000000000000001 2.7,-0.3000000000000001 4,-0.4 c0.3000000000000001,0 0.6000000000000002,0.1 1,0.1 c0,0.3000000000000001 -0.2,0.4 -0.4,0.5 c-1.1,0.4 -2.2,0.6000000000000002 -3.4,0.7000000000000002 c-0.1,0 -0.2,0 -0.3000000000000001,0.1 c-1.1,0.1 -2.2,0.3000000000000001 -3.3,0.2 C183.60625,40.33125000000001 183.30625,40.33125000000001 183.20625,40.131249999999994 z" id="svg_93"/>
	<path class="st46" d="M184.30625,30.831249999999997 c0,0 -0.1,0.1 -0.1,0.1 C184.20625,30.831249999999997 184.30625,30.831249999999997 184.30625,30.831249999999997 z" id="svg_94"/>
	<path class="st47" d="M207.80625,28.53125 c0.3000000000000001,1.1 0.3000000000000001,2.2 0.5,3.3 c0.3000000000000001,1.6 0.4,3.2 0.6000000000000002,4.7 c-0.3000000000000001,-0.1 -0.6000000000000002,-0.2 -1,-0.2 c-0.9,0 -1.8,0.1 -2.7,0.2 c-1.4,0.1 -2.7,0.4 -4,0.8 c-0.2,0.1 -0.4,0 -0.4,0.3000000000000001 c-0.3000000000000001,-0.5 -0.2,-1.1 -0.3000000000000001,-1.6 c-0.3000000000000001,-2.1 -0.6000000000000002,-4.2 -0.9,-6.4 c0.6000000000000002,0 1.1,0.1 1.7000000000000002,0.1 c1.5,-0.1 2.9,-0.2 4.3,-0.6000000000000002 C206.30625,29.131249999999994 207.10625,29.131249999999994 207.80625,28.53125 zM202.00625,33.33125 c0,0.8 1.2,2.2 1.8,2.1 c0.7000000000000002,-0.1 1.4,0 1.9,-0.5 c0.5,-0.4 0.9,-1.1 0.9,-1.7000000000000002 c0,-0.6000000000000002 -0.3000000000000001,-1.3 -0.7000000000000002,-1.8 c-0.5,-0.5 -1.3,-0.6000000000000002 -1.9,-0.7000000000000002 c-0.7000000000000002,-0.1 -1.2,0.6000000000000002 -1.7000000000000002,1 C201.80625,32.23125 202.20625,32.931250000000006 202.00625,33.33125 z" id="svg_95"/>
	<path class="st48" d="M205.80625,28.53125 c-0.6000000000000002,0.5 -1.4,0.6000000000000002 -2.2,0.7000000000000002 c-1.4,0.3000000000000001 -2.9,0.4 -4.3,0.6000000000000002 c-0.5,0 -1.1,0 -1.7000000000000002,-0.1 c-0.1,-0.4 0.2,-0.4 0.4,-0.5 c1.1,-0.4 2.2,-0.6000000000000002 3.3,-0.8 c0.1,0 0.2,-0.1 0.3000000000000001,-0.1 c0.7000000000000002,0.1 1.3,-0.1 2,-0.1 c0.6000000000000002,0 1.2,-0.1 1.8,0 C205.60625,28.331249999999997 205.70625,28.431250000000006 205.80625,28.53125 z" id="svg_96"/>
	<path class="st48" d="M200.80625,37.83125000000001 c0,-0.3000000000000001 0.3000000000000001,-0.3000000000000001 0.4,-0.3000000000000001 c1.3,-0.4 2.7,-0.6000000000000002 4,-0.8 c0.9,-0.1 1.8,-0.2 2.7,-0.2 c0.3000000000000001,0 0.7000000000000002,0 1,0.2 c-0.1,0.4 -0.5,0.4 -0.7000000000000002,0.5 c-1.1,0.3000000000000001 -2.3,0.5 -3.5,0.7000000000000002 c-1.2,0.1 -2.4,0.4 -3.6,0.2 C201.00625,37.931250000000006 200.80625,38.03125 200.80625,37.83125000000001 z" id="svg_97"/>
	<path class="st32" d="M190.60625,19.231250000000003 c-0.1,0 -0.3000000000000001,-0.1 -0.4,-0.3000000000000001 c-0.3000000000000001,-0.3000000000000001 -0.7000000000000002,-0.6000000000000002 -1,-0.9 c-0.2,-0.2 -0.3000000000000001,-0.4 -0.3000000000000001,-0.7000000000000002 c0.1,-0.4 0,-0.8 0.1,-1.2 c0,-0.3000000000000001 0.1,-0.6000000000000002 0.4,-0.8 c0.2,-0.1 0.3000000000000001,-0.3000000000000001 0.5,-0.4 c0.3000000000000001,-0.2 0.6000000000000002,-0.6000000000000002 0.9,-0.5 c0.6000000000000002,0.1 1.3,0.3000000000000001 1.9,0.5 c0.1,0.1 0.2,0.2 0.2,0.3000000000000001 c0.1,0.1 0.1,0.3000000000000001 0.2,0.4 c0.2,0.4 0.6000000000000002,0.9 0.4,1.3 c-0.2,0.6000000000000002 -0.6000000000000002,1.2 -0.9,1.7000000000000002 c0,0.1 -0.2,0.1 -0.2,0.1 C191.80625,19.03125 191.20625,19.131249999999994 190.60625,19.231250000000003 zM192.30625,15.53125 c-0.6000000000000002,0.3000000000000001 -1,0.2 -1.6,-0.4 c0.1,0.4 -0.2,0.5 -0.4,0.7000000000000002 c-0.3000000000000001,0.3000000000000001 -0.5,0.1 -0.9,0.2 c0.5,0.1 0.3000000000000001,0.4 0.4,0.7000000000000002 c0,0.4 -0.1,0.6000000000000002 -0.4,0.8 c0.4,-0.2 0.5,0.1 0.8,0.2 c0.4,0.2 0.3000000000000001,0.4 0.4,0.8 c0,-0.5 0.4,-0.4 0.6000000000000002,-0.5 c0.4,0 0.7000000000000002,-0.2 0.9,-0.6000000000000002 c0.1,-0.3000000000000001 0.2,-0.6000000000000002 0.8,-0.5 C192.20625,16.53125 192.00625,16.03125 192.30625,15.53125 z" id="svg_98"/>
	<path class="st32" d="M186.50625,37.83125000000001 c-0.6000000000000002,0 -2.1,-1.2 -2,-1.6 c0.1,-0.7000000000000002 -0.2,-1.5 0.3000000000000001,-2 c0.4,-0.5 1,-1 1.6,-1 c0.7000000000000002,0 1.5,0.1 2,0.6000000000000002 c0.5,0.5 0.8,1.2 0.8,1.9 c0,0.6000000000000002 -0.5,1.2 -0.9,1.7000000000000002 C187.80625,37.931250000000006 187.00625,37.631249999999994 186.50625,37.83125000000001 zM186.30625,37.23124999999999 c0.4,-0.5 0.9,-0.6000000000000002 1.6,-0.2 c-0.3000000000000001,-0.4 -0.2,-0.6000000000000002 0,-0.9 c0.1,-0.3000000000000001 0.3000000000000001,-0.5 0.7000000000000002,-0.5 c-0.4,0 -0.5,-0.3000000000000001 -0.7000000000000002,-0.6000000000000002 c-0.1,-0.3000000000000001 -0.1,-0.6000000000000002 0,-0.9 c-0.4,0.7000000000000002 -0.8,0.1 -1.2,0.1 c-0.2,0 -0.1,-0.4 -0.2,-0.4 c-0.3000000000000001,0 0.1,0.4 -0.1,0.5 c-0.4,0.1 -0.6000000000000002,0.7000000000000002 -1.2,0.3000000000000001 c0.6000000000000002,0.6000000000000002 0.4,1.1 0,1.6 C185.70625,36.131249999999994 186.20625,36.631249999999994 186.30625,37.23124999999999 z" id="svg_99"/>
	<path class="st32" d="M202.00625,33.33125 c0.2,-0.4 -0.2,-1.1 0.3000000000000001,-1.5 c0.5,-0.4 1,-1.1 1.7000000000000002,-1 c0.7000000000000002,0.1 1.5,0.1 1.9,0.7000000000000002 c0.4,0.5 0.7000000000000002,1.2 0.7000000000000002,1.8 c0,0.6000000000000002 -0.4,1.3 -0.9,1.7000000000000002 c-0.5,0.5 -1.3,0.4 -1.9,0.5 C203.10625,35.53125 201.90625,34.23125 202.00625,33.33125 zM202.50625,33.83125 c0.8,0 1.2,0.4 1.2,1 c0.3000000000000001,-0.5 0.9,-0.6000000000000002 1.6,-0.2 c-0.3000000000000001,-0.4 -0.1,-0.6000000000000002 0,-0.9 c0.1,-0.4 0.4,-0.4 0.7000000000000002,-0.5 c-0.7000000000000002,-0.2 -0.9,-0.7000000000000002 -0.7000000000000002,-1.5 c-0.4,0.5 -0.8,0.1 -1.2,0.1 c-0.2,0 0,-0.4 -0.3000000000000001,-0.4 c-0.3000000000000001,0 0.1,0.4 -0.2,0.5 c-0.4,0.1 -0.6000000000000002,0.7000000000000002 -1.1,0.4 C203.10625,32.73125 203.10625,33.431250000000006 202.50625,33.83125 z" id="svg_100"/>
	<path class="st49" d="M192.30625,15.53125 c-0.3000000000000001,0.5 -0.1,1 0.7000000000000002,1.5 c-0.6000000000000002,-0.2 -0.6000000000000002,0.2 -0.8,0.5 c-0.2,0.4 -0.5,0.6000000000000002 -0.9,0.6000000000000002 c-0.3000000000000001,0 -0.6000000000000002,0 -0.6000000000000002,0.5 c0,-0.4 0,-0.6000000000000002 -0.4,-0.8 c-0.3000000000000001,-0.1 -0.4,-0.4 -0.8,-0.2 c0.3000000000000001,-0.2 0.4,-0.4 0.4,-0.8 c0,-0.3000000000000001 0.1,-0.6000000000000002 -0.4,-0.7000000000000002 c0.3000000000000001,-0.1 0.6000000000000002,0.1 0.9,-0.2 c0.2,-0.2 0.5,-0.3000000000000001 0.4,-0.7000000000000002 C191.30625,15.731250000000003 191.70625,15.831249999999997 192.30625,15.53125 zM191.80625,17.03125 c-0.1,0 -0.3000000000000001,-0.1 -0.3000000000000001,0.1 c0,0.2 0.1,0.4 0.3000000000000001,0.4 c0.2,0.1 0.2,-0.2 0.2,-0.3000000000000001 C192.20625,17.03125 192.00625,17.03125 191.80625,17.03125 zM190.80625,17.331249999999997 c0,-0.1 -0.1,-0.2 -0.2,-0.2 c-0.1,0 -0.3000000000000001,0 -0.3000000000000001,0.3000000000000001 c0,0.2 0.2,0.3000000000000001 0.3000000000000001,0.3000000000000001 C190.80625,17.731250000000003 190.70625,17.431250000000006 190.80625,17.331249999999997 zM191.70625,15.931250000000006 c-0.2,0 -0.4,-0.3000000000000001 -0.6000000000000002,-0.1 c-0.1,0.1 0,0.4 0.1,0.5 C191.50625,16.431250000000006 191.50625,16.131249999999994 191.70625,15.931250000000006 zM192.10625,16.53125 c0,-0.1 -0.1,-0.2 -0.3000000000000001,-0.2 c-0.1,0 -0.2,0.2 -0.3000000000000001,0.3000000000000001 c0,0.2 0.1,0.2 0.3000000000000001,0.2 C192.00625,16.831249999999997 192.10625,16.731250000000003 192.10625,16.53125 zM191.20625,17.331249999999997 c-0.1,0.2 -0.4,0.3000000000000001 -0.2,0.5 c0.1,0.1 0.4,0 0.5,-0.1 C191.60625,17.53125 191.30625,17.431250000000006 191.20625,17.331249999999997 zM190.10625,17.131249999999994 c0.2,-0.1 0.5,0 0.5,-0.3000000000000001 c0,-0.1 -0.2,-0.3000000000000001 -0.4,-0.3000000000000001 C190.00625,16.631249999999994 190.10625,16.831249999999997 190.10625,17.131249999999994 zM190.90625,16.131249999999994 c-0.1,-0.1 0,-0.3000000000000001 -0.2,-0.2 c-0.1,0 -0.3000000000000001,0.1 -0.3000000000000001,0.2 c0,0.2 0.2,0.2 0.3000000000000001,0.2 C190.90625,16.431250000000006 190.80625,16.231250000000003 190.90625,16.131249999999994 z" id="svg_101"/>
	<path class="st49" d="M186.30625,37.23124999999999 c-0.1,-0.6000000000000002 -0.6000000000000002,-1.1 -1.1,-1 c0.4,-0.5 0.6000000000000002,-1.1 0,-1.6 c0.6000000000000002,0.4 0.8,-0.2 1.2,-0.3000000000000001 c0.2,-0.1 -0.1,-0.5 0.1,-0.5 c0.2,0 0,0.4 0.2,0.4 c0.4,0 0.8,0.6000000000000002 1.2,-0.1 c-0.1,0.3000000000000001 -0.2,0.6000000000000002 0,0.9 c0.1,0.3000000000000001 0.2,0.6000000000000002 0.7000000000000002,0.6000000000000002 c-0.4,0.1 -0.6000000000000002,0.2 -0.7000000000000002,0.5 c-0.1,0.3000000000000001 -0.3000000000000001,0.5 0,0.9 C187.20625,36.631249999999994 186.60625,36.73124999999999 186.30625,37.23124999999999 zM186.50625,34.931250000000006 c0,-0.1 0,-0.3000000000000001 -0.2,-0.3000000000000001 c-0.2,0 -0.4,0.1 -0.4,0.3000000000000001 c0,0.2 0.2,0.2 0.4,0.2 C186.50625,35.131249999999994 186.50625,35.03125 186.50625,34.931250000000006 zM186.80625,35.131249999999994 c0.2,-0.1 0.4,-0.2 0.4,-0.4 c0,-0.1 -0.3000000000000001,-0.2 -0.4,-0.2 C186.50625,34.631249999999994 186.80625,34.83125 186.80625,35.131249999999994 zM187.20625,36.431250000000006 c-0.1,-0.2 -0.2,-0.5 -0.5,-0.4 c-0.1,0 -0.2,0.3000000000000001 -0.2,0.4 C186.80625,36.73124999999999 187.00625,36.431250000000006 187.20625,36.431250000000006 zM187.80625,35.631249999999994 c-0.2,0.2 -0.5,-0.1 -0.6000000000000002,0.2 c0,0.1 0.1,0.4 0.2,0.4 C187.70625,36.23124999999999 187.70625,35.931250000000006 187.80625,35.631249999999994 zM186.50625,36.03125 c0,-0.2 -0.1,-0.2 -0.2,-0.2 c-0.1,0 -0.3000000000000001,0 -0.3000000000000001,0.2 c0,0.2 0.2,0.3000000000000001 0.3000000000000001,0.3000000000000001 C186.40625,36.431250000000006 186.40625,36.131249999999994 186.50625,36.03125 zM187.40625,35.431250000000006 c0.2,0 0.3000000000000001,0.1 0.3000000000000001,-0.2 c0,-0.1 -0.1,-0.3000000000000001 -0.2,-0.3000000000000001 c-0.2,0 -0.3000000000000001,0.2 -0.3000000000000001,0.3000000000000001 C187.20625,35.431250000000006 187.30625,35.33125000000001 187.40625,35.431250000000006 zM185.90625,35.23124999999999 c-0.2,0 -0.2,0.2 -0.2,0.3000000000000001 c0,0.1 -0.1,0.3000000000000001 0.1,0.2 c0.2,0 0.4,-0.1 0.4,-0.3000000000000001 C186.20625,35.33125000000001 186.10625,35.23124999999999 185.90625,35.23124999999999 z" id="svg_102"/>
	<path class="st49" d="M202.50625,33.83125 c0.6000000000000002,-0.4 0.6000000000000002,-1.1 0.2,-1.6 c0.5,0.3000000000000001 0.8,-0.2 1.1,-0.4 c0.2,-0.1 -0.1,-0.4 0.2,-0.5 c0.2,0 0,0.4 0.3000000000000001,0.4 c0.4,0.1 0.8,0.4 1.2,-0.1 c-0.3000000000000001,0.7000000000000002 0,1.3 0.7000000000000002,1.5 c-0.3000000000000001,0.1 -0.6000000000000002,0.2 -0.7000000000000002,0.5 c-0.1,0.3000000000000001 -0.3000000000000001,0.5 0,0.9 c-0.7000000000000002,-0.4 -1.3,-0.3000000000000001 -1.6,0.2 C203.70625,34.23125 203.30625,33.83125 202.50625,33.83125 zM204.40625,32.03125 c-0.1,0.1 -0.2,0 -0.2,0.2 c0,0.2 0,0.4 0.2,0.4 c0.1,0 0.3000000000000001,-0.2 0.3000000000000001,-0.3000000000000001 C204.70625,32.131249999999994 204.50625,32.23125 204.40625,32.03125 zM204.70625,33.931250000000006 c-0.1,-0.1 -0.3000000000000001,-0.3000000000000001 -0.4,-0.3000000000000001 c-0.2,0 -0.2,0.2 -0.2,0.4 c0,0.1 0.1,0.2 0.2,0.1 C204.50625,34.131249999999994 204.70625,34.131249999999994 204.70625,33.931250000000006 zM203.30625,32.73125 c0,0.3000000000000001 -0.2,0.5 0,0.6000000000000002 c0.2,0.1 0.3000000000000001,-0.1 0.5,-0.3000000000000001 C203.60625,33.03125 203.50625,32.931250000000006 203.30625,32.73125 zM204.00625,32.431250000000006 c-0.1,0 0.1,-0.3000000000000001 -0.1,-0.3000000000000001 c-0.1,0 -0.3000000000000001,0.1 -0.4,0.3000000000000001 c0,0.2 0.2,0.2 0.3000000000000001,0.3000000000000001 C204.00625,32.83125 204.00625,32.631249999999994 204.00625,32.431250000000006 zM204.70625,32.931250000000006 c0.2,0.1 0.5,0.2 0.6000000000000002,0 c0.1,-0.2 -0.1,-0.4 -0.3000000000000001,-0.5 C204.80625,32.631249999999994 204.80625,32.83125 204.70625,32.931250000000006 zM204.60625,33.33125 c0.1,0.2 0.1,0.5 0.4,0.5 c0.2,0 0.2,-0.2 0.3000000000000001,-0.5 C205.00625,33.33125 204.80625,33.33125 204.60625,33.33125 zM203.90625,33.73125 c0,-0.1 0.1,-0.3000000000000001 -0.1,-0.3000000000000001 c-0.2,0 -0.4,0 -0.4,0.2 c0,0.2 0.2,0.2 0.3000000000000001,0.3000000000000001 C203.90625,34.03125 203.90625,33.931250000000006 203.90625,33.73125 z" id="svg_103"/>
	<path class="st32" d="M191.80625,17.03125 c0.2,0 0.3000000000000001,0 0.2,0.2 c-0.1,0.1 0,0.4 -0.2,0.3000000000000001 c-0.2,0 -0.3000000000000001,-0.2 -0.3000000000000001,-0.4 C191.60625,16.931250000000006 191.80625,17.03125 191.80625,17.03125 z" id="svg_104"/>
	<path class="st32" d="M190.80625,17.331249999999997 c-0.1,0.1 0,0.3000000000000001 -0.2,0.3000000000000001 c-0.2,0 -0.3000000000000001,-0.1 -0.3000000000000001,-0.3000000000000001 c0,-0.2 0.2,-0.2 0.3000000000000001,-0.3000000000000001 C190.80625,17.131249999999994 190.80625,17.231250000000003 190.80625,17.331249999999997 z" id="svg_105"/>
	<path class="st32" d="M191.70625,15.931250000000006 c-0.2,0.1 -0.2,0.5 -0.4,0.4 c-0.2,-0.1 -0.2,-0.4 -0.1,-0.5 C191.30625,15.631249999999994 191.50625,15.931250000000006 191.70625,15.931250000000006 z" id="svg_106"/>
	<path class="st32" d="M192.10625,16.53125 c0,0.3000000000000001 -0.1,0.3000000000000001 -0.2,0.3000000000000001 c-0.1,0 -0.3000000000000001,0 -0.3000000000000001,-0.2 c0,-0.1 0.1,-0.3000000000000001 0.3000000000000001,-0.3000000000000001 C192.00625,16.231250000000003 192.10625,16.431250000000006 192.10625,16.53125 z" id="svg_107"/>
	<path class="st32" d="M191.20625,17.331249999999997 c0.1,0.2 0.4,0.2 0.3000000000000001,0.4 c-0.1,0.1 -0.3000000000000001,0.2 -0.5,0.1 C190.80625,17.631249999999994 191.10625,17.53125 191.20625,17.331249999999997 z" id="svg_108"/>
	<path class="st32" d="M190.10625,17.131249999999994 c0,-0.2 -0.1,-0.5 0.1,-0.6000000000000002 c0.1,0 0.3000000000000001,0.1 0.4,0.3000000000000001 C190.60625,17.131249999999994 190.30625,17.03125 190.10625,17.131249999999994 z" id="svg_109"/>
	<path class="st32" d="M190.90625,16.131249999999994 c0,0.1 0,0.3000000000000001 -0.2,0.3000000000000001 c-0.1,0 -0.3000000000000001,0 -0.3000000000000001,-0.2 c0,-0.2 0.2,-0.2 0.3000000000000001,-0.2 C190.90625,15.831249999999997 190.80625,16.131249999999994 190.90625,16.131249999999994 z" id="svg_110"/>
	<path class="st32" d="M186.50625,34.931250000000006 c0,0.1 0,0.2 -0.2,0.2 c-0.1,0 -0.4,0 -0.4,-0.2 c0,-0.2 0.2,-0.3000000000000001 0.4,-0.3000000000000001 C186.50625,34.53125 186.40625,34.73125 186.50625,34.931250000000006 z" id="svg_111"/>
	<path class="st32" d="M186.80625,35.131249999999994 c0,-0.2 -0.3000000000000001,-0.4 0,-0.6000000000000002 c0.1,-0.1 0.3000000000000001,0 0.4,0.2 C187.20625,34.931250000000006 187.00625,35.03125 186.80625,35.131249999999994 z" id="svg_112"/>
	<path class="st32" d="M187.20625,36.431250000000006 c-0.2,0 -0.5,0.3000000000000001 -0.6000000000000002,0 c-0.1,-0.1 0,-0.4 0.2,-0.4 C187.00625,36.03125 187.10625,36.23124999999999 187.20625,36.431250000000006 z" id="svg_113"/>
	<path class="st32" d="M187.80625,35.631249999999994 c-0.1,0.3000000000000001 -0.1,0.6000000000000002 -0.4,0.6000000000000002 c-0.1,0 -0.2,-0.3000000000000001 -0.2,-0.4 C187.30625,35.53125 187.50625,35.83125000000001 187.80625,35.631249999999994 z" id="svg_114"/>
	<path class="st32" d="M186.50625,36.03125 c-0.1,0.1 0,0.4 -0.2,0.4 c-0.2,0 -0.3000000000000001,-0.2 -0.3000000000000001,-0.3000000000000001 c0,-0.2 0.2,-0.2 0.3000000000000001,-0.2 C186.40625,35.83125000000001 186.50625,35.83125000000001 186.50625,36.03125 z" id="svg_115"/>
	<path class="st32" d="M187.40625,35.431250000000006 c-0.1,0 -0.3000000000000001,0 -0.2,-0.1 c0,-0.2 0.1,-0.4 0.3000000000000001,-0.3000000000000001 c0.1,0 0.2,0.2 0.2,0.3000000000000001 C187.70625,35.431250000000006 187.60625,35.431250000000006 187.40625,35.431250000000006 z" id="svg_116"/>
	<path class="st32" d="M185.90625,35.23124999999999 c0.2,0 0.3000000000000001,0.1 0.3000000000000001,0.3000000000000001 c0,0.2 -0.2,0.2 -0.4,0.3000000000000001 c-0.2,0.1 -0.1,-0.1 -0.1,-0.2 C185.70625,35.33125000000001 185.70625,35.23124999999999 185.90625,35.23124999999999 z" id="svg_117"/>
	<path class="st32" d="M202.40625,32.03125 c0.1,0.1 0.4,0.1 0.4,0.3000000000000001 c0,0.2 -0.2,0.3000000000000001 -0.3000000000000001,0.3000000000000001 c-0.2,0 -0.2,-0.3000000000000001 -0.2,-0.4 C202.10625,32.131249999999994 202.30625,32.131249999999994 202.40625,32.03125 z" id="svg_118"/>
	<path class="st32" d="M202.70625,33.931250000000006 c0,0.2 -0.2,0.2 -0.3000000000000001,0.3000000000000001 c-0.1,0 -0.3000000000000001,0 -0.2,-0.1 c0,-0.1 0,-0.4 0.2,-0.4 C202.40625,33.631249999999994 202.60625,33.83125 202.70625,33.931250000000006 z" id="svg_119"/>
	<path class="st32" d="M201.30625,32.73125 c0.2,0.1 0.4,0.2 0.5,0.3000000000000001 c-0.1,0.2 -0.3000000000000001,0.3000000000000001 -0.5,0.3000000000000001 C201.10625,33.23125 201.20625,33.03125 201.30625,32.73125 z" id="svg_120"/>
	<path class="st32" d="M202.00625,32.431250000000006 c0,0.1 0,0.3000000000000001 -0.2,0.3000000000000001 c-0.1,0 -0.3000000000000001,-0.1 -0.3000000000000001,-0.3000000000000001 c0,-0.2 0.2,-0.3000000000000001 0.4,-0.3000000000000001 C202.10625,32.131249999999994 201.90625,32.431250000000006 202.00625,32.431250000000006 z" id="svg_121"/>
	<path class="st32" d="M202.70625,32.931250000000006 c0.1,-0.2 0.2,-0.3000000000000001 0.3000000000000001,-0.5 c0.2,0.1 0.4,0.3000000000000001 0.3000000000000001,0.5 C203.10625,33.131249999999994 202.90625,33.03125 202.70625,32.931250000000006 z" id="svg_122"/>
	<path class="st32" d="M202.60625,33.33125 c0.2,0 0.4,0 0.6000000000000002,0 c0,0.2 -0.1,0.4 -0.3000000000000001,0.5 C202.70625,33.83125 202.70625,33.53125 202.60625,33.33125 z" id="svg_123"/>
	<path class="st32" d="M201.90625,33.73125 c0,0.1 0,0.3000000000000001 -0.2,0.3000000000000001 c-0.1,0 -0.3000000000000001,-0.1 -0.3000000000000001,-0.3000000000000001 c0,-0.2 0.2,-0.2 0.4,-0.2 C202.00625,33.53125 201.90625,33.631249999999994 201.90625,33.73125 z" id="svg_124"/>
</g><g id="svg_125" class="">
	<path class="st18" d="M105.6375,126.86250000000001 l19.6,45.9 h-5 l-14.6,-34.9 L90.9375,172.7625 h-5 L105.6375,126.86250000000001 z" id="svg_126"/>
	<path class="st18" d="M138.0375,151.1625 l-2.9,-4.4 l8.9,-13.7 l5.3,0.1 L138.0375,151.1625 zM136.9375,152.7625 v20 h-4.8 v-20 l-16.1,-25.9 h5.5 L136.9375,152.7625 z" id="svg_127"/>
	<path class="st18" d="M163.5375,126.86250000000001 l19.6,45.9 h-5 l-14.6,-34.9 l-14.7,34.9 h-5 L163.5375,126.86250000000001 z" id="svg_128"/>
	<polygon class="st18" points="147.53750610351562,126.86250305175781 144.7375030517578,131.46249389648438 150.33749389648438,131.46249389648438 153.1374969482422,126.86250305175781 " id="svg_129"/>
	<path class="st18" d="M84.6375,148.9625 c-0.2,-1.8 -0.7000000000000002,-3.6 -1.3,-5.4 c-1.5,-4.4 -3.9,-8.2 -7.3,-11.3 c-2.1,-1.9 -4.5,-3.5 -7,-4.8 c-0.3000000000000001,-0.1 -0.5,-0.1 -0.8,0 c-1,0.4 -2,0.9 -2.9,1.4 c-1.9,0.9 -3.8,2 -5.6,3.2 c-2,1.4 -3.9,2.8 -5.9,4.3 c-0.5,0.4 -1.1,0.8 -1.6,1.2 c-0.4,0.3000000000000001 -0.6000000000000002,0.3000000000000001 -0.9,0 c-0.7000000000000002,-0.6000000000000002 -1.4,-1.1 -2.1,-1.6 C45.7375,132.9625 41.9375,130.5625 37.9375,128.5625 c-0.8,-0.4 -1.7000000000000002,-0.8 -2.5,-1.2 c-0.3000000000000001,-0.1 -0.6000000000000002,-0.1 -0.9,0.1 c-0.1,0.1 -0.3000000000000001,0.2 -0.4,0.3000000000000001 c-1,0.6000000000000002 -2,1.1 -3,1.8 c-1.7000000000000002,1.2 -3.3,2.5 -4.8,4 c-1.8,1.9 -3.4,4 -4.6,6.4 c-2,3.9 -2.9,8.1 -3,12.5 c0,1.4 0.1,2.7 0.2,4.1 c0.1,1.2 0.2,2.5 0.5,3.7 c0.5,2.4 1.3,4.8 2.6,6.9 c1.1,1.9 2.3,3.8 3.5,5.7 h8.3 c-0.2,-0.5 -0.3000000000000001,-1 -0.5,-1.5 c-1,-2.8 -2,-5.7 -2.7,-8.6 c-0.4,-1.6 -0.8,-3.3 -1,-5 c-0.1,-1 -0.3000000000000001,-2 -0.3000000000000001,-3.1 c0,-0.6000000000000002 -0.1,-1.1 -0.1,-1.7000000000000002 c0.1,-1 0.2,-2.1 0.3000000000000001,-3.1 c0.1,-1.1 0.3000000000000001,-2.1 0.6000000000000002,-3.1 c0.5,-1.7000000000000002 1.4,-3.1 2.7,-4.3 c1.5,-1.3 3.2,-2.1 5.2,-2.3 c1.5,-0.2 2.9,0.2 4.1,1.1 c0.9,0.7000000000000002 1.5,1.6 2,2.6 c0.7000000000000002,1.4 1.1,2.9 1.5,4.4 c0.5,2.1 0.6000000000000002,4.2 0.7000000000000002,6.3 c0,1.5 0,3 0,4.5 c0,1.6 -0.1,3.1 -0.1,4.7 c0,1.5 -0.1,7 -0.3000000000000001,8.6 c-0.1,0.4 0,0.4 0.3000000000000001,0.4 c3.7,0 7.4,0 11.1,0 c0.1,0 0.1,0 0.2,0 c0.1,0 0.2,0 0.2,-0.2 c0,0 0,-0.1 0,-0.1 c-0.1,-0.9 -0.2,-5.7 -0.2,-6.6 c-0.1,-1.6 -0.2,-3.3 -0.2,-4.9 c-0.1,-2 -0.1,-4.1 0,-6.1 c0.1,-2 0.3000000000000001,-3.9 0.6000000000000002,-5.9 c0.3000000000000001,-1.4 0.6000000000000002,-2.8 1.1,-4.1 c0.5,-1.3 1.2,-2.4 2.2,-3.4 c1.1,-1 2.4,-1.6 3.9,-1.6 c0.8,0 1.5,0.1 2.3,0.4 c1.8,0.6000000000000002 3.4,1.6 4.6,3.1 c1.1,1.5 1.7000000000000002,3.2 2,5 c0.2,1.4 0.3000000000000001,2.8 0.4,4.2 c0.1,0.6000000000000002 0,1.2 0,1.7000000000000002 c-0.1,1.3 -0.2,2.6 -0.5,4 c-0.4,2.5 -1,5 -1.8,7.4 c-0.7000000000000002,2.4 -1.6,4.7 -2.4,7.1 h8.4 c1,-1.7000000000000002 2,-3.3 3,-5 c1.4,-2.3 2.4,-4.9 2.9,-7.5 c0.4,-2 0.6000000000000002,-4.1 0.8,-6.1 C84.9375,152.3625 84.8375,150.6625 84.6375,148.9625 z" id="svg_130"/>
	<path class="st17" d="M209.1375,129.8625 c-2.1,0.2 -4,0.7000000000000002 -5.8,1.5 c-2.3,1.1 -4.3,2.5 -5.9,4.2 c-1.6,1.8 -2.9,3.8 -3.9,6.2 c-0.9,2.4 -1.4,4.8 -1.4,7.4 c0,2.6 0.5,5.1 1.4,7.4 c0.9,2.3 2.2,4.4 3.9,6.1 c1.6,1.7000000000000002 3.6,3.1 5.9,4.2 c1.8,0.8 3.8,1.3 5.8,1.5 v4.1 c-2.6,-0.2 -5.1,-0.8 -7.4,-1.7000000000000002 c-2.9,-1.2 -5.4,-2.8 -7.5,-4.9 c-2.1,-2.1 -3.8,-4.6 -5,-7.4 c-1.2,-2.8 -1.8,-5.9 -1.8,-9.2 c0,-3.3 0.6000000000000002,-6.3 1.9,-9.2 c1.2,-2.9 2.9,-5.3 5.1,-7.5 c2.1,-2.1 4.6,-3.8 7.5,-5 c2.3,-1 4.8,-1.6 7.4,-1.8 V129.8625 zM211.5375,168.46249999999998 c2.6,-0.1 4.9,-0.6000000000000002 7,-1.5 c2.3,-1 4.3,-2.4 5.9,-4.1 c1.6,-1.7000000000000002 2.9,-3.8 3.8,-6.1 c0.9,-2.3 1.3,-4.8 1.3,-7.5 c0,-2.8 -0.4,-5.3 -1.3,-7.7 c-0.9,-2.4 -2.2,-4.4 -3.8,-6.2 c-1.6,-1.7000000000000002 -3.6,-3.1 -5.9,-4.1 c-2.1,-0.9 -4.5,-1.4 -7.1,-1.5 v-4.1 c3.1,0.1 6,0.7000000000000002 8.7,1.8 c2.9,1.2 5.3,2.8 7.4,5 c2.1,2.1 3.7,4.6 4.9,7.4 c1.2,2.9 1.8,5.9 1.8,9.2 c0,3.4 -0.6000000000000002,6.5 -1.8,9.3 c-1.2,2.9 -2.9,5.3 -5,7.4 c-2.1,2.1 -4.6,3.7 -7.4,4.9 c-2.7,1.1 -5.6,1.7000000000000002 -8.6,1.7000000000000002 V168.46249999999998 z" id="svg_131"/>
	<path class="st17" d="M239.3375,125.5625 l33.6,36.6 v-35.1 h4.8 v47.2 L244.1375,137.5625 v35 h-4.8 V125.5625 z" id="svg_132"/>
	<path class="st17" d="M284.5375,127.1625 h4.8 v41.5 h20.5 v4.1 h-25.2 V127.1625 z" id="svg_133"/>
	<path class="st17" d="M316.6375,127.1625 h4.8 v45.6 h-4.8 V127.1625 z" id="svg_134"/>
	<path class="st17" d="M328.2375,125.76249999999999 l33.6,36.6 v-35.1 h4.8 v47.2 l-33.6,-36.6 v35 h-4.8 V125.76249999999999 z" id="svg_135"/>
	<path class="st17" d="M373.4375,168.66250000000002 h28.1 v4.1 h-28 L373.4375,168.66250000000002 zM373.4375,127.1625 h28 v4.1 h-28 V127.1625 zM373.4375,147.2625 h26.9 v4.1 h-26.9 V147.2625 z" id="svg_136"/>
</g></g></svg>