<?xml version="1.0" encoding="utf-8"?>
<!-- Generator: Adobe Illustrator 22.0.1, SVG Export Plug-In . SVG Version: 6.00 Build 0)  -->
<svg version="1.1" id="Layer_1" xmlns="http://www.w3.org/2000/svg" xmlns:xlink="http://www.w3.org/1999/xlink" x="0px" y="0px"
	 viewBox="0 0 421.6 190.2" style="enable-background:new 0 0 421.6 190.2;" xml:space="preserve">
<style type="text/css">
	.st0{fill:none;}
	.st1{fill:#CACAC9;}
	.st2{fill:#F3F4F5;}
	.st3{fill:#F1A74F;}
	.st4{opacity:0.24;enable-background:new    ;}
	.st5{clip-path:url(#SVGID_2_);fill:#454745;}
	.st6{clip-path:url(#SVGID_4_);fill:none;stroke:#454745;stroke-width:3;stroke-miterlimit:10;}
	.st7{clip-path:url(#SVGID_6_);fill:none;stroke:#454745;stroke-width:3;stroke-miterlimit:10;}
	.st8{clip-path:url(#SVGID_8_);fill:none;stroke:#454745;stroke-width:3;stroke-miterlimit:10;}
	.st9{clip-path:url(#SVGID_10_);fill:none;stroke:#454745;stroke-width:3;stroke-miterlimit:10;}
	.st10{clip-path:url(#SVGID_12_);fill:none;stroke:#454745;stroke-width:3;stroke-miterlimit:10;}
	.st11{opacity:0.3;enable-background:new    ;}
	.st12{opacity:0.24;clip-path:url(#SVGID_14_);enable-background:new    ;}
	.st13{fill:#CBCBCA;}
	.st14{fill:#454745;}
	.st15{opacity:0.35;enable-background:new    ;}
	.st16{fill:#F2A74E;}
	.st17{fill:#CDCCCC;}
	.st18{fill:#FFFFFF;}
	.st19{fill:#F1A750;}
	.st20{fill:#454745;stroke:#454745;stroke-miterlimit:10;}
	.st21{fill:#484A48;}
	.st22{fill:#474947;}
	.st23{fill:#393B39;}
	.st24{fill:#CACAC8;}
	.st25{fill:#8B8E8B;}
	.st26{fill:#FEFEFE;}
	.st27{fill:#F1A64F;}
</style>
<rect id="backgroundrect" class="st0" width="421.6" height="190.2"/>
<g>
	<title>Layer 1</title>
	<g id="svg_1">
		<path id="svg_2" class="st1" d="M-168.1-6.5c0-5.9,4.8-10.8,10.7-10.8s10.7,4.8,10.7,10.7s-4.7,10.7-10.6,10.7
			C-163.2,4.1-168-0.6-168.1-6.5z"/>
		<path id="svg_3" class="st1" d="M-149.1,5.2c3.2,2.1,4.9,4.9,5,8.8c0.1,2.7-0.3,3.5-2.7,4.6c-0.4,0.2-0.8,0.4-1.3,0.5
			c-5.3,1.5-10.6,1.7-16,0.6c-1.6-0.3-3.2-1-4.8-1.6c-0.9-0.4-1.8-1.1-1.8-2.2c-0.1-3.4,0.2-6.7,3-9.1c1.2-1.1,2.5-2.1,3.8-3.1
			c4.4,2.5,8.7,2.5,13,0C-150.2,4.2-149.6,4.7-149.1,5.2z"/>
	</g>
	<g id="svg_4">
		<path id="svg_5" class="st2" d="M-133.7,34.8c0.5,0.4,1.1,0.4,1.6,0.5c9.2,2.4,14.1,12.1,10.7,21c-3.6,9.5-15.8,12.9-23.9,6.7
			c-2-1.6-3.7-3.4-5.5-5.2c-3.5-3.5-7-7-10.5-10.5c0.4-0.9,0.2-1.9,0.6-2.7c0.3,0.3,0.6,0.5,0.9,0.8c4.9,4.8,9.6,9.7,14.5,14.4
			c3.3,3.3,7.4,4.6,12,3.6c9.2-2,13.3-11.8,8.5-19.9c-3.9-6.4-12.9-8.2-18.9-3.8c-1.8,1.3-3.2,3-4.8,4.5c-0.4,0.4-0.9,0.8-1.3,1.2
			c0.1,0,0.1,0.1,0.2,0.2c0.8,0,1.6,0,2.4,0c1.8,0.1,1.6-0.3,1.6,1.7c0,0.6-0.1,0.8-0.7,0.8c-2.3,0-4.7,0-7,0
			c-0.6,0-0.7-0.3-0.7-0.8c0-2,0-4.1,0-6.1c0-1.7-0.3-1.4,1.5-1.5c0.8,0,0.9,0.3,0.9,1c0,1,0,2.1,0,3.1c0,0.1,0.1,0.1,0.2,0.1
			c1.2-1.2,2.4-2.5,3.6-3.7c1.8-1.9,3.9-3.4,6.5-4.3c1.1-0.4,2.1-0.6,3.2-0.9C-136.6,35-135.2,35-133.7,34.8z"/>
		<path id="svg_6" class="st2" d="M-167.7,41.5c-3.2-3.2-7.1-4.5-11.6-3.9c-7.3,1-12.6,8.5-10.9,15.7c1.2,5,4.2,8.4,9.1,9.9
			c5,1.6,9.5,0.3,13.3-3.3c1-0.9,1.8-1.9,2.8-2.8c1.1-1,1.9-2.2,3.2-3c0.2,1-0.1,2,0.2,3c-1.8,1.7-3.4,3.6-5.3,5.2
			c-8.6,7.6-22.3,3.5-25.4-7.6c-0.1-0.6-0.1-1.3-0.5-1.9c0-1.4,0-2.9,0-4.3c0.3-0.9,0.4-1.7,0.7-2.5c2.1-6,6.3-9.7,12.6-10.9
			c0.2,0,0.3,0,0.4-0.2c1.4,0,2.7,0,4.1,0c0.1,0.2,0.3,0.2,0.5,0.2c3.3,0.6,6.1,2,8.5,4.4c1.7,1.7,3.3,3.3,5,5c0,0.2,0,0.3,0.2,0.3
			l0,0c-0.4,0.9-0.2,1.9-0.6,2.7C-163.4,45.5-165.4,43.5-167.7,41.5z"/>
		<path id="svg_7" class="st2" d="M-161.5,54.1c0.2,0,0.1-0.2,0.2-0.3c1.8-1.9,1.1-1.6,2.8-0.1c0.3,0.2,0.3,0.4,0,0.7
			c-0.9,0.9-1.9,1.8-2.8,2.7C-161.6,56.1-161.3,55.1-161.5,54.1L-161.5,54.1z"/>
		<path id="svg_8" class="st2" d="M-168.6,50.7c0,1.8-1.2,3.1-3,3.1s-3.1-1.3-3.1-3.1c0-1.7,1.2-2.9,3-2.9S-168.8,48.9-168.6,50.7z
			 M-171.8,53c1.1,0.1,2-0.9,2-2.2s-0.7-2.1-1.9-2.1c-1.2-0.1-1.8,0.8-1.9,2.1C-173.6,51.9-173.1,52.8-171.8,53z"/>
		<path id="svg_9" class="st2" d="M-185,48.4c-0.1-0.6,0.6-0.5,1-0.6c0.4,0,0.9,0,1.3,0c0.9,0.1,1.6,0.5,1.7,1.5
			c0.1,0.9-0.5,1.3-1.3,1.7c-0.8,0.4-2.3,0.1-2,1.3c0.3,1,1.6,0.6,2.5,0.3c0.3-0.1,0.6-0.1,0.7,0.2s-0.1,0.5-0.4,0.6
			c-1,0.3-2,0.5-3,0.1c-0.7-0.2-1.1-0.8-1.1-1.5c-0.1-0.7,0.4-1.2,1-1.4c0.4-0.1,0.9-0.3,1.4-0.4c0.4-0.1,0.9-0.2,0.8-0.8
			c-0.1-0.6-0.6-0.6-1-0.7c-0.2-0.1-0.5,0-1,0C-184.6,48.6-185.2,49.2-185,48.4z"/>
		<path id="svg_10" class="st2" d="M-175.8,50.7c0,0.7,0,1.5,0,2.2c0,0.4-0.2,0.7-0.6,0.7s-0.6-0.3-0.5-0.6c0.3-1.6-0.8-1.5-1.8-1.5
			s-1.7-0.6-1.8-1.6c-0.1-1.2,0.6-1.8,1.7-2c2.5-0.5,3-0.1,3,2.5C-175.8,50.5-175.8,50.6-175.8,50.7L-175.8,50.7z M-176.8,49.7
			c0-0.7-0.1-1.2-0.9-1.1c-0.7,0.1-1.6,0.1-1.6,1.1c0,0.9,0.7,0.9,1.4,1C-177.1,50.9-176.8,50.5-176.8,49.7z"/>
		<path id="svg_11" class="st2" d="M-161.3,53.7c0,0.2,0,0.3-0.2,0.4C-161.6,54-161.5,53.9-161.3,53.7z"/>
		<path id="svg_12" class="st2" d="M-128.7,53.7c-2.2,0-3.6-1.1-3.6-2.9c0-1.9,1.2-2.7,3.4-2.9c2.5-0.2,1.6,1.6,1.8,2.8
			C-127.5,51.7-126.3,53.6-128.7,53.7z M-129.4,48.7c-1.3,0-1.9,0.8-1.9,2s0.8,1.9,2,2c1.8,0.1,0.6-1.4,1.1-1.9
			C-128.6,50-127.7,48.7-129.4,48.7z"/>
		<path id="svg_13" class="st2" d="M-137.3,52.8c0.6,0,1.3,0,2,0c0.6,0,0.8-0.3,0.8-0.9c0-0.5-0.3-0.7-0.8-0.8
			c-0.6-0.1-1.7,0.3-1.7-0.4c0-0.9,1-0.4,1.6-0.5c0.5-0.1,0.9-0.1,0.9-0.7s-0.3-0.7-0.8-0.8c-0.7-0.1-2.1,0.5-2-0.4
			c0-0.8,1.5-0.3,2.3-0.4c0.3,0,0.5,0,0.7,0c0.6,0,1,0.3,1,1c0,1.3,0,2.6,0,3.8c-0.1,0.4-0.3,0.9-0.8,0.9c-1.1,0-2.3,0.3-3.3-0.3
			C-137.4,53.1-137.4,52.9-137.3,52.8z"/>
		<path id="svg_14" class="st2" d="M-139.2,48.5c0.1-0.2,0.3-0.6,0.7-0.5c0.5,0.1,0.4,0.5,0.3,0.8c-0.6,1.4-1.2,2.9-1.9,4.3
			c-0.4,0.8-1.1,0.5-1.4-0.1c-0.7-1.4-1.2-2.8-1.8-4.2c-0.2-0.2-0.2-0.6,0.1-0.7c0.4-0.2,0.6,0.1,0.7,0.4c0.5,1.2,1,2.3,1.6,3.8
			C-140.3,50.8-139.8,49.7-139.2,48.5z"/>
		<path id="svg_15" class="st2" d="M-160.8,44.8c-0.2,0-0.2-0.2-0.2-0.3C-160.9,44.6-160.8,44.7-160.8,44.8z"/>
	</g>
	<g id="svg_16">
		<path id="svg_17" class="st3" d="M326.4,70c-1.8-4-6.1-5.6-10.1-3.9c-3.9,1.6-5.5,6.2-3.8,10.1c1.6,3.7,6.2,5.5,9.8,3.9
			C326.5,78.2,328,73.9,326.4,70z"/>
		<path id="svg_18" class="st4" d="M320,65.4l-0.5,15.4l2.2-0.6c0,0-2.1,2.4,0,0c2.1-2.4-0.8-14.4-0.8-14.4L320,65.4"/>
		<g id="svg_19">
			<g>
				<defs>
					<path id="SVGID_1_" d="M196,68.3l3.2,14l-37.8,9.8L161,91c-1.8-4.4-2.6-8.1-2.9-12.9l-0.1-1.2L196,68.3z"/>
				</defs>
				<clipPath id="SVGID_2_">
					<use xlink:href="#SVGID_1_"  style="overflow:visible;"/>
				</clipPath>
				<path id="svg_21" class="st5" d="M196,68.3l3.2,14l-37.8,9.8L161,91c-1.8-4.4-2.6-8.1-2.9-12.9l-0.1-1.2L196,68.3z"/>
			</g>
			<g>
				<defs>
					<path id="SVGID_3_" d="M196,68.3l3.2,14l-37.8,9.8L161,91c-1.8-4.4-2.6-8.1-2.9-12.9l-0.1-1.2L196,68.3z"/>
				</defs>
				<clipPath id="SVGID_4_">
					<use xlink:href="#SVGID_3_"  style="overflow:visible;"/>
				</clipPath>
				<line id="svg_22" class="st6" x1="170.1" y1="90.1" x2="166.1" y2="75.3"/>
			</g>
			<g>
				<defs>
					<path id="SVGID_5_" d="M196,68.3l3.2,14l-37.8,9.8L161,91c-1.8-4.4-2.6-8.1-2.9-12.9l-0.1-1.2L196,68.3z"/>
				</defs>
				<clipPath id="SVGID_6_">
					<use xlink:href="#SVGID_5_"  style="overflow:visible;"/>
				</clipPath>
				<line id="svg_23" class="st7" x1="176.5" y1="88.4" x2="172.5" y2="73.6"/>
			</g>
			<g>
				<defs>
					<path id="SVGID_7_" d="M196,68.3l3.2,14l-37.8,9.8L161,91c-1.8-4.4-2.6-8.1-2.9-12.9l-0.1-1.2L196,68.3z"/>
				</defs>
				<clipPath id="SVGID_8_">
					<use xlink:href="#SVGID_7_"  style="overflow:visible;"/>
				</clipPath>
				<line id="svg_24" class="st8" x1="183" y1="86.6" x2="179" y2="71.8"/>
			</g>
			<g>
				<defs>
					<path id="SVGID_9_" d="M196,68.3l3.2,14l-37.8,9.8L161,91c-1.8-4.4-2.6-8.1-2.9-12.9l-0.1-1.2L196,68.3z"/>
				</defs>
				<clipPath id="SVGID_10_">
					<use xlink:href="#SVGID_9_"  style="overflow:visible;"/>
				</clipPath>
				<line id="svg_25" class="st9" x1="189.4" y1="84.9" x2="185.4" y2="70.1"/>
			</g>
			<g>
				<defs>
					<path id="SVGID_11_" d="M196,68.3l3.2,14l-37.8,9.8L161,91c-1.8-4.4-2.6-8.1-2.9-12.9l-0.1-1.2L196,68.3z"/>
				</defs>
				<clipPath id="SVGID_12_">
					<use xlink:href="#SVGID_11_"  style="overflow:visible;"/>
				</clipPath>
				<line id="svg_26" class="st10" x1="196.1" y1="83.7" x2="192.2" y2="69.4"/>
			</g>
		</g>
		<polygon id="svg_27" class="st11" points="162,91.9 166.4,90.7 166.4,90.8 192.7,84 192.2,77.3 165.6,87.6 162.4,76 157.9,76.7 		
			"/>
		<g id="svg_28">
			<g>
				<defs>
					<path id="SVGID_13_" d="M174.1,75.1l10.3,4.8l9.7-4l-4.7-6.2c0,0-14.7,3.5-14.9,3.5L174.1,75.1z"/>
				</defs>
				<clipPath id="SVGID_14_">
					<use xlink:href="#SVGID_13_"  style="overflow:visible;"/>
				</clipPath>
				<path id="svg_30" class="st12" d="M174.6,70.2c-1,1.4,0,3.6,2,5c2,1.3,4.3,1.4,5.3,0.1l1.6,2.6c0,0,6.1-0.4,6.3-0.2l1.4-0.2
					l0.4-0.8l-2.1-7.7l-9.4,1.4c-0.1,0-0.1-0.1-0.2-0.1C177.8,68.9,175.4,68.9,174.6,70.2z"/>
			</g>
		</g>
		<path id="svg_31" class="st13" d="M159.5,74l5.2,19.2l-36.6,9.9l-0.6-1.5c-2.5-6.1-3.8-11.2-4.8-17.7l-0.2-1.6L159.5,74z"/>
		<path id="svg_32" class="st14" d="M128.1,103L126,81.3l18.9-4.5l-0.5,14.6c0,0-6.8,1.6-3.6,8.3L128.1,103z"/>
		<path id="svg_33" class="st15" d="M132.9,79.7l-8.4,1.9l1.8,18c8-2.9,7.7-15.7,7.5-19.2C133.7,79.9,133.3,79.6,132.9,79.7z"/>
		<path id="svg_34" class="st16" d="M117.2,108.5l1.3,0.2c5,0.8,9.7-2.6,10.5-7.6l3.2-19.4c0.3-1.5-0.7-2.9-2.2-3.1l-7.7-1.3
			c-1.5-0.3-2.9,0.7-3.1,2.2l-4.2,25.8C114.8,106.8,115.8,108.2,117.2,108.5z"/>
		<path id="svg_35" class="st15" d="M132.5,102l-1.3-0.2c2.7-2.3,2.9-4.6,2.9-4.6l29.4-8.6l1.1,4.6L132.5,102z"/>
		<path id="svg_36" class="st15" d="M122.5,109.2c3.6,0.6,6.2-1.8,6.3-1.8l2.1-15.5l0.1-2.6c-2.7,0.1-3.7,3.3-3.7,3.3L122.5,109.2"
			/>
		<g id="svg_37">
			<path id="svg_38" class="st14" d="M194.2,79.5l7.6,11.2l-30.6,25.5l-1.2-2c-3.1-3.1-4.1-3.5-6-7.7l8-6.4L194.2,79.5z"/>
		</g>
		<path id="svg_39" class="st13" d="M173.4,97.8l-2.3,19.6l-38-3.1v-1.6c0-6.5,0.6-11.7,2.1-18.1l0.4-1.5L173.4,97.8z"/>
		<path id="svg_40" class="st14" d="M133.1,114.3l5.9-20.9l16,2l-3.9,13.5c0,0-6.4-0.8-6,6.5L133.1,114.3z"/>
		<path id="svg_41" class="st15" d="M141.7,93.6l-3.9-0.5l-2.8,21.1c2.9,3.4,7.5-13.4,8.7-18.5C143.9,94.7,142.7,93.8,141.7,93.6z"
			/>
		<path id="svg_42" class="st16" d="M124.8,119.3L124.8,119.3c5.2,1.5,10.8-1.6,12.4-6.8l5-16.1c0.5-1.6-0.4-3.3-2-3.7l-6.6-1.8
			c-1.6-0.4-3.3,0.5-3.8,2.1l-7,22.6C122.3,117.2,123.2,118.9,124.8,119.3z"/>
		<path id="svg_43" class="st4" d="M198.3,92.6c0.3-0.2-5.8-11.4-5.7-11.4l-4,3.8c2.9,4.3,8.5,8.7,8.5,8.7L198.3,92.6"/>
		<path id="svg_44" class="st14" d="M256,76l1.2,1c3.9,2.4,8.6,3.1,13.3,3.4l47.5,3.3c5.7-9.6,0.4-20.8,0.4-20.8
			c-39.4-0.6-54.9,4-60.9,7.4C255.1,71.6,253.7,74.5,256,76z"/>
		<path id="svg_45" class="st17" d="M307,82.1c1.6-2,2.7-4.2,4-6.4c0.2-0.3,0.1-0.6,0-0.9c-1-2.1-1.8-4.2-2.9-6.3
			c-0.9-1.7-1.8-3.3-2.8-4.9c-0.1-0.1-0.2-0.4-0.4-0.3c-0.2,0.1,0,0.3,0,0.4c0.3,1.1,0.5,2.2,0.9,3.2c0.9,2.7,2,5.4,3.3,8
			c0.1,0.3,0.1,0.5,0,0.7c-0.3,0.8-0.7,1.6-1,2.4c-0.6,1.5-1.2,2.9-1.5,4.5C306.7,82.3,306.8,82.2,307,82.1z"/>
		<path id="svg_46" class="st1" d="M306.6,83.1c0.7,0,1.3,0.1,2,0.2c3.2,0.4,6.5,0.7,9.7,1.1c0.3,0,0.5-0.1,0.6-0.4
			c0.1-0.5,0.3-1,0.5-1.5c0.5-1.4,1.2-2.8,1.4-4.3c0.2-1.5,0.3-3.1,0.3-4.6c0.1-1.6-0.3-3.1-0.5-4.7c-0.1-1-0.1-1.9-0.4-2.8
			c-0.3-0.9-0.7-1.8-1-2.7c-0.2-0.4-0.4-0.5-0.8-0.5c-4.4-0.1-8.8-0.2-13.2-0.3c-0.6,0-0.7,0.1-0.5,0.6c0.7,1.8,1.3,3.6,2.1,5.3
			c0.7,1.6,1.1,3.5,2.5,4.9c0.2,0.2,0.4,0.4,0.5,0.6c0.3,0.5,0.4,1.2,0,1.7c-0.7,0.9-1.1,2-1.6,3c-0.6,1.3-1.1,2.6-1.8,3.9
			C306.4,82.7,306.4,82.9,306.6,83.1z"/>
		<path id="svg_49" class="st1" d="M203.5,61.2l43.4-10.1c4.7-1.1,10,1.4,12.7,6.7l3.4,19c0.9,5.2-2.3,10.1-7.1,10.7l-46.6,5.9
			c-7.9,1-15.3-4.9-16.9-13.5l0,0C190.9,71.3,195.7,63.2,203.5,61.2z"/>
		<path id="svg_50" class="st4" d="M261.9,78c-2.4-4.3-8-11.5-6.6-16.2l12.3,10.1l-1.1,8l-3.4-0.2L261.9,78z"/>
		<path id="svg_51" class="st14" d="M260.8,55.2l6-1.8l4.8,16.2l-6,1.8c-4.1,1.2-8.3-1.1-9.5-5.1l-0.5-1.6
			C254.4,60.7,256.7,56.4,260.8,55.2z"/>
		<path id="svg_52" class="st13" d="M278.1,69c0.7-3.7,0.6-6.9-1-10.3c-1.3-2.6-3.3-4-6.2-4.4c-2.4-0.3-4.7-0.1-7,0.7
			c-1.3,0.5-2.6,1.1-3.9,1.6c0-0.2,0-0.4,0.1-0.6c0.6-2.6,1.8-5,3.1-7.4c2.2-4.1,4.3-8.2,6.6-12.3c1.6-2.8,3.9-4.6,7.2-4.8
			c0.4,0,0.6-0.2,0.7-0.7c0.5-2.7,0.9-5.4,1.5-8c1-4.3,2.5-8.4,5.3-11.9c1.9-2.5,5.3-3.6,8.1-2.5c2,0.7,3.1,2.2,3.1,4.4
			c0,0.9,0,1.7-0.2,2.5c-0.5,2.6-1.6,4.9-2.7,7.3c-1.6,3.5-3.6,6.8-6,9.8c-0.6,0.7-1,1.4-1.5,2c1.1,0.7,2.3,1.3,3.3,2.1
			c1,0.7,2,1.6,3,2.5c0.1-0.1,0.2-0.2,0.3-0.3c3.4-5.4,7.7-9.9,12.7-13.8c1.4-1.1,2.8-2,4.5-2.4c1.2-0.3,2.4-0.3,3.5,0.4
			c3.1,1.9,3.9,6.3,1.7,9.6c-1.4,2.2-3.2,4.2-5.3,5.8c-3.6,2.7-7.5,5-11.6,6.9c-0.4,0.2-0.7,0.4-0.6,0.9c0.8,3.2-0.2,5.9-2.2,8.3
			c-1.1,1.4-2.3,2.6-3.5,3.8c-2.7,2.8-5.5,5.5-8.2,8.3c-1.4,1.5-3.4,2.7-5.2,3.8C277.7,70.1,277.8,69.4,278.1,69z"/>
		<path id="svg_53" class="st18" d="M293.8,55.3c-2.4,2.4-4.8,4.8-7.1,7.3c-0.6,0.7-1.3,0.7-2.1,0.4c-2.5-1-3.9-3.4-3.5-6.1
			c0.6-3.5,3.1-6.1,6.6-6.6c2.5-0.4,4.5,0.9,6.2,4C293.9,54.6,293.9,55,293.8,55.3z"/>
		<path id="svg_54" class="st18" d="M270.8,36.7c0.1,0.3,0.5,0.3,0.7,0.4c1.6,0.5,2.7,1.6,3.3,3.1c1.4,3.3,0.2,7.4-2.8,9.3
			c-2.7,1.7-6,1.1-7.7-1.5c-0.4-0.7-0.5-1.2-0.1-1.8c1.5-2.6,2.9-5.3,4.3-7.9c0.3-0.6,0.6-1.3,1.2-1.7
			C270.1,36.6,270.5,36.6,270.8,36.7z"/>
		<path id="svg_55" class="st14" d="M293.3,31.4c-0.1,0.1-0.1,0.2-0.1,0.2c-1.5,2-2.9,4-4.4,6c-1.1,1.5-2.2,3-3.3,4.5
			c-0.7,0.9-0.7,0.9-1.6,0.3c-0.2-0.2-0.1-0.2,0-0.4c0.9-1.3,1.9-2.6,2.8-3.9c1.8-2.5,3.6-5,5.4-7.5
			C292.3,31.1,292.8,31.2,293.3,31.4z"/>
		<path id="svg_56" class="st19" d="M293.9,29.3c0.1-0.9,1.1-1.7,2-1.6c0.9,0.1,1.8,1,1.8,1.8c-0.1,1.5-1.3,2.3-2.5,2
			c-0.4-0.3-0.9-0.4-1.1-0.9C293.8,30.2,293.8,29.8,293.9,29.3z"/>
		<circle id="svg_57" class="st16" cx="288.4" cy="37" r="3.8"/>
		<path id="svg_58" class="st16" d="M261.3,67c-2-1.9-3-4.3-2.9-7.1c0-1.2,0.4-2.3,1.2-3.1c0.6-0.6,1.2-1,1.9-1.4
			c3.5-2,7.3-2.2,11.3-1.3c1.5,0.3,2.7,1,3.4,2.3c0.6,1.1,1.2,2.3,1.7,3.5c1.1,2.7,1.3,5.5,0.6,8.3c-0.5,2.1-1.6,3.5-3.7,4.1
			s-4.3,0.6-6.3-0.3c-1.4-0.7-2.8-1.6-3.8-2.2C263.4,68.7,262.4,67.9,261.3,67z"/>
		<path id="svg_59" class="st14" d="M286.7,16.3c0.7-1.4,1.4-2.8,2.9-3.6c1-0.6,2-0.5,2.9,0c0.8,0.5,1.1,1.3,1.1,2.2
			c0,1.6-0.5,3.3-1.1,4.8c-1.3,3-2.8,6-4.9,8.5c-0.7,0.8-1.5,1.5-2.3,2.2c-0.5,0.4-1.1,0.2-1.2-0.4s-0.2-1.1-0.2-1.7
			c0.1-3.3,0.6-6.5,1.7-9.6C285.9,17.9,286.2,17.1,286.7,16.3z"/>
		<path id="svg_60" class="st14" d="M309.9,32.9c-2.5,2.8-5.6,4.8-9.1,6.3c-1.3,0.6-2.7,0.9-4,1.3c-0.8,0.2-1.2-0.4-0.9-1
			c0.3-0.8,0.6-1.5,1-2.2c1.3-2.2,3-4.2,4.9-6c1.8-1.7,3.6-3.4,6-4.2c1.2-0.5,2.5-0.4,3.3,1c0.6,0.9,0.4,1.7,0.1,3
			C311,31.5,310.6,32.3,309.9,32.9z"/>
		<g id="svg_61">
			<path id="svg_62" class="st14" d="M275,63.1c-0.3,0.3-0.7,0.3-1.1,0.4c-0.5,0.1-0.9,0.1-1.4,0c-0.6-0.1-1.1-0.1-1.7-0.3
				c-0.2-0.1-0.3-0.2-0.3-0.3c0-0.1,0-0.2,0.1-0.2s0.2-0.1,0.3-0.1c0,0,0.1,0,0.1-0.1s0.1-0.1,0.1-0.1c0.7-0.2,1.3-0.6,1.8-1.1
				c0.2-0.2,0.3-0.4,0.5-0.5c0.5-0.3,1.1-0.3,1.5,0.2c0.5,0.4,0.6,1.3,0.2,1.8C275.1,62.9,275,63,275,63.1z"/>
			<path id="svg_63" class="st14" d="M269.7,57.6c0.1,0.3,0,0.6-0.2,0.8c-0.3,0.5-0.5,1-0.6,1.6c-0.1,0.3-0.1,0.7-0.1,1.1
				c0,0.1,0,0.3-0.1,0.3c-0.1,0.1-0.2,0.1-0.3,0c0,0-0.1,0-0.1-0.1c-0.1-0.1-0.1-0.2-0.2-0.3c-0.4-0.7-0.8-1.5-1-2.3
				c-0.2-0.5-0.2-1,0.1-1.5c0.2-0.2,0.3-0.4,0.6-0.5c0.3-0.1,0.5-0.1,0.8-0.1c0.2,0,0.4,0.1,0.6,0.2C269.5,57,269.7,57.3,269.7,57.6
				z"/>
		</g>
		<path id="svg_64" class="st14" d="M281.1,37.9c0.4-0.3,0.7-0.6,1.1-0.8c-0.4,1.2-0.4,2.3,0,3.5c0.3-0.3,0.5-0.5,0.7-0.7
			c-0.2,1.1-0.3,2.1-0.4,3.2c0.1,0.1,0.1,0.1,0.2,0.1l0.7-1c-0.2,1.1-0.2,2,0,2.6c0.1,0,0.1,0,0.1,0c0.1,0,0.1,0.1,0.2,0.1
			c0.8-1.6,2.1-2.5,3.6-2.3c-0.3,0.8-0.2,1.6,0.5,2.4c0.1-0.2,0.2-0.4,0.3-0.5c0.5-0.5,1-1.3,1.6-1.3c0.7,0,1.3-0.2,1.8-0.5
			c0.8-0.4,1.3-1.4,1-2.4c0-0.1-0.1-0.2-0.1-0.3c-1.3-2.6-3.3-4.3-5.9-5.1c-1.3-0.4-2.8-0.2-3.8,0.6l0,0c-0.4,0.4-0.8,0.7-1.1,1.1
			C281.3,37,281.2,37.5,281.1,37.9z"/>
		<path id="svg_65" class="st14" d="M266.9,46.8c-0.7-0.8-0.8-1.8-0.6-2.8c0.1-0.4,0.2-0.8,0.5-1.1c0.3-0.3,0.7-0.3,1,0.1
			c0.1,0.1,0.1,0.2,0.2,0.3c0.1,0.1,0.1,0.2,0.2,0.3c0.3,0.4,0.7,0.5,1.2,0.3s0.7-0.5,0.7-1c-0.1-0.1-0.1-0.2-0.1-0.4
			c-0.1-0.6,0.4-0.9,0.9-0.7c0.6,0.3,1,0.6,1.3,1.1c0.6,0.9,0.8,1.9,0.4,2.9c-0.3,0.7-0.9,1.3-1.6,1.8c-0.7,0.5-1.5,0.6-2.3,0.3
			c-0.5-0.1-0.8-0.3-1.2-0.6C267.3,47.1,267,47,266.9,46.8z"/>
		<path id="svg_66" class="st14" d="M285.4,60.5c1,0.4,2,0.3,2.9-0.3c0.4-0.2,0.7-0.4,0.9-0.8c0.2-0.5,0.1-0.9-0.4-1
			c-0.1-0.1-0.2-0.1-0.3-0.1s-0.3-0.1-0.4-0.1c-0.5-0.2-0.7-0.6-0.7-1.1s0.2-0.8,0.7-0.9c0.1-0.1,0.3-0.1,0.4-0.1
			c0.5-0.1,0.7-0.7,0.3-1.1c-0.4-0.5-0.8-0.7-1.4-0.9c-1.1-0.3-2.1-0.2-2.9,0.5c-0.7,0.6-1.1,1.3-1.3,2.1c-0.2,0.8-0.1,1.5,0.4,2.2
			c0.3,0.4,0.6,0.6,1,0.9C284.8,59.9,285,60.1,285.4,60.5z"/>
		<path id="svg_67" class="st20" d="M263.7,60.2c-1.3,2.1-0.3,5.3,2.3,7.1c2.6,1.8,5.8,1.8,7.5,0c-1.8,0.3-4.1-0.3-6.2-1.8
			C265.2,63.9,263.9,61.9,263.7,60.2z"/>
		<path id="svg_68" class="st4" d="M191.3,74.9l-0.2,5c0,0,32.3-1.8,47.5-3s14.7-7,14.7-7L191.3,74.9z"/>
		<path id="svg_69" class="st21" d="M235.2,85.8c-0.3-1.4-0.6-2.9-0.9-4.3c-0.5-2.2-0.9-4.5-1.4-6.7c-0.4-1.8-0.8-3.6-1.2-5.4
			c0-0.2,0-0.2,0.2-0.3c0.6-0.2,1.1-0.2,1.7-0.4c0.3,0,0.3,0.1,0.4,0.3c0.2,0.6,0.3,1.2,0.4,1.8c0.6,2.7,1.1,5.4,1.7,8.1
			c0.5,2.3,0.9,4.5,1.4,6.7c0,0.1,0.1,0.3-0.1,0.3c-0.6,0.1-1.3,0.3-1.9,0.4C235.1,86.4,235.2,86.1,235.2,85.8z"/>
		<path id="svg_70" class="st22" d="M206.6,66c0.9-0.2,1.9-0.3,2.8-0.5c0.2-0.1,0.3,0.1,0.3,0.3c0.4,2.4,0.9,4.9,1.3,7.3
			c0.5,2.8,1,5.6,1.5,8.4c0.7,3.7,1.3,7.5,2,11.2c0,0.3-0.1,0.4-0.3,0.4c-0.9,0.2-1.8,0.3-2.7,0.5c-0.3,0-0.4-0.1-0.4-0.3
			c-0.1-0.5-0.2-1-0.3-1.5c-0.4-2.1-0.7-4.2-1.1-6.3c-0.3-2.1-0.7-4.2-1.1-6.3c-0.4-2.1-0.7-4.1-1.1-6.2c-0.4-2.3-0.8-4.6-1.2-6.9
			C206.1,65.9,206.4,65.9,206.6,66z"/>
		<path id="svg_71" class="st17" d="M200.4,75.4c-1.5-2.5-2.6-5.2-3.8-7.8c-0.2-0.4-0.2-0.7,0-1.1c1-2.4,2-4.8,3.2-7.1
			c1-1.9,2-3.7,3.1-5.5c0.1-0.1,0.2-0.4,0.4-0.3s0,0.3,0,0.5c-0.3,1.3-0.7,2.5-1.1,3.7c-1.1,3.1-2.3,6.1-3.8,9.1
			c-0.1,0.3-0.1,0.5,0,0.8c0.3,0.9,0.6,1.9,0.9,2.8c0.5,1.8,1,3.6,1.3,5.4C200.5,75.7,200.4,75.6,200.4,75.4z"/>
		<path id="svg_74" class="st16" d="M220,55.8c-15.8-3.9-56.5-2.9-76.7-2.5c-4,0.1-3.4-0.9-4.1-7.1c-0.8-6.2-8.6-14.6-8.6-14.6
			s28.7,1.8,39.1,4.5c9.2,2.4,13.2,6.9,43.4,6.9c30.9,0,45,13.2,45,13.2C238.5,54.1,235.8,59.7,220,55.8z"/>
		<path id="svg_75" class="st3" d="M180.8,59.9c2-3.9,6.4-5.3,10.3-3.3c3.8,2,5.2,6.6,3.2,10.4c-1.9,3.7-6.6,5.2-10.1,3.3
			C180.1,68.2,178.9,63.7,180.8,59.9z"/>
		<polyline id="svg_76" class="st4" points="171.3,116.2 173.3,99 176.9,95.5 172.8,115.1 171.3,116.2 		"/>
		<path id="svg_77" class="st4" d="M187.4,55.8l-0.6,15.4l-2.1-0.7c0,0,2,2.6,0,0s1.7-14.4,1.7-14.4L187.4,55.8"/>
		<path id="svg_78" class="st14" d="M251.5,71.9L251.5,71.9c-4.1,2.5-8.9,3.9-13.7,4l-49.1,0.6c-5.4-11.6,0.6-24.3,0.6-24.3
			c40.7,2,56.5,8.4,62.5,12.8C254.2,66.8,254.1,70.3,251.5,71.9z"/>
		<path id="svg_79" class="st1" d="M186.9,59c-0.2,1.8-0.7,3.6-0.7,5.4c0,1.7-0.1,3.5,0.1,5.3c0.1,1.7,0.8,3.4,1.2,5.1
			c0.2,0.6,0.4,1.2,0.5,1.8c0.1,0.4,0.2,0.5,0.6,0.5c3.3-0.3,6.8-0.3,10.1-0.6c0.7-0.1,1.4-0.2,2.1-0.1c0.1,0,0.1-0.2,0.1-0.3
			l0.2,0.4l-2.2-9.5l3.5-10.6c0.4-0.9,0.8-1.9,1.2-2.9c0.2-0.5,0.1-0.7-0.5-0.7c-4.5-0.2-9.1-0.4-13.6-0.6c-0.4,0-0.6,0.2-0.8,0.6
			c-0.4,1-0.8,2-1.2,3S187.1,57.9,186.9,59z"/>
		<path id="svg_80" class="st22" d="M222.3,28.4c1.4-0.4,2.9-0.8,4.3-1.2c0.1,0,0.4,0,0.4-0.3c1.2,0.1,2.5,0.3,3.7,0.2
			c0.2-0.1,0.5,0,0.6-0.3c0.3-0.7,0.3-1.5,0.4-2.2c0.3-1.9,0.5-3.7,0.7-5.5c0-0.1,0-0.2,0-0.3c0-0.5-0.4-0.5-0.6-0.6
			c-0.6-0.2-1.2-0.2-1.8-0.4c-0.6-0.2-1.3-0.2-2-0.4c0.1-0.1,0.1-0.1,0-0.2c-1.3-0.7-2.7-1.3-4.1-2c-0.7-0.4-1.5-0.6-2.1-1.1
			c0.7-0.5,1.5-0.5,2.3-0.4c3.2,0.4,6.3,0.8,9.5,1.2c2.1,0.2,3.3,1.9,3,3.7c-0.2,0.9-0.3,1.8-0.4,2.7c-0.3,2.4-0.7,4.9-1,7.3
			c-0.2,1.3-1.2,2.3-2.4,2.6c-0.8,0.2-1.5,0-2.3-0.1c-3-0.4-6-0.8-9-1.2c-0.8-0.1-1.4-0.5-1.9-1.1C220.5,28.7,221.4,28.4,222.3,28.4
			z"/>
		<path id="svg_81" class="st22" d="M226.7,46.8c1.4-0.4,2.7-0.7,4.1-1.1c0.3-0.1,0.5-0.1,0.7-0.3c1.1,0.1,2.2,0.2,3.3,0.2
			c0.3,0,0.6,0,0.8-0.3c0.4-2.6,0.7-5.3,1.1-7.9c0.1-0.4-0.2-0.5-0.5-0.6c-1.2-0.3-2.4-0.6-3.6-0.7l-0.1-0.1l0,0
			c0-0.1,0-0.2-0.1-0.2c-1.5-0.7-2.9-1.4-4.4-2.1c-0.6-0.3-1.2-0.6-1.8-0.9c-0.1,0-0.1-0.1-0.1-0.2c0.7-0.4,1.4-0.5,2.1-0.4
			c3.3,0.5,6.7,0.9,10,1.4c1.8,0.2,2.8,1.7,2.7,3.2c-0.1,1-0.3,2-0.4,3c-0.3,2.4-0.6,4.7-0.9,7.1c-0.2,1.7-0.9,2.7-2.6,3.1
			c-0.8,0.2-1.6-0.1-2.4-0.2c-2.6-0.4-5.3-0.8-7.9-1.1c-1-0.2-2-0.3-2.7-1.2C225,47.3,225.9,47,226.7,46.8z"/>
		<path id="svg_82" class="st22" d="M207,45.2c2.3-0.7,4.6-1.3,6.9-1.9c0.1-0.1,0.2-0.1,0.2-0.2c1.2,0.1,2.4,0.4,3.6,0.2
			c0.1-0.1,0.3,0,0.3-0.2c0.3-0.5,0.2-1.1,0.3-1.6c0.4-2.2,0.6-4.3,0.9-6.4c0.1-0.4-0.2-0.4-0.4-0.5c-1-0.4-2.2-0.6-3.3-0.8
			c-0.1,0-0.2-0.1-0.3-0.1c-1.1-0.7-2.4-1.2-3.6-1.8c-1-0.5-2-1-3-1.5c0.5-0.4,1.1-0.5,1.7-0.5c0.7,0.1,1.5,0.2,2.2,0.3
			c1.5,0.2,3.1,0.4,4.6,0.6c1.4,0.2,2.7,0.4,4,0.6c1.1,0.2,2.1,1.3,2.3,2.5c0.2,1.1-0.1,2-0.2,3c-0.3,2.6-0.7,5.2-1,7.8
			c-0.2,1.8-1.5,3.1-3.2,3c-1,0-2.1-0.3-3.1-0.4c-2.4-0.4-4.8-0.7-7.2-1c-0.8-0.2-1.5-0.4-2-1C206.8,45,207,45,207,45.2z"/>
		<path id="svg_83" class="st23" d="M205.9,43c0.3-2.3,0.6-4.5,0.9-6.8c0.2-1.4,0.4-2.7,0.6-4c0.2-0.9,0.6-1.5,1.4-1.9
			c1,0.5,2,1,3,1.5c1.2,0.6,2.4,1.1,3.6,1.8c-0.7,0.1-1.3-0.1-2-0.1c-0.6,0-1.2-0.1-1.8,0c-0.2,0-0.3,0-0.4,0.2
			c-0.3,1.1-0.3,2.2-0.5,3.3c-0.2,1.5-0.4,3.1-0.6,4.7c0.1,0.4,0.4,0.4,0.7,0.5c1.2,0.3,2.3,0.6,3.5,0.7c-0.1,0.1-0.1,0.2-0.2,0.2
			c-2.3,0.6-4.6,1.3-6.9,1.9c-0.2,0.1-0.4,0.1-0.5,0.3C206,44.7,205.7,43.9,205.9,43z"/>
		<path id="svg_84" class="st23" d="M223.3,45.6c0-0.7,0.1-1.4,0.2-2c0.3-2.9,0.7-5.7,1.1-8.6c0.2-1,0.6-1.9,1.6-2.5
			c0,0.1,0,0.2,0.1,0.2c0.6,0.3,1.2,0.6,1.8,0.9c1.5,0.7,2.9,1.4,4.4,2.1c0.1,0,0.1,0.1,0.1,0.2c-1.1-0.1-2.3-0.2-3.4-0.1
			c-0.3,0-0.6,0-0.6,0.4c-0.1,1-0.3,2-0.4,3c-0.2,1.6-0.4,3.2-0.6,4.8c-0.1,0.4,0.2,0.4,0.4,0.5c1.1,0.3,2.2,0.6,3.4,0.7
			c0.1,0,0.2,0,0.3,0.1c-0.2,0.2-0.5,0.2-0.7,0.3c-1.4,0.4-2.7,0.7-4.1,1.1c-1,0.3-1.9,0.5-2.9,0.8C223.5,47,223.3,46.4,223.3,45.6z
			"/>
		<path id="svg_85" class="st23" d="M224.7,17.1c-0.3,0-0.5,0-0.6,0.3c-0.3,1.7-0.5,3.3-0.7,4.9c-0.2,1-0.4,2.1-0.4,3.1
			c0,0.3,0.2,0.3,0.4,0.4c1.1,0.4,2.2,0.5,3.3,0.7c0.1,0.1,0.1,0.1,0.2,0.1c0,0.3-0.2,0.3-0.4,0.3c-1.4,0.4-2.9,0.8-4.3,1.2
			c-0.9,0.3-1.7,0.6-2.6,0.7c-0.4-0.3-0.6-0.8-0.7-1.3c-0.2-0.9,0.1-1.7,0.2-2.6c0.4-2.8,0.8-5.7,1.2-8.5c0.1-1,0.5-1.9,1.5-2.4
			c0.6,0.6,1.4,0.7,2.1,1.1c1.3,0.7,2.7,1.3,4.1,2c0.1,0.1,0.1,0.1,0,0.2C227,17.2,225.9,17.1,224.7,17.1z"/>
		<path id="svg_86" class="st16" d="M233.6,86.3c2.2-1.8,5.6-1.8,7.7,0c1,0.8,1.7,1.8,2.1,3c-0.9,0.1-1.9,0.3-2.9,0.4
			c-1.4,0.2-2.8,0.3-4.2,0.5c-1.6,0.2-3.3,0.4-5,0.6C231.4,88.9,232.2,87.4,233.6,86.3z"/>
		<path id="svg_87" class="st22" d="M229.6,91.1c-0.3,0-0.3-0.2-0.3-0.4c0-1.8,0.6-3.4,1.8-4.8c1.2-1.5,2.7-2.4,4.5-2.8
			c1.9-0.4,3.7-0.2,5.5,0.6c1.3,0.6,2.3,1.4,3.1,2.5c0.5,0.7,0.9,1.6,1.2,2.5c0,0.2,0.1,0.3-0.2,0.3c-0.6,0-1.2,0.1-1.8,0.2
			c-0.4-1.2-1.1-2.2-2.1-3c-2.1-1.7-5.4-1.8-7.7,0c-1.4,1.1-2.3,2.7-2.3,4.6C230.8,90.9,230.2,91,229.6,91.1z"/>
		<path id="svg_88" class="st24" d="M232.3,18.7c0,0.1,0,0.2,0,0.3c-0.2,1.9-0.4,3.7-0.7,5.5c-0.1,0.8-0.1,1.5-0.4,2.2
			c-0.6-0.4-1.4-0.5-2.1-0.7c-1.8-0.4-3.5-0.5-5.3-0.6c-0.2-0.1-0.5,0-0.7,0.1c0.1-1,0.3-2.1,0.4-3.1c0.2-1.7,0.5-3.3,0.7-4.9
			C226.9,18.5,229.6,18.9,232.3,18.7z M228.7,24.3c0.3-0.3,0.7-0.6,1-0.9c0.2-0.2,0.4-0.4,0.3-0.7c-0.1-0.4-0.1-0.8-0.1-1.2
			c0-0.3-0.1-0.6-0.4-0.8c-0.2-0.1-0.3-0.3-0.5-0.4c-0.3-0.1-0.6-0.6-0.9-0.5c-0.6,0.1-1.3,0.2-1.9,0.5c-0.1,0.1-0.1,0.2-0.2,0.3
			c-0.1,0.1-0.1,0.3-0.2,0.4c-0.1,0.5-0.5,0.9-0.4,1.3c0.1,0.6,0.6,1.1,0.9,1.7c0,0,0.1,0.1,0.2,0.1c0.6,0.1,1.1,0.2,1.8,0.3
			C228.5,24.4,228.6,24.3,228.7,24.3z"/>
		<path id="svg_89" class="st25" d="M224.8,17.1c1-0.1,2.1,0.1,3.2,0.1c0.6,0.2,1.3,0.2,2,0.4c0.6,0.1,1.2,0.2,1.8,0.4
			c0.3,0.1,0.7,0.2,0.6,0.6c-2.8,0.2-5.5-0.1-8.2-1.1C224.3,17.2,224.5,17.2,224.8,17.1z"/>
		<path id="svg_90" class="st25" d="M230.8,26.8c-1.2,0.1-2.5-0.1-3.7-0.2c-0.1-0.1-0.1-0.1-0.2-0.1c-1.1-0.2-2.2-0.3-3.3-0.7
			c-0.2-0.1-0.4-0.1-0.4-0.4c0.2,0,0.5-0.1,0.7-0.1c1.8,0.1,3.6,0.2,5.3,0.6c0.7,0.1,1.4,0.3,2.1,0.7
			C231.2,26.9,230.9,26.8,230.8,26.8z"/>
		<path id="svg_91" class="st24" d="M231.5,37c1.5,0.2,2.9,0.4,4.4,0.4c0.4,0,0.7-0.2,1-0.1c-0.4,2.6-0.7,5.3-1.1,7.9
			c-1-0.6-2.1-0.7-3.2-0.9c-1.3-0.3-2.6-0.3-4-0.4c-0.4,0-0.7,0.1-1,0.1c0.2-1.6,0.4-3.2,0.6-4.8c0.1-1,0.3-2,0.4-3
			C229.5,36.5,230.5,36.8,231.5,37z M234.4,41.3c-0.1-0.7,0.2-1.5-0.3-2c-0.4-0.4-1-1-1.6-1c-0.7,0-1.5,0.1-2,0.6s-0.8,1.3-0.8,1.9
			c0,0.6,0.5,1.2,0.9,1.7c0.5,0.6,1.3,0.3,1.8,0.5C233.1,43,234.5,41.8,234.4,41.3z"/>
		<path id="svg_92" class="st25" d="M231.3,35.7c1.1-0.1,2.3,0,3.4,0.1l0,0l0.1,0.1c1.2,0.1,2.4,0.4,3.6,0.7
			c0.2,0.1,0.5,0.2,0.5,0.6c-0.4-0.1-0.7,0.1-1,0.1c-1.5,0-2.9-0.2-4.4-0.4c-1-0.1-1.9-0.4-2.9-0.7
			C230.6,35.8,230.9,35.9,231.3,35.7z"/>
		<path id="svg_93" class="st25" d="M234.9,45.6c-1.1,0.1-2.2-0.1-3.3-0.2c-0.1-0.1-0.2-0.1-0.3-0.1c-1.2-0.1-2.3-0.3-3.4-0.7
			c-0.2-0.1-0.4-0.2-0.4-0.5c0.4,0,0.7-0.1,1-0.1c1.3,0.1,2.7,0.1,4,0.4c1.1,0.3,2.2,0.3,3.2,0.9C235.6,45.5,235.3,45.5,234.9,45.6z
			"/>
		<path id="svg_94" class="st23" d="M234.7,36.1l-0.1-0.1C234.6,36,234.7,36,234.7,36.1z"/>
		<path id="svg_95" class="st24" d="M213.3,34.3c1.4,0.4,2.8,0.5,4.3,0.6c0.6,0,1.1-0.1,1.7-0.1c-0.3,2.2-0.6,4.3-0.9,6.4
			c-0.1,0.5,0,1.1-0.3,1.6c0-0.3-0.2-0.2-0.4-0.3c-1.3-0.4-2.6-0.7-4-0.8c-0.9-0.1-1.8-0.2-2.7-0.2c-0.4,0-0.7,0.1-1,0.2
			c0.2-1.5,0.3-3.1,0.6-4.7c0.2-1.1,0.2-2.2,0.5-3.3C211.8,34.3,212.6,34.3,213.3,34.3z M216.6,36.9c-0.5-0.4-1-1.1-1.7-1
			c-0.6,0.1-1.4,0.2-1.9,0.7c-0.4,0.5-0.7,1.2-0.7,1.8c0,0.6,0.4,1.3,0.9,1.7c0.5,0.5,1.2,0.4,1.9,0.5c0.6,0.1,1.8-1.3,1.8-2.1
			C216.7,38.1,217.1,37.4,216.6,36.9z"/>
		<path id="svg_96" class="st25" d="M213.5,33.4c0.6-0.1,1.2,0,1.8,0c0.7,0,1.3,0.2,2,0.1c0.1,0,0.2,0.1,0.3,0.1
			c1.1,0.2,2.2,0.4,3.3,0.8c0.2,0.1,0.5,0.1,0.4,0.5c-0.6,0.1-1.2,0.1-1.7,0.1c-1.4-0.2-2.9-0.3-4.3-0.6c-0.8-0.1-1.6-0.2-2.2-0.7
			C213.2,33.6,213.3,33.5,213.5,33.4z"/>
		<path id="svg_97" class="st25" d="M217.8,43.3c-1.2,0.2-2.4-0.1-3.6-0.2c-1.2-0.2-2.4-0.4-3.5-0.7c-0.2-0.1-0.6-0.1-0.7-0.5
			c0.3-0.2,0.7-0.2,1-0.2c0.9,0,1.8,0.1,2.7,0.2c1.3,0.2,2.7,0.4,4,0.8c0.1,0,0.4,0,0.4,0.3C218.1,43.2,217.9,43.1,217.8,43.3z"/>
		<path id="svg_98" class="st16" d="M226.5,23.9c0,0-0.2,0-0.2-0.1c-0.3-0.5-0.7-1.1-0.9-1.7c-0.2-0.4,0.2-0.9,0.4-1.3
			c0.1-0.1,0.1-0.3,0.2-0.4c0-0.1,0.1-0.2,0.2-0.3c0.6-0.2,1.3-0.4,1.9-0.5c0.3-0.1,0.6,0.3,0.9,0.5c0.2,0.1,0.3,0.3,0.5,0.4
			c0.3,0.2,0.4,0.5,0.4,0.8c0.1,0.4,0,0.8,0.1,1.2c0,0.3-0.1,0.5-0.3,0.7c-0.3,0.3-0.7,0.6-1,0.9c-0.1,0.2-0.3,0.3-0.4,0.3
			C227.7,24.3,227.1,24.2,226.5,23.9z M226,22.1c0.6-0.1,0.7,0.2,0.8,0.5c0.2,0.4,0.5,0.6,0.9,0.6c0.2,0.1,0.6,0,0.6,0.5
			c0.1-0.4,0-0.6,0.4-0.8c0.3-0.1,0.4-0.4,0.8-0.2c-0.3-0.2-0.4-0.4-0.4-0.8c0.1-0.3-0.1-0.6,0.4-0.7c-0.4-0.1-0.6,0.1-0.9-0.2
			c-0.2-0.2-0.5-0.3-0.4-0.7c-0.6,0.6-1,0.7-1.6,0.4C226.9,21.2,226.7,21.7,226,22.1z"/>
		<path id="svg_99" class="st16" d="M230.6,42.6c-0.4-0.5-0.9-1.1-0.9-1.7c0-0.7,0.3-1.4,0.8-1.9s1.3-0.6,2-0.6c0.6,0,1.2,0.5,1.6,1
			c0.5,0.5,0.2,1.3,0.3,2c0.1,0.4-1.4,1.6-2,1.6C231.9,42.8,231.1,43.1,230.6,42.6z M233.7,41.4c-0.4-0.5-0.6-1,0-1.6
			c-0.6,0.4-0.8-0.2-1.2-0.3c-0.2-0.1,0.2-0.5-0.1-0.5c-0.1,0,0,0.4-0.2,0.4c-0.4,0-0.8,0.6-1.2-0.1c0.1,0.3,0.1,0.6,0,0.9
			c-0.2,0.3-0.3,0.6-0.7,0.6c0.4,0,0.6,0.2,0.7,0.5c0.2,0.3,0.3,0.5,0,0.9c0.7-0.4,1.2-0.3,1.6,0.2
			C232.7,41.8,233.2,41.3,233.7,41.4z"/>
		<path id="svg_100" class="st16" d="M215.1,40.7c-0.6-0.1-1.4,0-1.9-0.5c-0.5-0.4-0.9-1.1-0.9-1.7s0.3-1.3,0.7-1.8
			c0.4-0.6,1.2-0.6,1.9-0.7c0.7-0.1,1.2,0.6,1.7,1s0.1,1.1,0.3,1.5C217,39.4,215.8,40.7,215.1,40.7z M216.4,37.5
			c-0.5,0.3-0.7-0.3-1.1-0.4c-0.3-0.1,0.1-0.5-0.2-0.5S215,37,214.8,37c-0.4,0-0.8,0.4-1.2-0.1c0.2,0.8,0,1.3-0.7,1.5
			c0.3,0.1,0.6,0.1,0.7,0.5c0.1,0.3,0.3,0.5,0,0.9c0.7-0.4,1.3-0.3,1.6,0.2c0-0.6,0.4-1,1.2-1C215.8,38.6,215.8,37.9,216.4,37.5z"/>
		<path id="svg_101" class="st26" d="M228.1,20.4c-0.1,0.4,0.2,0.5,0.4,0.7c0.3,0.3,0.6,0.1,0.9,0.2c-0.5,0.1-0.4,0.4-0.4,0.7
			c0,0.4,0.1,0.6,0.4,0.8c-0.4-0.2-0.5,0.1-0.8,0.2c-0.4,0.2-0.4,0.4-0.4,0.8c0-0.5-0.3-0.5-0.6-0.5c-0.4,0-0.7-0.2-0.9-0.6
			c-0.2-0.3-0.2-0.7-0.8-0.5c0.8-0.5,1-1,0.7-1.5C227.2,21,227.6,20.9,228.1,20.4z M226.9,22.4c0,0.1,0,0.4,0.2,0.3
			c0.2,0,0.3-0.2,0.3-0.4s-0.2-0.1-0.3-0.1C226.9,22.2,226.7,22.2,226.9,22.4z M228.3,22.9c0.1,0,0.3-0.1,0.3-0.3
			c0-0.3-0.2-0.3-0.3-0.3c-0.1,0-0.2,0.1-0.2,0.2C228.2,22.6,228.1,22.9,228.3,22.9z M227.7,21.5c0.1-0.1,0.2-0.4,0.1-0.5
			c-0.2-0.2-0.4,0.1-0.6,0.1C227.4,21.3,227.4,21.6,227.7,21.5z M227.1,22c0.2,0,0.3,0,0.3-0.2c-0.1-0.1-0.2-0.3-0.3-0.3
			c-0.2,0-0.3,0.1-0.3,0.2C226.8,21.9,226.9,22,227.1,22z M227.4,22.9c0.1,0.1,0.4,0.2,0.5,0.1c0.2-0.2-0.1-0.3-0.2-0.5
			C227.6,22.6,227.3,22.7,227.4,22.9z M228.7,21.7c-0.2,0-0.4,0.2-0.4,0.3c0,0.3,0.3,0.2,0.5,0.3C228.8,22,228.9,21.8,228.7,21.7z
			 M228.2,21.5c0.1,0,0.3,0,0.3-0.2c0-0.1-0.2-0.2-0.3-0.2c-0.2-0.1-0.1,0.1-0.2,0.2C228.1,21.4,228,21.6,228.2,21.5z"/>
		<path id="svg_102" class="st26" d="M231,42.2c0.3-0.4,0.1-0.6,0-0.9c-0.1-0.3-0.3-0.4-0.7-0.5c0.5,0,0.6-0.3,0.7-0.6
			c0.2-0.3,0.1-0.6,0-0.9c0.4,0.7,0.8,0.1,1.2,0.1c0.2,0,0-0.4,0.2-0.4c0.2,0-0.1,0.4,0.1,0.5c0.4,0.1,0.6,0.7,1.2,0.3
			c-0.6,0.5-0.4,1.1,0,1.6c-0.5-0.1-1,0.4-1.1,1C232.3,41.9,231.7,41.8,231,42.2z M232.6,40.3c0.2,0,0.4,0,0.4-0.2s-0.2-0.3-0.4-0.3
			s-0.2,0.2-0.2,0.3S232.4,40.3,232.6,40.3z M232.1,39.7c-0.1,0-0.4,0.1-0.4,0.2c0,0.2,0.2,0.3,0.4,0.4
			C232.1,40,232.4,39.8,232.1,39.7z M232.4,41.6c0-0.1-0.1-0.4-0.2-0.4c-0.3-0.1-0.4,0.2-0.5,0.4C231.9,41.6,232.1,41.9,232.4,41.6z
			 M231.5,41.4c0.1,0,0.2-0.3,0.2-0.4c-0.1-0.3-0.4,0-0.6-0.2C231.2,41.1,231.2,41.4,231.5,41.4z M232.6,41.5c0.1,0,0.3-0.1,0.3-0.3
			s-0.2-0.2-0.3-0.2c-0.1,0-0.2,0-0.2,0.2C232.5,41.3,232.5,41.6,232.6,41.5z M231.7,40.4c0-0.1-0.1-0.3-0.3-0.3
			c-0.1,0-0.2,0.2-0.2,0.3c0,0.3,0.1,0.2,0.3,0.2C231.6,40.5,231.7,40.6,231.7,40.4z M232.7,40.6c0,0.2,0.2,0.3,0.4,0.3
			c0.2,0.1,0.1-0.1,0.1-0.2s0-0.3-0.2-0.3S232.7,40.5,232.7,40.6z"/>
		<path id="svg_103" class="st26" d="M215,39.9c-0.3-0.5-0.9-0.6-1.6-0.2c0.3-0.4,0.1-0.6,0-0.9c-0.1-0.3-0.4-0.4-0.7-0.5
			c0.7-0.2,1-0.8,0.7-1.5c0.4,0.5,0.8,0.2,1.2,0.1c0.3,0,0.1-0.4,0.3-0.4c0.3,0.1,0,0.4,0.2,0.5c0.3,0.2,0.6,0.7,1.1,0.4
			c-0.4,0.5-0.4,1.2,0.2,1.6C215.6,39,215.2,39.4,215,39.9z M214.2,37.5c0,0.1,0.2,0.3,0.3,0.3c0.2,0,0.2-0.2,0.2-0.4
			s-0.1-0.1-0.2-0.2C214.4,37.4,214.2,37.3,214.2,37.5z M214.6,39.3c0.1,0.1,0.2,0,0.2-0.1c0-0.2,0-0.4-0.2-0.4
			c-0.1,0-0.3,0.2-0.4,0.3C214.2,39.3,214.4,39.3,214.6,39.3z M215.1,38.2c0.2,0.2,0.3,0.4,0.5,0.3s0-0.3,0-0.6
			C215.4,38.1,215.3,38.2,215.1,38.2z M215.1,37.9c0.1-0.1,0.3-0.1,0.3-0.3c-0.1-0.2-0.3-0.3-0.4-0.3c-0.2,0,0,0.3-0.1,0.3
			C214.9,37.8,214.9,38,215.1,37.9z M213.9,37.6c-0.2,0.1-0.4,0.3-0.3,0.5s0.4,0.1,0.6,0C214.1,38,214.1,37.8,213.9,37.6z
			 M213.6,38.5c0.1,0.3,0.1,0.5,0.3,0.5c0.3,0,0.3-0.3,0.4-0.5C214.1,38.5,213.9,38.5,213.6,38.5z M215.2,39.1
			c0.1-0.1,0.3-0.1,0.3-0.3s-0.2-0.2-0.4-0.2c-0.2,0-0.1,0.2-0.1,0.3C215,39.1,215,39.2,215.2,39.1z"/>
		<path id="svg_104" class="st16" d="M227.4,22.3c0,0.2-0.1,0.4-0.3,0.4c-0.2,0.1-0.1-0.2-0.2-0.3c-0.1-0.2,0-0.2,0.2-0.2
			C227.1,22.2,227.3,22.1,227.4,22.3z"/>
		<path id="svg_105" class="st16" d="M228.3,22.2c0.1,0.1,0.3,0.1,0.3,0.3c0,0.2-0.1,0.3-0.3,0.3s-0.1-0.2-0.2-0.3
			C228.1,22.4,228.1,22.3,228.3,22.2z"/>
		<path id="svg_106" class="st16" d="M227.7,21c0.1,0.1,0.1,0.4-0.1,0.5s-0.2-0.3-0.4-0.4C227.4,21.1,227.6,20.8,227.7,21z"/>
		<path id="svg_107" class="st16" d="M227,21.5c0.2,0,0.3,0.2,0.3,0.3c0,0.2-0.2,0.2-0.3,0.2c-0.1,0-0.2,0-0.2-0.3
			C226.8,21.6,226.9,21.4,227,21.5z"/>
		<path id="svg_108" class="st16" d="M227.9,23c-0.2,0.1-0.4,0-0.5-0.1c-0.1-0.2,0.2-0.2,0.3-0.4C227.8,22.7,228.1,22.8,227.9,23z"
			/>
		<path id="svg_109" class="st16" d="M228.3,22c0.1-0.2,0.3-0.3,0.4-0.3c0.2,0.1,0.1,0.4,0.1,0.6C228.6,22.2,228.3,22.3,228.3,22z"
			/>
		<path id="svg_110" class="st16" d="M228.2,21.2c0.1,0,0.3,0,0.3,0.2s-0.2,0.2-0.3,0.2c-0.2,0-0.2-0.2-0.2-0.3
			C228.1,21.3,228,21,228.2,21.2z"/>
		<path id="svg_111" class="st16" d="M232.6,39.8c0.2,0,0.4,0.1,0.4,0.3s-0.3,0.2-0.4,0.2c-0.2,0-0.2-0.1-0.2-0.2
			C232.5,39.9,232.4,39.7,232.6,39.8z"/>
		<path id="svg_112" class="st16" d="M231.7,39.9c0.1-0.2,0.3-0.3,0.4-0.2c0.3,0.2,0,0.4,0,0.6C231.9,40.2,231.7,40.1,231.7,39.9z"
			/>
		<path id="svg_113" class="st16" d="M232.1,41.2c0.2,0,0.3,0.3,0.2,0.4c-0.1,0.3-0.4,0-0.6,0C231.8,41.4,231.9,41.2,232.1,41.2z"/>
		<path id="svg_114" class="st16" d="M231.7,41c0,0.1-0.1,0.4-0.2,0.4c-0.3,0-0.3-0.3-0.4-0.6C231.4,41,231.6,40.7,231.7,41z"/>
		<path id="svg_115" class="st16" d="M232.6,41.1c0.1,0,0.3,0,0.3,0.2c0,0.1-0.1,0.3-0.3,0.3s-0.1-0.3-0.2-0.4
			C232.4,41,232.5,41,232.6,41.1z"/>
		<path id="svg_116" class="st16" d="M231.2,40.5c0-0.1,0.1-0.3,0.2-0.3c0.2-0.1,0.3,0.1,0.3,0.3c0.1,0.1-0.1,0.1-0.2,0.1
			C231.3,40.6,231.2,40.6,231.2,40.5z"/>
		<path id="svg_117" class="st16" d="M233.2,40.8c0,0.1,0.1,0.3-0.1,0.2s-0.4-0.1-0.4-0.3s0.1-0.3,0.3-0.3S233.2,40.5,233.2,40.8z"
			/>
		<path id="svg_118" class="st16" d="M216.6,37.4c0,0.1,0,0.4-0.2,0.4c-0.1,0-0.3-0.1-0.3-0.3s0.3-0.2,0.4-0.3
			C216.6,37.3,216.8,37.3,216.6,37.4z"/>
		<path id="svg_119" class="st16" d="M216.5,38.9c0.2,0,0.2,0.3,0.2,0.4c0.1,0.1-0.1,0.1-0.2,0.1c-0.1-0.1-0.3-0.1-0.3-0.3
			C216.3,39,216.5,38.8,216.5,38.9z"/>
		<path id="svg_120" class="st16" d="M217.6,38.5c-0.2,0-0.4-0.1-0.5-0.3c0.1-0.1,0.3-0.2,0.5-0.3C217.7,38.2,217.8,38.4,217.6,38.5
			z"/>
		<path id="svg_121" class="st16" d="M217,37.3c0.2,0,0.4,0.1,0.4,0.3s-0.2,0.3-0.3,0.3c-0.2,0-0.2-0.2-0.2-0.3
			C217,37.6,216.8,37.3,217,37.3z"/>
		<path id="svg_122" class="st16" d="M215.6,38.1c-0.1-0.2,0.1-0.4,0.3-0.5c0.1,0.2,0.2,0.3,0.3,0.5C216,38.2,215.8,38.3,215.6,38.1
			z"/>
		<path id="svg_123" class="st16" d="M216,39c-0.2-0.1-0.3-0.3-0.3-0.5c0.2,0,0.4,0,0.6,0C216.2,38.7,216.2,39,216,39z"/>
		<path id="svg_124" class="st16" d="M217.1,38.7c0.2,0,0.4,0,0.4,0.2s-0.2,0.3-0.3,0.3c-0.2,0-0.2-0.2-0.2-0.3
			C217,38.8,216.9,38.7,217.1,38.7z"/>
	</g>
	<g id="svg_125">
		<path id="svg_126" class="st27" d="M104.2,132l19.6,45.9h-5L104.2,143l-14.7,34.9h-5L104.2,132z"/>
		<path id="svg_127" class="st27" d="M136.6,156.3l-2.9-4.4l8.9-13.7l5.3,0.1L136.6,156.3z M135.5,157.9v20h-4.8v-20L114.6,132h5.5
			L135.5,157.9z"/>
		<path id="svg_128" class="st27" d="M162.1,132l19.6,45.9h-5L162.1,143l-14.7,34.9h-5L162.1,132z"/>
		<polygon id="svg_129" class="st27" points="146.1,132 143.3,136.6 148.9,136.6 151.7,132 		"/>
		<path id="svg_130" class="st27" d="M83.2,154.1c-0.2-1.8-0.7-3.6-1.3-5.4c-1.5-4.4-3.9-8.2-7.3-11.3c-2.1-1.9-4.5-3.5-7-4.8
			c-0.3-0.1-0.5-0.1-0.8,0c-1,0.4-2,0.9-2.9,1.4c-1.9,0.9-3.8,2-5.6,3.2c-2,1.4-3.9,2.8-5.9,4.3c-0.5,0.4-1.1,0.8-1.6,1.2
			c-0.4,0.3-0.6,0.3-0.9,0c-0.7-0.6-1.4-1.1-2.1-1.6c-3.5-3-7.3-5.4-11.3-7.4c-0.8-0.4-1.7-0.8-2.5-1.2c-0.3-0.1-0.6-0.1-0.9,0.1
			c-0.1,0.1-0.3,0.2-0.4,0.3c-1,0.6-2,1.1-3,1.8c-1.7,1.2-3.3,2.5-4.8,4c-1.8,1.9-3.4,4-4.6,6.4c-2,3.9-2.9,8.1-3,12.5
			c0,1.4,0.1,2.7,0.2,4.1c0.1,1.2,0.2,2.5,0.5,3.7c0.5,2.4,1.3,4.8,2.6,6.9c1.1,1.9,2.3,3.8,3.5,5.7h8.3c-0.2-0.5-0.3-1-0.5-1.5
			c-1-2.8-2-5.7-2.7-8.6c-0.4-1.6-0.8-3.3-1-5c-0.1-1-0.3-2-0.3-3.1c0-0.6-0.1-1.1-0.1-1.7c0.1-1,0.2-2.1,0.3-3.1
			c0.1-1.1,0.3-2.1,0.6-3.1c0.5-1.7,1.4-3.1,2.7-4.3c1.5-1.3,3.2-2.1,5.2-2.3c1.5-0.2,2.9,0.2,4.1,1.1c0.9,0.7,1.5,1.6,2,2.6
			c0.7,1.4,1.1,2.9,1.5,4.4c0.5,2.1,0.6,4.2,0.7,6.3c0,1.5,0,3,0,4.5c0,1.6-0.1,3.1-0.1,4.7c0,1.5-0.1,7-0.3,8.6
			c-0.1,0.4,0,0.4,0.3,0.4c3.7,0,7.4,0,11.1,0c0.1,0,0.1,0,0.2,0c0.1,0,0.2,0,0.2-0.2v-0.1c-0.1-0.9-0.2-5.7-0.2-6.6
			c-0.1-1.6-0.2-3.3-0.2-4.9c-0.1-2-0.1-4.1,0-6.1s0.3-3.9,0.6-5.9c0.3-1.4,0.6-2.8,1.1-4.1s1.2-2.4,2.2-3.4c1.1-1,2.4-1.6,3.9-1.6
			c0.8,0,1.5,0.1,2.3,0.4c1.8,0.6,3.4,1.6,4.6,3.1c1.1,1.5,1.7,3.2,2,5c0.2,1.4,0.3,2.8,0.4,4.2c0.1,0.6,0,1.2,0,1.7
			c-0.1,1.3-0.2,2.6-0.5,4c-0.4,2.5-1,5-1.8,7.4c-0.7,2.4-1.6,4.7-2.4,7.1h8.4c1-1.7,2-3.3,3-5c1.4-2.3,2.4-4.9,2.9-7.5
			c0.4-2,0.6-4.1,0.8-6.1C83.5,157.5,83.4,155.8,83.2,154.1z"/>
		<path id="svg_131" class="st14" d="M207.7,135c-2.1,0.2-4,0.7-5.8,1.5c-2.3,1.1-4.3,2.5-5.9,4.2c-1.6,1.8-2.9,3.8-3.9,6.2
			c-0.9,2.4-1.4,4.8-1.4,7.4c0,2.6,0.5,5.1,1.4,7.4c0.9,2.3,2.2,4.4,3.9,6.1c1.6,1.7,3.6,3.1,5.9,4.2c1.8,0.8,3.8,1.3,5.8,1.5v4.1
			c-2.6-0.2-5.1-0.8-7.4-1.7c-2.9-1.2-5.4-2.8-7.5-4.9c-2.1-2.1-3.8-4.6-5-7.4c-1.2-2.8-1.8-5.9-1.8-9.2s0.6-6.3,1.9-9.2
			c1.2-2.9,2.9-5.3,5.1-7.5c2.1-2.1,4.6-3.8,7.5-5c2.3-1,4.8-1.6,7.4-1.8v4.1H207.7z M210.1,173.6c2.6-0.1,4.9-0.6,7-1.5
			c2.3-1,4.3-2.4,5.9-4.1c1.6-1.7,2.9-3.8,3.8-6.1c0.9-2.3,1.3-4.8,1.3-7.5c0-2.8-0.4-5.3-1.3-7.7c-0.9-2.4-2.2-4.4-3.8-6.2
			c-1.6-1.7-3.6-3.1-5.9-4.1c-2.1-0.9-4.5-1.4-7.1-1.5v-4.1c3.1,0.1,6,0.7,8.7,1.8c2.9,1.2,5.3,2.8,7.4,5c2.1,2.1,3.7,4.6,4.9,7.4
			c1.2,2.9,1.8,5.9,1.8,9.2c0,3.4-0.6,6.5-1.8,9.3c-1.2,2.9-2.9,5.3-5,7.4c-2.1,2.1-4.6,3.7-7.4,4.9c-2.7,1.1-5.6,1.7-8.6,1.7v-3.9
			H210.1z"/>
		<path id="svg_132" class="st14" d="M237.9,130.7l33.6,36.6v-35.1h4.8v47.2l-33.6-36.7v35h-4.8V130.7z"/>
		<path id="svg_133" class="st14" d="M283.1,132.3h4.8v41.5h20.5v4.1h-25.2L283.1,132.3L283.1,132.3z"/>
		<path id="svg_134" class="st14" d="M315.2,132.3h4.8v45.6h-4.8V132.3z"/>
		<path id="svg_135" class="st14" d="M326.8,130.9l33.6,36.6v-35.1h4.8v47.2L331.6,143v35h-4.8V130.9z"/>
		<path id="svg_136" class="st14" d="M372,173.8h28.1v4.1h-28L372,173.8z M372,132.3h28v4.1h-28V132.3z M372,152.4h26.9v4.1H372
			V152.4z"/>
	</g>
</g>
</svg>
