<?xml version="1.0" encoding="utf-8"?>
<!-- Generator: Adobe Illustrator 22.0.0, SVG Export Plug-In . SVG Version: 6.00 Build 0)  -->
<svg version="1.1" id="Layer_1" xmlns="http://www.w3.org/2000/svg" xmlns:xlink="http://www.w3.org/1999/xlink" x="0px" y="0px"
	 viewBox="0 0 400.8 297" style="enable-background:new 0 0 400.8 297;" xml:space="preserve">
<style type="text/css">
	.st0{fill:#FFFFFF;}
	.st1{fill:#ECECEC;}
	.st2{fill:none;stroke:#EAEAE9;stroke-width:5;stroke-miterlimit:10;}
	.st3{fill:none;stroke:#263140;stroke-width:4;stroke-miterlimit:10;}
	.st4{fill:#CCCBCB;}
	.st5{fill:#F3F4F5;}
	.st6{fill:#563B39;}
	.st7{fill:#AE8070;}
	.st8{fill:#358EBF;}
	.st9{fill:#070808;}
	.st10{fill:#4B3938;}
	.st11{fill:none;stroke:#FFFFFF;stroke-width:3;stroke-miterlimit:10;}
	.st12{fill:none;stroke:#F1A64F;stroke-width:5;stroke-miterlimit:10;}
	.st13{fill:#FAFBFD;}
	.st14{fill:#496DB3;}
	.st15{fill:#1F5180;}
	.st16{fill:#CACAC9;}
	.st17{fill:#454745;}
	.st18{fill:#F1A64F;}
	.st19{fill:none;stroke:#FFFFFF;stroke-width:2;stroke-miterlimit:10;}
	.st20{fill:#262426;}
	.st21{fill:#4A4152;}
	.st22{fill:none;stroke:#1A889B;stroke-miterlimit:10;stroke-dasharray:7.0266,7.0266;}
	.st23{fill:#FFFFFF;stroke:#1A889B;stroke-width:2;stroke-miterlimit:10;}
	.st24{fill:#F1A74F;}
	.st25{opacity:0.24;}
	.st26{clip-path:url(#SVGID_2_);fill:#454745;}
	.st27{clip-path:url(#SVGID_2_);fill:#EFEEEE;stroke:#454745;stroke-width:3;stroke-miterlimit:10;}
	.st28{opacity:0.3;}
	.st29{opacity:0.24;clip-path:url(#SVGID_4_);}
	.st30{fill:#CBCBCA;}
	.st31{opacity:0.35;}
	.st32{fill:#F2A74E;}
	.st33{fill:#EFEEEE;stroke:#454745;stroke-width:3;stroke-miterlimit:10;}
	.st34{fill:#CDCCCC;}
	.st35{clip-path:url(#SVGID_6_);fill:#EFEEEE;stroke:#454745;stroke-width:3;stroke-miterlimit:10;}
	.st36{fill:#F1A750;}
	.st37{fill:#454745;stroke:#454745;stroke-miterlimit:10;}
	.st38{clip-path:url(#SVGID_8_);fill:#EFEEEE;stroke:#454745;stroke-width:3;stroke-miterlimit:10;}
	.st39{clip-path:url(#SVGID_10_);fill:#454745;}
	.st40{clip-path:url(#SVGID_10_);fill:#EFEEEE;stroke:#454745;stroke-width:3;stroke-miterlimit:10;}
	.st41{opacity:0.24;clip-path:url(#SVGID_12_);}
	.st42{clip-path:url(#SVGID_14_);fill:#EFEEEE;stroke:#454745;stroke-width:3;stroke-miterlimit:10;}
	.st43{fill:#484A48;}
	.st44{fill:#474947;}
	.st45{clip-path:url(#SVGID_16_);fill:#EFEEEE;stroke:#454745;stroke-width:3;stroke-miterlimit:10;}
	.st46{fill:#393B39;}
	.st47{fill:#CACAC8;}
	.st48{fill:#8B8E8B;}
	.st49{fill:#FEFEFE;}
</style>
<g>
	<path class="st16" d="M200.4,32.5c-5.9,0-10.6-4.8-10.6-10.7c0-5.9,4.8-10.7,10.7-10.7c5.9,0,10.7,4.9,10.7,10.8
		C211.1,27.8,206.3,32.5,200.4,32.5z"/>
	<path class="st16" d="M194,32.1c4.3,2.5,8.6,2.5,13,0c1.3,1,2.6,2,3.8,3.1c2.8,2.4,3.1,5.7,3,9.1c0,1.1-0.9,1.8-1.8,2.2
		c-1.6,0.6-3.2,1.3-4.8,1.6c-5.4,1.1-10.7,0.9-16-0.6c-0.5-0.1-0.9-0.3-1.3-0.5c-2.4-1.1-2.8-1.9-2.7-4.6c0.1-3.9,1.8-6.7,5-8.8
		C192.7,33.1,193.3,32.6,194,32.1z"/>
</g>
<g>
	<path class="st5" d="M182,50.9c1.1,0.3,2.1,0.5,3.2,0.9c2.6,0.9,4.7,2.4,6.5,4.3c1.2,1.2,2.4,2.5,3.6,3.7c0.1,0,0.2,0,0.2-0.1
		c0-1,0-2.1,0-3.1c0-0.7,0.1-1,0.9-1c1.8,0.1,1.5-0.2,1.5,1.5c0,2,0,4.1,0,6.1c0,0.5-0.1,0.8-0.7,0.8c-2.3,0-4.7,0-7,0
		c-0.6,0-0.7-0.2-0.7-0.8c0-2-0.2-1.6,1.6-1.7c0.8,0,1.6,0,2.4,0c0.1-0.1,0.1-0.2,0.2-0.2c-0.4-0.4-0.9-0.8-1.3-1.2
		c-1.6-1.5-3-3.2-4.8-4.5c-6-4.4-15-2.6-18.9,3.8c-4.8,8.1-0.7,17.9,8.5,19.9c4.6,1,8.7-0.3,12-3.6c4.9-4.7,9.6-9.6,14.5-14.4
		c0.3-0.3,0.6-0.5,0.9-0.8c0.4,0.8,0.2,1.8,0.6,2.7c-3.5,3.5-7,7-10.5,10.5c-1.8,1.8-3.5,3.6-5.5,5.2c-8.1,6.2-20.3,2.8-23.9-6.7
		c-3.4-8.9,1.5-18.6,10.7-21c0.5-0.1,1.1-0.1,1.6-0.5C179.1,50.9,180.5,50.9,182,50.9z"/>
	<path class="st5" d="M205.3,63.4c-0.4-0.8-0.2-1.8-0.6-2.7c0,0,0,0,0,0c0.2,0,0.2-0.1,0.2-0.3c1.7-1.7,3.3-3.3,5-5
		c2.4-2.4,5.2-3.8,8.5-4.4c0.2,0,0.4,0,0.5-0.2c1.4,0,2.7,0,4.1,0c0.1,0.2,0.2,0.2,0.4,0.2c6.3,1.2,10.5,4.9,12.6,10.9
		c0.3,0.8,0.4,1.6,0.7,2.5c0,1.4,0,2.9,0,4.3c-0.4,0.6-0.4,1.3-0.5,1.9c-3.1,11.1-16.8,15.2-25.4,7.6c-1.9-1.6-3.5-3.5-5.3-5.2
		c0.3-1,0-2,0.2-3c1.3,0.8,2.1,2,3.2,3c1,0.9,1.8,1.9,2.8,2.8c3.8,3.6,8.3,4.9,13.3,3.3c4.9-1.5,7.9-4.9,9.1-9.9
		c1.7-7.2-3.6-14.7-10.9-15.7c-4.5-0.6-8.4,0.7-11.6,3.9C209.3,59.4,207.3,61.4,205.3,63.4z"/>
	<path class="st5" d="M205.4,70c-0.2,1,0.1,2-0.2,3c-0.9-0.9-1.9-1.8-2.8-2.7c-0.3-0.3-0.3-0.5,0-0.7c1.7-1.5,1-1.8,2.8,0.1
		C205.3,69.8,205.2,70,205.4,70L205.4,70z"/>
	<path class="st5" d="M215.6,63.7c1.8,0,3,1.2,3,2.9c0,1.8-1.3,3.1-3.1,3.1c-1.8,0-3-1.3-3-3.1C212.7,64.8,213.8,63.7,215.6,63.7z
		 M217.5,66.7c-0.1-1.3-0.7-2.2-1.9-2.1c-1.2,0-1.9,0.8-1.9,2.1c0,1.3,0.9,2.3,2,2.2C217,68.7,217.5,67.8,217.5,66.7z"/>
	<path class="st5" d="M228.3,64.6c-0.5,0-0.8-0.1-1,0c-0.4,0.1-0.9,0.1-1,0.7c-0.1,0.6,0.4,0.7,0.8,0.8c0.5,0.1,1,0.3,1.4,0.4
		c0.6,0.2,1.1,0.7,1,1.4c0,0.7-0.4,1.3-1.1,1.5c-1,0.4-2,0.2-3-0.1c-0.3-0.1-0.5-0.3-0.4-0.6c0.1-0.3,0.4-0.3,0.7-0.2
		c0.9,0.3,2.2,0.7,2.5-0.3c0.3-1.2-1.2-0.9-2-1.3c-0.8-0.4-1.4-0.8-1.3-1.7c0.1-1,0.8-1.4,1.7-1.5c0.4,0,0.9,0,1.3,0
		c0.4,0.1,1.1,0,1,0.6C229.1,65.1,228.5,64.5,228.3,64.6z"/>
	<path class="st5" d="M219.7,66.6c0-0.1,0-0.2,0-0.3c0-2.6,0.5-3,3-2.5c1.1,0.2,1.8,0.8,1.7,2c-0.1,1-0.8,1.6-1.8,1.6
		c-1,0-2.1-0.1-1.8,1.5c0.1,0.3-0.1,0.6-0.5,0.6c-0.4,0-0.6-0.3-0.6-0.7C219.7,68.1,219.7,67.3,219.7,66.6
		C219.7,66.6,219.7,66.6,219.7,66.6z M221.8,66.6c0.7-0.1,1.4-0.1,1.4-1c0-1-0.9-1-1.6-1.1c-0.8-0.1-0.9,0.4-0.9,1.1
		C220.7,66.4,221,66.8,221.8,66.6z"/>
	<path class="st5" d="M205.4,70c-0.2-0.1-0.2-0.2-0.2-0.4C205.4,69.8,205.5,69.9,205.4,70z"/>
	<path class="st5" d="M171,66.6c0.2-1.2-0.7-3,1.8-2.8c2.2,0.2,3.4,1,3.4,2.9c0,1.8-1.4,2.9-3.6,2.9C170.2,69.5,171.4,67.6,171,66.6
		z M172.1,66.7c0.5,0.5-0.7,2,1.1,1.9c1.2-0.1,2-0.8,2-2c0-1.2-0.6-2-1.9-2C171.6,64.6,172.5,65.9,172.1,66.7z"/>
	<path class="st5" d="M181.3,69.2c-1,0.6-2.2,0.3-3.3,0.3c-0.5,0-0.7-0.5-0.8-0.9c0-1.2,0-2.5,0-3.8c0-0.7,0.4-1,1-1
		c0.2,0,0.4,0,0.7,0c0.8,0.1,2.3-0.4,2.3,0.4c0.1,0.9-1.3,0.3-2,0.4c-0.5,0.1-0.8,0.2-0.8,0.8c0,0.6,0.4,0.6,0.9,0.7
		c0.6,0.1,1.6-0.4,1.6,0.5c0,0.7-1.1,0.3-1.7,0.4c-0.5,0.1-0.8,0.3-0.8,0.8c0,0.6,0.2,0.9,0.8,0.9c0.7,0,1.4,0,2,0
		C181.3,68.8,181.3,69,181.3,69.2z"/>
	<path class="st5" d="M184.8,68.2c0.6-1.5,1.1-2.6,1.6-3.8c0.1-0.3,0.3-0.6,0.7-0.4c0.3,0.1,0.3,0.5,0.1,0.7
		c-0.6,1.4-1.1,2.8-1.8,4.2c-0.3,0.6-1,0.9-1.4,0.1c-0.7-1.4-1.3-2.9-1.9-4.3c-0.1-0.3-0.2-0.7,0.3-0.8c0.4-0.1,0.6,0.3,0.7,0.5
		C183.7,65.6,184.2,66.7,184.8,68.2z"/>
	<path class="st5" d="M204.9,60.4c0,0.1,0,0.3-0.2,0.3C204.7,60.6,204.8,60.5,204.9,60.4z"/>
</g>
<g>
	<path class="st24" d="M92.7,167.9c3.6,1.6,8.2-0.2,9.8-3.9c1.7-3.9,0.1-8.5-3.8-10.1c-4-1.7-8.3-0.1-10.1,3.9
		C87,161.7,88.5,166,92.7,167.9z"/>
	<path class="st25" d="M95,153.2l-0.9,0.4c0,0-2.9,12-0.8,14.4s0,0,0,0l2.2,0.6L95,153.2"/>
	<g>
		<defs>
			<path id="SVGID_9_" d="M257,164.7l-0.1,1.2c-0.3,4.8-1.1,8.5-2.9,12.9l-0.4,1.1l-37.8-9.8l3.2-14L257,164.7z"/>
		</defs>
		<clipPath id="SVGID_2_">
			<use xlink:href="#SVGID_9_"  style="overflow:visible;"/>
		</clipPath>
		<path class="st26" d="M257,164.7l-0.1,1.2c-0.3,4.8-1.1,8.5-2.9,12.9l-0.4,1.1l-37.8-9.8l3.2-14L257,164.7z"/>
		<line class="st27" x1="248.9" y1="163.1" x2="244.9" y2="177.9"/>
		<line class="st27" x1="242.5" y1="161.4" x2="238.5" y2="176.2"/>
		<line class="st27" x1="236" y1="159.6" x2="232" y2="174.4"/>
		<line class="st27" x1="229.6" y1="157.9" x2="225.6" y2="172.7"/>
		<line class="st27" x1="222.8" y1="157.2" x2="218.9" y2="171.5"/>
	</g>
	<polygon class="st28" points="257.1,164.5 252.6,163.8 249.4,175.4 222.8,165.1 222.3,171.8 248.6,178.6 248.6,178.5 253,179.7 	
		"/>
	<g>
		<defs>
			<path id="SVGID_11_" d="M240.5,161c-0.2,0-14.9-3.5-14.9-3.5l-4.7,6.2l9.7,4l10.3-4.8L240.5,161z"/>
		</defs>
		<clipPath id="SVGID_4_">
			<use xlink:href="#SVGID_11_"  style="overflow:visible;"/>
		</clipPath>
		<path class="st29" d="M235.1,158.1c-0.1,0-0.1,0.1-0.2,0.1l-9.4-1.4l-2.1,7.7l0.4,0.8l1.4,0.2c0.2-0.2,6.3,0.2,6.3,0.2l1.6-2.6
			c1,1.3,3.3,1.2,5.3-0.1c2-1.4,3-3.6,2-5C239.6,156.7,237.2,156.7,235.1,158.1z"/>
	</g>
	<path class="st30" d="M292.5,170.1l-0.2,1.6c-1,6.5-2.3,11.6-4.8,17.7l-0.6,1.5l-36.6-9.9l5.2-19.2L292.5,170.1z"/>
	<path class="st17" d="M274.2,187.5c3.2-6.7-3.6-8.3-3.6-8.3l-0.5-14.6l18.9,4.5l-2.1,21.7L274.2,187.5z"/>
	<path class="st31" d="M281.2,168.2c-0.2,3.5-0.5,16.3,7.5,19.2l1.8-18l-8.4-1.9C281.7,167.4,281.3,167.7,281.2,168.2z"/>
	<path class="st32" d="M300,193.1l-4.2-25.8c-0.2-1.5-1.6-2.5-3.1-2.2l-7.7,1.3c-1.5,0.2-2.5,1.6-2.2,3.1l3.2,19.4
		c0.8,5,5.5,8.4,10.5,7.6l1.3-0.2C299.2,196,300.2,194.6,300,193.1z"/>
	<path class="st31" d="M250.4,181l1.1-4.6l29.4,8.6c0,0,0.2,2.3,2.9,4.6l-1.3,0.2L250.4,181z"/>
	<path class="st31" d="M292.5,197l-4.8-16.6c0,0-1-3.2-3.7-3.3l0.1,2.6l2.1,15.5C286.3,195.2,288.9,197.6,292.5,197"/>
	<g>
		<path class="st17" d="M243,187.9l8,6.4c-1.9,4.2-2.9,4.6-6,7.7l-1.2,2l-30.6-25.5l7.6-11.2L243,187.9z"/>
	</g>
	<path class="st30" d="M279.4,180.9l0.4,1.5c1.5,6.4,2.1,11.6,2.1,18.1l0,1.6l-38,3.1l-2.3-19.6L279.4,180.9z"/>
	<path class="st17" d="M269.9,203.2c0.4-7.3-6-6.5-6-6.5l-3.9-13.5l16-2l5.9,20.9L269.9,203.2z"/>
	<path class="st31" d="M271.3,183.5c1.2,5.1,5.8,21.9,8.7,18.5l-2.8-21.1l-3.9,0.5C272.3,181.6,271.1,182.5,271.3,183.5z"/>
	<path class="st32" d="M292.2,203.4l-7-22.6c-0.5-1.6-2.2-2.5-3.8-2.1l-6.6,1.8c-1.6,0.4-2.5,2.1-2,3.7l5,16.1
		c1.6,5.2,7.2,8.3,12.4,6.8v0C291.8,206.7,292.7,205,292.2,203.4z"/>
	<path class="st25" d="M216.7,180.4l1.2,1.1c0,0,5.6-4.4,8.5-8.7l-4-3.8C222.5,169,216.4,180.2,216.7,180.4"/>
	<path class="st17" d="M157.5,158.1c-6-3.4-21.5-8-60.9-7.4c0,0-5.3,11.2,0.4,20.8l47.5-3.3c4.7-0.3,9.4-1,13.3-3.4l1.2-1
		C161.3,162.3,159.9,159.4,157.5,158.1z"/>
	<path class="st34" d="M108.4,170.3c-0.3-1.6-0.9-3-1.5-4.5c-0.3-0.8-0.7-1.6-1-2.4c-0.1-0.2-0.1-0.4,0-0.7c1.3-2.6,2.4-5.3,3.3-8
		c0.4-1,0.6-2.1,0.9-3.2c0-0.1,0.2-0.3,0-0.4c-0.2-0.1-0.3,0.2-0.4,0.3c-1,1.6-1.9,3.2-2.8,4.9c-1.1,2.1-1.9,4.2-2.9,6.3
		c-0.1,0.3-0.2,0.6,0,0.9c1.3,2.2,2.4,4.4,4,6.4C108.2,170,108.3,170.1,108.4,170.3z"/>
	<path class="st16" d="M108.6,170.4c-0.7-1.3-1.2-2.6-1.8-3.9c-0.5-1-0.9-2.1-1.6-3c-0.4-0.5-0.3-1.2,0-1.7c0.1-0.2,0.3-0.4,0.5-0.6
		c1.4-1.4,1.8-3.3,2.5-4.9c0.8-1.7,1.4-3.5,2.1-5.3c0.2-0.5,0.1-0.6-0.5-0.6c-4.4,0.1-8.8,0.2-13.2,0.3c-0.4,0-0.6,0.1-0.8,0.5
		c-0.3,0.9-0.7,1.8-1,2.7c-0.3,0.9-0.3,1.8-0.4,2.8c-0.2,1.6-0.6,3.1-0.5,4.7c0,1.5,0.1,3.1,0.3,4.6c0.2,1.5,0.9,2.9,1.4,4.3
		c0.2,0.5,0.4,1,0.5,1.5c0.1,0.3,0.3,0.4,0.6,0.4c3.2-0.4,6.5-0.7,9.7-1.1c0.7-0.1,1.3-0.2,2-0.2
		C108.6,170.7,108.6,170.5,108.6,170.4z"/>
	<g>
		<defs>
			<path id="SVGID_13_" d="M161.3,161.6c0,0-2.8-11.8-64.7-10.8c0,0-5.3,11.2,0.4,20.8l40.2-4.2L161.3,161.6z"/>
		</defs>
		<clipPath id="SVGID_6_">
			<use xlink:href="#SVGID_13_"  style="overflow:visible;"/>
		</clipPath>
	</g>
	<path class="st16" d="M222.6,167.7L222.6,167.7c-1.6,8.6-9,14.5-16.9,13.5l-46.6-5.9c-4.8-0.6-8-5.5-7.1-10.7l3.4-19
		c2.7-5.3,8-7.8,12.7-6.7l43.4,10.1C219.3,151,224.1,159.1,222.6,167.7z"/>
	<path class="st25" d="M151.9,167.5l-3.4,0.2l-1.1-8l12.3-10.1c1.4,4.7-4.2,11.9-6.6,16.2L151.9,167.5z"/>
	<path class="st17" d="M159.4,152.5l-0.5,1.6c-1.2,4-5.4,6.3-9.5,5.1l-6-1.8l4.8-16.2l6,1.8C158.3,144.2,160.6,148.5,159.4,152.5z"
		/>
	<path class="st30" d="M137.3,158.1c-1.8-1.1-3.8-2.3-5.2-3.8c-2.7-2.8-5.5-5.5-8.2-8.3c-1.2-1.2-2.4-2.4-3.5-3.8
		c-2-2.4-3-5.1-2.2-8.3c0.1-0.5-0.2-0.7-0.6-0.9c-4.1-1.9-8-4.2-11.6-6.9c-2.1-1.6-3.9-3.6-5.3-5.8c-2.2-3.3-1.4-7.7,1.7-9.6
		c1.1-0.7,2.3-0.7,3.5-0.4c1.7,0.4,3.1,1.3,4.5,2.4c5,3.9,9.3,8.4,12.7,13.8c0.1,0.1,0.2,0.2,0.3,0.3c1-0.9,2-1.8,3-2.5
		c1-0.8,2.2-1.4,3.3-2.1c-0.5-0.6-0.9-1.3-1.5-2c-2.4-3-4.4-6.3-6-9.8c-1.1-2.4-2.2-4.7-2.7-7.3c-0.2-0.8-0.2-1.6-0.2-2.5
		c0-2.2,1.1-3.7,3.1-4.4c2.8-1.1,6.2,0,8.1,2.5c2.8,3.5,4.3,7.6,5.3,11.9c0.6,2.6,1,5.3,1.5,8c0.1,0.5,0.3,0.7,0.7,0.7
		c3.3,0.2,5.6,2,7.2,4.8c2.3,4.1,4.4,8.2,6.6,12.3c1.3,2.4,2.5,4.8,3.1,7.4c0.1,0.2,0.1,0.4,0.1,0.6c-1.3-0.5-2.6-1.1-3.9-1.6
		c-2.3-0.8-4.6-1-7-0.7c-2.9,0.4-4.9,1.8-6.2,4.4c-1.6,3.4-1.7,6.6-1,10.3C137.2,157.2,137.3,157.9,137.3,158.1z"/>
	<path class="st0" d="M121.1,142.1c1.7-3.1,3.7-4.4,6.2-4c3.5,0.5,6,3.1,6.6,6.6c0.4,2.7-1,5.1-3.5,6.1c-0.8,0.3-1.5,0.3-2.1-0.4
		c-2.3-2.5-4.7-4.9-7.1-7.3C121.1,142.8,121.1,142.4,121.1,142.1z"/>
	<path class="st0" d="M145.3,124.4c0.6,0.4,0.9,1.1,1.2,1.7c1.4,2.6,2.8,5.3,4.3,7.9c0.4,0.6,0.3,1.1-0.1,1.8
		c-1.7,2.6-5,3.2-7.7,1.5c-3-1.9-4.2-6-2.8-9.3c0.6-1.5,1.7-2.6,3.3-3.1c0.2-0.1,0.6-0.1,0.7-0.4
		C144.5,124.4,144.9,124.4,145.3,124.4z"/>
	<path class="st17" d="M122.9,118.4c1.8,2.5,3.6,5,5.4,7.5c0.9,1.3,1.9,2.6,2.8,3.9c0.1,0.2,0.2,0.2,0,0.4c-0.9,0.6-0.9,0.6-1.6-0.3
		c-1.1-1.5-2.2-3-3.3-4.5c-1.5-2-2.9-4-4.4-6c0,0,0-0.1-0.1-0.2C122.2,119,122.7,118.9,122.9,118.4z"/>
	<path class="st36" d="M120.9,118.4c-0.2,0.5-0.7,0.6-1.1,0.9c-1.2,0.3-2.4-0.5-2.5-2c0-0.8,0.9-1.7,1.8-1.8c0.9-0.1,1.9,0.7,2,1.6
		C121.2,117.6,121.2,118,120.9,118.4z"/>
	<circle class="st32" cx="126.6" cy="124.8" r="3.8"/>
	<path class="st32" d="M150.3,157.6c-1,0.6-2.4,1.5-3.8,2.2c-2,0.9-4.2,0.9-6.3,0.3c-2.1-0.6-3.2-2-3.7-4.1
		c-0.7-2.8-0.5-5.6,0.6-8.3c0.5-1.2,1.1-2.4,1.7-3.5c0.7-1.3,1.9-2,3.4-2.3c4-0.9,7.8-0.7,11.3,1.3c0.7,0.4,1.3,0.8,1.9,1.4
		c0.8,0.8,1.2,1.9,1.2,3.1c0.1,2.8-0.9,5.2-2.9,7.1C152.6,155.7,151.6,156.5,150.3,157.6z"/>
	<path class="st17" d="M129.4,106.5c1.1,3.1,1.6,6.3,1.7,9.6c0,0.6-0.1,1.1-0.2,1.7c-0.1,0.6-0.7,0.8-1.2,0.4
		c-0.8-0.7-1.6-1.4-2.3-2.2c-2.1-2.5-3.6-5.5-4.9-8.5c-0.6-1.5-1.1-3.2-1.1-4.8c0-0.9,0.3-1.7,1.1-2.2c0.9-0.5,1.9-0.6,2.9,0
		c1.5,0.8,2.2,2.2,2.9,3.6C128.8,104.9,129.1,105.7,129.4,106.5z"/>
	<path class="st17" d="M103.8,118.9c-0.3-1.3-0.5-2.1,0.1-3c0.8-1.4,2.1-1.5,3.3-1c2.4,0.8,4.2,2.5,6,4.2c1.9,1.8,3.6,3.8,4.9,6
		c0.4,0.7,0.7,1.4,1,2.2c0.3,0.6-0.1,1.2-0.9,1c-1.3-0.4-2.7-0.7-4-1.3c-3.5-1.5-6.6-3.5-9.1-6.3C104.4,120.1,104,119.3,103.8,118.9
		z"/>
	<g>
		<path class="st17" d="M139.9,150.6c-0.4-0.5-0.3-1.4,0.2-1.8c0.4-0.5,1-0.5,1.5-0.2c0.2,0.1,0.3,0.3,0.5,0.5
			c0.5,0.5,1.1,0.9,1.8,1.1c0,0,0.1,0,0.1,0.1c0,0.1,0.1,0.1,0.1,0.1c0.1,0,0.2,0.1,0.3,0.1c0.1,0,0.1,0.1,0.1,0.2
			c0,0.1-0.1,0.2-0.3,0.3c-0.6,0.2-1.1,0.2-1.7,0.3c-0.5,0.1-0.9,0.1-1.4,0c-0.4-0.1-0.8-0.1-1.1-0.4
			C140,150.8,139.9,150.7,139.9,150.6z"/>
		<path class="st17" d="M145.8,144.6c0.2-0.1,0.4-0.2,0.6-0.2c0.3,0,0.5,0,0.8,0.1c0.3,0.1,0.4,0.3,0.6,0.5c0.3,0.5,0.3,1,0.1,1.5
			c-0.2,0.8-0.6,1.6-1,2.3c-0.1,0.1-0.1,0.2-0.2,0.3c0,0.1-0.1,0.1-0.1,0.1c-0.1,0.1-0.2,0.1-0.3,0c-0.1,0-0.1-0.2-0.1-0.3
			c0-0.4,0-0.8-0.1-1.1c-0.1-0.6-0.3-1.1-0.6-1.6c-0.2-0.2-0.3-0.5-0.2-0.8C145.3,145.1,145.5,144.8,145.8,144.6z"/>
	</g>
	<path class="st17" d="M133.4,124.4c-0.3-0.4-0.7-0.7-1.1-1.1l0,0c-1-0.8-2.5-1-3.8-0.6c-2.6,0.8-4.6,2.5-5.9,5.1
		c0,0.1-0.1,0.2-0.1,0.3c-0.3,1,0.2,2,1,2.4c0.5,0.3,1.1,0.5,1.8,0.5c0.6,0,1.1,0.8,1.6,1.3c0.1,0.1,0.2,0.3,0.3,0.5
		c0.7-0.8,0.8-1.6,0.5-2.4c1.5-0.2,2.8,0.7,3.6,2.3c0.1,0,0.1-0.1,0.2-0.1c0,0,0,0,0.1,0c0.2-0.6,0.2-1.5,0-2.6l0.7,1
		c0.1,0,0.1,0,0.2-0.1c-0.1-1.1-0.2-2.1-0.4-3.2c0.2,0.2,0.4,0.4,0.7,0.7c0.4-1.2,0.4-2.3,0-3.5c0.4,0.2,0.7,0.5,1.1,0.8
		C133.8,125.3,133.7,124.8,133.4,124.4z"/>
	<path class="st17" d="M147.5,135.1c-0.4,0.3-0.7,0.5-1.2,0.6c-0.8,0.3-1.6,0.2-2.3-0.3c-0.7-0.5-1.3-1.1-1.6-1.8
		c-0.4-1-0.2-2,0.4-2.9c0.3-0.5,0.7-0.8,1.3-1.1c0.5-0.2,1,0.1,0.9,0.7c0,0.2,0,0.3-0.1,0.4c0,0.5,0.2,0.8,0.7,1
		c0.5,0.2,0.9,0.1,1.2-0.3c0.1-0.1,0.1-0.2,0.2-0.3c0.1-0.1,0.1-0.2,0.2-0.3c0.3-0.4,0.7-0.4,1-0.1c0.3,0.3,0.4,0.7,0.5,1.1
		c0.2,1,0.1,2-0.6,2.8C148,134.8,147.7,134.9,147.5,135.1z"/>
	<path class="st17" d="M130.4,147.6c0.4-0.3,0.7-0.5,1-0.9c0.5-0.7,0.6-1.4,0.4-2.2c-0.2-0.8-0.6-1.5-1.3-2.1
		c-0.8-0.7-1.8-0.8-2.9-0.5c-0.6,0.2-1,0.4-1.4,0.9c-0.4,0.4-0.2,1,0.3,1.1c0.1,0,0.3,0,0.4,0.1c0.5,0.1,0.7,0.4,0.7,0.9
		c0,0.5-0.2,0.9-0.7,1.1c-0.1,0-0.3,0.1-0.4,0.1c-0.1,0-0.2,0-0.3,0.1c-0.5,0.1-0.6,0.5-0.4,1c0.2,0.4,0.5,0.6,0.9,0.8
		c0.9,0.6,1.9,0.7,2.9,0.3C130,147.9,130.2,147.7,130.4,147.6z"/>
	<path class="st37" d="M147.7,153.3c-2.1,1.5-4.4,2.1-6.2,1.8c1.7,1.8,4.9,1.8,7.5,0s3.6-5,2.3-7.1
		C151.1,149.7,149.8,151.7,147.7,153.3z"/>
	<path class="st25" d="M161.7,157.7c0,0-0.5,5.8,14.7,7c15.2,1.2,47.5,3,47.5,3l-0.2-5L161.7,157.7z"/>
	<path class="st43" d="M179.5,174.1c-0.6-0.1-1.3-0.3-1.9-0.4c-0.2,0-0.1-0.2-0.1-0.3c0.5-2.2,0.9-4.4,1.4-6.7
		c0.6-2.7,1.1-5.4,1.7-8.1c0.1-0.6,0.2-1.2,0.4-1.8c0.1-0.2,0.1-0.3,0.4-0.3c0.6,0.2,1.1,0.2,1.7,0.4c0.2,0.1,0.2,0.1,0.2,0.3
		c-0.4,1.8-0.8,3.6-1.2,5.4c-0.5,2.2-0.9,4.5-1.4,6.7c-0.3,1.4-0.6,2.9-0.9,4.3C179.8,173.9,179.9,174.2,179.5,174.1z"/>
	<path class="st44" d="M208.7,153.9c-0.4,2.3-0.8,4.6-1.2,6.9c-0.4,2.1-0.7,4.1-1.1,6.2c-0.4,2.1-0.8,4.2-1.1,6.3
		c-0.4,2.1-0.7,4.2-1.1,6.3c-0.1,0.5-0.2,1-0.3,1.5c0,0.2-0.1,0.3-0.4,0.3c-0.9-0.2-1.8-0.3-2.7-0.5c-0.2,0-0.3-0.1-0.3-0.4
		c0.7-3.7,1.3-7.5,2-11.2c0.5-2.8,1-5.6,1.5-8.4c0.4-2.4,0.9-4.9,1.3-7.3c0-0.2,0.1-0.4,0.3-0.3c0.9,0.2,1.9,0.3,2.8,0.5
		C208.6,153.7,208.9,153.7,208.7,153.9z"/>
	<path class="st34" d="M214.4,163.7c0.3-1.8,0.8-3.6,1.3-5.4c0.3-0.9,0.6-1.9,0.9-2.8c0.1-0.3,0.1-0.5,0-0.8c-1.5-3-2.7-6-3.8-9.1
		c-0.4-1.2-0.8-2.4-1.1-3.7c0-0.2-0.2-0.4,0-0.5c0.2-0.1,0.3,0.2,0.4,0.3c1.1,1.8,2.1,3.6,3.1,5.5c1.2,2.3,2.2,4.7,3.2,7.1
		c0.2,0.4,0.2,0.7,0,1.1c-1.2,2.6-2.3,5.3-3.8,7.8C214.6,163.4,214.5,163.5,214.4,163.7z"/>
	<g>
		<defs>
			<path id="SVGID_15_" d="M159.4,157.2c0,0,2.4-14,66.2-17.1c0,0,6,12.7,0.6,24.3l-41.6-2.1L159.4,157.2z"/>
		</defs>
		<clipPath id="SVGID_8_">
			<use xlink:href="#SVGID_15_"  style="overflow:visible;"/>
		</clipPath>
	</g>
	<path class="st32" d="M156.9,144c0,0,14.1-13.2,45-13.2c30.2,0,34.2-4.5,43.4-6.9c10.4-2.7,39.1-4.5,39.1-4.5s-7.8,8.4-8.6,14.6
		c-0.7,6.2-0.1,7.2-4.1,7.1c-20.2-0.4-60.9-1.4-76.7,2.5S176.5,141.9,156.9,144z"/>
	<path class="st24" d="M230.8,158.1c-3.5,1.9-8.2,0.4-10.1-3.3c-2-3.8-0.6-8.4,3.2-10.4c3.9-2,8.3-0.6,10.3,3.3
		C236.1,151.5,234.9,156,230.8,158.1z"/>
	<polyline class="st25" points="243.7,204 242.2,202.9 238.1,183.3 241.7,186.8 243.7,204 	"/>
	<path class="st25" d="M227.6,143.6l1,0.3c0,0,3.7,11.8,1.7,14.4c-2,2.6,0,0,0,0l-2.1,0.7L227.6,143.6"/>
	<path class="st17" d="M163.2,152.8c6-4.4,21.8-10.8,62.5-12.8c0,0,6,12.7,0.6,24.3l-49.1-0.6c-4.8-0.1-9.6-1.5-13.7-4v0
		C160.9,158.1,160.8,154.6,163.2,152.8z"/>
	<path class="st16" d="M227.5,143.6c-0.4-1-0.8-2-1.2-3c-0.2-0.4-0.4-0.6-0.8-0.6c-4.5,0.2-9.1,0.4-13.6,0.6c-0.6,0-0.7,0.2-0.5,0.7
		c0.4,1,0.8,2,1.2,2.9l3.5,10.6l-2.2,9.5l0.2-0.4c0,0.1,0,0.3,0.1,0.3c0.7-0.1,1.4,0,2.1,0.1c3.3,0.3,6.8,0.3,10.1,0.6
		c0.4,0,0.5-0.1,0.6-0.5c0.1-0.6,0.3-1.2,0.5-1.8c0.4-1.7,1.1-3.4,1.2-5.1c0.2-1.8,0.1-3.6,0.1-5.3c0-1.8-0.5-3.6-0.7-5.4
		C227.9,145.7,227.9,144.6,227.5,143.6z"/>
	<path class="st44" d="M195.4,116.6c-0.5,0.6-1.1,1-1.9,1.1c-3,0.4-6,0.8-9,1.2c-0.8,0.1-1.5,0.3-2.3,0.1c-1.2-0.3-2.2-1.3-2.4-2.6
		c-0.3-2.4-0.7-4.9-1-7.3c-0.1-0.9-0.2-1.8-0.4-2.7c-0.3-1.8,0.9-3.5,3-3.7c3.2-0.4,6.3-0.8,9.5-1.2c0.8-0.1,1.6-0.1,2.3,0.4
		c-0.6,0.5-1.4,0.7-2.1,1.1c-1.4,0.7-2.8,1.3-4.1,2c-0.1,0.1-0.1,0.1,0,0.2c-0.7,0.2-1.4,0.2-2,0.4c-0.6,0.2-1.2,0.2-1.8,0.4
		c-0.2,0.1-0.6,0.1-0.6,0.6c0,0.1,0,0.2,0,0.3c0.2,1.8,0.4,3.6,0.7,5.5c0.1,0.7,0.1,1.5,0.4,2.2c0.1,0.3,0.4,0.2,0.6,0.3
		c1.2,0.1,2.5-0.1,3.7-0.2c0,0.3,0.3,0.3,0.4,0.3c1.4,0.4,2.9,0.8,4.3,1.2C193.6,116.2,194.5,116.5,195.4,116.6z"/>
	<path class="st44" d="M191,135.3c-0.7,0.9-1.7,1-2.7,1.2c-2.6,0.3-5.3,0.7-7.9,1.1c-0.8,0.1-1.6,0.4-2.4,0.2
		c-1.7-0.4-2.4-1.4-2.6-3.1c-0.3-2.4-0.6-4.7-0.9-7.1c-0.1-1-0.3-2-0.4-3c-0.1-1.5,0.9-3,2.7-3.2c3.3-0.5,6.7-0.9,10-1.4
		c0.7-0.1,1.4,0,2.1,0.4c0,0.1,0,0.2-0.1,0.2c-0.6,0.3-1.2,0.6-1.8,0.9c-1.5,0.7-2.9,1.4-4.4,2.1c-0.1,0-0.1,0.1-0.1,0.2
		c0,0,0,0,0,0c0,0-0.1,0.1-0.1,0.1c-1.2,0.1-2.4,0.4-3.6,0.7c-0.3,0.1-0.6,0.2-0.5,0.6c0.4,2.6,0.7,5.3,1.1,7.9
		c0.2,0.3,0.5,0.3,0.8,0.3c1.1,0,2.2-0.1,3.3-0.2c0.2,0.2,0.4,0.2,0.7,0.3c1.4,0.4,2.7,0.7,4.1,1.1C189.1,134.8,190,135.1,191,135.3
		z"/>
	<path class="st44" d="M208.3,133.1c-0.5,0.6-1.2,0.8-2,1c-2.4,0.3-4.8,0.6-7.2,1c-1,0.1-2.1,0.4-3.1,0.4c-1.7,0.1-3-1.2-3.2-3
		c-0.3-2.6-0.7-5.2-1-7.8c-0.1-1-0.4-1.9-0.2-3c0.2-1.2,1.2-2.3,2.3-2.5c1.3-0.2,2.6-0.4,4-0.6c1.5-0.2,3.1-0.4,4.6-0.6
		c0.7-0.1,1.5-0.2,2.2-0.3c0.6,0,1.2,0.1,1.7,0.5c-1,0.5-2,1-3,1.5c-1.2,0.6-2.5,1.1-3.6,1.8c-0.1,0-0.2,0.1-0.3,0.1
		c-1.1,0.2-2.3,0.4-3.3,0.8c-0.2,0.1-0.5,0.1-0.4,0.5c0.3,2.1,0.5,4.2,0.9,6.4c0.1,0.5,0,1.1,0.3,1.6c0,0.2,0.2,0.1,0.3,0.2
		c1.2,0.2,2.4-0.1,3.6-0.2c0,0.1,0.1,0.1,0.2,0.2c2.3,0.6,4.6,1.2,6.9,1.9C208,132.8,208.2,132.8,208.3,133.1z"/>
	<path class="st46" d="M208.3,133.1c-0.1-0.2-0.3-0.2-0.5-0.3c-2.3-0.6-4.6-1.3-6.9-1.9c-0.1,0-0.1-0.1-0.2-0.2
		c1.2-0.1,2.3-0.4,3.5-0.7c0.3-0.1,0.6-0.1,0.7-0.5c-0.2-1.6-0.4-3.2-0.6-4.7c-0.2-1.1-0.2-2.2-0.5-3.3c-0.1-0.2-0.2-0.2-0.4-0.2
		c-0.6-0.1-1.2,0-1.8,0c-0.7,0-1.3,0.2-2,0.1c1.2-0.7,2.4-1.2,3.6-1.8c1-0.5,2-1,3-1.5c0.8,0.4,1.2,1,1.4,1.9c0.2,1.3,0.4,2.6,0.6,4
		c0.3,2.3,0.6,4.5,0.9,6.8C209.3,131.7,209,132.5,208.3,133.1z"/>
	<path class="st46" d="M191,135.3c-1-0.3-1.9-0.5-2.9-0.8c-1.4-0.4-2.7-0.7-4.1-1.1c-0.2-0.1-0.5-0.1-0.7-0.3
		c0.1-0.1,0.2-0.1,0.3-0.1c1.2-0.1,2.3-0.4,3.4-0.7c0.2-0.1,0.5-0.1,0.4-0.5c-0.2-1.6-0.4-3.2-0.6-4.8c-0.1-1-0.3-2-0.4-3
		c0-0.4-0.3-0.4-0.6-0.4c-1.1-0.1-2.3,0-3.4,0.1c0-0.1,0-0.2,0.1-0.2c1.5-0.7,2.9-1.4,4.4-2.1c0.6-0.3,1.2-0.6,1.8-0.9
		c0.1,0,0.1-0.1,0.1-0.2c1,0.6,1.4,1.5,1.6,2.5c0.4,2.9,0.8,5.7,1.1,8.6c0.1,0.6,0.2,1.3,0.2,2C191.7,134.2,191.5,134.8,191,135.3z"
		/>
	<path class="st46" d="M187,105.1c-0.1-0.1-0.1-0.1,0-0.2c1.4-0.7,2.8-1.3,4.1-2c0.7-0.4,1.5-0.5,2.1-1.1c1,0.5,1.4,1.4,1.5,2.4
		c0.4,2.8,0.8,5.7,1.2,8.5c0.1,0.9,0.4,1.7,0.2,2.6c-0.1,0.5-0.3,1-0.7,1.3c-0.9-0.1-1.7-0.4-2.6-0.7c-1.4-0.4-2.9-0.8-4.3-1.2
		c-0.2,0-0.4,0-0.4-0.3c0.1,0,0.1,0,0.2-0.1c1.1-0.2,2.2-0.3,3.3-0.7c0.2-0.1,0.4-0.1,0.4-0.4c0-1-0.2-2.1-0.4-3.1
		c-0.2-1.6-0.4-3.2-0.7-4.9c-0.1-0.3-0.3-0.3-0.6-0.3C189.1,104.9,188,105,187,105.1z"/>
	<path class="st32" d="M183.7,178.6c-1.7-0.2-3.4-0.4-5-0.6c-1.4-0.2-2.8-0.3-4.2-0.5c-1-0.1-2-0.3-2.9-0.4c0.4-1.2,1.1-2.2,2.1-3
		c2.1-1.8,5.5-1.8,7.7,0C182.8,175.2,183.6,176.7,183.7,178.6z"/>
	<path class="st44" d="M183.7,178.6c0-1.9-0.9-3.5-2.3-4.6c-2.3-1.8-5.6-1.7-7.7,0c-1,0.8-1.7,1.8-2.1,3c-0.6-0.1-1.2-0.2-1.8-0.2
		c-0.3,0-0.2-0.1-0.2-0.3c0.3-0.9,0.7-1.8,1.2-2.5c0.8-1.1,1.8-1.9,3.1-2.5c1.8-0.8,3.6-1,5.5-0.6c1.8,0.4,3.3,1.3,4.5,2.8
		c1.2,1.4,1.8,3,1.8,4.8c0,0.2,0,0.4-0.3,0.4C184.8,178.8,184.2,178.7,183.7,178.6z"/>
	<path class="st47" d="M190.8,105.3c0.2,1.6,0.5,3.2,0.7,4.9c0.1,1,0.3,2.1,0.4,3.1c-0.2-0.1-0.5-0.2-0.7-0.1
		c-1.8,0.1-3.5,0.2-5.3,0.6c-0.7,0.2-1.5,0.3-2.1,0.7c-0.3-0.7-0.3-1.4-0.4-2.2c-0.3-1.8-0.5-3.6-0.7-5.5c0-0.1,0-0.2,0-0.3
		C185.4,106.7,188.1,106.3,190.8,105.3z M186.7,112.2c0.7-0.1,1.2-0.2,1.8-0.3c0.1,0,0.2-0.1,0.2-0.1c0.3-0.6,0.8-1.1,0.9-1.7
		c0.1-0.4-0.3-0.8-0.4-1.3c-0.1-0.1-0.1-0.3-0.2-0.4c-0.1-0.1-0.1-0.2-0.2-0.3c-0.6-0.3-1.3-0.4-1.9-0.5c-0.3-0.1-0.6,0.4-0.9,0.5
		c-0.2,0.1-0.3,0.3-0.5,0.4c-0.3,0.2-0.4,0.5-0.4,0.8c0,0.4,0,0.8-0.1,1.2c-0.1,0.3,0.1,0.5,0.3,0.7c0.3,0.3,0.7,0.6,1,0.9
		C186.4,112.1,186.5,112.2,186.7,112.2z"/>
	<path class="st48" d="M190.8,105.3c-2.7,1-5.4,1.3-8.2,1.1c-0.1-0.4,0.3-0.5,0.6-0.6c0.6-0.2,1.2-0.3,1.8-0.4
		c0.7-0.2,1.4-0.2,2-0.4c1.1,0,2.2-0.2,3.2-0.1C190.5,105,190.7,105,190.8,105.3z"/>
	<path class="st48" d="M183.7,114.4c0.7-0.4,1.4-0.6,2.1-0.7c1.7-0.4,3.5-0.5,5.3-0.6c0.2,0,0.5,0.1,0.7,0.1c0,0.3-0.2,0.3-0.4,0.4
		c-1.1,0.4-2.2,0.5-3.3,0.7c-0.1,0-0.1,0-0.2,0.1c-1.2,0.1-2.5,0.3-3.7,0.2C184.1,114.6,183.8,114.7,183.7,114.4z"/>
	<path class="st47" d="M186.4,124c0.1,1,0.3,2,0.4,3c0.2,1.6,0.4,3.2,0.6,4.8c-0.3,0-0.6-0.1-1-0.1c-1.4,0.1-2.7,0.1-4,0.4
		c-1.1,0.2-2.2,0.3-3.2,0.9c-0.4-2.6-0.7-5.3-1.1-7.9c0.3-0.1,0.6,0.1,1,0.1c1.5,0,2.9-0.2,4.4-0.4
		C184.5,124.6,185.5,124.3,186.4,124z M182.6,130.8c0.5-0.2,1.3,0.1,1.8-0.5c0.4-0.5,0.9-1.1,0.9-1.7c0-0.6-0.3-1.4-0.8-1.9
		c-0.5-0.5-1.3-0.6-2-0.6c-0.6,0-1.2,0.6-1.6,1c-0.5,0.5-0.2,1.3-0.3,2C180.5,129.6,181.9,130.8,182.6,130.8z"/>
	<path class="st48" d="M184.4,124c-1,0.3-1.9,0.6-2.9,0.7c-1.5,0.2-2.9,0.4-4.4,0.4c-0.3,0-0.6-0.2-1-0.1c0-0.4,0.3-0.5,0.5-0.6
		c1.2-0.3,2.4-0.6,3.6-0.7c0,0,0.1-0.1,0.1-0.1c0,0,0,0,0,0c1.1-0.1,2.3-0.2,3.4-0.1C184.1,123.7,184.4,123.6,184.4,124z"/>
	<path class="st48" d="M179.3,133.1c1-0.6,2.1-0.6,3.2-0.9c1.3-0.3,2.7-0.3,4-0.4c0.3,0,0.6,0.1,1,0.1c0,0.3-0.2,0.4-0.4,0.5
		c-1.1,0.4-2.2,0.6-3.4,0.7c-0.1,0-0.2,0-0.3,0.1c-1.1,0.1-2.2,0.3-3.3,0.2C179.7,133.3,179.4,133.3,179.3,133.1z"/>
	<path class="st46" d="M180.4,123.8c0,0-0.1,0.1-0.1,0.1C180.3,123.8,180.4,123.8,180.4,123.8z"/>
	<path class="st47" d="M203.9,121.5c0.3,1.1,0.3,2.2,0.5,3.3c0.3,1.6,0.4,3.2,0.6,4.7c-0.3-0.1-0.6-0.2-1-0.2
		c-0.9,0-1.8,0.1-2.7,0.2c-1.4,0.1-2.7,0.4-4,0.8c-0.2,0.1-0.4,0-0.4,0.3c-0.3-0.5-0.2-1.1-0.3-1.6c-0.3-2.1-0.6-4.2-0.9-6.4
		c0.6,0,1.1,0.1,1.7,0.1c1.5-0.1,2.9-0.2,4.3-0.6C202.4,122.1,203.2,122.1,203.9,121.5z M198.1,126.3c0,0.8,1.2,2.2,1.8,2.1
		c0.7-0.1,1.4,0,1.9-0.5c0.5-0.4,0.9-1.1,0.9-1.7c0-0.6-0.3-1.3-0.7-1.8c-0.5-0.5-1.3-0.6-1.9-0.7c-0.7-0.1-1.2,0.6-1.7,1
		C197.9,125.2,198.3,125.9,198.1,126.3z"/>
	<path class="st48" d="M201.9,121.5c-0.6,0.5-1.4,0.6-2.2,0.7c-1.4,0.3-2.9,0.4-4.3,0.6c-0.5,0-1.1,0-1.7-0.1
		c-0.1-0.4,0.2-0.4,0.4-0.5c1.1-0.4,2.2-0.6,3.3-0.8c0.1,0,0.2-0.1,0.3-0.1c0.7,0.1,1.3-0.1,2-0.1c0.6,0,1.2-0.1,1.8,0
		C201.7,121.3,201.8,121.4,201.9,121.5z"/>
	<path class="st48" d="M196.9,130.8c0-0.3,0.3-0.3,0.4-0.3c1.3-0.4,2.7-0.6,4-0.8c0.9-0.1,1.8-0.2,2.7-0.2c0.3,0,0.7,0,1,0.2
		c-0.1,0.4-0.5,0.4-0.7,0.5c-1.1,0.3-2.3,0.5-3.5,0.7c-1.2,0.1-2.4,0.4-3.6,0.2C197.1,130.9,196.9,131,196.9,130.8z"/>
	<path class="st32" d="M186.7,112.2c-0.1,0-0.3-0.1-0.4-0.3c-0.3-0.3-0.7-0.6-1-0.9c-0.2-0.2-0.3-0.4-0.3-0.7c0.1-0.4,0-0.8,0.1-1.2
		c0-0.3,0.1-0.6,0.4-0.8c0.2-0.1,0.3-0.3,0.5-0.4c0.3-0.2,0.6-0.6,0.9-0.5c0.6,0.1,1.3,0.3,1.9,0.5c0.1,0.1,0.2,0.2,0.2,0.3
		c0.1,0.1,0.1,0.3,0.2,0.4c0.2,0.4,0.6,0.9,0.4,1.3c-0.2,0.6-0.6,1.2-0.9,1.7c0,0.1-0.2,0.1-0.2,0.1
		C187.9,112,187.3,112.1,186.7,112.2z M188.4,108.5c-0.6,0.3-1,0.2-1.6-0.4c0.1,0.4-0.2,0.5-0.4,0.7c-0.3,0.3-0.5,0.1-0.9,0.2
		c0.5,0.1,0.3,0.4,0.4,0.7c0,0.4-0.1,0.6-0.4,0.8c0.4-0.2,0.5,0.1,0.8,0.2c0.4,0.2,0.3,0.4,0.4,0.8c0-0.5,0.4-0.4,0.6-0.5
		c0.4,0,0.7-0.2,0.9-0.6c0.1-0.3,0.2-0.6,0.8-0.5C188.3,109.5,188.1,109,188.4,108.5z"/>
	<path class="st32" d="M182.6,130.8c-0.6,0-2.1-1.2-2-1.6c0.1-0.7-0.2-1.5,0.3-2c0.4-0.5,1-1,1.6-1c0.7,0,1.5,0.1,2,0.6
		c0.5,0.5,0.8,1.2,0.8,1.9c0,0.6-0.5,1.2-0.9,1.7C183.9,130.9,183.1,130.6,182.6,130.8z M182.4,130.2c0.4-0.5,0.9-0.6,1.6-0.2
		c-0.3-0.4-0.2-0.6,0-0.9c0.1-0.3,0.3-0.5,0.7-0.5c-0.4,0-0.5-0.3-0.7-0.6c-0.1-0.3-0.1-0.6,0-0.9c-0.4,0.7-0.8,0.1-1.2,0.1
		c-0.2,0-0.1-0.4-0.2-0.4c-0.3,0,0.1,0.4-0.1,0.5c-0.4,0.1-0.6,0.7-1.2,0.3c0.6,0.6,0.4,1.1,0,1.6
		C181.8,129.1,182.3,129.6,182.4,130.2z"/>
	<path class="st32" d="M198.1,126.3c0.2-0.4-0.2-1.1,0.3-1.5c0.5-0.4,1-1.1,1.7-1c0.7,0.1,1.5,0.1,1.9,0.7c0.4,0.5,0.7,1.2,0.7,1.8
		c0,0.6-0.4,1.3-0.9,1.7c-0.5,0.5-1.3,0.4-1.9,0.5C199.2,128.5,198,127.2,198.1,126.3z M198.6,126.8c0.8,0,1.2,0.4,1.2,1
		c0.3-0.5,0.9-0.6,1.6-0.2c-0.3-0.4-0.1-0.6,0-0.9c0.1-0.4,0.4-0.4,0.7-0.5c-0.7-0.2-0.9-0.7-0.7-1.5c-0.4,0.5-0.8,0.1-1.2,0.1
		c-0.2,0,0-0.4-0.3-0.4c-0.3,0,0.1,0.4-0.2,0.5c-0.4,0.1-0.6,0.7-1.1,0.4C199.2,125.7,199.2,126.4,198.6,126.8z"/>
	<path class="st49" d="M188.4,108.5c-0.3,0.5-0.1,1,0.7,1.5c-0.6-0.2-0.6,0.2-0.8,0.5c-0.2,0.4-0.5,0.6-0.9,0.6
		c-0.3,0-0.6,0-0.6,0.5c0-0.4,0-0.6-0.4-0.8c-0.3-0.1-0.4-0.4-0.8-0.2c0.3-0.2,0.4-0.4,0.4-0.8c0-0.3,0.1-0.6-0.4-0.7
		c0.3-0.1,0.6,0.1,0.9-0.2c0.2-0.2,0.5-0.3,0.4-0.7C187.4,108.7,187.8,108.8,188.4,108.5z M187.9,110c-0.1,0-0.3-0.1-0.3,0.1
		c0,0.2,0.1,0.4,0.3,0.4c0.2,0.1,0.2-0.2,0.2-0.3C188.3,110,188.1,110,187.9,110z M186.9,110.3c0-0.1-0.1-0.2-0.2-0.2
		c-0.1,0-0.3,0-0.3,0.3c0,0.2,0.2,0.3,0.3,0.3C186.9,110.7,186.8,110.4,186.9,110.3z M187.8,108.9c-0.2,0-0.4-0.3-0.6-0.1
		c-0.1,0.1,0,0.4,0.1,0.5C187.6,109.4,187.6,109.1,187.8,108.9z M188.2,109.5c0-0.1-0.1-0.2-0.3-0.2c-0.1,0-0.2,0.2-0.3,0.3
		c0,0.2,0.1,0.2,0.3,0.2C188.1,109.8,188.2,109.7,188.2,109.5z M187.3,110.3c-0.1,0.2-0.4,0.3-0.2,0.5c0.1,0.1,0.4,0,0.5-0.1
		C187.7,110.5,187.4,110.4,187.3,110.3z M186.2,110.1c0.2-0.1,0.5,0,0.5-0.3c0-0.1-0.2-0.3-0.4-0.3
		C186.1,109.6,186.2,109.8,186.2,110.1z M187,109.1c-0.1-0.1,0-0.3-0.2-0.2c-0.1,0-0.3,0.1-0.3,0.2c0,0.2,0.2,0.2,0.3,0.2
		C187,109.4,186.9,109.2,187,109.1z"/>
	<path class="st49" d="M182.4,130.2c-0.1-0.6-0.6-1.1-1.1-1c0.4-0.5,0.6-1.1,0-1.6c0.6,0.4,0.8-0.2,1.2-0.3c0.2-0.1-0.1-0.5,0.1-0.5
		c0.2,0,0,0.4,0.2,0.4c0.4,0,0.8,0.6,1.2-0.1c-0.1,0.3-0.2,0.6,0,0.9c0.1,0.3,0.2,0.6,0.7,0.6c-0.4,0.1-0.6,0.2-0.7,0.5
		c-0.1,0.3-0.3,0.5,0,0.9C183.3,129.6,182.7,129.7,182.4,130.2z M182.6,127.9c0-0.1,0-0.3-0.2-0.3c-0.2,0-0.4,0.1-0.4,0.3
		c0,0.2,0.2,0.2,0.4,0.2C182.6,128.1,182.6,128,182.6,127.9z M182.9,128.1c0.2-0.1,0.4-0.2,0.4-0.4c0-0.1-0.3-0.2-0.4-0.2
		C182.6,127.6,182.9,127.8,182.9,128.1z M183.3,129.4c-0.1-0.2-0.2-0.5-0.5-0.4c-0.1,0-0.2,0.3-0.2,0.4
		C182.9,129.7,183.1,129.4,183.3,129.4z M183.9,128.6c-0.2,0.2-0.5-0.1-0.6,0.2c0,0.1,0.1,0.4,0.2,0.4
		C183.8,129.2,183.8,128.9,183.9,128.6z M182.6,129c0-0.2-0.1-0.2-0.2-0.2c-0.1,0-0.3,0-0.3,0.2c0,0.2,0.2,0.3,0.3,0.3
		C182.5,129.4,182.5,129.1,182.6,129z M183.5,128.4c0.2,0,0.3,0.1,0.3-0.2c0-0.1-0.1-0.3-0.2-0.3c-0.2,0-0.3,0.2-0.3,0.3
		C183.3,128.4,183.4,128.3,183.5,128.4z M182,128.2c-0.2,0-0.2,0.2-0.2,0.3c0,0.1-0.1,0.3,0.1,0.2c0.2,0,0.4-0.1,0.4-0.3
		C182.3,128.3,182.2,128.2,182,128.2z"/>
	<path class="st49" d="M198.6,126.8c0.6-0.4,0.6-1.1,0.2-1.6c0.5,0.3,0.8-0.2,1.1-0.4c0.2-0.1-0.1-0.4,0.2-0.5c0.2,0,0,0.4,0.3,0.4
		c0.4,0.1,0.8,0.4,1.2-0.1c-0.3,0.7,0,1.3,0.7,1.5c-0.3,0.1-0.6,0.2-0.7,0.5c-0.1,0.3-0.3,0.5,0,0.9c-0.7-0.4-1.3-0.3-1.6,0.2
		C199.8,127.2,199.4,126.8,198.6,126.8z M200.5,125c-0.1,0.1-0.2,0-0.2,0.2c0,0.2,0,0.4,0.2,0.4c0.1,0,0.3-0.2,0.3-0.3
		C200.8,125.1,200.6,125.2,200.5,125z M200.8,126.9c-0.1-0.1-0.3-0.3-0.4-0.3c-0.2,0-0.2,0.2-0.2,0.4c0,0.1,0.1,0.2,0.2,0.1
		C200.6,127.1,200.8,127.1,200.8,126.9z M199.4,125.7c0,0.3-0.2,0.5,0,0.6c0.2,0.1,0.3-0.1,0.5-0.3
		C199.7,126,199.6,125.9,199.4,125.7z M200.1,125.4c-0.1,0,0.1-0.3-0.1-0.3c-0.1,0-0.3,0.1-0.4,0.3c0,0.2,0.2,0.2,0.3,0.3
		C200.1,125.8,200.1,125.6,200.1,125.4z M200.8,125.9c0.2,0.1,0.5,0.2,0.6,0c0.1-0.2-0.1-0.4-0.3-0.5
		C200.9,125.6,200.9,125.8,200.8,125.9z M200.7,126.3c0.1,0.2,0.1,0.5,0.4,0.5c0.2,0,0.2-0.2,0.3-0.5
		C201.1,126.3,200.9,126.3,200.7,126.3z M200,126.7c0-0.1,0.1-0.3-0.1-0.3c-0.2,0-0.4,0-0.4,0.2c0,0.2,0.2,0.2,0.3,0.3
		C200,127,200,126.9,200,126.7z"/>
	<path class="st32" d="M187.9,110c0.2,0,0.3,0,0.2,0.2c-0.1,0.1,0,0.4-0.2,0.3c-0.2,0-0.3-0.2-0.3-0.4
		C187.7,109.9,187.9,110,187.9,110z"/>
	<path class="st32" d="M186.9,110.3c-0.1,0.1,0,0.3-0.2,0.3c-0.2,0-0.3-0.1-0.3-0.3c0-0.2,0.2-0.2,0.3-0.3
		C186.9,110.1,186.9,110.2,186.9,110.3z"/>
	<path class="st32" d="M187.8,108.9c-0.2,0.1-0.2,0.5-0.4,0.4c-0.2-0.1-0.2-0.4-0.1-0.5C187.4,108.6,187.6,108.9,187.8,108.9z"/>
	<path class="st32" d="M188.2,109.5c0,0.3-0.1,0.3-0.2,0.3c-0.1,0-0.3,0-0.3-0.2c0-0.1,0.1-0.3,0.3-0.3
		C188.1,109.2,188.2,109.4,188.2,109.5z"/>
	<path class="st32" d="M187.3,110.3c0.1,0.2,0.4,0.2,0.3,0.4c-0.1,0.1-0.3,0.2-0.5,0.1C186.9,110.6,187.2,110.5,187.3,110.3z"/>
	<path class="st32" d="M186.2,110.1c0-0.2-0.1-0.5,0.1-0.6c0.1,0,0.3,0.1,0.4,0.3C186.7,110.1,186.4,110,186.2,110.1z"/>
	<path class="st32" d="M187,109.1c0,0.1,0,0.3-0.2,0.3c-0.1,0-0.3,0-0.3-0.2c0-0.2,0.2-0.2,0.3-0.2C187,108.8,186.9,109.1,187,109.1
		z"/>
	<path class="st32" d="M182.6,127.9c0,0.1,0,0.2-0.2,0.2c-0.1,0-0.4,0-0.4-0.2c0-0.2,0.2-0.3,0.4-0.3
		C182.6,127.5,182.5,127.7,182.6,127.9z"/>
	<path class="st32" d="M182.9,128.1c0-0.2-0.3-0.4,0-0.6c0.1-0.1,0.3,0,0.4,0.2C183.3,127.9,183.1,128,182.9,128.1z"/>
	<path class="st32" d="M183.3,129.4c-0.2,0-0.5,0.3-0.6,0c-0.1-0.1,0-0.4,0.2-0.4C183.1,129,183.2,129.2,183.3,129.4z"/>
	<path class="st32" d="M183.9,128.6c-0.1,0.3-0.1,0.6-0.4,0.6c-0.1,0-0.2-0.3-0.2-0.4C183.4,128.5,183.6,128.8,183.9,128.6z"/>
	<path class="st32" d="M182.6,129c-0.1,0.1,0,0.4-0.2,0.4c-0.2,0-0.3-0.2-0.3-0.3c0-0.2,0.2-0.2,0.3-0.2
		C182.5,128.8,182.6,128.8,182.6,129z"/>
	<path class="st32" d="M183.5,128.4c-0.1,0-0.3,0-0.2-0.1c0-0.2,0.1-0.4,0.3-0.3c0.1,0,0.2,0.2,0.2,0.3
		C183.8,128.4,183.7,128.4,183.5,128.4z"/>
	<path class="st32" d="M182,128.2c0.2,0,0.3,0.1,0.3,0.3c0,0.2-0.2,0.2-0.4,0.3c-0.2,0.1-0.1-0.1-0.1-0.2
		C181.8,128.3,181.8,128.2,182,128.2z"/>
	<path class="st32" d="M198.5,125c0.1,0.1,0.4,0.1,0.4,0.3c0,0.2-0.2,0.3-0.3,0.3c-0.2,0-0.2-0.3-0.2-0.4
		C198.2,125.1,198.4,125.1,198.5,125z"/>
	<path class="st32" d="M198.8,126.9c0,0.2-0.2,0.2-0.3,0.3c-0.1,0-0.3,0-0.2-0.1c0-0.1,0-0.4,0.2-0.4
		C198.5,126.6,198.7,126.8,198.8,126.9z"/>
	<path class="st32" d="M197.4,125.7c0.2,0.1,0.4,0.2,0.5,0.3c-0.1,0.2-0.3,0.3-0.5,0.3C197.2,126.2,197.3,126,197.4,125.7z"/>
	<path class="st32" d="M198.1,125.4c0,0.1,0,0.3-0.2,0.3c-0.1,0-0.3-0.1-0.3-0.3c0-0.2,0.2-0.3,0.4-0.3
		C198.2,125.1,198,125.4,198.1,125.4z"/>
	<path class="st32" d="M198.8,125.9c0.1-0.2,0.2-0.3,0.3-0.5c0.2,0.1,0.4,0.3,0.3,0.5C199.2,126.1,199,126,198.8,125.9z"/>
	<path class="st32" d="M198.7,126.3c0.2,0,0.4,0,0.6,0c0,0.2-0.1,0.4-0.3,0.5C198.8,126.8,198.8,126.5,198.7,126.3z"/>
	<path class="st32" d="M198,126.7c0,0.1,0,0.3-0.2,0.3c-0.1,0-0.3-0.1-0.3-0.3c0-0.2,0.2-0.2,0.4-0.2
		C198.1,126.5,198,126.6,198,126.7z"/>
</g>
<g>
	<path class="st18" d="M94.7,225.3l19.6,45.9h-5l-14.6-34.9L80,271.2h-5L94.7,225.3z"/>
	<path class="st18" d="M127.1,249.6l-2.9-4.4l8.9-13.7l5.3,0.1L127.1,249.6z M126,251.2v20h-4.8v-20l-16.1-25.9h5.5L126,251.2z"/>
	<path class="st18" d="M152.6,225.3l19.6,45.9h-5l-14.6-34.9l-14.7,34.9h-5L152.6,225.3z"/>
	<polygon class="st18" points="136.6,225.3 133.8,229.9 139.4,229.9 142.2,225.3 	"/>
	<path class="st18" d="M73.7,247.4c-0.2-1.8-0.7-3.6-1.3-5.4c-1.5-4.4-3.9-8.2-7.3-11.3c-2.1-1.9-4.5-3.5-7-4.8
		c-0.3-0.1-0.5-0.1-0.8,0c-1,0.4-2,0.9-2.9,1.4c-1.9,0.9-3.8,2-5.6,3.2c-2,1.4-3.9,2.8-5.9,4.3c-0.5,0.4-1.1,0.8-1.6,1.2
		c-0.4,0.3-0.6,0.3-0.9,0c-0.7-0.6-1.4-1.1-2.1-1.6C34.8,231.4,31,229,27,227c-0.8-0.4-1.7-0.8-2.5-1.2c-0.3-0.1-0.6-0.1-0.9,0.1
		c-0.1,0.1-0.3,0.2-0.4,0.3c-1,0.6-2,1.1-3,1.8c-1.7,1.2-3.3,2.5-4.8,4c-1.8,1.9-3.4,4-4.6,6.4c-2,3.9-2.9,8.1-3,12.5
		c0,1.4,0.1,2.7,0.2,4.1c0.1,1.2,0.2,2.5,0.5,3.7c0.5,2.4,1.3,4.8,2.6,6.9c1.1,1.9,2.3,3.8,3.5,5.7h8.3c-0.2-0.5-0.3-1-0.5-1.5
		c-1-2.8-2-5.7-2.7-8.6c-0.4-1.6-0.8-3.3-1-5c-0.1-1-0.3-2-0.3-3.1c0-0.6-0.1-1.1-0.1-1.7c0.1-1,0.2-2.1,0.3-3.1
		c0.1-1.1,0.3-2.1,0.6-3.1c0.5-1.7,1.4-3.1,2.7-4.3c1.5-1.3,3.2-2.1,5.2-2.3c1.5-0.2,2.9,0.2,4.1,1.1c0.9,0.7,1.5,1.6,2,2.6
		c0.7,1.4,1.1,2.9,1.5,4.4c0.5,2.1,0.6,4.2,0.7,6.3c0,1.5,0,3,0,4.5c0,1.6-0.1,3.1-0.1,4.7c0,1.5-0.1,7-0.3,8.6
		c-0.1,0.4,0,0.4,0.3,0.4c3.7,0,7.4,0,11.1,0c0.1,0,0.1,0,0.2,0c0.1,0,0.2,0,0.2-0.2c0,0,0-0.1,0-0.1c-0.1-0.9-0.2-5.7-0.2-6.6
		c-0.1-1.6-0.2-3.3-0.2-4.9c-0.1-2-0.1-4.1,0-6.1c0.1-2,0.3-3.9,0.6-5.9c0.3-1.4,0.6-2.8,1.1-4.1c0.5-1.3,1.2-2.4,2.2-3.4
		c1.1-1,2.4-1.6,3.9-1.6c0.8,0,1.5,0.1,2.3,0.4c1.8,0.6,3.4,1.6,4.6,3.1c1.1,1.5,1.7,3.2,2,5c0.2,1.4,0.3,2.8,0.4,4.2
		c0.1,0.6,0,1.2,0,1.7c-0.1,1.3-0.2,2.6-0.5,4c-0.4,2.5-1,5-1.8,7.4c-0.7,2.4-1.6,4.7-2.4,7.1h8.4c1-1.7,2-3.3,3-5
		c1.4-2.3,2.4-4.9,2.9-7.5c0.4-2,0.6-4.1,0.8-6.1C74,250.8,73.9,249.1,73.7,247.4z"/>
	<path class="st17" d="M198.2,228.3c-2.1,0.2-4,0.7-5.8,1.5c-2.3,1.1-4.3,2.5-5.9,4.2c-1.6,1.8-2.9,3.8-3.9,6.2
		c-0.9,2.4-1.4,4.8-1.4,7.4c0,2.6,0.5,5.1,1.4,7.4c0.9,2.3,2.2,4.4,3.9,6.1c1.6,1.7,3.6,3.1,5.9,4.2c1.8,0.8,3.8,1.3,5.8,1.5v4.1
		c-2.6-0.2-5.1-0.8-7.4-1.7c-2.9-1.2-5.4-2.8-7.5-4.9c-2.1-2.1-3.8-4.6-5-7.4c-1.2-2.8-1.8-5.9-1.8-9.2c0-3.3,0.6-6.3,1.9-9.2
		c1.2-2.9,2.9-5.3,5.1-7.5c2.1-2.1,4.6-3.8,7.5-5c2.3-1,4.8-1.6,7.4-1.8V228.3z M200.6,266.9c2.6-0.1,4.9-0.6,7-1.5
		c2.3-1,4.3-2.4,5.9-4.1c1.6-1.7,2.9-3.8,3.8-6.1c0.9-2.3,1.3-4.8,1.3-7.5c0-2.8-0.4-5.3-1.3-7.7c-0.9-2.4-2.2-4.4-3.8-6.2
		c-1.6-1.7-3.6-3.1-5.9-4.1c-2.1-0.9-4.5-1.4-7.1-1.5v-4.1c3.1,0.1,6,0.7,8.7,1.8c2.9,1.2,5.3,2.8,7.4,5c2.1,2.1,3.7,4.6,4.9,7.4
		c1.2,2.9,1.8,5.9,1.8,9.2c0,3.4-0.6,6.5-1.8,9.3c-1.2,2.9-2.9,5.3-5,7.4c-2.1,2.1-4.6,3.7-7.4,4.9c-2.7,1.1-5.6,1.7-8.6,1.7V266.9z
		"/>
	<path class="st17" d="M228.4,224l33.6,36.6v-35.1h4.8v47.2L233.2,236v35h-4.8V224z"/>
	<path class="st17" d="M273.6,225.6h4.8v41.5h20.5v4.1h-25.2V225.6z"/>
	<path class="st17" d="M305.7,225.6h4.8v45.6h-4.8V225.6z"/>
	<path class="st17" d="M317.3,224.2l33.6,36.6v-35.1h4.8v47.2l-33.6-36.6v35h-4.8V224.2z"/>
	<path class="st17" d="M362.5,267.1h28.1v4.1h-28L362.5,267.1z M362.5,225.6h28v4.1h-28V225.6z M362.5,245.7h26.9v4.1h-26.9V245.7z"
		/>
</g>
</svg>
