<?xml version="1.0" encoding="utf-8"?>
<!-- Generator: Adobe Illustrator 22.0.0, SVG Export Plug-In . SVG Version: 6.00 Build 0)  -->
<svg version="1.1" id="Layer_1" xmlns="http://www.w3.org/2000/svg" xmlns:xlink="http://www.w3.org/1999/xlink" x="0px" y="0px"
	 viewBox="0 0 479.5 297" style="enable-background:new 0 0 479.5 297;" xml:space="preserve">
<style type="text/css">
	.st0{fill:#FFFFFF;}
	.st1{fill:#ECECEC;}
	.st2{fill:none;stroke:#EAEAE9;stroke-width:5;stroke-miterlimit:10;}
	.st3{fill:none;stroke:#263140;stroke-width:4;stroke-miterlimit:10;}
	.st4{fill:#CCCBCB;}
	.st5{fill:#F3F4F5;}
	.st6{fill:#563B39;}
	.st7{fill:#AE8070;}
	.st8{fill:#358EBF;}
	.st9{fill:#070808;}
	.st10{fill:#4B3938;}
	.st11{fill:none;stroke:#FFFFFF;stroke-width:3;stroke-miterlimit:10;}
	.st12{fill:none;stroke:#F1A64F;stroke-width:5;stroke-miterlimit:10;}
	.st13{fill:#FAFBFD;}
	.st14{fill:#496DB3;}
	.st15{fill:#1F5180;}
	.st16{fill:#CACAC9;}
	.st17{fill:#454745;}
	.st18{fill:#F1A64F;}
	.st19{fill:none;stroke:#FFFFFF;stroke-width:2;stroke-miterlimit:10;}
	.st20{fill:#262426;}
	.st21{fill:#4A4152;}
	.st22{fill:none;stroke:#1A889B;stroke-miterlimit:10;stroke-dasharray:7.0266,7.0266;}
	.st23{fill:#FFFFFF;stroke:#1A889B;stroke-width:2;stroke-miterlimit:10;}
	.st24{fill:#F1A74F;}
	.st25{opacity:0.24;}
	.st26{clip-path:url(#SVGID_2_);fill:#454745;}
	.st27{clip-path:url(#SVGID_2_);fill:#EFEEEE;stroke:#454745;stroke-width:3;stroke-miterlimit:10;}
	.st28{opacity:0.3;}
	.st29{opacity:0.24;clip-path:url(#SVGID_4_);}
	.st30{fill:#CBCBCA;}
	.st31{opacity:0.35;}
	.st32{fill:#F2A74E;}
	.st33{fill:#EFEEEE;stroke:#454745;stroke-width:3;stroke-miterlimit:10;}
	.st34{fill:#CDCCCC;}
	.st35{clip-path:url(#SVGID_6_);fill:#EFEEEE;stroke:#454745;stroke-width:3;stroke-miterlimit:10;}
	.st36{fill:#F1A750;}
	.st37{fill:#454745;stroke:#454745;stroke-miterlimit:10;}
	.st38{clip-path:url(#SVGID_8_);fill:#EFEEEE;stroke:#454745;stroke-width:3;stroke-miterlimit:10;}
	.st39{opacity:0.26;}
	.st40{fill:#BFD7D8;}
	.st41{fill:#FCFDFF;}
	.st42{opacity:0.35;fill:#FCFDFF;}
	.st43{opacity:0.25;fill:#FCFDFF;}
	.st44{opacity:0.23;fill:#BFD7D8;}
	.st45{clip-path:url(#SVGID_10_);fill:#454745;}
	.st46{clip-path:url(#SVGID_10_);fill:#EFEEEE;stroke:#454745;stroke-width:3;stroke-miterlimit:10;}
	.st47{opacity:0.24;clip-path:url(#SVGID_12_);}
	.st48{clip-path:url(#SVGID_14_);fill:#EFEEEE;stroke:#454745;stroke-width:3;stroke-miterlimit:10;}
	.st49{fill:#484A48;}
	.st50{fill:#474947;}
	.st51{clip-path:url(#SVGID_16_);fill:#EFEEEE;stroke:#454745;stroke-width:3;stroke-miterlimit:10;}
	.st52{fill:#393B39;}
	.st53{fill:#CACAC8;}
	.st54{fill:#8B8E8B;}
	.st55{fill:#FEFEFE;}
</style>
<g>
	<path class="st16" d="M211.4,32.5c-5.9,0-10.6-4.8-10.6-10.7c0-5.9,4.8-10.7,10.7-10.7c5.9,0,10.7,4.9,10.7,10.8
		C222.1,27.8,217.4,32.5,211.4,32.5z"/>
	<path class="st16" d="M205,32.1c4.3,2.5,8.6,2.5,13,0c1.3,1,2.6,2,3.8,3.1c2.8,2.4,3.1,5.7,3,9.1c0,1.1-0.9,1.8-1.8,2.2
		c-1.6,0.6-3.2,1.3-4.8,1.6c-5.4,1.1-10.7,0.9-16-0.6c-0.5-0.1-0.9-0.3-1.3-0.5c-2.4-1.1-2.8-1.9-2.7-4.6c0.1-3.9,1.8-6.7,5-8.8
		C203.7,33.1,204.3,32.6,205,32.1z"/>
</g>
<g>
	<path class="st5" d="M191.1,50.9c1.1,0.3,2.1,0.5,3.2,0.9c2.6,0.9,4.7,2.4,6.5,4.3c1.2,1.2,2.4,2.5,3.6,3.7c0.1,0,0.2,0,0.2-0.1
		c0-1,0-2.1,0-3.1c0-0.7,0.1-1,0.9-1c1.8,0.1,1.5-0.2,1.5,1.5c0,2,0,4.1,0,6.1c0,0.5-0.1,0.8-0.7,0.8c-2.3,0-4.7,0-7,0
		c-0.6,0-0.7-0.2-0.7-0.8c0-2-0.2-1.6,1.6-1.7c0.8,0,1.6,0,2.4,0c0.1-0.1,0.1-0.2,0.2-0.2c-0.4-0.4-0.9-0.8-1.3-1.2
		c-1.6-1.5-3-3.2-4.8-4.5c-6-4.4-15-2.6-18.9,3.8c-4.8,8.1-0.7,17.9,8.5,19.9c4.6,1,8.7-0.3,12-3.6c4.9-4.7,9.6-9.6,14.5-14.4
		c0.3-0.3,0.6-0.5,0.9-0.8c0.4,0.8,0.2,1.8,0.6,2.7c-3.5,3.5-7,7-10.5,10.5c-1.8,1.8-3.5,3.6-5.5,5.2c-8.1,6.2-20.3,2.8-23.9-6.7
		c-3.4-8.9,1.5-18.6,10.7-21c0.5-0.1,1.1-0.1,1.6-0.5C188.3,50.9,189.7,50.9,191.1,50.9z"/>
	<path class="st5" d="M214.4,63.4c-0.4-0.8-0.2-1.8-0.6-2.7c0,0,0,0,0,0c0.2,0,0.2-0.1,0.2-0.3c1.7-1.7,3.3-3.3,5-5
		c2.4-2.4,5.2-3.8,8.5-4.4c0.2,0,0.4,0,0.5-0.2c1.4,0,2.7,0,4.1,0c0.1,0.2,0.2,0.2,0.4,0.2c6.3,1.2,10.5,4.9,12.6,10.9
		c0.3,0.8,0.4,1.6,0.7,2.5c0,1.4,0,2.9,0,4.3c-0.4,0.6-0.4,1.3-0.5,1.9c-3.1,11.1-16.8,15.2-25.4,7.6c-1.9-1.6-3.5-3.5-5.3-5.2
		c0.3-1,0-2,0.2-3c1.3,0.8,2.1,2,3.2,3c1,0.9,1.8,1.9,2.8,2.8c3.8,3.6,8.3,4.9,13.3,3.3c4.9-1.5,7.9-4.9,9.1-9.9
		c1.7-7.2-3.6-14.7-10.9-15.7c-4.5-0.6-8.4,0.7-11.6,3.9C218.5,59.4,216.4,61.4,214.4,63.4z"/>
	<path class="st5" d="M214.6,70c-0.2,1,0.1,2-0.2,3c-0.9-0.9-1.9-1.8-2.8-2.7c-0.3-0.3-0.3-0.5,0-0.7c1.7-1.5,1-1.8,2.8,0.1
		C214.4,69.8,214.4,70,214.6,70L214.6,70z"/>
	<path class="st5" d="M224.8,63.7c1.8,0,3,1.2,3,2.9c0,1.8-1.3,3.1-3.1,3.1c-1.8,0-3-1.3-3-3.1C221.8,64.8,223,63.7,224.8,63.7z
		 M226.7,66.7c-0.1-1.3-0.7-2.2-1.9-2.1c-1.2,0-1.9,0.8-1.9,2.1c0,1.3,0.9,2.3,2,2.2C226.1,68.7,226.6,67.8,226.7,66.7z"/>
	<path class="st5" d="M237.5,64.6c-0.5,0-0.8-0.1-1,0c-0.4,0.1-0.9,0.1-1,0.7c-0.1,0.6,0.4,0.7,0.8,0.8c0.5,0.1,1,0.3,1.4,0.4
		c0.6,0.2,1.1,0.7,1,1.4c0,0.7-0.4,1.3-1.1,1.5c-1,0.4-2,0.2-3-0.1c-0.3-0.1-0.5-0.3-0.4-0.6c0.1-0.3,0.4-0.3,0.7-0.2
		c0.9,0.3,2.2,0.7,2.5-0.3c0.3-1.2-1.2-0.9-2-1.3c-0.8-0.4-1.4-0.8-1.3-1.7c0.1-1,0.8-1.4,1.7-1.5c0.4,0,0.9,0,1.3,0
		c0.4,0.1,1.1,0,1,0.6C238.3,65.1,237.6,64.5,237.5,64.6z"/>
	<path class="st5" d="M228.8,66.6c0-0.1,0-0.2,0-0.3c0-2.6,0.5-3,3-2.5c1.1,0.2,1.8,0.8,1.7,2c-0.1,1-0.8,1.6-1.8,1.6
		c-1,0-2.1-0.1-1.8,1.5c0.1,0.3-0.1,0.6-0.5,0.6c-0.4,0-0.6-0.3-0.6-0.7C228.8,68.1,228.8,67.3,228.8,66.6
		C228.8,66.6,228.8,66.6,228.8,66.6z M231,66.6c0.7-0.1,1.4-0.1,1.4-1c0-1-0.9-1-1.6-1.1c-0.8-0.1-0.9,0.4-0.9,1.1
		C229.9,66.4,230.1,66.8,231,66.6z"/>
	<path class="st5" d="M214.6,70c-0.2-0.1-0.2-0.2-0.2-0.4C214.5,69.8,214.6,69.9,214.6,70z"/>
	<path class="st5" d="M180.2,66.6c0.2-1.2-0.7-3,1.8-2.8c2.2,0.2,3.4,1,3.4,2.9c0,1.8-1.4,2.9-3.6,2.9
		C179.3,69.5,180.6,67.6,180.2,66.6z M181.3,66.7c0.5,0.5-0.7,2,1.1,1.9c1.2-0.1,2-0.8,2-2c0-1.2-0.6-2-1.9-2
		C180.7,64.6,181.6,65.9,181.3,66.7z"/>
	<path class="st5" d="M190.5,69.2c-1,0.6-2.2,0.3-3.3,0.3c-0.5,0-0.7-0.5-0.8-0.9c0-1.2,0-2.5,0-3.8c0-0.7,0.4-1,1-1
		c0.2,0,0.4,0,0.7,0c0.8,0.1,2.3-0.4,2.3,0.4c0.1,0.9-1.3,0.3-2,0.4c-0.5,0.1-0.8,0.2-0.8,0.8c0,0.6,0.4,0.6,0.9,0.7
		c0.6,0.1,1.6-0.4,1.6,0.5c0,0.7-1.1,0.3-1.7,0.4c-0.5,0.1-0.8,0.3-0.8,0.8c0,0.6,0.2,0.9,0.8,0.9c0.7,0,1.4,0,2,0
		C190.5,68.8,190.5,69,190.5,69.2z"/>
	<path class="st5" d="M193.9,68.2c0.6-1.5,1.1-2.6,1.6-3.8c0.1-0.3,0.3-0.6,0.7-0.4c0.3,0.1,0.3,0.5,0.1,0.7
		c-0.6,1.4-1.1,2.8-1.8,4.2c-0.3,0.6-1,0.9-1.4,0.1c-0.7-1.4-1.3-2.9-1.9-4.3c-0.1-0.3-0.2-0.7,0.3-0.8c0.4-0.1,0.6,0.3,0.7,0.5
		C192.8,65.6,193.3,66.7,193.9,68.2z"/>
	<path class="st5" d="M214,60.4c0,0.1,0,0.3-0.2,0.3C213.9,60.6,213.9,60.5,214,60.4z"/>
</g>
<g class="st39">
	<path class="st40" d="M42.5,208.9c-0.2,0-0.4,0-0.6,0c-0.3-0.5-0.9-0.4-1.3-0.5c-4.3-1-7.5-3.5-9.8-7.2c-1-1.6-1.3-3.5-2.1-5.2
		c0-1.8,0-3.6,0-5.4c0.3-0.1,0.3-0.4,0.3-0.6c1.8-7.9,9-12.5,16.1-12c1,0.1,1.1-0.5,1.3-1.2c1.4-6.4,5.1-11.2,10.8-14.4
		c2.2-1.2,4.7-1.6,7-2.5c2.1,0,4.2,0,6.3,0c0.4,0.5,1,0.4,1.5,0.5c1.7,0.5,3.4,0.9,4.9,1.7c5.5,2.9,9.1,7.2,10.9,13.2
		c0.2,0.8,0.3,1.4,1.5,1c10.1-3.6,20.3,2.3,22.3,12.9c0.2,1,0.5,1.2,1.5,1.3c3.8,0.2,6.9,2.6,8.1,6.3c0.1,0.3,0,0.6,0.4,0.8
		c0,1.4,0,2.8,0,4.2c-0.5,0.4-0.5,1.1-0.7,1.6c-1.4,2.9-3.5,4.8-6.7,5.4c-0.2,0-0.5,0-0.7,0c-23.2,0-46.3,0-69.5,0
		C43.4,208.6,42.9,208.5,42.5,208.9z"/>
	<path class="st41" d="M121,208.8c-7.1,0-14.1,0-21.2,0c-4.1,0-7.2-1.9-8.5-5.2c-1.6-4-0.8-9.1,1.9-11.7c1.5-1.5,3.4-2.3,5.5-2.4
		c1.2,0,1.4-0.5,1.5-1.6c0.1-3.5,1.1-6.7,3.5-9.4c1.9-2.1,4.2-3.2,6.9-3.6c3.8-0.6,7.5-0.3,10.8,2c1.1,0.8,2,1.7,2.5,2.9
		c0.4,1.1,0.8,1.1,1.6,0.2c3.7-3.9,9-4.2,13.1-0.9c2.7,2.2,3.1,5,2.4,8.2c-0.4,1.8-0.4,1.8,1.5,1.9c4.5,0.2,8.1,3.1,9.1,7.4
		c1.1,4.8-0.5,8.7-4.6,11c-1.5,0.8-3.1,1.1-4.8,1.1C135.2,208.8,128.1,208.8,121,208.8z"/>
</g>
<path class="st42" d="M329.8,84.1c2.4-0.2,4.6-0.8,6.6-0.5c4.7,0.7,7.7,4.8,7.2,9.6c-0.1,1.1,0.2,1.5,1.2,2c4.1,1.9,6.3,6,5.4,10
	c-1,4.4-4.4,7.2-9.1,7.2c-14.7,0-29.3,0-44,0c-5,0-8.9-3.7-9.1-8.4c-0.2-5,3.2-8.9,8.3-9.4c1.2-0.1,2.4,0.2,3.6,0.4
	c0.9,0.2,1.3,0.1,1.5-1c0.4-3.2,2.3-5.3,5.5-6c1.2-0.2,1.3-1,1.4-1.9c1-5.7,5.6-9.6,11.3-9.4c4.3,0.2,7.5,2.3,9.6,6
	C329.4,83.2,329.7,83.8,329.8,84.1z"/>
<path class="st43" d="M388.6,190.7c-0.2,0-0.4,0-0.6,0c-0.3-0.5-0.9-0.4-1.4-0.5c-4.5-1.1-7.9-3.7-10.4-7.6
	c-1.1-1.7-1.4-3.7-2.2-5.5c0-1.9,0-3.8,0-5.7c0.3-0.1,0.3-0.4,0.4-0.6c1.9-8.3,9.5-13.2,17-12.7c1.1,0.1,1.2-0.5,1.3-1.3
	c1.5-6.8,5.4-11.8,11.4-15.2c2.3-1.3,4.9-1.7,7.3-2.6c2.2,0,4.4,0,6.7,0c0.4,0.6,1,0.4,1.6,0.5c1.8,0.5,3.6,1,5.2,1.8
	c5.8,3,9.6,7.6,11.4,13.9c0.2,0.8,0.3,1.5,1.6,1c10.6-3.8,21.4,2.5,23.5,13.5c0.2,1.1,0.6,1.3,1.6,1.4c4,0.2,7.3,2.8,8.6,6.6
	c0.1,0.3,0,0.7,0.4,0.8c0,1.5,0,3,0,4.4c-0.5,0.4-0.5,1.1-0.8,1.7c-1.5,3-3.7,5.1-7.1,5.7c-0.3,0-0.5,0-0.8,0c-24.4,0-48.8,0-73.2,0
	C389.5,190.4,389,190.2,388.6,190.7z"/>
<path class="st43" d="M18.1,107.3c-0.2,0-0.3,0-0.5,0c-0.3-0.4-0.7-0.3-1.1-0.4c-3.5-0.8-6.1-2.8-8-5.9c-0.8-1.3-1-2.8-1.7-4.2
	c0-1.5,0-2.9,0-4.4c0.2-0.1,0.2-0.3,0.3-0.5c1.5-6.4,7.3-10.2,13.1-9.7c0.8,0.1,0.9-0.4,1-1c1.2-5.2,4.1-9.1,8.8-11.7
	c1.8-1,3.8-1.3,5.6-2c1.7,0,3.4,0,5.1,0c0.3,0.4,0.8,0.3,1.2,0.4c1.4,0.4,2.7,0.8,4,1.4c4.4,2.3,7.4,5.9,8.8,10.7
	c0.2,0.6,0.2,1.2,1.2,0.8c8.2-2.9,16.5,1.9,18.1,10.4c0.2,0.8,0.4,1,1.2,1c3.1,0.2,5.6,2.1,6.6,5.1c0.1,0.2,0,0.5,0.3,0.6
	c0,1.1,0,2.3,0,3.4c-0.4,0.3-0.4,0.9-0.6,1.3c-1.1,2.3-2.8,3.9-5.4,4.4c-0.2,0-0.4,0-0.6,0c-18.8,0-37.6,0-56.4,0
	C18.9,107.1,18.4,107,18.1,107.3z"/>
<path class="st44" d="M244.4,288.3c-0.2,0-0.4,0-0.6,0c-0.3-0.5-0.9-0.4-1.4-0.5c-4.5-1.1-7.9-3.7-10.4-7.6
	c-1.1-1.7-1.4-3.7-2.2-5.5c0-1.9,0-3.8,0-5.7c0.3-0.1,0.3-0.4,0.4-0.6c1.9-8.3,9.5-13.2,17-12.7c1.1,0.1,1.2-0.5,1.3-1.3
	c1.5-6.8,5.4-11.8,11.4-15.2c2.3-1.3,4.9-1.7,7.3-2.6c2.2,0,4.4,0,6.7,0c0.4,0.6,1,0.4,1.6,0.5c1.8,0.5,3.6,1,5.2,1.8
	c5.8,3,9.6,7.6,11.4,13.9c0.2,0.8,0.3,1.5,1.6,1c10.6-3.8,21.4,2.5,23.5,13.5c0.2,1.1,0.6,1.3,1.6,1.4c4,0.2,7.3,2.8,8.6,6.6
	c0.1,0.3,0,0.7,0.4,0.8c0,1.5,0,3,0,4.4c-0.5,0.4-0.5,1.1-0.8,1.7c-1.5,3-3.7,5.1-7.1,5.7c-0.3,0-0.5,0-0.8,0c-24.4,0-48.8,0-73.2,0
	C245.4,288,244.9,287.9,244.4,288.3z"/>
<path class="st24" d="M107.7,167.9c3.6,1.6,8.2-0.2,9.8-3.9c1.7-3.9,0.1-8.5-3.8-10.1c-4-1.7-8.3-0.1-10.1,3.9
	C102,161.7,103.5,166,107.7,167.9z"/>
<path class="st25" d="M110,153.2l-0.9,0.4c0,0-2.9,12-0.8,14.4s0,0,0,0l2.2,0.6L110,153.2"/>
<g>
	<defs>
		<path id="SVGID_9_" d="M272,164.7l-0.1,1.2c-0.3,4.8-1.1,8.5-2.9,12.9l-0.4,1.1l-37.8-9.8l3.2-14L272,164.7z"/>
	</defs>
	<clipPath id="SVGID_2_">
		<use xlink:href="#SVGID_9_"  style="overflow:visible;"/>
	</clipPath>
	<path class="st26" d="M272,164.7l-0.1,1.2c-0.3,4.8-1.1,8.5-2.9,12.9l-0.4,1.1l-37.8-9.8l3.2-14L272,164.7z"/>
	<line class="st27" x1="263.9" y1="163.1" x2="259.9" y2="177.9"/>
	<line class="st27" x1="257.5" y1="161.4" x2="253.5" y2="176.2"/>
	<line class="st27" x1="251" y1="159.6" x2="247" y2="174.4"/>
	<line class="st27" x1="244.6" y1="157.9" x2="240.6" y2="172.7"/>
	<line class="st27" x1="237.8" y1="157.2" x2="233.9" y2="171.5"/>
</g>
<polygon class="st28" points="272.1,164.5 267.6,163.8 264.4,175.4 237.8,165.1 237.3,171.8 263.6,178.6 263.6,178.5 268,179.7 "/>
<g>
	<defs>
		<path id="SVGID_11_" d="M255.5,161c-0.2,0-14.9-3.5-14.9-3.5l-4.7,6.2l9.7,4l10.3-4.8L255.5,161z"/>
	</defs>
	<clipPath id="SVGID_4_">
		<use xlink:href="#SVGID_11_"  style="overflow:visible;"/>
	</clipPath>
	<path class="st29" d="M250.1,158.1c-0.1,0-0.1,0.1-0.2,0.1l-9.4-1.4l-2.1,7.7l0.4,0.8l1.4,0.2c0.2-0.2,6.3,0.2,6.3,0.2l1.6-2.6
		c1,1.3,3.3,1.2,5.3-0.1c2-1.4,3-3.6,2-5C254.6,156.7,252.2,156.7,250.1,158.1z"/>
</g>
<path class="st30" d="M307.5,170.1l-0.2,1.6c-1,6.5-2.3,11.6-4.8,17.7l-0.6,1.5l-36.6-9.9l5.2-19.2L307.5,170.1z"/>
<path class="st17" d="M289.2,187.5c3.2-6.7-3.6-8.3-3.6-8.3l-0.5-14.6l18.9,4.5l-2.1,21.7L289.2,187.5z"/>
<path class="st31" d="M296.2,168.2c-0.2,3.5-0.5,16.3,7.5,19.2l1.8-18l-8.4-1.9C296.7,167.4,296.3,167.7,296.2,168.2z"/>
<path class="st32" d="M315,193.1l-4.2-25.8c-0.2-1.5-1.6-2.5-3.1-2.2l-7.7,1.3c-1.5,0.2-2.5,1.6-2.2,3.1l3.2,19.4
	c0.8,5,5.5,8.4,10.5,7.6l1.3-0.2C314.2,196,315.2,194.6,315,193.1z"/>
<path class="st31" d="M265.4,181l1.1-4.6l29.4,8.6c0,0,0.2,2.3,2.9,4.6l-1.3,0.2L265.4,181z"/>
<path class="st31" d="M307.5,197l-4.8-16.6c0,0-1-3.2-3.7-3.3l0.1,2.6l2.1,15.5C301.3,195.2,303.9,197.6,307.5,197"/>
<g>
	<path class="st17" d="M258,187.9l8,6.4c-1.9,4.2-2.9,4.6-6,7.7l-1.2,2l-30.6-25.5l7.6-11.2L258,187.9z"/>
</g>
<path class="st30" d="M294.4,180.9l0.4,1.5c1.5,6.4,2.1,11.6,2.1,18.1l0,1.6l-38,3.1l-2.3-19.6L294.4,180.9z"/>
<path class="st17" d="M284.9,203.2c0.4-7.3-6-6.5-6-6.5l-3.9-13.5l16-2l5.9,20.9L284.9,203.2z"/>
<path class="st31" d="M286.3,183.5c1.2,5.1,5.8,21.9,8.7,18.5l-2.8-21.1l-3.9,0.5C287.3,181.6,286.1,182.5,286.3,183.5z"/>
<path class="st32" d="M307.2,203.4l-7-22.6c-0.5-1.6-2.2-2.5-3.8-2.1l-6.6,1.8c-1.6,0.4-2.5,2.1-2,3.7l5,16.1
	c1.6,5.2,7.2,8.3,12.4,6.8v0C306.8,206.7,307.7,205,307.2,203.4z"/>
<path class="st25" d="M231.7,180.4l1.2,1.1c0,0,5.6-4.4,8.5-8.7l-4-3.8C237.5,169,231.4,180.2,231.7,180.4"/>
<path class="st17" d="M172.5,158.1c-6-3.4-21.5-8-60.9-7.4c0,0-5.3,11.2,0.4,20.8l47.5-3.3c4.7-0.3,9.4-1,13.3-3.4l1.2-1
	C176.3,162.3,174.9,159.4,172.5,158.1z"/>
<path class="st34" d="M123.4,170.3c-0.3-1.6-0.9-3-1.5-4.5c-0.3-0.8-0.7-1.6-1-2.4c-0.1-0.2-0.1-0.4,0-0.7c1.3-2.6,2.4-5.3,3.3-8
	c0.4-1,0.6-2.1,0.9-3.2c0-0.1,0.2-0.3,0-0.4c-0.2-0.1-0.3,0.2-0.4,0.3c-1,1.6-1.9,3.2-2.8,4.9c-1.1,2.1-1.9,4.2-2.9,6.3
	c-0.1,0.3-0.2,0.6,0,0.9c1.3,2.2,2.4,4.4,4,6.4C123.2,170,123.3,170.1,123.4,170.3z"/>
<path class="st16" d="M123.6,170.4c-0.7-1.3-1.2-2.6-1.8-3.9c-0.5-1-0.9-2.1-1.6-3c-0.4-0.5-0.3-1.2,0-1.7c0.1-0.2,0.3-0.4,0.5-0.6
	c1.4-1.4,1.8-3.3,2.5-4.9c0.8-1.7,1.4-3.5,2.1-5.3c0.2-0.5,0.1-0.6-0.5-0.6c-4.4,0.1-8.8,0.2-13.2,0.3c-0.4,0-0.6,0.1-0.8,0.5
	c-0.3,0.9-0.7,1.8-1,2.7c-0.3,0.9-0.3,1.8-0.4,2.8c-0.2,1.6-0.6,3.1-0.5,4.7c0,1.5,0.1,3.1,0.3,4.6c0.2,1.5,0.9,2.9,1.4,4.3
	c0.2,0.5,0.4,1,0.5,1.5c0.1,0.3,0.3,0.4,0.6,0.4c3.2-0.4,6.5-0.7,9.7-1.1c0.7-0.1,1.3-0.2,2-0.2
	C123.6,170.7,123.6,170.5,123.6,170.4z"/>
<g>
	<defs>
		<path id="SVGID_13_" d="M176.3,161.6c0,0-2.8-11.8-64.7-10.8c0,0-5.3,11.2,0.4,20.8l40.2-4.2L176.3,161.6z"/>
	</defs>
	<clipPath id="SVGID_6_">
		<use xlink:href="#SVGID_13_"  style="overflow:visible;"/>
	</clipPath>
</g>
<path class="st16" d="M237.6,167.7L237.6,167.7c-1.6,8.6-9,14.5-16.9,13.5l-46.6-5.9c-4.8-0.6-8-5.5-7.1-10.7l3.4-19
	c2.7-5.3,8-7.8,12.7-6.7l43.4,10.1C234.3,151,239.1,159.1,237.6,167.7z"/>
<path class="st25" d="M166.9,167.5l-3.4,0.2l-1.1-8l12.3-10.1c1.4,4.7-4.2,11.9-6.6,16.2L166.9,167.5z"/>
<path class="st17" d="M174.4,152.5l-0.5,1.6c-1.2,4-5.4,6.3-9.5,5.1l-6-1.8l4.8-16.2l6,1.8C173.3,144.2,175.6,148.5,174.4,152.5z"/>
<path class="st30" d="M152.3,158.1c-1.8-1.1-3.8-2.3-5.2-3.8c-2.7-2.8-5.5-5.5-8.2-8.3c-1.2-1.2-2.4-2.4-3.5-3.8
	c-2-2.4-3-5.1-2.2-8.3c0.1-0.5-0.2-0.7-0.6-0.9c-4.1-1.9-8-4.2-11.6-6.9c-2.1-1.6-3.9-3.6-5.3-5.8c-2.2-3.3-1.4-7.7,1.7-9.6
	c1.1-0.7,2.3-0.7,3.5-0.4c1.7,0.4,3.1,1.3,4.5,2.4c5,3.9,9.3,8.4,12.7,13.8c0.1,0.1,0.2,0.2,0.3,0.3c1-0.9,2-1.8,3-2.5
	c1-0.8,2.2-1.4,3.3-2.1c-0.5-0.6-0.9-1.3-1.5-2c-2.4-3-4.4-6.3-6-9.8c-1.1-2.4-2.2-4.7-2.7-7.3c-0.2-0.8-0.2-1.6-0.2-2.5
	c0-2.2,1.1-3.7,3.1-4.4c2.8-1.1,6.2,0,8.1,2.5c2.8,3.5,4.3,7.6,5.3,11.9c0.6,2.6,1,5.3,1.5,8c0.1,0.5,0.3,0.7,0.7,0.7
	c3.3,0.2,5.6,2,7.2,4.8c2.3,4.1,4.4,8.2,6.6,12.3c1.3,2.4,2.5,4.8,3.1,7.4c0.1,0.2,0.1,0.4,0.1,0.6c-1.3-0.5-2.6-1.1-3.9-1.6
	c-2.3-0.8-4.6-1-7-0.7c-2.9,0.4-4.9,1.8-6.2,4.4c-1.6,3.4-1.7,6.6-1,10.3C152.2,157.2,152.3,157.9,152.3,158.1z"/>
<path class="st0" d="M136.1,142.1c1.7-3.1,3.7-4.4,6.2-4c3.5,0.5,6,3.1,6.6,6.6c0.4,2.7-1,5.1-3.5,6.1c-0.8,0.3-1.5,0.3-2.1-0.4
	c-2.3-2.5-4.7-4.9-7.1-7.3C136.1,142.8,136.1,142.4,136.1,142.1z"/>
<path class="st0" d="M160.3,124.4c0.6,0.4,0.9,1.1,1.2,1.7c1.4,2.6,2.8,5.3,4.3,7.9c0.4,0.6,0.3,1.1-0.1,1.8c-1.7,2.6-5,3.2-7.7,1.5
	c-3-1.9-4.2-6-2.8-9.3c0.6-1.5,1.7-2.6,3.3-3.1c0.2-0.1,0.6-0.1,0.7-0.4C159.5,124.4,159.9,124.4,160.3,124.4z"/>
<path class="st17" d="M137.9,118.4c1.8,2.5,3.6,5,5.4,7.5c0.9,1.3,1.9,2.6,2.8,3.9c0.1,0.2,0.2,0.2,0,0.4c-0.9,0.6-0.9,0.6-1.6-0.3
	c-1.1-1.5-2.2-3-3.3-4.5c-1.5-2-2.9-4-4.4-6c0,0,0-0.1-0.1-0.2C137.2,119,137.7,118.9,137.9,118.4z"/>
<path class="st36" d="M137.9,118.4c-0.2,0.5-0.7,0.6-1.1,0.9c-1.2,0.3-2.4-0.5-2.5-2c0-0.8,0.9-1.7,1.8-1.8c0.9-0.1,1.9,0.7,2,1.6
	C138.2,117.6,138.2,118,137.9,118.4z"/>
<circle class="st32" cx="141.6" cy="124.8" r="3.8"/>
<path class="st32" d="M165.3,157.6c-1,0.6-2.4,1.5-3.8,2.2c-2,0.9-4.2,0.9-6.3,0.3c-2.1-0.6-3.2-2-3.7-4.1c-0.7-2.8-0.5-5.6,0.6-8.3
	c0.5-1.2,1.1-2.4,1.7-3.5c0.7-1.3,1.9-2,3.4-2.3c4-0.9,7.8-0.7,11.3,1.3c0.7,0.4,1.3,0.8,1.9,1.4c0.8,0.8,1.2,1.9,1.2,3.1
	c0.1,2.8-0.9,5.2-2.9,7.1C167.6,155.7,166.6,156.5,165.3,157.6z"/>
<path class="st17" d="M146.4,106.5c1.1,3.1,1.6,6.3,1.7,9.6c0,0.6-0.1,1.1-0.2,1.7c-0.1,0.6-0.7,0.8-1.2,0.4
	c-0.8-0.7-1.6-1.4-2.3-2.2c-2.1-2.5-3.6-5.5-4.9-8.5c-0.6-1.5-1.1-3.2-1.1-4.8c0-0.9,0.3-1.7,1.1-2.2c0.9-0.5,1.9-0.6,2.9,0
	c1.5,0.8,2.2,2.2,2.9,3.6C145.8,104.9,146.1,105.7,146.4,106.5z"/>
<path class="st17" d="M118.8,118.9c-0.3-1.3-0.5-2.1,0.1-3c0.8-1.4,2.1-1.5,3.3-1c2.4,0.8,4.2,2.5,6,4.2c1.9,1.8,3.6,3.8,4.9,6
	c0.4,0.7,0.7,1.4,1,2.2c0.3,0.6-0.1,1.2-0.9,1c-1.3-0.4-2.7-0.7-4-1.3c-3.5-1.5-6.6-3.5-9.1-6.3C119.4,120.1,119,119.3,118.8,118.9z
	"/>
<g>
	<path class="st17" d="M154.9,150.6c-0.4-0.5-0.3-1.4,0.2-1.8c0.4-0.5,1-0.5,1.5-0.2c0.2,0.1,0.3,0.3,0.5,0.5
		c0.5,0.5,1.1,0.9,1.8,1.1c0,0,0.1,0,0.1,0.1c0,0.1,0.1,0.1,0.1,0.1c0.1,0,0.2,0.1,0.3,0.1c0.1,0,0.1,0.1,0.1,0.2
		c0,0.1-0.1,0.2-0.3,0.3c-0.6,0.2-1.1,0.2-1.7,0.3c-0.5,0.1-0.9,0.1-1.4,0c-0.4-0.1-0.8-0.1-1.1-0.4
		C155,150.8,154.9,150.7,154.9,150.6z"/>
	<path class="st17" d="M160.8,144.6c0.2-0.1,0.4-0.2,0.6-0.2c0.3,0,0.5,0,0.8,0.1c0.3,0.1,0.4,0.3,0.6,0.5c0.3,0.5,0.3,1,0.1,1.5
		c-0.2,0.8-0.6,1.6-1,2.3c-0.1,0.1-0.1,0.2-0.2,0.3c0,0.1-0.1,0.1-0.1,0.1c-0.1,0.1-0.2,0.1-0.3,0c-0.1,0-0.1-0.2-0.1-0.3
		c0-0.4,0-0.8-0.1-1.1c-0.1-0.6-0.3-1.1-0.6-1.6c-0.2-0.2-0.3-0.5-0.2-0.8C160.3,145.1,160.5,144.8,160.8,144.6z"/>
</g>
<path class="st17" d="M148.4,124.4c-0.3-0.4-0.7-0.7-1.1-1.1l0,0c-1-0.8-2.5-1-3.8-0.6c-2.6,0.8-4.6,2.5-5.9,5.1
	c0,0.1-0.1,0.2-0.1,0.3c-0.3,1,0.2,2,1,2.4c0.5,0.3,1.1,0.5,1.8,0.5c0.6,0,1.1,0.8,1.6,1.3c0.1,0.1,0.2,0.3,0.3,0.5
	c0.7-0.8,0.8-1.6,0.5-2.4c1.5-0.2,2.8,0.7,3.6,2.3c0.1,0,0.1-0.1,0.2-0.1c0,0,0,0,0.1,0c0.2-0.6,0.2-1.5,0-2.6l0.7,1
	c0.1,0,0.1,0,0.2-0.1c-0.1-1.1-0.2-2.1-0.4-3.2c0.2,0.2,0.4,0.4,0.7,0.7c0.4-1.2,0.4-2.3,0-3.5c0.4,0.2,0.7,0.5,1.1,0.8
	C148.8,125.3,148.7,124.8,148.4,124.4z"/>
<path class="st17" d="M162.5,135.1c-0.4,0.3-0.7,0.5-1.2,0.6c-0.8,0.3-1.6,0.2-2.3-0.3c-0.7-0.5-1.3-1.1-1.6-1.8
	c-0.4-1-0.2-2,0.4-2.9c0.3-0.5,0.7-0.8,1.3-1.1c0.5-0.2,1,0.1,0.9,0.7c0,0.2,0,0.3-0.1,0.4c0,0.5,0.2,0.8,0.7,1
	c0.5,0.2,0.9,0.1,1.2-0.3c0.1-0.1,0.1-0.2,0.2-0.3c0.1-0.1,0.1-0.2,0.2-0.3c0.3-0.4,0.7-0.4,1-0.1c0.3,0.3,0.4,0.7,0.5,1.1
	c0.2,1,0.1,2-0.6,2.8C163,134.8,162.7,134.9,162.5,135.1z"/>
<path class="st17" d="M145.4,147.6c0.4-0.3,0.7-0.5,1-0.9c0.5-0.7,0.6-1.4,0.4-2.2c-0.2-0.8-0.6-1.5-1.3-2.1
	c-0.8-0.7-1.8-0.8-2.9-0.5c-0.6,0.2-1,0.4-1.4,0.9c-0.4,0.4-0.2,1,0.3,1.1c0.1,0,0.3,0,0.4,0.1c0.5,0.1,0.7,0.4,0.7,0.9
	c0,0.5-0.2,0.9-0.7,1.1c-0.1,0-0.3,0.1-0.4,0.1c-0.1,0-0.2,0-0.3,0.1c-0.5,0.1-0.6,0.5-0.4,1c0.2,0.4,0.5,0.6,0.9,0.8
	c0.9,0.6,1.9,0.7,2.9,0.3C145,147.9,145.2,147.7,145.4,147.6z"/>
<path class="st37" d="M162.7,153.3c-2.1,1.5-4.4,2.1-6.2,1.8c1.7,1.8,4.9,1.8,7.5,0s3.6-5,2.3-7.1
	C166.1,149.7,164.8,151.7,162.7,153.3z"/>
<path class="st25" d="M176.7,157.7c0,0-0.5,5.8,14.7,7c15.2,1.2,47.5,3,47.5,3l-0.2-5L176.7,157.7z"/>
<path class="st49" d="M194.5,174.1c-0.6-0.1-1.3-0.3-1.9-0.4c-0.2,0-0.1-0.2-0.1-0.3c0.5-2.2,0.9-4.4,1.4-6.7
	c0.6-2.7,1.1-5.4,1.7-8.1c0.1-0.6,0.2-1.2,0.4-1.8c0.1-0.2,0.1-0.3,0.4-0.3c0.6,0.2,1.1,0.2,1.7,0.4c0.2,0.1,0.2,0.1,0.2,0.3
	c-0.4,1.8-0.8,3.6-1.2,5.4c-0.5,2.2-0.9,4.5-1.4,6.7c-0.3,1.4-0.6,2.9-0.9,4.3C194.8,173.9,194.9,174.2,194.5,174.1z"/>
<path class="st50" d="M223.7,153.9c-0.4,2.3-0.8,4.6-1.2,6.9c-0.4,2.1-0.7,4.1-1.1,6.2c-0.4,2.1-0.8,4.2-1.1,6.3
	c-0.4,2.1-0.7,4.2-1.1,6.3c-0.1,0.5-0.2,1-0.3,1.5c0,0.2-0.1,0.3-0.4,0.3c-0.9-0.2-1.8-0.3-2.7-0.5c-0.2,0-0.3-0.1-0.3-0.4
	c0.7-3.7,1.3-7.5,2-11.2c0.5-2.8,1-5.6,1.5-8.4c0.4-2.4,0.9-4.9,1.3-7.3c0-0.2,0.1-0.4,0.3-0.3c0.9,0.2,1.9,0.3,2.8,0.5
	C223.6,153.7,223.9,153.7,223.7,153.9z"/>
<path class="st34" d="M229.4,163.7c0.3-1.8,0.8-3.6,1.3-5.4c0.3-0.9,0.6-1.9,0.9-2.8c0.1-0.3,0.1-0.5,0-0.8c-1.5-3-2.7-6-3.8-9.1
	c-0.4-1.2-0.8-2.4-1.1-3.7c0-0.2-0.2-0.4,0-0.5c0.2-0.1,0.3,0.2,0.4,0.3c1.1,1.8,2.1,3.6,3.1,5.5c1.2,2.3,2.2,4.7,3.2,7.1
	c0.2,0.4,0.2,0.7,0,1.1c-1.2,2.6-2.3,5.3-3.8,7.8C229.6,163.4,229.5,163.5,229.4,163.7z"/>
<g>
	<defs>
		<path id="SVGID_15_" d="M174.4,157.2c0,0,2.4-14,66.2-17.1c0,0,6,12.7,0.6,24.3l-41.6-2.1L174.4,157.2z"/>
	</defs>
	<clipPath id="SVGID_8_">
		<use xlink:href="#SVGID_15_"  style="overflow:visible;"/>
	</clipPath>
</g>
<path class="st32" d="M171.9,144c0,0,14.1-13.2,45-13.2c30.2,0,34.2-4.5,43.4-6.9c10.4-2.7,39.1-4.5,39.1-4.5s-7.8,8.4-8.6,14.6
	c-0.7,6.2-0.1,7.2-4.1,7.1c-20.2-0.4-60.9-1.4-76.7,2.5S191.5,141.9,171.9,144z"/>
<path class="st24" d="M245.8,158.1c-3.5,1.9-8.2,0.4-10.1-3.3c-2-3.8-0.6-8.4,3.2-10.4c3.9-2,8.3-0.6,10.3,3.3
	C251.1,151.5,249.9,156,245.8,158.1z"/>
<polyline class="st25" points="258.7,204 257.2,202.9 253.1,183.3 256.7,186.8 258.7,204 "/>
<path class="st25" d="M242.6,143.6l1,0.3c0,0,3.7,11.8,1.7,14.4c-2,2.6,0,0,0,0l-2.1,0.7L242.6,143.6"/>
<path class="st17" d="M178.2,152.8c6-4.4,21.8-10.8,62.5-12.8c0,0,6,12.7,0.6,24.3l-49.1-0.6c-4.8-0.1-9.6-1.5-13.7-4v0
	C175.9,158.1,175.8,154.6,178.2,152.8z"/>
<path class="st16" d="M242.5,143.6c-0.4-1-0.8-2-1.2-3c-0.2-0.4-0.4-0.6-0.8-0.6c-4.5,0.2-9.1,0.4-13.6,0.6c-0.6,0-0.7,0.2-0.5,0.7
	c0.4,1,0.8,2,1.2,2.9l3.5,10.6l-2.2,9.5l0.2-0.4c0,0.1,0,0.3,0.1,0.3c0.7-0.1,1.4,0,2.1,0.1c3.3,0.3,6.8,0.3,10.1,0.6
	c0.4,0,0.5-0.1,0.6-0.5c0.1-0.6,0.3-1.2,0.5-1.8c0.4-1.7,1.1-3.4,1.2-5.1c0.2-1.8,0.1-3.6,0.1-5.3c0-1.8-0.5-3.6-0.7-5.4
	C242.9,145.7,242.9,144.6,242.5,143.6z"/>
<path class="st50" d="M212.4,116.6c-0.5,0.6-1.1,1-1.9,1.1c-3,0.4-6,0.8-9,1.2c-0.8,0.1-1.5,0.3-2.3,0.1c-1.2-0.3-2.2-1.3-2.4-2.6
	c-0.3-2.4-0.7-4.9-1-7.3c-0.1-0.9-0.2-1.8-0.4-2.7c-0.3-1.8,0.9-3.5,3-3.7c3.2-0.4,6.3-0.8,9.5-1.2c0.8-0.1,1.6-0.1,2.3,0.4
	c-0.6,0.5-1.4,0.7-2.1,1.1c-1.4,0.7-2.8,1.3-4.1,2c-0.1,0.1-0.1,0.1,0,0.2c-0.7,0.2-1.4,0.2-2,0.4c-0.6,0.2-1.2,0.2-1.8,0.4
	c-0.2,0.1-0.6,0.1-0.6,0.6c0,0.1,0,0.2,0,0.3c0.2,1.8,0.4,3.6,0.7,5.5c0.1,0.7,0.1,1.5,0.4,2.2c0.1,0.3,0.4,0.2,0.6,0.3
	c1.2,0.1,2.5-0.1,3.7-0.2c0,0.3,0.3,0.3,0.4,0.3c1.4,0.4,2.9,0.8,4.3,1.2C210.6,116.2,211.5,116.5,212.4,116.6z"/>
<path class="st50" d="M206,135.3c-0.7,0.9-1.7,1-2.7,1.2c-2.6,0.3-5.3,0.7-7.9,1.1c-0.8,0.1-1.6,0.4-2.4,0.2
	c-1.7-0.4-2.4-1.4-2.6-3.1c-0.3-2.4-0.6-4.7-0.9-7.1c-0.1-1-0.3-2-0.4-3c-0.1-1.5,0.9-3,2.7-3.2c3.3-0.5,6.7-0.9,10-1.4
	c0.7-0.1,1.4,0,2.1,0.4c0,0.1,0,0.2-0.1,0.2c-0.6,0.3-1.2,0.6-1.8,0.9c-1.5,0.7-2.9,1.4-4.4,2.1c-0.1,0-0.1,0.1-0.1,0.2c0,0,0,0,0,0
	c0,0-0.1,0.1-0.1,0.1c-1.2,0.1-2.4,0.4-3.6,0.7c-0.3,0.1-0.6,0.2-0.5,0.6c0.4,2.6,0.7,5.3,1.1,7.9c0.2,0.3,0.5,0.3,0.8,0.3
	c1.1,0,2.2-0.1,3.3-0.2c0.2,0.2,0.4,0.2,0.7,0.3c1.4,0.4,2.7,0.7,4.1,1.1C204.1,134.8,205,135.1,206,135.3z"/>
<path class="st50" d="M223.3,133.1c-0.5,0.6-1.2,0.8-2,1c-2.4,0.3-4.8,0.6-7.2,1c-1,0.1-2.1,0.4-3.1,0.4c-1.7,0.1-3-1.2-3.2-3
	c-0.3-2.6-0.7-5.2-1-7.8c-0.1-1-0.4-1.9-0.2-3c0.2-1.2,1.2-2.3,2.3-2.5c1.3-0.2,2.6-0.4,4-0.6c1.5-0.2,3.1-0.4,4.6-0.6
	c0.7-0.1,1.5-0.2,2.2-0.3c0.6,0,1.2,0.1,1.7,0.5c-1,0.5-2,1-3,1.5c-1.2,0.6-2.5,1.1-3.6,1.8c-0.1,0-0.2,0.1-0.3,0.1
	c-1.1,0.2-2.3,0.4-3.3,0.8c-0.2,0.1-0.5,0.1-0.4,0.5c0.3,2.1,0.5,4.2,0.9,6.4c0.1,0.5,0,1.1,0.3,1.6c0,0.2,0.2,0.1,0.3,0.2
	c1.2,0.2,2.4-0.1,3.6-0.2c0,0.1,0.1,0.1,0.2,0.2c2.3,0.6,4.6,1.2,6.9,1.9C223,132.8,223.2,132.8,223.3,133.1z"/>
<path class="st52" d="M223.3,133.1c-0.1-0.2-0.3-0.2-0.5-0.3c-2.3-0.6-4.6-1.3-6.9-1.9c-0.1,0-0.1-0.1-0.2-0.2
	c1.2-0.1,2.3-0.4,3.5-0.7c0.3-0.1,0.6-0.1,0.7-0.5c-0.2-1.6-0.4-3.2-0.6-4.7c-0.2-1.1-0.2-2.2-0.5-3.3c-0.1-0.2-0.2-0.2-0.4-0.2
	c-0.6-0.1-1.2,0-1.8,0c-0.7,0-1.3,0.2-2,0.1c1.2-0.7,2.4-1.2,3.6-1.8c1-0.5,2-1,3-1.5c0.8,0.4,1.2,1,1.4,1.9c0.2,1.3,0.4,2.6,0.6,4
	c0.3,2.3,0.6,4.5,0.9,6.8C224.3,131.7,224,132.5,223.3,133.1z"/>
<path class="st52" d="M206,135.3c-1-0.3-1.9-0.5-2.9-0.8c-1.4-0.4-2.7-0.7-4.1-1.1c-0.2-0.1-0.5-0.1-0.7-0.3
	c0.1-0.1,0.2-0.1,0.3-0.1c1.2-0.1,2.3-0.4,3.4-0.7c0.2-0.1,0.5-0.1,0.4-0.5c-0.2-1.6-0.4-3.2-0.6-4.8c-0.1-1-0.3-2-0.4-3
	c0-0.4-0.3-0.4-0.6-0.4c-1.1-0.1-2.3,0-3.4,0.1c0-0.1,0-0.2,0.1-0.2c1.5-0.7,2.9-1.4,4.4-2.1c0.6-0.3,1.2-0.6,1.8-0.9
	c0.1,0,0.1-0.1,0.1-0.2c1,0.6,1.4,1.5,1.6,2.5c0.4,2.9,0.8,5.7,1.1,8.6c0.1,0.6,0.2,1.3,0.2,2C206.7,134.2,206.5,134.8,206,135.3z"
	/>
<path class="st52" d="M204,105.1c-0.1-0.1-0.1-0.1,0-0.2c1.4-0.7,2.8-1.3,4.1-2c0.7-0.4,1.5-0.5,2.1-1.1c1,0.5,1.4,1.4,1.5,2.4
	c0.4,2.8,0.8,5.7,1.2,8.5c0.1,0.9,0.4,1.7,0.2,2.6c-0.1,0.5-0.3,1-0.7,1.3c-0.9-0.1-1.7-0.4-2.6-0.7c-1.4-0.4-2.9-0.8-4.3-1.2
	c-0.2,0-0.4,0-0.4-0.3c0.1,0,0.1,0,0.2-0.1c1.1-0.2,2.2-0.3,3.3-0.7c0.2-0.1,0.4-0.1,0.4-0.4c0-1-0.2-2.1-0.4-3.1
	c-0.2-1.6-0.4-3.2-0.7-4.9c-0.1-0.3-0.3-0.3-0.6-0.3C206.1,104.9,205,105,204,105.1z"/>
<path class="st32" d="M198.7,178.6c-1.7-0.2-3.4-0.4-5-0.6c-1.4-0.2-2.8-0.3-4.2-0.5c-1-0.1-2-0.3-2.9-0.4c0.4-1.2,1.1-2.2,2.1-3
	c2.1-1.8,5.5-1.8,7.7,0C197.8,175.2,198.6,176.7,198.7,178.6z"/>
<path class="st50" d="M198.7,178.6c0-1.9-0.9-3.5-2.3-4.6c-2.3-1.8-5.6-1.7-7.7,0c-1,0.8-1.7,1.8-2.1,3c-0.6-0.1-1.2-0.2-1.8-0.2
	c-0.3,0-0.2-0.1-0.2-0.3c0.3-0.9,0.7-1.8,1.2-2.5c0.8-1.1,1.8-1.9,3.1-2.5c1.8-0.8,3.6-1,5.5-0.6c1.8,0.4,3.3,1.3,4.5,2.8
	c1.2,1.4,1.8,3,1.8,4.8c0,0.2,0,0.4-0.3,0.4C199.8,178.8,199.2,178.7,198.7,178.6z"/>
<path class="st53" d="M207.8,105.3c0.2,1.6,0.5,3.2,0.7,4.9c0.1,1,0.3,2.1,0.4,3.1c-0.2-0.1-0.5-0.2-0.7-0.1
	c-1.8,0.1-3.5,0.2-5.3,0.6c-0.7,0.2-1.5,0.3-2.1,0.7c-0.3-0.7-0.3-1.4-0.4-2.2c-0.3-1.8-0.5-3.6-0.7-5.5c0-0.1,0-0.2,0-0.3
	C202.4,106.7,205.1,106.3,207.8,105.3z M203.7,112.2c0.7-0.1,1.2-0.2,1.8-0.3c0.1,0,0.2-0.1,0.2-0.1c0.3-0.6,0.8-1.1,0.9-1.7
	c0.1-0.4-0.3-0.8-0.4-1.3c-0.1-0.1-0.1-0.3-0.2-0.4c-0.1-0.1-0.1-0.2-0.2-0.3c-0.6-0.3-1.3-0.4-1.9-0.5c-0.3-0.1-0.6,0.4-0.9,0.5
	c-0.2,0.1-0.3,0.3-0.5,0.4c-0.3,0.2-0.4,0.5-0.4,0.8c0,0.4,0,0.8-0.1,1.2c-0.1,0.3,0.1,0.5,0.3,0.7c0.3,0.3,0.7,0.6,1,0.9
	C203.4,112.1,203.5,112.2,203.7,112.2z"/>
<path class="st54" d="M207.8,105.3c-2.7,1-5.4,1.3-8.2,1.1c-0.1-0.4,0.3-0.5,0.6-0.6c0.6-0.2,1.2-0.3,1.8-0.4c0.7-0.2,1.4-0.2,2-0.4
	c1.1,0,2.2-0.2,3.2-0.1C207.5,105,207.7,105,207.8,105.3z"/>
<path class="st54" d="M200.7,114.4c0.7-0.4,1.4-0.6,2.1-0.7c1.7-0.4,3.5-0.5,5.3-0.6c0.2,0,0.5,0.1,0.7,0.1c0,0.3-0.2,0.3-0.4,0.4
	c-1.1,0.4-2.2,0.5-3.3,0.7c-0.1,0-0.1,0-0.2,0.1c-1.2,0.1-2.5,0.3-3.7,0.2C201.1,114.6,200.8,114.7,200.7,114.4z"/>
<path class="st53" d="M201.4,124c0.1,1,0.3,2,0.4,3c0.2,1.6,0.4,3.2,0.6,4.8c-0.3,0-0.6-0.1-1-0.1c-1.4,0.1-2.7,0.1-4,0.4
	c-1.1,0.2-2.2,0.3-3.2,0.9c-0.4-2.6-0.7-5.3-1.1-7.9c0.3-0.1,0.6,0.1,1,0.1c1.5,0,2.9-0.2,4.4-0.4
	C199.5,124.6,200.5,124.3,201.4,124z M197.6,130.8c0.5-0.2,1.3,0.1,1.8-0.5c0.4-0.5,0.9-1.1,0.9-1.7c0-0.6-0.3-1.4-0.8-1.9
	c-0.5-0.5-1.3-0.6-2-0.6c-0.6,0-1.2,0.6-1.6,1c-0.5,0.5-0.2,1.3-0.3,2C195.5,129.6,196.9,130.8,197.6,130.8z"/>
<path class="st54" d="M201.4,124c-1,0.3-1.9,0.6-2.9,0.7c-1.5,0.2-2.9,0.4-4.4,0.4c-0.3,0-0.6-0.2-1-0.1c0-0.4,0.3-0.5,0.5-0.6
	c1.2-0.3,2.4-0.6,3.6-0.7c0,0,0.1-0.1,0.1-0.1c0,0,0,0,0,0c1.1-0.1,2.3-0.2,3.4-0.1C201.1,123.7,201.4,123.6,201.4,124z"/>
<path class="st54" d="M194.3,133.1c1-0.6,2.1-0.6,3.2-0.9c1.3-0.3,2.7-0.3,4-0.4c0.3,0,0.6,0.1,1,0.1c0,0.3-0.2,0.4-0.4,0.5
	c-1.1,0.4-2.2,0.6-3.4,0.7c-0.1,0-0.2,0-0.3,0.1c-1.1,0.1-2.2,0.3-3.3,0.2C194.7,133.3,194.4,133.3,194.3,133.1z"/>
<path class="st52" d="M197.4,123.8c0,0-0.1,0.1-0.1,0.1C197.3,123.8,197.4,123.8,197.4,123.8z"/>
<path class="st53" d="M218.9,121.5c0.3,1.1,0.3,2.2,0.5,3.3c0.3,1.6,0.4,3.2,0.6,4.7c-0.3-0.1-0.6-0.2-1-0.2c-0.9,0-1.8,0.1-2.7,0.2
	c-1.4,0.1-2.7,0.4-4,0.8c-0.2,0.1-0.4,0-0.4,0.3c-0.3-0.5-0.2-1.1-0.3-1.6c-0.3-2.1-0.6-4.2-0.9-6.4c0.6,0,1.1,0.1,1.7,0.1
	c1.5-0.1,2.9-0.2,4.3-0.6C217.4,122.1,218.2,122.1,218.9,121.5z M213.1,126.3c0,0.8,1.2,2.2,1.8,2.1c0.7-0.1,1.4,0,1.9-0.5
	c0.5-0.4,0.9-1.1,0.9-1.7c0-0.6-0.3-1.3-0.7-1.8c-0.5-0.5-1.3-0.6-1.9-0.7c-0.7-0.1-1.2,0.6-1.7,1
	C212.9,125.2,213.3,125.9,213.1,126.3z"/>
<path class="st54" d="M218.9,121.5c-0.6,0.5-1.4,0.6-2.2,0.7c-1.4,0.3-2.9,0.4-4.3,0.6c-0.5,0-1.1,0-1.7-0.1
	c-0.1-0.4,0.2-0.4,0.4-0.5c1.1-0.4,2.2-0.6,3.3-0.8c0.1,0,0.2-0.1,0.3-0.1c0.7,0.1,1.3-0.1,2-0.1c0.6,0,1.2-0.1,1.8,0
	C218.7,121.3,218.8,121.4,218.9,121.5z"/>
<path class="st54" d="M211.9,130.8c0-0.3,0.3-0.3,0.4-0.3c1.3-0.4,2.7-0.6,4-0.8c0.9-0.1,1.8-0.2,2.7-0.2c0.3,0,0.7,0,1,0.2
	c-0.1,0.4-0.5,0.4-0.7,0.5c-1.1,0.3-2.3,0.5-3.5,0.7c-1.2,0.1-2.4,0.4-3.6,0.2C212.1,130.9,211.9,131,211.9,130.8z"/>
<path class="st32" d="M203.7,112.2c-0.1,0-0.3-0.1-0.4-0.3c-0.3-0.3-0.7-0.6-1-0.9c-0.2-0.2-0.3-0.4-0.3-0.7c0.1-0.4,0-0.8,0.1-1.2
	c0-0.3,0.1-0.6,0.4-0.8c0.2-0.1,0.3-0.3,0.5-0.4c0.3-0.2,0.6-0.6,0.9-0.5c0.6,0.1,1.3,0.3,1.9,0.5c0.1,0.1,0.2,0.2,0.2,0.3
	c0.1,0.1,0.1,0.3,0.2,0.4c0.2,0.4,0.6,0.9,0.4,1.3c-0.2,0.6-0.6,1.2-0.9,1.7c0,0.1-0.2,0.1-0.2,0.1
	C204.9,112,204.3,112.1,203.7,112.2z M205.4,108.5c-0.6,0.3-1,0.2-1.6-0.4c0.1,0.4-0.2,0.5-0.4,0.7c-0.3,0.3-0.5,0.1-0.9,0.2
	c0.5,0.1,0.3,0.4,0.4,0.7c0,0.4-0.1,0.6-0.4,0.8c0.4-0.2,0.5,0.1,0.8,0.2c0.4,0.2,0.3,0.4,0.4,0.8c0-0.5,0.4-0.4,0.6-0.5
	c0.4,0,0.7-0.2,0.9-0.6c0.1-0.3,0.2-0.6,0.8-0.5C205.3,109.5,205.1,109,205.4,108.5z"/>
<path class="st32" d="M197.6,130.8c-0.6,0-2.1-1.2-2-1.6c0.1-0.7-0.2-1.5,0.3-2c0.4-0.5,1-1,1.6-1c0.7,0,1.5,0.1,2,0.6
	c0.5,0.5,0.8,1.2,0.8,1.9c0,0.6-0.5,1.2-0.9,1.7C198.9,130.9,198.1,130.6,197.6,130.8z M197.4,130.2c0.4-0.5,0.9-0.6,1.6-0.2
	c-0.3-0.4-0.2-0.6,0-0.9c0.1-0.3,0.3-0.5,0.7-0.5c-0.4,0-0.5-0.3-0.7-0.6c-0.1-0.3-0.1-0.6,0-0.9c-0.4,0.7-0.8,0.1-1.2,0.1
	c-0.2,0-0.1-0.4-0.2-0.4c-0.3,0,0.1,0.4-0.1,0.5c-0.4,0.1-0.6,0.7-1.2,0.3c0.6,0.6,0.4,1.1,0,1.6
	C196.8,129.1,197.3,129.6,197.4,130.2z"/>
<path class="st32" d="M213.1,126.3c0.2-0.4-0.2-1.1,0.3-1.5c0.5-0.4,1-1.1,1.7-1c0.7,0.1,1.5,0.1,1.9,0.7c0.4,0.5,0.7,1.2,0.7,1.8
	c0,0.6-0.4,1.3-0.9,1.7c-0.5,0.5-1.3,0.4-1.9,0.5C214.2,128.5,213,127.2,213.1,126.3z M213.6,126.8c0.8,0,1.2,0.4,1.2,1
	c0.3-0.5,0.9-0.6,1.6-0.2c-0.3-0.4-0.1-0.6,0-0.9c0.1-0.4,0.4-0.4,0.7-0.5c-0.7-0.2-0.9-0.7-0.7-1.5c-0.4,0.5-0.8,0.1-1.2,0.1
	c-0.2,0,0-0.4-0.3-0.4c-0.3,0,0.1,0.4-0.2,0.5c-0.4,0.1-0.6,0.7-1.1,0.4C214.2,125.7,214.2,126.4,213.6,126.8z"/>
<path class="st55" d="M205.4,108.5c-0.3,0.5-0.1,1,0.7,1.5c-0.6-0.2-0.6,0.2-0.8,0.5c-0.2,0.4-0.5,0.6-0.9,0.6c-0.3,0-0.6,0-0.6,0.5
	c0-0.4,0-0.6-0.4-0.8c-0.3-0.1-0.4-0.4-0.8-0.2c0.3-0.2,0.4-0.4,0.4-0.8c0-0.3,0.1-0.6-0.4-0.7c0.3-0.1,0.6,0.1,0.9-0.2
	c0.2-0.2,0.5-0.3,0.4-0.7C204.4,108.7,204.8,108.8,205.4,108.5z M204.9,110c-0.1,0-0.3-0.1-0.3,0.1c0,0.2,0.1,0.4,0.3,0.4
	c0.2,0.1,0.2-0.2,0.2-0.3C205.3,110,205.1,110,204.9,110z M203.9,110.3c0-0.1-0.1-0.2-0.2-0.2c-0.1,0-0.3,0-0.3,0.3
	c0,0.2,0.2,0.3,0.3,0.3C203.9,110.7,203.8,110.4,203.9,110.3z M204.8,108.9c-0.2,0-0.4-0.3-0.6-0.1c-0.1,0.1,0,0.4,0.1,0.5
	C204.6,109.4,204.6,109.1,204.8,108.9z M205.2,109.5c0-0.1-0.1-0.2-0.3-0.2c-0.1,0-0.2,0.2-0.3,0.3c0,0.2,0.1,0.2,0.3,0.2
	C205.1,109.8,205.2,109.7,205.2,109.5z M204.3,110.3c-0.1,0.2-0.4,0.3-0.2,0.5c0.1,0.1,0.4,0,0.5-0.1
	C204.7,110.5,204.4,110.4,204.3,110.3z M203.2,110.1c0.2-0.1,0.5,0,0.5-0.3c0-0.1-0.2-0.3-0.4-0.3
	C203.1,109.6,203.2,109.8,203.2,110.1z M204,109.1c-0.1-0.1,0-0.3-0.2-0.2c-0.1,0-0.3,0.1-0.3,0.2c0,0.2,0.2,0.2,0.3,0.2
	C204,109.4,203.9,109.2,204,109.1z"/>
<path class="st55" d="M197.4,130.2c-0.1-0.6-0.6-1.1-1.1-1c0.4-0.5,0.6-1.1,0-1.6c0.6,0.4,0.8-0.2,1.2-0.3c0.2-0.1-0.1-0.5,0.1-0.5
	c0.2,0,0,0.4,0.2,0.4c0.4,0,0.8,0.6,1.2-0.1c-0.1,0.3-0.2,0.6,0,0.9c0.1,0.3,0.2,0.6,0.7,0.6c-0.4,0.1-0.6,0.2-0.7,0.5
	c-0.1,0.3-0.3,0.5,0,0.9C198.3,129.6,197.7,129.7,197.4,130.2z M197.6,127.9c0-0.1,0-0.3-0.2-0.3c-0.2,0-0.4,0.1-0.4,0.3
	c0,0.2,0.2,0.2,0.4,0.2C197.6,128.1,197.6,128,197.6,127.9z M197.9,128.1c0.2-0.1,0.4-0.2,0.4-0.4c0-0.1-0.3-0.2-0.4-0.2
	C197.6,127.6,197.9,127.8,197.9,128.1z M198.3,129.4c-0.1-0.2-0.2-0.5-0.5-0.4c-0.1,0-0.2,0.3-0.2,0.4
	C197.9,129.7,198.1,129.4,198.3,129.4z M198.9,128.6c-0.2,0.2-0.5-0.1-0.6,0.2c0,0.1,0.1,0.4,0.2,0.4
	C198.8,129.2,198.8,128.9,198.9,128.6z M197.6,129c0-0.2-0.1-0.2-0.2-0.2c-0.1,0-0.3,0-0.3,0.2c0,0.2,0.2,0.3,0.3,0.3
	C197.5,129.4,197.5,129.1,197.6,129z M198.5,128.4c0.2,0,0.3,0.1,0.3-0.2c0-0.1-0.1-0.3-0.2-0.3c-0.2,0-0.3,0.2-0.3,0.3
	C198.3,128.4,198.4,128.3,198.5,128.4z M197,128.2c-0.2,0-0.2,0.2-0.2,0.3c0,0.1-0.1,0.3,0.1,0.2c0.2,0,0.4-0.1,0.4-0.3
	C197.3,128.3,197.2,128.2,197,128.2z"/>
<path class="st55" d="M213.6,126.8c0.6-0.4,0.6-1.1,0.2-1.6c0.5,0.3,0.8-0.2,1.1-0.4c0.2-0.1-0.1-0.4,0.2-0.5c0.2,0,0,0.4,0.3,0.4
	c0.4,0.1,0.8,0.4,1.2-0.1c-0.3,0.7,0,1.3,0.7,1.5c-0.3,0.1-0.6,0.2-0.7,0.5c-0.1,0.3-0.3,0.5,0,0.9c-0.7-0.4-1.3-0.3-1.6,0.2
	C214.8,127.2,214.4,126.8,213.6,126.8z M215.5,125c-0.1,0.1-0.2,0-0.2,0.2c0,0.2,0,0.4,0.2,0.4c0.1,0,0.3-0.2,0.3-0.3
	C215.8,125.1,215.6,125.2,215.5,125z M215.8,126.9c-0.1-0.1-0.3-0.3-0.4-0.3c-0.2,0-0.2,0.2-0.2,0.4c0,0.1,0.1,0.2,0.2,0.1
	C215.6,127.1,215.8,127.1,215.8,126.9z M214.4,125.7c0,0.3-0.2,0.5,0,0.6c0.2,0.1,0.3-0.1,0.5-0.3
	C214.7,126,214.6,125.9,214.4,125.7z M215.1,125.4c-0.1,0,0.1-0.3-0.1-0.3c-0.1,0-0.3,0.1-0.4,0.3c0,0.2,0.2,0.2,0.3,0.3
	C215.1,125.8,215.1,125.6,215.1,125.4z M215.8,125.9c0.2,0.1,0.5,0.2,0.6,0c0.1-0.2-0.1-0.4-0.3-0.5
	C215.9,125.6,215.9,125.8,215.8,125.9z M215.7,126.3c0.1,0.2,0.1,0.5,0.4,0.5c0.2,0,0.2-0.2,0.3-0.5
	C216.1,126.3,215.9,126.3,215.7,126.3z M215,126.7c0-0.1,0.1-0.3-0.1-0.3c-0.2,0-0.4,0-0.4,0.2c0,0.2,0.2,0.2,0.3,0.3
	C215,127,215,126.9,215,126.7z"/>
<path class="st32" d="M204.9,110c0.2,0,0.3,0,0.2,0.2c-0.1,0.1,0,0.4-0.2,0.3c-0.2,0-0.3-0.2-0.3-0.4
	C204.7,109.9,204.9,110,204.9,110z"/>
<path class="st32" d="M203.9,110.3c-0.1,0.1,0,0.3-0.2,0.3c-0.2,0-0.3-0.1-0.3-0.3c0-0.2,0.2-0.2,0.3-0.3
	C203.9,110.1,203.9,110.2,203.9,110.3z"/>
<path class="st32" d="M204.8,108.9c-0.2,0.1-0.2,0.5-0.4,0.4c-0.2-0.1-0.2-0.4-0.1-0.5C204.4,108.6,204.6,108.9,204.8,108.9z"/>
<path class="st32" d="M205.2,109.5c0,0.3-0.1,0.3-0.2,0.3c-0.1,0-0.3,0-0.3-0.2c0-0.1,0.1-0.3,0.3-0.3
	C205.1,109.2,205.2,109.4,205.2,109.5z"/>
<path class="st32" d="M204.3,110.3c0.1,0.2,0.4,0.2,0.3,0.4c-0.1,0.1-0.3,0.2-0.5,0.1C203.9,110.6,204.2,110.5,204.3,110.3z"/>
<path class="st32" d="M203.2,110.1c0-0.2-0.1-0.5,0.1-0.6c0.1,0,0.3,0.1,0.4,0.3C203.7,110.1,203.4,110,203.2,110.1z"/>
<path class="st32" d="M204,109.1c0,0.1,0,0.3-0.2,0.3c-0.1,0-0.3,0-0.3-0.2c0-0.2,0.2-0.2,0.3-0.2C204,108.8,203.9,109.1,204,109.1z
	"/>
<path class="st32" d="M197.6,127.9c0,0.1,0,0.2-0.2,0.2c-0.1,0-0.4,0-0.4-0.2c0-0.2,0.2-0.3,0.4-0.3
	C197.6,127.5,197.5,127.7,197.6,127.9z"/>
<path class="st32" d="M197.9,128.1c0-0.2-0.3-0.4,0-0.6c0.1-0.1,0.3,0,0.4,0.2C198.3,127.9,198.1,128,197.9,128.1z"/>
<path class="st32" d="M198.3,129.4c-0.2,0-0.5,0.3-0.6,0c-0.1-0.1,0-0.4,0.2-0.4C198.1,129,198.2,129.2,198.3,129.4z"/>
<path class="st32" d="M198.9,128.6c-0.1,0.3-0.1,0.6-0.4,0.6c-0.1,0-0.2-0.3-0.2-0.4C198.4,128.5,198.6,128.8,198.9,128.6z"/>
<path class="st32" d="M197.6,129c-0.1,0.1,0,0.4-0.2,0.4c-0.2,0-0.3-0.2-0.3-0.3c0-0.2,0.2-0.2,0.3-0.2
	C197.5,128.8,197.6,128.8,197.6,129z"/>
<path class="st32" d="M198.5,128.4c-0.1,0-0.3,0-0.2-0.1c0-0.2,0.1-0.4,0.3-0.3c0.1,0,0.2,0.2,0.2,0.3
	C198.8,128.4,198.7,128.4,198.5,128.4z"/>
<path class="st32" d="M197,128.2c0.2,0,0.3,0.1,0.3,0.3c0,0.2-0.2,0.2-0.4,0.3c-0.2,0.1-0.1-0.1-0.1-0.2
	C196.8,128.3,196.8,128.2,197,128.2z"/>
<path class="st32" d="M215.5,125c0.1,0.1,0.4,0.1,0.4,0.3c0,0.2-0.2,0.3-0.3,0.3c-0.2,0-0.2-0.3-0.2-0.4
	C215.2,125.1,215.4,125.1,215.5,125z"/>
<path class="st32" d="M215.8,126.9c0,0.2-0.2,0.2-0.3,0.3c-0.1,0-0.3,0-0.2-0.1c0-0.1,0-0.4,0.2-0.4
	C215.5,126.6,215.7,126.8,215.8,126.9z"/>
<path class="st32" d="M214.4,125.7c0.2,0.1,0.4,0.2,0.5,0.3c-0.1,0.2-0.3,0.3-0.5,0.3C214.2,126.2,214.3,126,214.4,125.7z"/>
<path class="st32" d="M215.1,125.4c0,0.1,0,0.3-0.2,0.3c-0.1,0-0.3-0.1-0.3-0.3c0-0.2,0.2-0.3,0.4-0.3
	C215.2,125.1,215,125.4,215.1,125.4z"/>
<path class="st32" d="M215.8,125.9c0.1-0.2,0.2-0.3,0.3-0.5c0.2,0.1,0.4,0.3,0.3,0.5C216.2,126.1,216,126,215.8,125.9z"/>
<path class="st32" d="M215.7,126.3c0.2,0,0.4,0,0.6,0c0,0.2-0.1,0.4-0.3,0.5C215.8,126.8,215.8,126.5,215.7,126.3z"/>
<path class="st32" d="M215,126.7c0,0.1,0,0.3-0.2,0.3c-0.1,0-0.3-0.1-0.3-0.3c0-0.2,0.2-0.2,0.4-0.2
	C215.1,126.5,215,126.6,215,126.7z"/>
<g>
	<path class="st18" d="M121.7,225.3l19.6,45.9h-5l-14.6-34.9L107,271.2h-5L121.7,225.3z"/>
	<path class="st18" d="M154.1,249.6l-2.9-4.4l8.9-13.7l5.3,0.1L154.1,249.6z M153,251.2v20h-4.8v-20l-16.1-25.9h5.5L153,251.2z"/>
	<path class="st18" d="M179.6,225.3l19.6,45.9h-5l-14.6-34.9l-14.7,34.9h-5L179.6,225.3z"/>
	<polygon class="st18" points="163.6,225.3 160.8,229.9 166.4,229.9 169.2,225.3 	"/>
	<path class="st18" d="M100.7,247.4c-0.2-1.8-0.7-3.6-1.3-5.4c-1.5-4.4-3.9-8.2-7.3-11.3c-2.1-1.9-4.5-3.5-7-4.8
		c-0.3-0.1-0.5-0.1-0.8,0c-1,0.4-2,0.9-2.9,1.4c-1.9,0.9-3.8,2-5.6,3.2c-2,1.4-3.9,2.8-5.9,4.3c-0.5,0.4-1.1,0.8-1.6,1.2
		c-0.4,0.3-0.6,0.3-0.9,0c-0.7-0.6-1.4-1.1-2.1-1.6C61.8,231.4,58,229,54,227c-0.8-0.4-1.7-0.8-2.5-1.2c-0.3-0.1-0.6-0.1-0.9,0.1
		c-0.1,0.1-0.3,0.2-0.4,0.3c-1,0.6-2,1.1-3,1.8c-1.7,1.2-3.3,2.5-4.8,4c-1.8,1.9-3.4,4-4.6,6.4c-2,3.9-2.9,8.1-3,12.5
		c0,1.4,0.1,2.7,0.2,4.1c0.1,1.2,0.2,2.5,0.5,3.7c0.5,2.4,1.3,4.8,2.6,6.9c1.1,1.9,2.3,3.8,3.5,5.7h8.3c-0.2-0.5-0.3-1-0.5-1.5
		c-1-2.8-2-5.7-2.7-8.6c-0.4-1.6-0.8-3.3-1-5c-0.1-1-0.3-2-0.3-3.1c0-0.6-0.1-1.1-0.1-1.7c0.1-1,0.2-2.1,0.3-3.1
		c0.1-1.1,0.3-2.1,0.6-3.1c0.5-1.7,1.4-3.1,2.7-4.3c1.5-1.3,3.2-2.1,5.2-2.3c1.5-0.2,2.9,0.2,4.1,1.1c0.9,0.7,1.5,1.6,2,2.6
		c0.7,1.4,1.1,2.9,1.5,4.4c0.5,2.1,0.6,4.2,0.7,6.3c0,1.5,0,3,0,4.5c0,1.6-0.1,3.1-0.1,4.7c0,1.5-0.1,7-0.3,8.6
		c-0.1,0.4,0,0.4,0.3,0.4c3.7,0,7.4,0,11.1,0c0.1,0,0.1,0,0.2,0c0.1,0,0.2,0,0.2-0.2c0,0,0-0.1,0-0.1c-0.1-0.9-0.2-5.7-0.2-6.6
		c-0.1-1.6-0.2-3.3-0.2-4.9c-0.1-2-0.1-4.1,0-6.1c0.1-2,0.3-3.9,0.6-5.9c0.3-1.4,0.6-2.8,1.1-4.1c0.5-1.3,1.2-2.4,2.2-3.4
		c1.1-1,2.4-1.6,3.9-1.6c0.8,0,1.5,0.1,2.3,0.4c1.8,0.6,3.4,1.6,4.6,3.1c1.1,1.5,1.7,3.2,2,5c0.2,1.4,0.3,2.8,0.4,4.2
		c0.1,0.6,0,1.2,0,1.7c-0.1,1.3-0.2,2.6-0.5,4c-0.4,2.5-1,5-1.8,7.4c-0.7,2.4-1.6,4.7-2.4,7.1h8.4c1-1.7,2-3.3,3-5
		c1.4-2.3,2.4-4.9,2.9-7.5c0.4-2,0.6-4.1,0.8-6.1C101,250.8,100.9,249.1,100.7,247.4z"/>
	<path class="st17" d="M225.2,228.3c-2.1,0.2-4,0.7-5.8,1.5c-2.3,1.1-4.3,2.5-5.9,4.2c-1.6,1.8-2.9,3.8-3.9,6.2
		c-0.9,2.4-1.4,4.8-1.4,7.4c0,2.6,0.5,5.1,1.4,7.4c0.9,2.3,2.2,4.4,3.9,6.1c1.6,1.7,3.6,3.1,5.9,4.2c1.8,0.8,3.8,1.3,5.8,1.5v4.1
		c-2.6-0.2-5.1-0.8-7.4-1.7c-2.9-1.2-5.4-2.8-7.5-4.9c-2.1-2.1-3.8-4.6-5-7.4c-1.2-2.8-1.8-5.9-1.8-9.2c0-3.3,0.6-6.3,1.9-9.2
		c1.2-2.9,2.9-5.3,5.1-7.5c2.1-2.1,4.6-3.8,7.5-5c2.3-1,4.8-1.6,7.4-1.8V228.3z M227.6,266.9c2.6-0.1,4.9-0.6,7-1.5
		c2.3-1,4.3-2.4,5.9-4.1c1.6-1.7,2.9-3.8,3.8-6.1c0.9-2.3,1.3-4.8,1.3-7.5c0-2.8-0.4-5.3-1.3-7.7c-0.9-2.4-2.2-4.4-3.8-6.2
		c-1.6-1.7-3.6-3.1-5.9-4.1c-2.1-0.9-4.5-1.4-7.1-1.5v-4.1c3.1,0.1,6,0.7,8.7,1.8c2.9,1.2,5.3,2.8,7.4,5c2.1,2.1,3.7,4.6,4.9,7.4
		c1.2,2.9,1.8,5.9,1.8,9.2c0,3.4-0.6,6.5-1.8,9.3c-1.2,2.9-2.9,5.3-5,7.4c-2.1,2.1-4.6,3.7-7.4,4.9c-2.7,1.1-5.6,1.7-8.6,1.7V266.9z
		"/>
	<path class="st17" d="M255.4,224l33.6,36.6v-35.1h4.8v47.2L260.2,236v35h-4.8V224z"/>
	<path class="st17" d="M300.6,225.6h4.8v41.5h20.5v4.1h-25.2V225.6z"/>
	<path class="st17" d="M332.7,225.6h4.8v45.6h-4.8V225.6z"/>
	<path class="st17" d="M344.3,224.2l33.6,36.6v-35.1h4.8v47.2l-33.6-36.6v35h-4.8V224.2z"/>
	<path class="st17" d="M389.5,267.1h28.1v4.1h-28L389.5,267.1z M389.5,225.6h28v4.1h-28V225.6z M389.5,245.7h26.9v4.1h-26.9V245.7z"
		/>
</g>
</svg>
